M48
;GenerationSoftware,Autodesk,EAGLE,9.6.2*%
;CreationDate,2022-06-27T15:17:35Z*%
FMAT,2
ICI,OFF
METRIC,TZ,000.000
T5C0.305
T4C0.381
T3C0.850
T2C0.950
T1C1.016
%
G90
M71
T1
X78713Y12950
X2716Y12950
X2716Y15490
X34774Y125940
X78713Y15490
X40714Y12950
X40714Y15490
X34774Y123400
X110771Y123400
X110771Y125940
X72773Y123400
X72773Y125940
T2
X22546Y53880
X14946Y53880
X14296Y63630
X52294Y63630
X90291Y75260
X23196Y63630
X60544Y53880
X52944Y53880
X98543Y53880
X61194Y63630
X90943Y53880
X90293Y63630
X99193Y63630
X14944Y85010
X22544Y85010
X23194Y75260
X14294Y75260
X60543Y85010
X61193Y75260
X52293Y75260
X90941Y85010
X52943Y85010
X98541Y85010
X99191Y75260
T3
X17346Y56480
X55344Y56480
X20144Y82410
X17344Y82410
X55343Y82410
X96143Y56480
X20146Y56480
X93343Y56480
X58143Y82410
X58144Y56480
X96141Y82410
X93341Y82410
T4
X9718Y110970
X11148Y106997
X10307Y108130
X24087Y108059
X27089Y105192
X51402Y30831
X48400Y33698
X103769Y27920
X102339Y31892
X103180Y30759
X89400Y30831
X103086Y105192
X26342Y31892
X47716Y110970
X49146Y106997
X48306Y108130
X62085Y108059
X65087Y105192
X27183Y30759
X13404Y30831
X86398Y33698
X10401Y33698
X27772Y27920
X65771Y27920
X64341Y31892
X65181Y30759
X85715Y110970
X87145Y106997
X86304Y108130
X100084Y108059
T5
X32746Y14000
X4826Y34290
X10719Y30841
X25150Y44403
X22629Y17772
X27008Y4216
X26492Y3810
X5969Y5715
X17097Y10193
X20513Y7615
X19718Y8875
X32250Y25766
X35306Y50800
X34082Y25766
X18244Y3769
X23904Y15725
X15916Y4115
X15448Y3632
X19517Y29614
X18796Y17780
X8636Y17780
X27546Y48186
X14999Y8009
X14757Y19355
X25301Y19688
X9540Y29083
X9901Y24094
X11186Y29797
X5898Y20335
X5895Y22824
X5908Y25392
X24387Y16957
X5862Y17783
X28596Y34260
X28646Y29210
X28651Y32316
X6746Y55000
X32258Y30797
X27686Y50800
X32248Y33391
X31496Y50800
X32263Y28280
X34036Y50800
X24765Y33528
X26416Y43561
X65527Y3823
X63124Y38732
X55397Y35179
X56286Y35179
X57302Y35179
X58191Y35179
X55397Y34290
X56286Y34290
X57302Y34290
X58191Y34290
X55397Y33274
X56286Y33274
X57302Y33274
X58191Y33274
X55397Y32385
X56286Y32385
X57302Y32385
X58191Y32385
X49083Y34115
X50023Y34895
X51382Y37729
X53030Y40996
X54534Y38976
X54734Y28545
X55334Y12189
X51298Y11521
X55141Y6223
X45072Y11539
X43058Y11539
X47147Y10074
X48118Y13495
X50015Y51481
X73919Y51890
X44794Y50750
X60355Y41902
X40044Y51500
X66906Y49449
X63604Y51862
X55181Y3053
X66061Y3023
X47431Y3413
X56741Y2973
X66586Y18998
X66583Y13833
X66567Y8554
X63901Y8613
X63851Y13913
X63821Y19023
X66655Y24982
X62736Y25154
X54675Y8625
X52440Y8389
X54942Y16123
X51970Y16867
X52986Y21747
X50707Y21681
X52750Y26433
X50987Y26364
X66086Y30318
X62682Y30499
X74808Y62177
X64775Y62939
X74554Y56843
X64775Y56716
X70109Y56716
X50027Y7246
X51480Y15408
X50645Y35766
X55910Y39685
X41087Y26137
X58194Y13386
X56568Y27683
X48209Y32238
X66618Y26643
X68228Y49483
X71264Y35279
X71274Y28261
X70728Y49483
X70744Y14000
X42824Y34290
X48717Y30841
X63148Y44403
X60627Y17772
X65006Y4216
X64491Y3810
X43967Y5715
X55095Y10193
X58511Y7615
X57716Y8875
X70249Y25766
X73304Y50800
X72080Y25766
X56242Y3769
X61902Y15725
X53914Y4115
X53447Y3632
X57516Y29614
X56794Y17780
X46634Y17780
X65545Y48186
X52997Y8009
X52756Y19355
X63299Y19688
X47539Y29083
X47899Y24094
X49185Y29797
X43896Y20335
X43894Y22824
X43906Y25392
X62385Y16957
X43861Y17783
X66594Y34260
X66644Y29210
X66649Y32316
X44744Y55000
X70256Y30797
X65684Y50800
X70246Y33391
X69494Y50800
X70261Y28280
X72034Y50800
X62763Y33528
X64414Y43561
X103525Y3823
X101122Y38732
X93396Y35179
X94285Y35179
X95301Y35179
X96190Y35179
X93396Y34290
X94285Y34290
X95301Y34290
X96190Y34290
X93396Y33274
X94285Y33274
X95301Y33274
X96190Y33274
X93396Y32385
X94285Y32385
X95301Y32385
X96190Y32385
X87081Y34115
X88021Y34895
X89380Y37729
X91029Y40996
X92532Y38976
X92733Y28545
X93332Y12189
X89296Y11521
X93139Y6223
X83071Y11539
X81056Y11539
X85146Y10074
X86116Y13495
X88014Y51481
X111917Y51890
X82793Y50750
X98354Y41902
X78043Y51500
X104905Y49449
X101603Y51862
X93179Y3053
X104059Y3023
X85429Y3413
X94739Y2973
X104584Y18998
X104581Y13833
X104566Y8554
X101899Y8613
X101849Y13913
X101819Y19023
X104653Y24982
X100735Y25154
X92673Y8625
X90438Y8389
X92940Y16123
X89968Y16867
X90984Y21747
X88706Y21681
X90748Y26433
X88985Y26364
X104084Y30318
X100680Y30499
X112806Y62177
X102773Y62939
X112552Y56843
X102773Y56716
X108107Y56716
X88025Y7246
X89478Y15408
X88643Y35766
X93909Y39685
X79085Y26137
X96192Y13386
X94567Y27683
X86208Y32238
X104617Y26643
X106227Y49483
X109262Y35279
X109273Y28261
X108727Y49483
X108743Y14000
X80823Y34290
X86716Y30841
X101147Y44403
X98626Y17772
X103005Y4216
X102489Y3810
X81966Y5715
X93094Y10193
X96510Y7615
X95715Y8875
X108247Y25766
X111303Y50800
X110079Y25766
X94241Y3769
X99901Y15725
X91912Y4115
X91445Y3632
X95514Y29614
X94793Y17780
X84633Y17780
X103543Y48186
X90995Y8009
X90754Y19355
X101298Y19688
X85537Y29083
X85898Y24094
X87183Y29797
X81895Y20335
X81892Y22824
X81905Y25392
X100383Y16957
X81859Y17783
X104593Y34260
X104643Y29210
X104648Y32316
X82743Y55000
X108255Y30797
X103683Y50800
X108245Y33391
X107493Y50800
X108260Y28280
X110033Y50800
X100762Y33528
X102413Y43561
X9962Y135067
X12365Y100157
X20091Y103711
X19202Y103711
X18186Y103711
X17297Y103711
X20091Y104600
X19202Y104600
X18186Y104600
X17297Y104600
X20091Y105616
X19202Y105616
X18186Y105616
X17297Y105616
X20091Y106505
X19202Y106505
X18186Y106505
X17297Y106505
X26406Y104775
X25466Y103995
X24107Y101161
X22459Y97894
X20955Y99913
X20754Y110345
X20155Y126700
X24191Y127368
X20348Y132667
X30416Y127351
X32431Y127351
X28341Y128816
X27371Y125395
X25474Y87409
X1570Y87000
X30694Y88140
X15133Y96987
X35444Y87390
X8583Y89441
X11885Y87028
X20308Y135837
X9428Y135867
X28058Y135477
X18748Y135917
X8903Y119892
X8906Y125057
X8922Y130336
X11588Y130277
X11638Y124977
X11668Y119867
X8834Y113908
X12753Y113735
X20814Y130265
X23049Y130501
X20547Y122767
X23519Y122023
X22503Y117143
X24781Y117209
X22739Y112457
X24502Y112525
X9403Y108571
X12807Y108391
X681Y76713
X10714Y75951
X935Y82047
X10714Y82174
X5380Y82174
X25462Y131644
X24009Y123482
X24844Y103124
X19578Y99205
X34402Y112753
X17295Y125504
X18920Y111206
X27280Y106652
X8870Y112246
X7260Y89406
X4225Y103611
X4215Y110628
X4760Y89406
X4744Y124890
X32664Y104600
X26772Y108049
X12340Y94486
X14862Y121117
X10483Y134673
X10998Y135080
X31521Y133175
X20394Y128697
X16977Y131275
X17772Y130015
X5240Y113124
X2184Y88090
X3409Y113124
X19246Y135121
X13586Y123165
X21575Y134775
X22042Y135258
X17973Y109276
X18694Y121110
X28854Y121110
X9944Y90703
X22492Y130881
X22733Y119535
X12189Y119202
X27950Y109807
X27589Y114795
X26304Y109093
X31593Y118554
X31595Y116065
X31582Y113497
X13104Y121933
X31628Y121107
X8894Y104630
X8844Y109680
X8839Y106573
X30744Y83890
X5232Y108092
X9804Y88090
X5243Y105499
X5994Y88090
X5227Y110609
X3454Y88090
X12725Y105362
X11074Y95329
X47960Y135067
X50363Y100157
X58090Y103711
X57201Y103711
X56185Y103711
X55296Y103711
X58090Y104600
X57201Y104600
X56185Y104600
X55296Y104600
X58090Y105616
X57201Y105616
X56185Y105616
X55296Y105616
X58090Y106505
X57201Y106505
X56185Y106505
X55296Y106505
X64404Y104775
X63464Y103995
X62106Y101161
X60457Y97894
X58953Y99913
X58753Y110345
X58153Y126700
X62189Y127368
X58346Y132667
X68415Y127351
X70429Y127351
X66340Y128816
X65369Y125395
X63472Y87409
X39568Y87000
X68693Y88140
X53132Y96987
X73443Y87390
X46581Y89441
X49883Y87028
X58306Y135837
X47426Y135867
X66056Y135477
X56746Y135917
X46902Y119892
X46905Y125057
X46920Y130336
X49586Y130277
X49636Y124977
X49666Y119867
X46833Y113908
X50751Y113735
X58812Y130265
X61047Y130501
X58546Y122767
X61517Y122023
X60501Y117143
X62780Y117209
X60738Y112457
X62500Y112525
X47402Y108571
X50805Y108391
X38679Y76713
X48712Y75951
X38933Y82047
X48712Y82174
X43378Y82174
X63460Y131644
X62007Y123482
X62842Y103124
X57577Y99205
X72400Y112753
X55293Y125504
X56919Y111206
X65278Y106652
X46869Y112246
X45259Y89406
X42223Y103611
X42213Y110628
X42759Y89406
X42743Y124890
X70663Y104600
X64770Y108049
X50339Y94486
X52860Y121117
X48481Y134673
X48997Y135080
X69520Y133175
X58392Y128697
X54976Y131275
X55771Y130015
X43238Y113124
X40183Y88090
X41407Y113124
X57245Y135121
X51585Y123165
X59573Y134775
X60041Y135258
X55971Y109276
X56693Y121110
X66853Y121110
X47942Y90703
X60490Y130881
X60731Y119535
X50188Y119202
X65949Y109807
X65588Y114795
X64303Y109093
X69591Y118554
X69593Y116065
X69581Y113497
X51102Y121933
X69626Y121107
X46893Y104630
X46843Y109680
X46838Y106573
X68743Y83890
X43231Y108092
X47803Y88090
X43241Y105499
X43993Y88090
X43226Y110609
X41453Y88090
X50724Y105362
X49073Y95329
X85959Y135067
X88362Y100157
X96088Y103711
X95199Y103711
X94183Y103711
X93294Y103711
X96088Y104600
X95199Y104600
X94183Y104600
X93294Y104600
X96088Y105616
X95199Y105616
X94183Y105616
X93294Y105616
X96088Y106505
X95199Y106505
X94183Y106505
X93294Y106505
X102403Y104775
X101463Y103995
X100104Y101161
X98455Y97894
X96952Y99913
X96751Y110345
X27529Y3823
X100188Y127368
X96345Y132667
X106413Y127351
X108428Y127351
X104338Y128816
X103368Y125395
X101470Y87409
X77567Y87000
X106691Y88140
X91130Y96987
X111441Y87390
X84579Y89441
X87881Y87028
X96305Y135837
X85425Y135867
X104055Y135477
X94745Y135917
X84900Y119892
X84903Y125057
X84918Y130336
X87585Y130277
X87635Y124977
X87665Y119867
X84831Y113908
X88749Y113735
X96811Y130265
X99046Y130501
X96544Y122767
X99516Y122023
X98500Y117143
X100778Y117209
X98736Y112457
X100499Y112525
X85400Y108571
X88804Y108391
X76678Y76713
X86711Y75951
X76932Y82047
X86711Y82174
X81377Y82174
X101459Y131644
X100006Y123482
X100841Y103124
X95575Y99205
X110399Y112753
X93292Y125504
X94917Y111206
X103276Y106652
X84867Y112246
X83257Y89406
X80222Y103611
X80211Y110628
X80757Y89406
X80741Y124890
X108661Y104600
X102768Y108049
X88337Y94486
X90858Y121117
X86479Y134673
X86995Y135080
X107518Y133175
X96390Y128697
X92974Y131275
X93769Y130015
X81237Y113124
X78181Y88090
X79405Y113124
X95243Y135121
X89583Y123165
X97572Y134775
X98039Y135258
X93970Y109276
X94691Y121110
X104851Y121110
X85941Y90703
X98488Y130881
X98730Y119535
X88186Y119202
X103947Y109807
X103586Y114795
X102301Y109093
X107589Y118554
X107592Y116065
X107579Y113497
X89101Y121933
X107625Y121107
X84891Y104630
X84841Y109680
X84836Y106573
X106741Y83890
X81229Y108092
X85801Y88090
X81239Y105499
X81991Y88090
X81224Y110609
X79451Y88090
X88722Y105362
X87071Y95329
X25126Y38732
X17399Y35179
X36746Y46100
X36746Y41900
X35446Y44000
X746Y41900
X746Y46100
X96152Y126700
X18288Y35179
X19304Y35179
X20193Y35179
X17399Y34290
X18288Y34290
X19304Y34290
X20193Y34290
X17399Y33274
X18288Y33274
X19304Y33274
X20193Y33274
X17399Y32385
X18288Y32385
X74744Y46100
X74744Y41900
X73444Y44000
X38744Y41900
X38744Y46100
X40044Y44000
X19304Y32385
X20193Y32385
X11085Y34115
X12024Y34895
X13383Y37729
X15032Y40996
X16535Y38976
X16736Y28545
X17336Y12189
X13299Y11521
X17142Y6223
X7074Y11539
X5060Y11539
X112743Y46100
X112743Y41900
X111443Y44000
X76743Y41900
X76743Y46100
X78043Y44000
X9149Y10074
X10119Y13495
X12017Y51481
X35921Y51890
X6796Y50750
X22357Y41902
X2046Y51500
X28908Y49449
X25606Y51862
X17182Y3053
X28062Y3023
X9432Y3413
X18742Y2973
X744Y92790
X744Y96990
X2044Y94890
X36744Y96990
X36744Y92790
X35444Y94890
X28587Y18998
X28584Y13833
X28569Y8554
X25902Y8613
X25852Y13913
X25822Y19023
X28656Y24982
X24738Y25154
X16677Y8625
X14441Y8389
X16943Y16123
X13971Y16867
X14987Y21747
X38743Y92790
X38743Y96990
X40043Y94890
X74743Y96990
X74743Y92790
X73443Y94890
X12709Y21681
X14751Y26433
X12988Y26364
X28087Y30318
X24684Y30499
X36810Y62177
X26777Y62939
X36556Y56843
X26777Y56716
X32111Y56716
X12028Y7246
X13481Y15408
X12647Y35766
X76741Y92790
X76741Y96990
X78041Y94890
X112741Y96990
X112741Y92790
X111441Y94890
X17912Y39685
X3089Y26137
X20196Y13386
X18570Y27683
X10211Y32238
X28620Y26643
X30230Y49483
X33266Y35279
X33276Y28261
X32730Y49483
X2046Y44000
M30