M48
;GenerationSoftware,Autodesk,EAGLE,9.6.2*%
;CreationDate,2021-12-17T22:02:41Z*%
FMAT,2
ICI,OFF
METRIC,TZ,000.000
T4C0.305
T3C0.850
T2C0.950
T1C1.016
%
G90
M71
T1
X2970Y12950
X2970Y15490
X41479Y12950
X41479Y15490
X79985Y12950
X79985Y15490
T2
X22800Y53880
X15200Y53880
X14550Y63630
X23450Y63630
X61309Y53880
X53709Y53880
X53059Y63630
X61959Y63630
X99815Y53880
X92215Y53880
X91565Y63630
X100465Y63630
T3
X97415Y56480
X17600Y56480
X20400Y56480
X56109Y56480
X58909Y56480
X94615Y56480
T4
X16990Y28545
X17590Y12189
X13553Y11521
X17396Y6223
X7328Y11539
X5314Y11539
X9657Y9185
X10373Y13495
X12271Y51481
X36175Y51890
X7050Y50750
X22469Y45232
X2300Y51500
X29162Y49449
X24717Y51862
X17436Y3053
X28316Y3023
X9686Y3413
X18996Y2973
X28386Y19013
X28416Y13833
X28416Y8663
X26156Y8613
X26106Y13913
X26076Y19023
X29192Y25027
X25414Y25124
X16931Y8625
X14314Y8643
X17197Y16123
X14225Y16867
X15241Y21747
X12963Y21681
X15046Y26217
X13187Y25996
X27945Y30476
X25369Y30506
X37064Y62177
X27031Y62939
X36810Y56843
X27031Y56716
X32365Y56716
X13735Y15408
X12901Y35766
X18166Y39685
X3325Y28842
X20450Y13386
X18824Y27683
X10465Y32238
X28874Y26643
X30484Y49483
X33520Y35279
X33530Y28261
X32984Y49483
X33000Y14000
X5080Y34290
X10973Y30841
X27262Y4216
X27239Y31245
X26632Y31996
X9469Y23873
X26746Y3810
X26750Y23873
X6223Y5715
X17351Y10193
X20767Y7615
X19972Y8875
X32504Y25766
X35560Y50800
X34336Y25766
X18498Y3769
X24158Y15725
X10767Y33569
X16170Y4115
X13785Y30864
X15702Y3632
X19771Y29614
X19050Y17780
X8890Y17780
X26139Y33554
X27800Y47551
X14267Y3597
X15011Y19355
X26134Y19820
X9794Y29083
X9886Y26533
X11440Y29797
X6152Y20335
X6134Y25347
X6152Y27935
X6137Y22850
X6116Y17783
X28850Y34260
X28900Y29210
X28900Y31760
X7000Y55000
X32512Y30797
X27940Y50800
X32502Y33391
X31750Y50800
X32517Y28280
X34290Y50800
X66266Y29452
X66291Y3823
X63889Y38732
X56162Y35179
X57051Y35179
X58067Y35179
X58956Y35179
X56162Y34290
X57051Y34290
X58067Y34290
X58956Y34290
X56162Y33274
X57051Y33274
X58067Y33274
X58956Y33274
X56162Y32385
X57051Y32385
X58067Y32385
X58956Y32385
X51214Y33518
X49822Y34663
X52146Y37729
X53795Y40996
X55298Y38976
X55499Y28545
X56098Y12189
X52062Y11521
X55905Y6223
X45837Y11539
X43823Y11539
X48166Y9185
X48882Y13495
X50780Y51481
X74684Y51890
X45559Y50750
X60978Y45232
X40809Y51500
X67671Y49449
X63226Y51862
X55945Y3053
X66825Y3023
X48195Y3413
X57505Y2973
X66895Y19013
X66925Y13833
X66925Y8663
X64665Y8613
X64615Y13913
X64585Y19023
X67701Y25027
X63922Y25124
X55440Y8625
X52823Y8643
X55706Y16123
X52734Y16867
X53750Y21747
X51472Y21681
X53555Y26217
X51696Y25996
X66454Y30476
X63878Y30506
X75573Y62177
X65540Y62939
X75319Y56843
X65540Y56716
X70874Y56716
X52244Y15408
X51410Y35766
X56675Y39685
X41834Y28842
X58958Y13386
X57333Y27683
X48974Y32238
X67383Y26643
X68993Y49483
X72029Y35279
X72039Y28261
X71493Y49483
X71509Y14000
X43589Y34290
X49482Y30841
X65771Y4216
X65748Y31245
X65141Y31996
X47978Y23873
X65255Y3810
X65259Y23873
X44732Y5715
X55860Y10193
X59276Y7615
X58481Y8875
X71013Y25766
X74069Y50800
X72845Y25766
X57007Y3769
X62667Y15725
X49276Y33569
X54679Y4115
X52294Y30864
X54211Y3632
X58280Y29614
X57559Y17780
X47399Y17780
X64648Y33554
X66309Y47551
X52776Y3597
X53520Y19355
X64643Y19820
X48303Y29083
X48395Y26533
X49949Y29797
X44661Y20335
X44643Y25347
X44661Y27935
X44646Y22850
X44625Y17783
X67359Y34260
X67409Y29210
X67409Y31760
X45509Y55000
X71021Y30797
X66449Y50800
X71011Y33391
X70259Y50800
X71026Y28280
X72799Y50800
X104772Y29452
X104798Y3823
X102395Y38732
X94668Y35179
X95557Y35179
X96573Y35179
X97462Y35179
X94668Y34290
X95557Y34290
X96573Y34290
X97462Y34290
X94668Y33274
X95557Y33274
X96573Y33274
X97462Y33274
X94668Y32385
X95557Y32385
X96573Y32385
X97462Y32385
X89720Y33518
X88329Y34663
X90653Y37729
X92301Y40996
X93805Y38976
X94005Y28545
X94605Y12189
X90569Y11521
X94412Y6223
X84343Y11539
X82329Y11539
X86672Y9185
X87389Y13495
X89286Y51481
X113190Y51890
X84065Y50750
X99484Y45232
X79315Y51500
X106177Y49449
X101732Y51862
X94452Y3053
X105332Y3023
X86702Y3413
X96012Y2973
X105402Y19013
X105432Y13833
X105432Y8663
X103172Y8613
X103122Y13913
X103092Y19023
X106207Y25027
X102429Y25124
X93946Y8625
X91330Y8643
X94213Y16123
X91241Y16867
X92257Y21747
X89978Y21681
X92061Y26217
X90202Y25996
X104960Y30476
X102385Y30506
X114079Y62177
X104046Y62939
X27757Y29452
X104046Y56716
X109380Y56716
X90751Y15408
X89916Y35766
X95181Y39685
X80340Y28842
X97465Y13386
X95839Y27683
X87480Y32238
X105889Y26643
X107499Y49483
X110535Y35279
X110545Y28261
X109999Y49483
X110015Y14000
X82095Y34290
X87988Y30841
X104277Y4216
X104254Y31245
X103647Y31996
X86484Y23873
X103762Y3810
X103765Y23873
X83238Y5715
X94366Y10193
X97782Y7615
X96987Y8875
X109520Y25766
X112575Y50800
X111351Y25766
X95513Y3769
X101173Y15725
X87782Y33569
X93185Y4115
X90800Y30864
X92718Y3632
X96787Y29614
X96065Y17780
X85905Y17780
X103154Y33554
X104816Y47551
X91283Y3597
X92027Y19355
X103149Y19820
X86810Y29083
X86901Y26533
X88455Y29797
X83167Y20335
X83149Y25347
X83167Y27935
X83152Y22850
X113825Y56843
X105865Y34260
X105915Y29210
X105915Y31760
X84015Y55000
X109527Y30797
X104955Y50800
X109517Y33391
X108765Y50800
X109532Y28280
X111305Y50800
X27783Y3823
X25380Y38732
X37000Y46100
X37000Y41900
X35700Y44000
X1000Y41900
X1000Y46100
X2300Y44000
X17653Y35179
X18542Y35179
X19558Y35179
X20447Y35179
X17653Y34290
X18542Y34290
X19558Y34290
X20447Y34290
X75509Y46100
X75509Y41900
X74209Y44000
X39509Y41900
X39509Y46100
X40809Y44000
X17653Y33274
X18542Y33274
X19558Y33274
X20447Y33274
X17653Y32385
X18542Y32385
X19558Y32385
X20447Y32385
X114015Y46100
X114015Y41900
X112715Y44000
X78015Y41900
X78015Y46100
X79315Y44000
X12705Y33518
X11313Y34663
X13637Y37729
X15286Y40996
X16789Y38976
X83132Y17783
M30