G04 EAGLE Gerber RS-274X export*
G75*
%MOMM*%
%FSLAX34Y34*%
%LPD*%
%INInner Layer 2*%
%IPPOS*%
%AMOC8*
5,1,8,0,0,1.08239X$1,22.5*%
G01*
%ADD10C,0.203200*%
%ADD11C,1.524000*%
%ADD12C,0.457200*%
%ADD13C,1.425000*%
%ADD14C,1.275000*%

G36*
X975381Y4073D02*
X975381Y4073D01*
X975440Y4071D01*
X975521Y4093D01*
X975605Y4105D01*
X975658Y4128D01*
X975715Y4143D01*
X975787Y4186D01*
X975864Y4221D01*
X975909Y4259D01*
X975959Y4288D01*
X976017Y4350D01*
X976081Y4404D01*
X976114Y4453D01*
X976154Y4496D01*
X976192Y4571D01*
X976239Y4641D01*
X976257Y4697D01*
X976283Y4749D01*
X976295Y4817D01*
X976325Y4912D01*
X976327Y5012D01*
X976339Y5080D01*
X976339Y28996D01*
X976336Y31695D01*
X979032Y36370D01*
X983705Y39070D01*
X989102Y39070D01*
X993775Y36370D01*
X996470Y31695D01*
X996468Y28997D01*
X996468Y28996D01*
X996468Y5080D01*
X996476Y5022D01*
X996475Y4964D01*
X996496Y4882D01*
X996508Y4798D01*
X996532Y4745D01*
X996547Y4689D01*
X996590Y4616D01*
X996624Y4539D01*
X996662Y4494D01*
X996692Y4444D01*
X996753Y4386D01*
X996808Y4322D01*
X996857Y4290D01*
X996899Y4250D01*
X996974Y4211D01*
X997045Y4164D01*
X997100Y4147D01*
X997152Y4120D01*
X997220Y4109D01*
X997316Y4079D01*
X997415Y4076D01*
X997483Y4065D01*
X1054323Y4065D01*
X1054381Y4073D01*
X1054440Y4071D01*
X1054521Y4093D01*
X1054605Y4105D01*
X1054658Y4128D01*
X1054715Y4143D01*
X1054787Y4186D01*
X1054864Y4221D01*
X1054909Y4259D01*
X1054959Y4288D01*
X1055017Y4350D01*
X1055081Y4404D01*
X1055114Y4453D01*
X1055154Y4496D01*
X1055192Y4571D01*
X1055239Y4641D01*
X1055257Y4697D01*
X1055283Y4749D01*
X1055295Y4817D01*
X1055325Y4912D01*
X1055327Y5012D01*
X1055339Y5080D01*
X1055339Y34934D01*
X1055337Y34949D01*
X1055338Y34960D01*
X1055290Y36860D01*
X1055278Y36932D01*
X1055275Y37005D01*
X1055254Y37071D01*
X1055243Y37140D01*
X1055221Y37185D01*
X1057567Y41501D01*
X1061654Y44002D01*
X1062022Y44011D01*
X1062095Y44024D01*
X1062170Y44026D01*
X1062235Y44047D01*
X1062302Y44058D01*
X1062315Y44065D01*
X1064087Y44065D01*
X1064102Y44067D01*
X1064114Y44065D01*
X1065906Y44111D01*
X1065908Y44111D01*
X1065982Y44085D01*
X1066106Y44077D01*
X1066182Y44065D01*
X1145073Y44065D01*
X1145131Y44073D01*
X1145190Y44071D01*
X1145271Y44093D01*
X1145355Y44105D01*
X1145408Y44128D01*
X1145465Y44143D01*
X1145537Y44186D01*
X1145614Y44221D01*
X1145659Y44259D01*
X1145709Y44288D01*
X1145767Y44350D01*
X1145831Y44404D01*
X1145864Y44453D01*
X1145904Y44496D01*
X1145942Y44571D01*
X1145989Y44641D01*
X1146007Y44697D01*
X1146033Y44749D01*
X1146045Y44817D01*
X1146075Y44912D01*
X1146077Y45012D01*
X1146089Y45080D01*
X1146089Y415848D01*
X1146071Y415975D01*
X1146056Y416103D01*
X1146051Y416116D01*
X1146049Y416130D01*
X1145996Y416247D01*
X1145947Y416365D01*
X1145938Y416376D01*
X1145933Y416389D01*
X1145850Y416487D01*
X1145769Y416587D01*
X1145758Y416595D01*
X1145749Y416606D01*
X1145642Y416677D01*
X1145537Y416751D01*
X1145524Y416756D01*
X1145512Y416764D01*
X1145389Y416803D01*
X1145268Y416844D01*
X1145255Y416845D01*
X1145241Y416849D01*
X1145112Y416853D01*
X1144984Y416859D01*
X1144971Y416856D01*
X1144957Y416857D01*
X1144833Y416824D01*
X1144708Y416795D01*
X1144695Y416788D01*
X1144682Y416785D01*
X1144571Y416719D01*
X1144459Y416657D01*
X1144451Y416647D01*
X1144438Y416640D01*
X1144243Y416432D01*
X1144237Y416420D01*
X1144229Y416412D01*
X1143903Y415923D01*
X1143230Y415251D01*
X1142440Y414723D01*
X1141561Y414359D01*
X1141169Y414281D01*
X1141169Y419000D01*
X1141161Y419058D01*
X1141162Y419116D01*
X1141141Y419198D01*
X1141129Y419281D01*
X1141105Y419335D01*
X1141090Y419391D01*
X1141047Y419464D01*
X1141013Y419541D01*
X1140975Y419585D01*
X1140945Y419635D01*
X1140945Y419636D01*
X1140883Y419693D01*
X1140829Y419758D01*
X1140780Y419790D01*
X1140737Y419830D01*
X1140662Y419869D01*
X1140592Y419916D01*
X1140536Y419933D01*
X1140484Y419960D01*
X1140416Y419971D01*
X1140321Y420001D01*
X1140221Y420004D01*
X1140153Y420015D01*
X1135434Y420015D01*
X1135512Y420408D01*
X1135876Y421286D01*
X1136404Y422077D01*
X1136813Y422485D01*
X1136848Y422532D01*
X1136890Y422572D01*
X1136933Y422645D01*
X1136984Y422713D01*
X1137005Y422767D01*
X1137034Y422818D01*
X1137055Y422899D01*
X1137085Y422978D01*
X1137090Y423037D01*
X1137104Y423093D01*
X1137101Y423177D01*
X1137108Y423262D01*
X1137097Y423319D01*
X1137095Y423377D01*
X1137069Y423458D01*
X1137053Y423540D01*
X1137026Y423592D01*
X1137008Y423648D01*
X1136968Y423704D01*
X1136922Y423793D01*
X1136853Y423865D01*
X1136813Y423921D01*
X1132518Y428216D01*
X1129802Y434774D01*
X1129771Y434826D01*
X1129749Y434882D01*
X1129704Y434941D01*
X1129700Y434949D01*
X1129694Y434955D01*
X1129657Y435018D01*
X1129613Y435060D01*
X1129577Y435108D01*
X1129518Y435151D01*
X1129510Y435161D01*
X1129500Y435166D01*
X1129450Y435214D01*
X1129397Y435241D01*
X1129348Y435277D01*
X1129284Y435301D01*
X1129268Y435311D01*
X1129253Y435315D01*
X1129198Y435344D01*
X1129139Y435355D01*
X1129082Y435377D01*
X1129020Y435381D01*
X1128995Y435388D01*
X1128975Y435388D01*
X1128919Y435399D01*
X1128859Y435394D01*
X1128799Y435398D01*
X1128732Y435383D01*
X1128692Y435379D01*
X1128659Y435378D01*
X1128643Y435375D01*
X1128635Y435374D01*
X1128631Y435373D01*
X1128169Y435281D01*
X1128169Y440000D01*
X1128169Y444719D01*
X1128659Y444622D01*
X1128696Y444620D01*
X1128747Y444606D01*
X1128807Y444608D01*
X1128867Y444600D01*
X1128919Y444607D01*
X1128943Y444606D01*
X1128970Y444612D01*
X1129031Y444614D01*
X1129088Y444632D01*
X1129148Y444640D01*
X1129204Y444665D01*
X1129220Y444669D01*
X1129238Y444679D01*
X1129302Y444699D01*
X1129352Y444733D01*
X1129407Y444757D01*
X1129459Y444801D01*
X1129469Y444807D01*
X1129479Y444817D01*
X1129539Y444857D01*
X1129578Y444903D01*
X1129624Y444942D01*
X1129658Y444996D01*
X1129670Y445008D01*
X1129674Y445017D01*
X1129722Y445074D01*
X1129764Y445167D01*
X1129802Y445226D01*
X1132518Y451784D01*
X1136813Y456079D01*
X1136848Y456126D01*
X1136890Y456166D01*
X1136933Y456239D01*
X1136984Y456306D01*
X1137004Y456361D01*
X1137034Y456411D01*
X1137055Y456493D01*
X1137085Y456572D01*
X1137090Y456630D01*
X1137104Y456687D01*
X1137101Y456771D01*
X1137108Y456855D01*
X1137097Y456912D01*
X1137095Y456971D01*
X1137069Y457051D01*
X1137053Y457134D01*
X1137026Y457186D01*
X1137008Y457241D01*
X1136967Y457298D01*
X1136922Y457386D01*
X1136853Y457458D01*
X1136813Y457515D01*
X1136404Y457923D01*
X1135876Y458714D01*
X1135512Y459592D01*
X1135434Y459985D01*
X1140153Y459985D01*
X1140211Y459993D01*
X1140269Y459991D01*
X1140351Y460013D01*
X1140435Y460024D01*
X1140488Y460048D01*
X1140544Y460063D01*
X1140617Y460106D01*
X1140694Y460141D01*
X1140739Y460178D01*
X1140789Y460208D01*
X1140789Y460209D01*
X1140847Y460270D01*
X1140911Y460324D01*
X1140911Y460325D01*
X1140944Y460373D01*
X1140984Y460416D01*
X1141022Y460491D01*
X1141069Y460561D01*
X1141087Y460617D01*
X1141113Y460669D01*
X1141125Y460737D01*
X1141155Y460832D01*
X1141157Y460932D01*
X1141169Y461000D01*
X1141169Y465719D01*
X1141561Y465641D01*
X1142440Y465277D01*
X1143230Y464749D01*
X1143903Y464077D01*
X1144229Y463588D01*
X1144315Y463492D01*
X1144398Y463394D01*
X1144409Y463386D01*
X1144419Y463376D01*
X1144528Y463308D01*
X1144635Y463236D01*
X1144648Y463232D01*
X1144660Y463225D01*
X1144783Y463190D01*
X1144906Y463151D01*
X1144919Y463150D01*
X1144933Y463146D01*
X1145061Y463147D01*
X1145190Y463143D01*
X1145203Y463147D01*
X1145217Y463147D01*
X1145341Y463183D01*
X1145465Y463215D01*
X1145477Y463222D01*
X1145490Y463226D01*
X1145599Y463295D01*
X1145709Y463360D01*
X1145719Y463371D01*
X1145730Y463378D01*
X1145816Y463474D01*
X1145904Y463568D01*
X1145910Y463580D01*
X1145919Y463591D01*
X1145974Y463706D01*
X1146033Y463821D01*
X1146035Y463833D01*
X1146042Y463847D01*
X1146088Y464128D01*
X1146087Y464141D01*
X1146089Y464152D01*
X1146089Y525000D01*
X1146080Y525058D01*
X1146082Y525116D01*
X1146061Y525198D01*
X1146049Y525282D01*
X1146025Y525335D01*
X1146010Y525391D01*
X1145967Y525464D01*
X1145933Y525541D01*
X1145895Y525586D01*
X1145865Y525636D01*
X1145803Y525694D01*
X1145749Y525758D01*
X1145700Y525790D01*
X1145658Y525830D01*
X1145583Y525869D01*
X1145512Y525916D01*
X1145456Y525933D01*
X1145404Y525960D01*
X1145336Y525971D01*
X1145241Y526001D01*
X1145141Y526004D01*
X1145073Y526015D01*
X1005153Y526015D01*
X1005096Y526007D01*
X1005037Y526009D01*
X1004955Y525987D01*
X1004872Y525975D01*
X1004819Y525952D01*
X1004762Y525937D01*
X1004690Y525894D01*
X1004613Y525859D01*
X1004568Y525821D01*
X1004518Y525792D01*
X1004460Y525730D01*
X1004396Y525676D01*
X1004363Y525627D01*
X1004323Y525584D01*
X1004285Y525509D01*
X1004238Y525439D01*
X1004220Y525383D01*
X1004194Y525331D01*
X1004182Y525263D01*
X1004152Y525168D01*
X1004150Y525068D01*
X1004138Y525000D01*
X1004138Y511015D01*
X995153Y511015D01*
X995096Y511007D01*
X995037Y511009D01*
X994955Y510987D01*
X994872Y510975D01*
X994819Y510952D01*
X994762Y510937D01*
X994690Y510894D01*
X994613Y510859D01*
X994568Y510821D01*
X994518Y510792D01*
X994460Y510730D01*
X994396Y510676D01*
X994363Y510627D01*
X994323Y510584D01*
X994285Y510509D01*
X994238Y510439D01*
X994220Y510383D01*
X994194Y510331D01*
X994182Y510263D01*
X994152Y510168D01*
X994150Y510068D01*
X994138Y510000D01*
X994138Y466015D01*
X975153Y466015D01*
X975096Y466007D01*
X975037Y466009D01*
X974955Y465987D01*
X974872Y465975D01*
X974819Y465952D01*
X974762Y465937D01*
X974690Y465894D01*
X974613Y465859D01*
X974568Y465821D01*
X974518Y465792D01*
X974460Y465730D01*
X974396Y465676D01*
X974363Y465627D01*
X974323Y465584D01*
X974285Y465509D01*
X974238Y465439D01*
X974220Y465383D01*
X974194Y465331D01*
X974182Y465263D01*
X974152Y465168D01*
X974150Y465068D01*
X974138Y465000D01*
X974138Y441015D01*
X921169Y441015D01*
X921169Y525000D01*
X921160Y525058D01*
X921162Y525116D01*
X921141Y525198D01*
X921129Y525282D01*
X921105Y525335D01*
X921090Y525391D01*
X921047Y525464D01*
X921013Y525541D01*
X920975Y525586D01*
X920945Y525636D01*
X920883Y525694D01*
X920829Y525758D01*
X920780Y525790D01*
X920738Y525830D01*
X920663Y525869D01*
X920592Y525916D01*
X920536Y525933D01*
X920484Y525960D01*
X920416Y525971D01*
X920321Y526001D01*
X920221Y526004D01*
X920153Y526015D01*
X775233Y526015D01*
X775176Y526007D01*
X775117Y526009D01*
X775035Y525987D01*
X774952Y525975D01*
X774899Y525952D01*
X774842Y525937D01*
X774770Y525894D01*
X774692Y525859D01*
X774648Y525821D01*
X774598Y525792D01*
X774540Y525730D01*
X774475Y525676D01*
X774443Y525627D01*
X774403Y525584D01*
X774365Y525509D01*
X774318Y525439D01*
X774300Y525383D01*
X774274Y525331D01*
X774262Y525263D01*
X774232Y525168D01*
X774230Y525068D01*
X774218Y525000D01*
X774218Y464152D01*
X774236Y464025D01*
X774251Y463897D01*
X774256Y463884D01*
X774258Y463870D01*
X774311Y463753D01*
X774360Y463635D01*
X774369Y463624D01*
X774374Y463611D01*
X774457Y463513D01*
X774538Y463413D01*
X774549Y463405D01*
X774558Y463394D01*
X774665Y463323D01*
X774770Y463249D01*
X774783Y463244D01*
X774795Y463236D01*
X774917Y463198D01*
X775038Y463156D01*
X775052Y463155D01*
X775066Y463151D01*
X775194Y463147D01*
X775322Y463141D01*
X775336Y463144D01*
X775350Y463143D01*
X775474Y463176D01*
X775599Y463205D01*
X775611Y463212D01*
X775625Y463215D01*
X775735Y463281D01*
X775847Y463343D01*
X775856Y463353D01*
X775869Y463360D01*
X776064Y463568D01*
X776070Y463580D01*
X776078Y463588D01*
X776404Y464077D01*
X777076Y464749D01*
X777867Y465277D01*
X778745Y465641D01*
X779138Y465719D01*
X779138Y461000D01*
X779146Y460942D01*
X779145Y460884D01*
X779166Y460802D01*
X779178Y460719D01*
X779202Y460665D01*
X779216Y460609D01*
X779260Y460536D01*
X779294Y460459D01*
X779332Y460415D01*
X779362Y460365D01*
X779362Y460364D01*
X779423Y460307D01*
X779478Y460242D01*
X779527Y460210D01*
X779570Y460169D01*
X779645Y460131D01*
X779715Y460084D01*
X779771Y460067D01*
X779823Y460040D01*
X779891Y460029D01*
X779986Y459999D01*
X780086Y459996D01*
X780154Y459985D01*
X784873Y459985D01*
X784795Y459592D01*
X784431Y458714D01*
X783903Y457923D01*
X783494Y457515D01*
X783459Y457468D01*
X783416Y457428D01*
X783374Y457355D01*
X783323Y457287D01*
X783302Y457233D01*
X783273Y457182D01*
X783252Y457101D01*
X783222Y457022D01*
X783217Y456963D01*
X783203Y456907D01*
X783205Y456823D01*
X783198Y456738D01*
X783210Y456681D01*
X783212Y456623D01*
X783238Y456542D01*
X783254Y456460D01*
X783281Y456408D01*
X783299Y456352D01*
X783339Y456296D01*
X783385Y456207D01*
X783454Y456135D01*
X783494Y456079D01*
X787789Y451784D01*
X790505Y445226D01*
X790536Y445174D01*
X790558Y445118D01*
X790603Y445059D01*
X790607Y445051D01*
X790613Y445045D01*
X790650Y444982D01*
X790694Y444940D01*
X790730Y444892D01*
X790789Y444849D01*
X790797Y444839D01*
X790806Y444834D01*
X790856Y444786D01*
X790910Y444759D01*
X790958Y444723D01*
X791023Y444699D01*
X791038Y444689D01*
X791054Y444685D01*
X791109Y444656D01*
X791168Y444645D01*
X791225Y444623D01*
X791287Y444619D01*
X791312Y444612D01*
X791332Y444612D01*
X791388Y444601D01*
X791448Y444606D01*
X791508Y444602D01*
X791574Y444617D01*
X791615Y444621D01*
X791647Y444622D01*
X791664Y444625D01*
X791671Y444626D01*
X791676Y444627D01*
X792138Y444719D01*
X792138Y440000D01*
X792138Y435281D01*
X791647Y435378D01*
X791611Y435380D01*
X791560Y435394D01*
X791500Y435392D01*
X791440Y435400D01*
X791388Y435393D01*
X791364Y435394D01*
X791337Y435388D01*
X791276Y435386D01*
X791218Y435368D01*
X791159Y435360D01*
X791103Y435335D01*
X791086Y435331D01*
X791069Y435321D01*
X791005Y435301D01*
X790955Y435267D01*
X790900Y435243D01*
X790848Y435199D01*
X790838Y435193D01*
X790828Y435183D01*
X790768Y435143D01*
X790729Y435097D01*
X790683Y435058D01*
X790649Y435004D01*
X790637Y434992D01*
X790632Y434983D01*
X790584Y434926D01*
X790542Y434833D01*
X790505Y434774D01*
X787789Y428216D01*
X783494Y423921D01*
X783459Y423874D01*
X783416Y423834D01*
X783374Y423761D01*
X783323Y423694D01*
X783302Y423639D01*
X783273Y423589D01*
X783252Y423507D01*
X783222Y423428D01*
X783217Y423370D01*
X783203Y423313D01*
X783205Y423229D01*
X783198Y423145D01*
X783210Y423088D01*
X783212Y423029D01*
X783238Y422949D01*
X783254Y422866D01*
X783281Y422814D01*
X783299Y422759D01*
X783339Y422702D01*
X783385Y422614D01*
X783454Y422542D01*
X783494Y422485D01*
X783903Y422077D01*
X784431Y421286D01*
X784795Y420408D01*
X784873Y420015D01*
X780154Y420015D01*
X780096Y420007D01*
X780037Y420009D01*
X779956Y419987D01*
X779872Y419976D01*
X779819Y419952D01*
X779762Y419937D01*
X779690Y419894D01*
X779613Y419859D01*
X779568Y419822D01*
X779518Y419792D01*
X779518Y419791D01*
X779517Y419791D01*
X779460Y419730D01*
X779396Y419676D01*
X779395Y419675D01*
X779363Y419627D01*
X779323Y419584D01*
X779284Y419509D01*
X779238Y419439D01*
X779220Y419383D01*
X779193Y419331D01*
X779182Y419263D01*
X779152Y419168D01*
X779149Y419068D01*
X779138Y419000D01*
X779138Y414281D01*
X778745Y414359D01*
X777867Y414723D01*
X777076Y415251D01*
X776404Y415923D01*
X776078Y416412D01*
X775992Y416508D01*
X775909Y416606D01*
X775897Y416614D01*
X775888Y416624D01*
X775779Y416692D01*
X775672Y416764D01*
X775659Y416768D01*
X775647Y416775D01*
X775524Y416811D01*
X775401Y416849D01*
X775387Y416850D01*
X775374Y416854D01*
X775246Y416853D01*
X775117Y416857D01*
X775104Y416853D01*
X775090Y416853D01*
X774966Y416817D01*
X774842Y416785D01*
X774830Y416778D01*
X774817Y416774D01*
X774708Y416705D01*
X774598Y416640D01*
X774588Y416629D01*
X774576Y416622D01*
X774491Y416526D01*
X774403Y416432D01*
X774397Y416420D01*
X774388Y416410D01*
X774332Y416293D01*
X774274Y416179D01*
X774272Y416167D01*
X774265Y416153D01*
X774218Y415873D01*
X774220Y415859D01*
X774218Y415848D01*
X774218Y45080D01*
X774226Y45022D01*
X774225Y44964D01*
X774246Y44882D01*
X774258Y44798D01*
X774282Y44745D01*
X774297Y44689D01*
X774340Y44616D01*
X774374Y44539D01*
X774412Y44494D01*
X774442Y44444D01*
X774503Y44386D01*
X774558Y44322D01*
X774607Y44290D01*
X774649Y44250D01*
X774724Y44211D01*
X774795Y44164D01*
X774850Y44147D01*
X774902Y44120D01*
X774970Y44109D01*
X775066Y44079D01*
X775165Y44076D01*
X775233Y44065D01*
X855591Y44065D01*
X855605Y44067D01*
X855616Y44065D01*
X858016Y44124D01*
X862341Y41766D01*
X864907Y37561D01*
X864917Y37130D01*
X864930Y37056D01*
X864932Y36981D01*
X864953Y36917D01*
X864964Y36850D01*
X864968Y36841D01*
X864968Y35062D01*
X864970Y35049D01*
X864968Y35038D01*
X865012Y33237D01*
X864988Y33169D01*
X864981Y33044D01*
X864968Y32968D01*
X864968Y5080D01*
X864976Y5022D01*
X864975Y4964D01*
X864996Y4882D01*
X865008Y4798D01*
X865032Y4745D01*
X865047Y4689D01*
X865090Y4616D01*
X865124Y4539D01*
X865162Y4494D01*
X865192Y4444D01*
X865253Y4386D01*
X865308Y4322D01*
X865357Y4290D01*
X865399Y4250D01*
X865474Y4211D01*
X865545Y4164D01*
X865600Y4147D01*
X865652Y4120D01*
X865720Y4109D01*
X865816Y4079D01*
X865915Y4076D01*
X865983Y4065D01*
X975323Y4065D01*
X975381Y4073D01*
G37*
G36*
X590317Y4073D02*
X590317Y4073D01*
X590376Y4071D01*
X590457Y4093D01*
X590541Y4105D01*
X590594Y4128D01*
X590651Y4143D01*
X590723Y4186D01*
X590800Y4221D01*
X590845Y4259D01*
X590895Y4288D01*
X590953Y4350D01*
X591017Y4404D01*
X591050Y4453D01*
X591090Y4496D01*
X591128Y4571D01*
X591175Y4641D01*
X591193Y4697D01*
X591219Y4749D01*
X591231Y4817D01*
X591261Y4912D01*
X591263Y5012D01*
X591275Y5080D01*
X591275Y29007D01*
X591272Y31695D01*
X593968Y36370D01*
X598641Y39070D01*
X604038Y39070D01*
X608711Y36370D01*
X611406Y31695D01*
X611404Y29009D01*
X611404Y29008D01*
X611404Y5080D01*
X611412Y5022D01*
X611411Y4964D01*
X611432Y4882D01*
X611444Y4798D01*
X611468Y4745D01*
X611483Y4689D01*
X611526Y4616D01*
X611560Y4539D01*
X611598Y4494D01*
X611628Y4444D01*
X611689Y4386D01*
X611744Y4322D01*
X611793Y4290D01*
X611835Y4250D01*
X611910Y4211D01*
X611981Y4164D01*
X612036Y4147D01*
X612088Y4120D01*
X612156Y4109D01*
X612252Y4079D01*
X612351Y4076D01*
X612419Y4065D01*
X669259Y4065D01*
X669317Y4073D01*
X669376Y4071D01*
X669457Y4093D01*
X669541Y4105D01*
X669594Y4128D01*
X669651Y4143D01*
X669723Y4186D01*
X669800Y4221D01*
X669845Y4259D01*
X669895Y4288D01*
X669953Y4350D01*
X670017Y4404D01*
X670050Y4453D01*
X670090Y4496D01*
X670128Y4571D01*
X670175Y4641D01*
X670193Y4697D01*
X670219Y4749D01*
X670231Y4817D01*
X670261Y4912D01*
X670263Y5012D01*
X670275Y5080D01*
X670275Y34934D01*
X670273Y34949D01*
X670274Y34960D01*
X670226Y36860D01*
X670214Y36932D01*
X670211Y37005D01*
X670190Y37071D01*
X670179Y37140D01*
X670157Y37185D01*
X672503Y41501D01*
X676590Y44002D01*
X676958Y44011D01*
X677031Y44024D01*
X677106Y44026D01*
X677171Y44047D01*
X677238Y44058D01*
X677251Y44065D01*
X679024Y44065D01*
X679038Y44067D01*
X679050Y44065D01*
X680842Y44111D01*
X680844Y44111D01*
X680918Y44085D01*
X681042Y44077D01*
X681118Y44065D01*
X760009Y44065D01*
X760067Y44073D01*
X760126Y44071D01*
X760207Y44093D01*
X760291Y44105D01*
X760344Y44128D01*
X760401Y44143D01*
X760473Y44186D01*
X760550Y44221D01*
X760595Y44259D01*
X760645Y44288D01*
X760703Y44350D01*
X760767Y44404D01*
X760800Y44453D01*
X760840Y44496D01*
X760878Y44571D01*
X760925Y44641D01*
X760943Y44697D01*
X760969Y44749D01*
X760981Y44817D01*
X761011Y44912D01*
X761013Y45012D01*
X761025Y45080D01*
X761025Y415848D01*
X761007Y415975D01*
X760992Y416103D01*
X760987Y416116D01*
X760985Y416130D01*
X760932Y416247D01*
X760883Y416365D01*
X760874Y416376D01*
X760869Y416389D01*
X760786Y416487D01*
X760705Y416587D01*
X760694Y416595D01*
X760685Y416606D01*
X760578Y416677D01*
X760473Y416751D01*
X760460Y416756D01*
X760448Y416764D01*
X760325Y416803D01*
X760204Y416844D01*
X760191Y416845D01*
X760177Y416849D01*
X760048Y416853D01*
X759920Y416859D01*
X759907Y416856D01*
X759893Y416857D01*
X759769Y416824D01*
X759644Y416795D01*
X759631Y416788D01*
X759618Y416785D01*
X759507Y416719D01*
X759395Y416657D01*
X759387Y416647D01*
X759374Y416640D01*
X759179Y416432D01*
X759173Y416420D01*
X759165Y416412D01*
X758839Y415923D01*
X758166Y415251D01*
X757376Y414723D01*
X756497Y414359D01*
X756105Y414281D01*
X756105Y419000D01*
X756097Y419058D01*
X756098Y419116D01*
X756077Y419198D01*
X756065Y419281D01*
X756041Y419335D01*
X756026Y419391D01*
X755983Y419464D01*
X755949Y419541D01*
X755911Y419585D01*
X755881Y419635D01*
X755881Y419636D01*
X755819Y419693D01*
X755765Y419758D01*
X755716Y419790D01*
X755673Y419830D01*
X755598Y419869D01*
X755528Y419916D01*
X755472Y419933D01*
X755420Y419960D01*
X755352Y419971D01*
X755257Y420001D01*
X755157Y420004D01*
X755089Y420015D01*
X750370Y420015D01*
X750448Y420408D01*
X750812Y421286D01*
X751340Y422077D01*
X751749Y422485D01*
X751784Y422532D01*
X751826Y422572D01*
X751869Y422645D01*
X751920Y422713D01*
X751941Y422767D01*
X751970Y422818D01*
X751991Y422899D01*
X752021Y422978D01*
X752026Y423037D01*
X752040Y423093D01*
X752037Y423177D01*
X752044Y423262D01*
X752033Y423319D01*
X752031Y423377D01*
X752005Y423458D01*
X751989Y423540D01*
X751962Y423592D01*
X751944Y423648D01*
X751904Y423704D01*
X751858Y423793D01*
X751789Y423865D01*
X751749Y423921D01*
X747454Y428216D01*
X744738Y434774D01*
X744707Y434826D01*
X744685Y434882D01*
X744640Y434941D01*
X744636Y434949D01*
X744630Y434955D01*
X744593Y435018D01*
X744549Y435060D01*
X744513Y435108D01*
X744454Y435151D01*
X744446Y435161D01*
X744436Y435166D01*
X744386Y435214D01*
X744333Y435241D01*
X744284Y435277D01*
X744220Y435301D01*
X744204Y435311D01*
X744189Y435315D01*
X744134Y435344D01*
X744075Y435355D01*
X744018Y435377D01*
X743956Y435381D01*
X743931Y435388D01*
X743911Y435388D01*
X743855Y435399D01*
X743795Y435394D01*
X743735Y435398D01*
X743668Y435383D01*
X743628Y435379D01*
X743595Y435378D01*
X743579Y435375D01*
X743571Y435374D01*
X743567Y435373D01*
X743105Y435281D01*
X743105Y440000D01*
X743105Y444719D01*
X743595Y444622D01*
X743632Y444620D01*
X743683Y444606D01*
X743743Y444608D01*
X743803Y444600D01*
X743855Y444607D01*
X743879Y444606D01*
X743906Y444612D01*
X743967Y444614D01*
X744024Y444632D01*
X744084Y444640D01*
X744140Y444665D01*
X744156Y444669D01*
X744174Y444679D01*
X744238Y444699D01*
X744288Y444733D01*
X744343Y444757D01*
X744395Y444801D01*
X744405Y444807D01*
X744415Y444817D01*
X744475Y444857D01*
X744514Y444903D01*
X744560Y444942D01*
X744594Y444996D01*
X744606Y445008D01*
X744610Y445017D01*
X744658Y445074D01*
X744700Y445167D01*
X744738Y445226D01*
X747454Y451784D01*
X751749Y456079D01*
X751784Y456126D01*
X751826Y456166D01*
X751869Y456239D01*
X751920Y456306D01*
X751940Y456361D01*
X751970Y456411D01*
X751991Y456493D01*
X752021Y456572D01*
X752026Y456630D01*
X752040Y456687D01*
X752037Y456771D01*
X752044Y456855D01*
X752033Y456912D01*
X752031Y456971D01*
X752005Y457051D01*
X751989Y457134D01*
X751962Y457186D01*
X751944Y457241D01*
X751903Y457298D01*
X751858Y457386D01*
X751789Y457458D01*
X751749Y457515D01*
X751340Y457923D01*
X750812Y458714D01*
X750448Y459592D01*
X750370Y459985D01*
X755089Y459985D01*
X755147Y459993D01*
X755205Y459991D01*
X755287Y460013D01*
X755371Y460024D01*
X755424Y460048D01*
X755480Y460063D01*
X755553Y460106D01*
X755630Y460141D01*
X755675Y460178D01*
X755725Y460208D01*
X755725Y460209D01*
X755783Y460270D01*
X755847Y460324D01*
X755847Y460325D01*
X755880Y460373D01*
X755920Y460416D01*
X755958Y460491D01*
X756005Y460561D01*
X756023Y460617D01*
X756049Y460669D01*
X756061Y460737D01*
X756091Y460832D01*
X756093Y460932D01*
X756105Y461000D01*
X756105Y465719D01*
X756497Y465641D01*
X757376Y465277D01*
X758166Y464749D01*
X758839Y464077D01*
X759165Y463588D01*
X759251Y463492D01*
X759334Y463394D01*
X759345Y463386D01*
X759355Y463376D01*
X759464Y463308D01*
X759571Y463236D01*
X759584Y463232D01*
X759596Y463225D01*
X759719Y463190D01*
X759842Y463151D01*
X759855Y463150D01*
X759869Y463146D01*
X759997Y463147D01*
X760126Y463143D01*
X760139Y463147D01*
X760153Y463147D01*
X760277Y463183D01*
X760401Y463215D01*
X760413Y463222D01*
X760426Y463226D01*
X760535Y463295D01*
X760645Y463360D01*
X760655Y463371D01*
X760666Y463378D01*
X760752Y463474D01*
X760840Y463568D01*
X760846Y463580D01*
X760855Y463591D01*
X760910Y463706D01*
X760969Y463821D01*
X760971Y463833D01*
X760978Y463847D01*
X761024Y464128D01*
X761023Y464141D01*
X761025Y464152D01*
X761025Y525000D01*
X761016Y525058D01*
X761018Y525116D01*
X760997Y525198D01*
X760985Y525282D01*
X760961Y525335D01*
X760946Y525391D01*
X760903Y525464D01*
X760869Y525541D01*
X760831Y525586D01*
X760801Y525636D01*
X760739Y525694D01*
X760685Y525758D01*
X760636Y525790D01*
X760594Y525830D01*
X760519Y525869D01*
X760448Y525916D01*
X760392Y525933D01*
X760340Y525960D01*
X760272Y525971D01*
X760177Y526001D01*
X760077Y526004D01*
X760009Y526015D01*
X620089Y526015D01*
X620032Y526007D01*
X619973Y526009D01*
X619891Y525987D01*
X619808Y525975D01*
X619755Y525952D01*
X619698Y525937D01*
X619626Y525894D01*
X619549Y525859D01*
X619504Y525821D01*
X619454Y525792D01*
X619396Y525730D01*
X619332Y525676D01*
X619299Y525627D01*
X619259Y525584D01*
X619221Y525509D01*
X619174Y525439D01*
X619156Y525383D01*
X619130Y525331D01*
X619118Y525263D01*
X619088Y525168D01*
X619086Y525068D01*
X619074Y525000D01*
X619074Y511015D01*
X610089Y511015D01*
X610032Y511007D01*
X609973Y511009D01*
X609891Y510987D01*
X609808Y510975D01*
X609755Y510952D01*
X609698Y510937D01*
X609626Y510894D01*
X609549Y510859D01*
X609504Y510821D01*
X609454Y510792D01*
X609396Y510730D01*
X609332Y510676D01*
X609299Y510627D01*
X609259Y510584D01*
X609221Y510509D01*
X609174Y510439D01*
X609156Y510383D01*
X609130Y510331D01*
X609118Y510263D01*
X609088Y510168D01*
X609086Y510068D01*
X609074Y510000D01*
X609074Y466015D01*
X590089Y466015D01*
X590032Y466007D01*
X589973Y466009D01*
X589891Y465987D01*
X589808Y465975D01*
X589755Y465952D01*
X589698Y465937D01*
X589626Y465894D01*
X589549Y465859D01*
X589504Y465821D01*
X589454Y465792D01*
X589396Y465730D01*
X589332Y465676D01*
X589299Y465627D01*
X589259Y465584D01*
X589221Y465509D01*
X589174Y465439D01*
X589156Y465383D01*
X589130Y465331D01*
X589118Y465263D01*
X589088Y465168D01*
X589086Y465068D01*
X589074Y465000D01*
X589074Y441015D01*
X536105Y441015D01*
X536105Y525000D01*
X536096Y525058D01*
X536098Y525116D01*
X536077Y525198D01*
X536065Y525282D01*
X536041Y525335D01*
X536026Y525391D01*
X535983Y525464D01*
X535949Y525541D01*
X535911Y525586D01*
X535881Y525636D01*
X535819Y525694D01*
X535765Y525758D01*
X535716Y525790D01*
X535674Y525830D01*
X535599Y525869D01*
X535528Y525916D01*
X535472Y525933D01*
X535420Y525960D01*
X535352Y525971D01*
X535257Y526001D01*
X535157Y526004D01*
X535089Y526015D01*
X390169Y526015D01*
X390112Y526007D01*
X390053Y526009D01*
X389971Y525987D01*
X389888Y525975D01*
X389835Y525952D01*
X389778Y525937D01*
X389706Y525894D01*
X389628Y525859D01*
X389584Y525821D01*
X389534Y525792D01*
X389476Y525730D01*
X389411Y525676D01*
X389379Y525627D01*
X389339Y525584D01*
X389301Y525509D01*
X389254Y525439D01*
X389236Y525383D01*
X389210Y525331D01*
X389198Y525263D01*
X389168Y525168D01*
X389166Y525068D01*
X389154Y525000D01*
X389154Y464152D01*
X389172Y464025D01*
X389187Y463897D01*
X389192Y463884D01*
X389194Y463870D01*
X389247Y463753D01*
X389296Y463635D01*
X389305Y463624D01*
X389310Y463611D01*
X389393Y463513D01*
X389474Y463413D01*
X389485Y463405D01*
X389494Y463394D01*
X389601Y463323D01*
X389706Y463249D01*
X389719Y463244D01*
X389731Y463236D01*
X389854Y463197D01*
X389974Y463156D01*
X389988Y463155D01*
X390002Y463151D01*
X390130Y463147D01*
X390258Y463141D01*
X390272Y463144D01*
X390286Y463143D01*
X390410Y463176D01*
X390535Y463205D01*
X390547Y463212D01*
X390561Y463215D01*
X390671Y463281D01*
X390783Y463343D01*
X390792Y463353D01*
X390805Y463360D01*
X391000Y463568D01*
X391006Y463580D01*
X391014Y463588D01*
X391340Y464077D01*
X392012Y464749D01*
X392803Y465277D01*
X393681Y465641D01*
X394074Y465719D01*
X394074Y461000D01*
X394082Y460942D01*
X394081Y460884D01*
X394102Y460802D01*
X394114Y460719D01*
X394138Y460665D01*
X394152Y460609D01*
X394196Y460536D01*
X394230Y460459D01*
X394268Y460415D01*
X394298Y460365D01*
X394298Y460364D01*
X394359Y460307D01*
X394414Y460242D01*
X394463Y460210D01*
X394506Y460169D01*
X394581Y460131D01*
X394651Y460084D01*
X394707Y460067D01*
X394759Y460040D01*
X394827Y460029D01*
X394922Y459999D01*
X395022Y459996D01*
X395090Y459985D01*
X399809Y459985D01*
X399731Y459592D01*
X399367Y458714D01*
X398839Y457923D01*
X398430Y457515D01*
X398395Y457468D01*
X398352Y457428D01*
X398310Y457355D01*
X398259Y457287D01*
X398238Y457233D01*
X398209Y457182D01*
X398188Y457101D01*
X398158Y457022D01*
X398153Y456963D01*
X398139Y456907D01*
X398141Y456823D01*
X398134Y456738D01*
X398146Y456681D01*
X398148Y456623D01*
X398174Y456542D01*
X398190Y456460D01*
X398217Y456408D01*
X398235Y456352D01*
X398275Y456296D01*
X398321Y456207D01*
X398390Y456135D01*
X398430Y456079D01*
X402725Y451784D01*
X405441Y445226D01*
X405472Y445174D01*
X405494Y445118D01*
X405539Y445059D01*
X405543Y445051D01*
X405549Y445045D01*
X405586Y444982D01*
X405630Y444940D01*
X405666Y444892D01*
X405725Y444849D01*
X405733Y444839D01*
X405742Y444834D01*
X405792Y444786D01*
X405846Y444759D01*
X405894Y444723D01*
X405959Y444699D01*
X405974Y444689D01*
X405990Y444685D01*
X406045Y444656D01*
X406104Y444645D01*
X406161Y444623D01*
X406223Y444619D01*
X406248Y444612D01*
X406268Y444612D01*
X406324Y444601D01*
X406384Y444606D01*
X406444Y444602D01*
X406510Y444617D01*
X406551Y444621D01*
X406583Y444622D01*
X406600Y444625D01*
X406607Y444626D01*
X406612Y444627D01*
X407074Y444719D01*
X407074Y440000D01*
X407074Y435281D01*
X406583Y435378D01*
X406547Y435380D01*
X406496Y435394D01*
X406436Y435392D01*
X406376Y435400D01*
X406324Y435393D01*
X406300Y435394D01*
X406273Y435388D01*
X406212Y435386D01*
X406154Y435368D01*
X406095Y435360D01*
X406039Y435335D01*
X406022Y435331D01*
X406005Y435321D01*
X405941Y435301D01*
X405891Y435267D01*
X405836Y435243D01*
X405784Y435199D01*
X405774Y435193D01*
X405764Y435183D01*
X405704Y435143D01*
X405665Y435097D01*
X405619Y435058D01*
X405585Y435004D01*
X405573Y434992D01*
X405568Y434983D01*
X405520Y434926D01*
X405478Y434833D01*
X405441Y434774D01*
X402725Y428216D01*
X398430Y423921D01*
X398395Y423874D01*
X398352Y423834D01*
X398310Y423761D01*
X398259Y423694D01*
X398238Y423639D01*
X398209Y423589D01*
X398188Y423507D01*
X398158Y423428D01*
X398153Y423370D01*
X398139Y423313D01*
X398141Y423229D01*
X398134Y423145D01*
X398146Y423088D01*
X398148Y423029D01*
X398174Y422949D01*
X398190Y422866D01*
X398217Y422814D01*
X398235Y422759D01*
X398275Y422702D01*
X398321Y422614D01*
X398390Y422542D01*
X398430Y422485D01*
X398839Y422077D01*
X399367Y421286D01*
X399731Y420408D01*
X399809Y420015D01*
X395090Y420015D01*
X395032Y420007D01*
X394973Y420009D01*
X394892Y419987D01*
X394808Y419976D01*
X394755Y419952D01*
X394698Y419937D01*
X394626Y419894D01*
X394549Y419859D01*
X394504Y419822D01*
X394454Y419792D01*
X394454Y419791D01*
X394453Y419791D01*
X394396Y419730D01*
X394332Y419676D01*
X394331Y419675D01*
X394299Y419627D01*
X394259Y419584D01*
X394220Y419509D01*
X394174Y419439D01*
X394156Y419383D01*
X394129Y419331D01*
X394118Y419263D01*
X394088Y419168D01*
X394085Y419068D01*
X394074Y419000D01*
X394074Y414281D01*
X393681Y414359D01*
X392803Y414723D01*
X392012Y415251D01*
X391340Y415923D01*
X391014Y416412D01*
X390928Y416508D01*
X390845Y416606D01*
X390833Y416614D01*
X390824Y416624D01*
X390715Y416692D01*
X390608Y416764D01*
X390595Y416768D01*
X390583Y416775D01*
X390460Y416810D01*
X390337Y416849D01*
X390323Y416850D01*
X390310Y416854D01*
X390182Y416853D01*
X390053Y416857D01*
X390040Y416853D01*
X390026Y416853D01*
X389902Y416817D01*
X389778Y416785D01*
X389766Y416778D01*
X389753Y416774D01*
X389644Y416705D01*
X389534Y416640D01*
X389524Y416629D01*
X389512Y416622D01*
X389427Y416526D01*
X389339Y416432D01*
X389333Y416420D01*
X389324Y416409D01*
X389268Y416294D01*
X389210Y416179D01*
X389208Y416167D01*
X389201Y416153D01*
X389154Y415872D01*
X389156Y415859D01*
X389154Y415848D01*
X389154Y45080D01*
X389162Y45022D01*
X389161Y44964D01*
X389182Y44882D01*
X389194Y44798D01*
X389218Y44745D01*
X389233Y44689D01*
X389276Y44616D01*
X389310Y44539D01*
X389348Y44494D01*
X389378Y44444D01*
X389439Y44386D01*
X389494Y44322D01*
X389543Y44290D01*
X389585Y44250D01*
X389660Y44211D01*
X389731Y44164D01*
X389786Y44147D01*
X389838Y44120D01*
X389906Y44109D01*
X390002Y44079D01*
X390101Y44076D01*
X390169Y44065D01*
X470527Y44065D01*
X470541Y44067D01*
X470552Y44065D01*
X472952Y44124D01*
X477277Y41766D01*
X479843Y37561D01*
X479853Y37130D01*
X479866Y37056D01*
X479868Y36981D01*
X479889Y36917D01*
X479900Y36850D01*
X479904Y36841D01*
X479904Y35062D01*
X479906Y35049D01*
X479904Y35038D01*
X479948Y33237D01*
X479924Y33169D01*
X479917Y33044D01*
X479904Y32968D01*
X479904Y5080D01*
X479912Y5022D01*
X479911Y4964D01*
X479932Y4882D01*
X479944Y4798D01*
X479968Y4745D01*
X479983Y4689D01*
X480026Y4616D01*
X480060Y4539D01*
X480098Y4494D01*
X480128Y4444D01*
X480189Y4386D01*
X480244Y4322D01*
X480293Y4290D01*
X480335Y4250D01*
X480410Y4211D01*
X480481Y4164D01*
X480536Y4147D01*
X480588Y4120D01*
X480656Y4109D01*
X480752Y4079D01*
X480851Y4076D01*
X480919Y4065D01*
X590259Y4065D01*
X590317Y4073D01*
G37*
G36*
X205228Y4073D02*
X205228Y4073D01*
X205286Y4071D01*
X205368Y4093D01*
X205452Y4105D01*
X205505Y4128D01*
X205561Y4143D01*
X205634Y4186D01*
X205711Y4221D01*
X205756Y4259D01*
X205806Y4288D01*
X205864Y4350D01*
X205928Y4404D01*
X205960Y4453D01*
X206000Y4496D01*
X206039Y4571D01*
X206086Y4641D01*
X206103Y4697D01*
X206130Y4749D01*
X206141Y4817D01*
X206171Y4912D01*
X206174Y5012D01*
X206185Y5080D01*
X206185Y28996D01*
X206183Y31695D01*
X208879Y36370D01*
X213552Y39070D01*
X218948Y39070D01*
X223621Y36370D01*
X226317Y31695D01*
X226315Y28997D01*
X226315Y5080D01*
X226323Y5022D01*
X226321Y4964D01*
X226343Y4882D01*
X226355Y4798D01*
X226378Y4745D01*
X226393Y4689D01*
X226436Y4616D01*
X226471Y4539D01*
X226509Y4494D01*
X226538Y4444D01*
X226600Y4386D01*
X226654Y4322D01*
X226703Y4290D01*
X226746Y4250D01*
X226821Y4211D01*
X226891Y4164D01*
X226947Y4147D01*
X226999Y4120D01*
X227067Y4109D01*
X227162Y4079D01*
X227262Y4076D01*
X227330Y4065D01*
X284170Y4065D01*
X284228Y4073D01*
X284286Y4071D01*
X284368Y4093D01*
X284452Y4105D01*
X284505Y4128D01*
X284561Y4143D01*
X284634Y4186D01*
X284711Y4221D01*
X284756Y4259D01*
X284806Y4288D01*
X284864Y4350D01*
X284928Y4404D01*
X284960Y4453D01*
X285000Y4496D01*
X285039Y4571D01*
X285086Y4641D01*
X285103Y4697D01*
X285130Y4749D01*
X285141Y4817D01*
X285171Y4912D01*
X285174Y5012D01*
X285185Y5080D01*
X285185Y34934D01*
X285183Y34949D01*
X285185Y34960D01*
X285136Y36860D01*
X285124Y36932D01*
X285122Y37005D01*
X285101Y37071D01*
X285089Y37140D01*
X285068Y37185D01*
X287414Y41501D01*
X291501Y44002D01*
X291868Y44011D01*
X291942Y44024D01*
X292016Y44026D01*
X292081Y44047D01*
X292149Y44058D01*
X292162Y44065D01*
X293934Y44065D01*
X293949Y44067D01*
X293960Y44065D01*
X295752Y44111D01*
X295755Y44111D01*
X295829Y44085D01*
X295953Y44077D01*
X296028Y44065D01*
X374920Y44065D01*
X374978Y44073D01*
X375036Y44071D01*
X375118Y44093D01*
X375202Y44105D01*
X375255Y44128D01*
X375311Y44143D01*
X375384Y44186D01*
X375461Y44221D01*
X375506Y44259D01*
X375556Y44288D01*
X375614Y44350D01*
X375678Y44404D01*
X375710Y44453D01*
X375750Y44496D01*
X375789Y44571D01*
X375836Y44641D01*
X375853Y44697D01*
X375880Y44749D01*
X375891Y44817D01*
X375921Y44912D01*
X375924Y45012D01*
X375935Y45080D01*
X375935Y415848D01*
X375917Y415975D01*
X375903Y416103D01*
X375897Y416116D01*
X375895Y416130D01*
X375843Y416247D01*
X375794Y416365D01*
X375785Y416376D01*
X375779Y416389D01*
X375696Y416487D01*
X375616Y416587D01*
X375604Y416595D01*
X375596Y416606D01*
X375488Y416677D01*
X375384Y416751D01*
X375371Y416756D01*
X375359Y416764D01*
X375236Y416803D01*
X375115Y416844D01*
X375101Y416845D01*
X375088Y416849D01*
X374959Y416853D01*
X374831Y416859D01*
X374818Y416856D01*
X374804Y416857D01*
X374679Y416824D01*
X374554Y416795D01*
X374542Y416788D01*
X374529Y416785D01*
X374418Y416719D01*
X374306Y416657D01*
X374297Y416647D01*
X374284Y416640D01*
X374090Y416432D01*
X374084Y416420D01*
X374076Y416412D01*
X373749Y415923D01*
X373077Y415251D01*
X372286Y414723D01*
X371408Y414359D01*
X371015Y414281D01*
X371015Y419000D01*
X371007Y419058D01*
X371009Y419116D01*
X370987Y419198D01*
X370976Y419281D01*
X370952Y419335D01*
X370937Y419391D01*
X370894Y419464D01*
X370859Y419541D01*
X370822Y419585D01*
X370792Y419635D01*
X370791Y419636D01*
X370730Y419693D01*
X370676Y419758D01*
X370675Y419758D01*
X370627Y419790D01*
X370584Y419830D01*
X370509Y419869D01*
X370439Y419916D01*
X370383Y419933D01*
X370331Y419960D01*
X370263Y419971D01*
X370168Y420001D01*
X370068Y420004D01*
X370000Y420015D01*
X365281Y420015D01*
X365359Y420408D01*
X365723Y421286D01*
X366251Y422077D01*
X366659Y422485D01*
X366695Y422532D01*
X366737Y422572D01*
X366780Y422645D01*
X366830Y422713D01*
X366851Y422767D01*
X366881Y422818D01*
X366901Y422899D01*
X366931Y422978D01*
X366936Y423037D01*
X366951Y423093D01*
X366948Y423177D01*
X366955Y423262D01*
X366944Y423319D01*
X366942Y423377D01*
X366916Y423458D01*
X366899Y423540D01*
X366872Y423592D01*
X366854Y423648D01*
X366814Y423704D01*
X366768Y423793D01*
X366699Y423865D01*
X366659Y423921D01*
X362364Y428216D01*
X359648Y434774D01*
X359617Y434826D01*
X359596Y434882D01*
X359550Y434941D01*
X359546Y434949D01*
X359541Y434955D01*
X359504Y435018D01*
X359460Y435060D01*
X359423Y435108D01*
X359365Y435151D01*
X359356Y435161D01*
X359347Y435166D01*
X359297Y435214D01*
X359243Y435241D01*
X359195Y435277D01*
X359131Y435301D01*
X359115Y435311D01*
X359100Y435315D01*
X359044Y435344D01*
X358985Y435355D01*
X358929Y435377D01*
X358867Y435381D01*
X358842Y435388D01*
X358821Y435388D01*
X358765Y435399D01*
X358705Y435394D01*
X358645Y435398D01*
X358579Y435383D01*
X358539Y435379D01*
X358506Y435378D01*
X358490Y435375D01*
X358482Y435374D01*
X358478Y435373D01*
X358015Y435281D01*
X358015Y440000D01*
X358015Y444719D01*
X358506Y444622D01*
X358543Y444620D01*
X358593Y444606D01*
X358654Y444608D01*
X358713Y444600D01*
X358765Y444607D01*
X358790Y444606D01*
X358817Y444612D01*
X358878Y444614D01*
X358935Y444632D01*
X358995Y444640D01*
X359050Y444665D01*
X359067Y444669D01*
X359084Y444679D01*
X359149Y444699D01*
X359199Y444733D01*
X359254Y444757D01*
X359305Y444801D01*
X359316Y444807D01*
X359325Y444817D01*
X359385Y444857D01*
X359424Y444903D01*
X359470Y444942D01*
X359504Y444996D01*
X359516Y445008D01*
X359521Y445017D01*
X359569Y445074D01*
X359611Y445167D01*
X359648Y445226D01*
X362364Y451784D01*
X366659Y456079D01*
X366695Y456126D01*
X366737Y456166D01*
X366780Y456239D01*
X366830Y456306D01*
X366851Y456361D01*
X366881Y456411D01*
X366901Y456493D01*
X366931Y456572D01*
X366936Y456630D01*
X366951Y456687D01*
X366948Y456771D01*
X366955Y456855D01*
X366944Y456912D01*
X366942Y456971D01*
X366916Y457051D01*
X366899Y457134D01*
X366872Y457186D01*
X366854Y457241D01*
X366814Y457298D01*
X366768Y457386D01*
X366699Y457458D01*
X366659Y457515D01*
X366251Y457923D01*
X365723Y458714D01*
X365359Y459592D01*
X365281Y459985D01*
X370000Y459985D01*
X370058Y459993D01*
X370116Y459991D01*
X370198Y460013D01*
X370281Y460024D01*
X370335Y460048D01*
X370391Y460063D01*
X370464Y460106D01*
X370541Y460141D01*
X370585Y460178D01*
X370635Y460208D01*
X370636Y460209D01*
X370693Y460270D01*
X370758Y460324D01*
X370758Y460325D01*
X370790Y460373D01*
X370830Y460416D01*
X370869Y460491D01*
X370916Y460561D01*
X370933Y460617D01*
X370960Y460669D01*
X370971Y460737D01*
X371001Y460832D01*
X371004Y460932D01*
X371015Y461000D01*
X371015Y465719D01*
X371408Y465641D01*
X372286Y465277D01*
X373077Y464749D01*
X373749Y464077D01*
X374076Y463588D01*
X374162Y463492D01*
X374245Y463394D01*
X374256Y463386D01*
X374265Y463376D01*
X374374Y463308D01*
X374481Y463236D01*
X374494Y463232D01*
X374506Y463225D01*
X374629Y463190D01*
X374752Y463151D01*
X374766Y463150D01*
X374779Y463146D01*
X374908Y463147D01*
X375036Y463143D01*
X375050Y463147D01*
X375064Y463147D01*
X375187Y463183D01*
X375311Y463215D01*
X375323Y463222D01*
X375337Y463226D01*
X375446Y463295D01*
X375556Y463360D01*
X375565Y463371D01*
X375577Y463378D01*
X375662Y463474D01*
X375750Y463568D01*
X375757Y463580D01*
X375766Y463591D01*
X375821Y463706D01*
X375880Y463821D01*
X375882Y463833D01*
X375888Y463847D01*
X375935Y464128D01*
X375933Y464141D01*
X375935Y464152D01*
X375935Y525000D01*
X375927Y525058D01*
X375929Y525116D01*
X375907Y525198D01*
X375895Y525282D01*
X375872Y525335D01*
X375857Y525391D01*
X375814Y525464D01*
X375779Y525541D01*
X375741Y525586D01*
X375712Y525636D01*
X375650Y525694D01*
X375596Y525758D01*
X375547Y525790D01*
X375504Y525830D01*
X375429Y525869D01*
X375359Y525916D01*
X375303Y525933D01*
X375251Y525960D01*
X375183Y525971D01*
X375088Y526001D01*
X374988Y526004D01*
X374920Y526015D01*
X235000Y526015D01*
X234942Y526007D01*
X234884Y526009D01*
X234802Y525987D01*
X234719Y525975D01*
X234665Y525952D01*
X234609Y525937D01*
X234536Y525894D01*
X234459Y525859D01*
X234414Y525821D01*
X234364Y525792D01*
X234306Y525730D01*
X234242Y525676D01*
X234210Y525627D01*
X234170Y525584D01*
X234131Y525509D01*
X234085Y525439D01*
X234067Y525383D01*
X234040Y525331D01*
X234029Y525263D01*
X233999Y525168D01*
X233996Y525068D01*
X233985Y525000D01*
X233985Y511015D01*
X225000Y511015D01*
X224942Y511007D01*
X224884Y511009D01*
X224802Y510987D01*
X224719Y510975D01*
X224665Y510952D01*
X224609Y510937D01*
X224536Y510894D01*
X224459Y510859D01*
X224414Y510821D01*
X224364Y510792D01*
X224306Y510730D01*
X224242Y510676D01*
X224210Y510627D01*
X224170Y510584D01*
X224131Y510509D01*
X224085Y510439D01*
X224067Y510383D01*
X224040Y510331D01*
X224029Y510263D01*
X223999Y510168D01*
X223996Y510068D01*
X223985Y510000D01*
X223985Y466015D01*
X205000Y466015D01*
X204942Y466007D01*
X204884Y466009D01*
X204802Y465987D01*
X204719Y465975D01*
X204665Y465952D01*
X204609Y465937D01*
X204536Y465894D01*
X204459Y465859D01*
X204414Y465821D01*
X204364Y465792D01*
X204306Y465730D01*
X204242Y465676D01*
X204210Y465627D01*
X204170Y465584D01*
X204131Y465509D01*
X204085Y465439D01*
X204067Y465383D01*
X204040Y465331D01*
X204029Y465263D01*
X203999Y465168D01*
X203996Y465068D01*
X203985Y465000D01*
X203985Y441015D01*
X151015Y441015D01*
X151015Y525000D01*
X151007Y525058D01*
X151009Y525116D01*
X150987Y525198D01*
X150975Y525282D01*
X150952Y525335D01*
X150937Y525391D01*
X150894Y525464D01*
X150859Y525541D01*
X150821Y525586D01*
X150792Y525636D01*
X150730Y525694D01*
X150676Y525758D01*
X150627Y525790D01*
X150584Y525830D01*
X150509Y525869D01*
X150439Y525916D01*
X150383Y525933D01*
X150331Y525960D01*
X150263Y525971D01*
X150168Y526001D01*
X150068Y526004D01*
X150000Y526015D01*
X5080Y526015D01*
X5022Y526007D01*
X4964Y526009D01*
X4882Y525987D01*
X4798Y525975D01*
X4745Y525951D01*
X4689Y525937D01*
X4616Y525894D01*
X4539Y525859D01*
X4494Y525821D01*
X4444Y525791D01*
X4386Y525730D01*
X4322Y525675D01*
X4290Y525627D01*
X4250Y525584D01*
X4211Y525509D01*
X4164Y525439D01*
X4147Y525383D01*
X4120Y525331D01*
X4109Y525263D01*
X4079Y525168D01*
X4076Y525068D01*
X4065Y525000D01*
X4065Y464152D01*
X4083Y464025D01*
X4097Y463897D01*
X4103Y463884D01*
X4105Y463870D01*
X4157Y463753D01*
X4206Y463635D01*
X4215Y463624D01*
X4221Y463611D01*
X4304Y463513D01*
X4384Y463413D01*
X4396Y463405D01*
X4404Y463394D01*
X4512Y463323D01*
X4616Y463249D01*
X4629Y463244D01*
X4641Y463236D01*
X4764Y463197D01*
X4885Y463156D01*
X4899Y463155D01*
X4912Y463151D01*
X5041Y463147D01*
X5169Y463141D01*
X5182Y463144D01*
X5196Y463143D01*
X5321Y463176D01*
X5446Y463205D01*
X5458Y463212D01*
X5471Y463215D01*
X5582Y463281D01*
X5694Y463343D01*
X5703Y463353D01*
X5716Y463360D01*
X5910Y463568D01*
X5916Y463580D01*
X5924Y463588D01*
X6251Y464077D01*
X6923Y464749D01*
X7714Y465277D01*
X8592Y465641D01*
X8985Y465719D01*
X8985Y461000D01*
X8993Y460942D01*
X8991Y460884D01*
X9013Y460802D01*
X9024Y460719D01*
X9048Y460665D01*
X9063Y460609D01*
X9106Y460536D01*
X9141Y460459D01*
X9178Y460415D01*
X9208Y460365D01*
X9209Y460364D01*
X9270Y460307D01*
X9324Y460242D01*
X9325Y460242D01*
X9373Y460210D01*
X9416Y460169D01*
X9491Y460131D01*
X9561Y460084D01*
X9617Y460067D01*
X9669Y460040D01*
X9737Y460029D01*
X9832Y459999D01*
X9932Y459996D01*
X10000Y459985D01*
X14719Y459985D01*
X14641Y459592D01*
X14277Y458714D01*
X13749Y457923D01*
X13341Y457515D01*
X13305Y457468D01*
X13263Y457428D01*
X13220Y457355D01*
X13170Y457287D01*
X13149Y457233D01*
X13119Y457182D01*
X13099Y457101D01*
X13069Y457022D01*
X13064Y456963D01*
X13049Y456907D01*
X13052Y456823D01*
X13045Y456738D01*
X13056Y456681D01*
X13058Y456623D01*
X13084Y456542D01*
X13101Y456460D01*
X13128Y456408D01*
X13146Y456352D01*
X13186Y456296D01*
X13232Y456207D01*
X13301Y456135D01*
X13341Y456079D01*
X17636Y451784D01*
X20352Y445226D01*
X20383Y445174D01*
X20404Y445118D01*
X20450Y445059D01*
X20454Y445051D01*
X20459Y445045D01*
X20496Y444982D01*
X20540Y444940D01*
X20577Y444892D01*
X20635Y444849D01*
X20644Y444839D01*
X20653Y444834D01*
X20703Y444786D01*
X20757Y444759D01*
X20805Y444723D01*
X20869Y444699D01*
X20885Y444689D01*
X20900Y444685D01*
X20956Y444656D01*
X21015Y444645D01*
X21071Y444623D01*
X21133Y444619D01*
X21158Y444612D01*
X21179Y444612D01*
X21235Y444601D01*
X21295Y444606D01*
X21355Y444602D01*
X21421Y444617D01*
X21461Y444621D01*
X21494Y444622D01*
X21510Y444625D01*
X21518Y444626D01*
X21522Y444627D01*
X21985Y444719D01*
X21985Y440000D01*
X21985Y435281D01*
X21494Y435378D01*
X21457Y435380D01*
X21407Y435394D01*
X21346Y435392D01*
X21287Y435400D01*
X21235Y435393D01*
X21210Y435394D01*
X21183Y435388D01*
X21122Y435386D01*
X21065Y435368D01*
X21005Y435360D01*
X20950Y435335D01*
X20933Y435331D01*
X20916Y435321D01*
X20851Y435301D01*
X20801Y435267D01*
X20746Y435243D01*
X20695Y435199D01*
X20684Y435193D01*
X20675Y435183D01*
X20615Y435143D01*
X20576Y435097D01*
X20530Y435058D01*
X20496Y435004D01*
X20484Y434992D01*
X20479Y434983D01*
X20431Y434926D01*
X20389Y434833D01*
X20352Y434774D01*
X17636Y428216D01*
X13341Y423921D01*
X13305Y423874D01*
X13263Y423834D01*
X13220Y423761D01*
X13170Y423694D01*
X13149Y423639D01*
X13119Y423589D01*
X13099Y423507D01*
X13069Y423428D01*
X13064Y423370D01*
X13049Y423313D01*
X13052Y423229D01*
X13045Y423145D01*
X13056Y423088D01*
X13058Y423029D01*
X13084Y422949D01*
X13101Y422866D01*
X13128Y422814D01*
X13146Y422759D01*
X13186Y422702D01*
X13232Y422614D01*
X13301Y422542D01*
X13341Y422485D01*
X13749Y422077D01*
X14277Y421286D01*
X14641Y420408D01*
X14719Y420015D01*
X10000Y420015D01*
X9942Y420007D01*
X9884Y420009D01*
X9802Y419987D01*
X9719Y419976D01*
X9665Y419952D01*
X9609Y419937D01*
X9536Y419894D01*
X9459Y419859D01*
X9415Y419822D01*
X9365Y419792D01*
X9364Y419791D01*
X9306Y419730D01*
X9242Y419676D01*
X9242Y419675D01*
X9210Y419627D01*
X9169Y419584D01*
X9131Y419509D01*
X9084Y419439D01*
X9067Y419383D01*
X9040Y419331D01*
X9029Y419263D01*
X8999Y419168D01*
X8996Y419068D01*
X8985Y419000D01*
X8985Y414281D01*
X8592Y414359D01*
X7714Y414723D01*
X6923Y415251D01*
X6251Y415923D01*
X5924Y416412D01*
X5838Y416508D01*
X5755Y416606D01*
X5744Y416614D01*
X5735Y416624D01*
X5626Y416692D01*
X5519Y416764D01*
X5506Y416768D01*
X5494Y416775D01*
X5371Y416810D01*
X5248Y416849D01*
X5234Y416850D01*
X5221Y416854D01*
X5092Y416853D01*
X4964Y416857D01*
X4950Y416853D01*
X4936Y416853D01*
X4813Y416817D01*
X4689Y416785D01*
X4677Y416778D01*
X4663Y416774D01*
X4554Y416705D01*
X4444Y416640D01*
X4435Y416629D01*
X4423Y416622D01*
X4338Y416526D01*
X4250Y416432D01*
X4243Y416420D01*
X4234Y416409D01*
X4179Y416294D01*
X4120Y416179D01*
X4118Y416167D01*
X4112Y416153D01*
X4065Y415872D01*
X4067Y415859D01*
X4065Y415848D01*
X4065Y45080D01*
X4073Y45022D01*
X4071Y44964D01*
X4093Y44882D01*
X4105Y44798D01*
X4128Y44745D01*
X4143Y44689D01*
X4186Y44616D01*
X4221Y44539D01*
X4259Y44494D01*
X4288Y44444D01*
X4350Y44386D01*
X4404Y44322D01*
X4453Y44290D01*
X4496Y44250D01*
X4571Y44211D01*
X4641Y44164D01*
X4697Y44147D01*
X4749Y44120D01*
X4817Y44109D01*
X4912Y44079D01*
X5012Y44076D01*
X5080Y44065D01*
X85438Y44065D01*
X85451Y44067D01*
X85462Y44065D01*
X87863Y44124D01*
X92187Y41766D01*
X94753Y37561D01*
X94764Y37130D01*
X94776Y37056D01*
X94779Y36981D01*
X94800Y36917D01*
X94811Y36850D01*
X94815Y36841D01*
X94815Y35062D01*
X94817Y35049D01*
X94815Y35038D01*
X94859Y33237D01*
X94835Y33169D01*
X94827Y33044D01*
X94815Y32968D01*
X94815Y5080D01*
X94823Y5022D01*
X94821Y4964D01*
X94843Y4882D01*
X94855Y4798D01*
X94878Y4745D01*
X94893Y4689D01*
X94936Y4616D01*
X94971Y4539D01*
X95009Y4494D01*
X95038Y4444D01*
X95100Y4386D01*
X95154Y4322D01*
X95203Y4290D01*
X95246Y4250D01*
X95321Y4211D01*
X95391Y4164D01*
X95447Y4147D01*
X95499Y4120D01*
X95567Y4109D01*
X95662Y4079D01*
X95762Y4076D01*
X95830Y4065D01*
X205170Y4065D01*
X205228Y4073D01*
G37*
%LPC*%
G36*
X27578Y118831D02*
X27578Y118831D01*
X23657Y120456D01*
X20656Y123457D01*
X19031Y127378D01*
X19031Y131622D01*
X20656Y135543D01*
X23657Y138544D01*
X27578Y140169D01*
X31822Y140169D01*
X35743Y138544D01*
X38744Y135543D01*
X40369Y131622D01*
X40369Y127378D01*
X38744Y123457D01*
X35743Y120456D01*
X31822Y118831D01*
X27578Y118831D01*
G37*
%LPD*%
%LPC*%
G36*
X412667Y118831D02*
X412667Y118831D01*
X408746Y120456D01*
X405745Y123457D01*
X404121Y127378D01*
X404121Y131622D01*
X405745Y135543D01*
X408746Y138544D01*
X412667Y140169D01*
X416912Y140169D01*
X420833Y138544D01*
X423834Y135543D01*
X425458Y131622D01*
X425458Y127378D01*
X423834Y123457D01*
X420833Y120456D01*
X416912Y118831D01*
X412667Y118831D01*
G37*
%LPD*%
%LPC*%
G36*
X797731Y118831D02*
X797731Y118831D01*
X793810Y120456D01*
X790809Y123457D01*
X789185Y127378D01*
X789185Y131622D01*
X790809Y135543D01*
X793810Y138544D01*
X797731Y140169D01*
X801976Y140169D01*
X805897Y138544D01*
X808898Y135543D01*
X810522Y131622D01*
X810522Y127378D01*
X808898Y123457D01*
X805897Y120456D01*
X801976Y118831D01*
X797731Y118831D01*
G37*
%LPD*%
%LPC*%
G36*
X27578Y144231D02*
X27578Y144231D01*
X23657Y145856D01*
X20656Y148857D01*
X19031Y152778D01*
X19031Y157022D01*
X20656Y160943D01*
X23657Y163944D01*
X27578Y165569D01*
X31822Y165569D01*
X35743Y163944D01*
X38744Y160943D01*
X40369Y157022D01*
X40369Y152778D01*
X38744Y148857D01*
X35743Y145856D01*
X31822Y144231D01*
X27578Y144231D01*
G37*
%LPD*%
%LPC*%
G36*
X412667Y144231D02*
X412667Y144231D01*
X408746Y145856D01*
X405745Y148857D01*
X404121Y152778D01*
X404121Y157022D01*
X405745Y160943D01*
X408746Y163944D01*
X412667Y165569D01*
X416912Y165569D01*
X420833Y163944D01*
X423834Y160943D01*
X425458Y157022D01*
X425458Y152778D01*
X423834Y148857D01*
X420833Y145856D01*
X416912Y144231D01*
X412667Y144231D01*
G37*
%LPD*%
%LPC*%
G36*
X797731Y144231D02*
X797731Y144231D01*
X793810Y145856D01*
X790809Y148857D01*
X789185Y152778D01*
X789185Y157022D01*
X790809Y160943D01*
X793810Y163944D01*
X797731Y165569D01*
X801976Y165569D01*
X805897Y163944D01*
X808898Y160943D01*
X810522Y157022D01*
X810522Y152778D01*
X808898Y148857D01*
X805897Y145856D01*
X801976Y144231D01*
X797731Y144231D01*
G37*
%LPD*%
%LPC*%
G36*
X1036554Y32765D02*
X1036554Y32765D01*
X1034593Y33577D01*
X1033093Y35078D01*
X1032281Y37039D01*
X1032281Y39161D01*
X1033093Y41122D01*
X1034593Y42623D01*
X1036554Y43435D01*
X1036845Y43435D01*
X1036847Y43435D01*
X1036848Y43435D01*
X1036988Y43455D01*
X1037127Y43475D01*
X1037128Y43475D01*
X1037130Y43475D01*
X1037256Y43532D01*
X1037386Y43591D01*
X1037387Y43592D01*
X1037389Y43593D01*
X1037496Y43684D01*
X1037603Y43774D01*
X1037604Y43776D01*
X1037605Y43777D01*
X1037613Y43790D01*
X1037761Y44011D01*
X1037770Y44040D01*
X1037783Y44061D01*
X1038249Y45186D01*
X1039750Y46687D01*
X1041710Y47499D01*
X1043833Y47499D01*
X1045794Y46687D01*
X1047294Y45186D01*
X1047707Y44188D01*
X1047708Y44187D01*
X1047709Y44186D01*
X1047778Y44069D01*
X1047852Y43944D01*
X1047853Y43942D01*
X1047854Y43941D01*
X1047957Y43844D01*
X1048058Y43748D01*
X1048060Y43748D01*
X1048061Y43747D01*
X1048187Y43682D01*
X1048311Y43618D01*
X1048313Y43618D01*
X1048314Y43617D01*
X1048329Y43615D01*
X1048590Y43563D01*
X1048621Y43566D01*
X1048645Y43562D01*
X1049040Y43562D01*
X1051001Y42750D01*
X1052501Y41249D01*
X1053313Y39288D01*
X1053313Y37669D01*
X1053318Y37637D01*
X1053315Y37604D01*
X1053338Y37496D01*
X1053353Y37387D01*
X1053366Y37358D01*
X1053373Y37326D01*
X1053385Y37303D01*
X1053377Y37287D01*
X1053337Y37222D01*
X1052501Y35205D01*
X1051001Y33704D01*
X1049040Y32892D01*
X1046917Y32892D01*
X1044957Y33704D01*
X1043578Y35083D01*
X1043532Y35118D01*
X1043491Y35160D01*
X1043419Y35203D01*
X1043351Y35254D01*
X1043297Y35274D01*
X1043246Y35304D01*
X1043164Y35325D01*
X1043086Y35355D01*
X1043027Y35360D01*
X1042971Y35374D01*
X1042886Y35371D01*
X1042802Y35378D01*
X1042745Y35367D01*
X1042686Y35365D01*
X1042606Y35339D01*
X1042523Y35323D01*
X1042472Y35296D01*
X1042416Y35278D01*
X1042360Y35237D01*
X1042271Y35192D01*
X1042199Y35123D01*
X1042143Y35083D01*
X1040637Y33577D01*
X1038677Y32765D01*
X1036554Y32765D01*
G37*
%LPD*%
%LPC*%
G36*
X266401Y32765D02*
X266401Y32765D01*
X264440Y33577D01*
X262939Y35078D01*
X262127Y37039D01*
X262127Y39161D01*
X262939Y41122D01*
X264440Y42623D01*
X266401Y43435D01*
X266692Y43435D01*
X266693Y43435D01*
X266695Y43435D01*
X266835Y43455D01*
X266973Y43475D01*
X266975Y43475D01*
X266976Y43475D01*
X267102Y43532D01*
X267233Y43591D01*
X267234Y43592D01*
X267235Y43593D01*
X267343Y43684D01*
X267450Y43774D01*
X267451Y43776D01*
X267452Y43777D01*
X267460Y43790D01*
X267607Y44011D01*
X267617Y44040D01*
X267630Y44061D01*
X268096Y45186D01*
X269596Y46687D01*
X271557Y47499D01*
X273679Y47499D01*
X275640Y46687D01*
X277141Y45186D01*
X277554Y44188D01*
X277555Y44187D01*
X277555Y44186D01*
X277624Y44069D01*
X277698Y43944D01*
X277700Y43942D01*
X277700Y43941D01*
X277803Y43844D01*
X277905Y43748D01*
X277906Y43748D01*
X277908Y43747D01*
X278033Y43682D01*
X278158Y43618D01*
X278159Y43618D01*
X278161Y43617D01*
X278176Y43615D01*
X278437Y43563D01*
X278467Y43566D01*
X278492Y43562D01*
X278886Y43562D01*
X280847Y42750D01*
X282348Y41249D01*
X283160Y39288D01*
X283160Y37669D01*
X283164Y37637D01*
X283162Y37604D01*
X283184Y37496D01*
X283200Y37387D01*
X283213Y37358D01*
X283220Y37326D01*
X283232Y37303D01*
X283224Y37287D01*
X283183Y37222D01*
X282348Y35205D01*
X280847Y33704D01*
X278886Y32892D01*
X276764Y32892D01*
X274803Y33704D01*
X273425Y35083D01*
X273378Y35118D01*
X273338Y35160D01*
X273265Y35203D01*
X273198Y35254D01*
X273143Y35274D01*
X273093Y35304D01*
X273011Y35325D01*
X272932Y35355D01*
X272874Y35360D01*
X272817Y35374D01*
X272733Y35371D01*
X272649Y35378D01*
X272592Y35367D01*
X272533Y35365D01*
X272453Y35339D01*
X272370Y35323D01*
X272318Y35296D01*
X272263Y35278D01*
X272206Y35237D01*
X272118Y35192D01*
X272045Y35123D01*
X271989Y35083D01*
X270484Y33577D01*
X268523Y32765D01*
X266401Y32765D01*
G37*
%LPD*%
%LPC*%
G36*
X651490Y32765D02*
X651490Y32765D01*
X649529Y33577D01*
X648029Y35078D01*
X647217Y37039D01*
X647217Y39161D01*
X648029Y41122D01*
X649529Y42623D01*
X651490Y43435D01*
X651781Y43435D01*
X651783Y43435D01*
X651784Y43435D01*
X651924Y43455D01*
X652063Y43475D01*
X652064Y43475D01*
X652066Y43475D01*
X652192Y43532D01*
X652322Y43591D01*
X652323Y43592D01*
X652325Y43593D01*
X652432Y43684D01*
X652539Y43774D01*
X652540Y43776D01*
X652541Y43777D01*
X652549Y43790D01*
X652697Y44011D01*
X652706Y44040D01*
X652719Y44061D01*
X653185Y45186D01*
X654686Y46687D01*
X656646Y47499D01*
X658769Y47499D01*
X660730Y46687D01*
X662230Y45186D01*
X662643Y44188D01*
X662644Y44187D01*
X662645Y44186D01*
X662714Y44069D01*
X662788Y43944D01*
X662789Y43942D01*
X662790Y43941D01*
X662893Y43844D01*
X662994Y43748D01*
X662996Y43748D01*
X662997Y43747D01*
X663123Y43682D01*
X663247Y43618D01*
X663249Y43618D01*
X663250Y43617D01*
X663265Y43615D01*
X663526Y43563D01*
X663557Y43566D01*
X663581Y43562D01*
X663976Y43562D01*
X665937Y42750D01*
X667437Y41249D01*
X668249Y39288D01*
X668249Y37669D01*
X668254Y37637D01*
X668251Y37604D01*
X668274Y37496D01*
X668289Y37387D01*
X668302Y37358D01*
X668309Y37326D01*
X668321Y37303D01*
X668313Y37287D01*
X668273Y37222D01*
X667437Y35205D01*
X665937Y33704D01*
X663976Y32892D01*
X661853Y32892D01*
X659893Y33704D01*
X658514Y35083D01*
X658468Y35118D01*
X658427Y35160D01*
X658355Y35203D01*
X658287Y35254D01*
X658233Y35274D01*
X658182Y35304D01*
X658101Y35325D01*
X658022Y35355D01*
X657963Y35360D01*
X657907Y35374D01*
X657822Y35371D01*
X657738Y35378D01*
X657681Y35367D01*
X657622Y35365D01*
X657542Y35339D01*
X657460Y35323D01*
X657408Y35296D01*
X657352Y35278D01*
X657296Y35238D01*
X657207Y35192D01*
X657135Y35123D01*
X657079Y35083D01*
X655573Y33577D01*
X653613Y32765D01*
X651490Y32765D01*
G37*
%LPD*%
%LPC*%
G36*
X1058092Y286765D02*
X1058092Y286765D01*
X1056131Y287577D01*
X1054631Y289078D01*
X1053806Y291069D01*
X1053748Y291167D01*
X1053695Y291269D01*
X1053676Y291290D01*
X1053662Y291313D01*
X1053578Y291392D01*
X1053499Y291475D01*
X1053475Y291489D01*
X1053455Y291509D01*
X1053353Y291561D01*
X1053254Y291619D01*
X1053227Y291626D01*
X1053202Y291639D01*
X1053090Y291661D01*
X1052979Y291689D01*
X1052951Y291688D01*
X1052924Y291694D01*
X1052809Y291684D01*
X1052694Y291680D01*
X1052668Y291672D01*
X1052640Y291669D01*
X1052533Y291628D01*
X1052424Y291593D01*
X1052404Y291578D01*
X1052375Y291567D01*
X1052163Y291406D01*
X1052151Y291398D01*
X1050745Y289993D01*
X1048785Y289181D01*
X1046662Y289181D01*
X1044702Y289993D01*
X1043201Y291493D01*
X1042389Y293454D01*
X1042389Y295577D01*
X1043201Y297537D01*
X1044702Y299038D01*
X1046662Y299850D01*
X1048785Y299850D01*
X1050746Y299038D01*
X1052246Y297537D01*
X1053071Y295547D01*
X1053129Y295448D01*
X1053182Y295346D01*
X1053201Y295326D01*
X1053215Y295302D01*
X1053299Y295223D01*
X1053378Y295140D01*
X1053402Y295126D01*
X1053422Y295107D01*
X1053524Y295054D01*
X1053623Y294996D01*
X1053650Y294989D01*
X1053675Y294977D01*
X1053787Y294954D01*
X1053898Y294926D01*
X1053926Y294927D01*
X1053953Y294922D01*
X1054068Y294932D01*
X1054183Y294935D01*
X1054209Y294944D01*
X1054237Y294946D01*
X1054344Y294987D01*
X1054453Y295023D01*
X1054473Y295037D01*
X1054502Y295048D01*
X1054714Y295209D01*
X1054726Y295218D01*
X1056132Y296623D01*
X1058092Y297435D01*
X1060215Y297435D01*
X1062175Y296623D01*
X1063676Y295122D01*
X1064488Y293161D01*
X1064488Y291039D01*
X1063676Y289078D01*
X1062175Y287577D01*
X1060215Y286765D01*
X1058092Y286765D01*
G37*
%LPD*%
%LPC*%
G36*
X673028Y286765D02*
X673028Y286765D01*
X671067Y287577D01*
X669567Y289078D01*
X668742Y291069D01*
X668684Y291167D01*
X668631Y291269D01*
X668612Y291290D01*
X668598Y291313D01*
X668514Y291392D01*
X668435Y291475D01*
X668411Y291489D01*
X668391Y291509D01*
X668289Y291561D01*
X668190Y291619D01*
X668163Y291626D01*
X668138Y291639D01*
X668026Y291661D01*
X667915Y291689D01*
X667887Y291688D01*
X667860Y291694D01*
X667745Y291684D01*
X667630Y291680D01*
X667604Y291672D01*
X667576Y291669D01*
X667469Y291628D01*
X667360Y291593D01*
X667340Y291578D01*
X667311Y291567D01*
X667099Y291406D01*
X667087Y291398D01*
X665681Y289993D01*
X663721Y289181D01*
X661598Y289181D01*
X659638Y289993D01*
X658137Y291493D01*
X657325Y293454D01*
X657325Y295577D01*
X658137Y297537D01*
X659638Y299038D01*
X661598Y299850D01*
X663721Y299850D01*
X665682Y299038D01*
X667182Y297537D01*
X668007Y295547D01*
X668065Y295448D01*
X668118Y295346D01*
X668137Y295326D01*
X668151Y295302D01*
X668235Y295223D01*
X668314Y295140D01*
X668338Y295126D01*
X668358Y295107D01*
X668460Y295054D01*
X668559Y294996D01*
X668586Y294989D01*
X668611Y294977D01*
X668723Y294954D01*
X668834Y294926D01*
X668862Y294927D01*
X668889Y294922D01*
X669004Y294932D01*
X669119Y294935D01*
X669145Y294944D01*
X669173Y294946D01*
X669280Y294987D01*
X669389Y295023D01*
X669409Y295037D01*
X669438Y295048D01*
X669650Y295209D01*
X669662Y295218D01*
X671068Y296623D01*
X673028Y297435D01*
X675151Y297435D01*
X677111Y296623D01*
X678612Y295122D01*
X679424Y293161D01*
X679424Y291039D01*
X678612Y289078D01*
X677111Y287577D01*
X675151Y286765D01*
X673028Y286765D01*
G37*
%LPD*%
%LPC*%
G36*
X287939Y286765D02*
X287939Y286765D01*
X285978Y287577D01*
X284477Y289078D01*
X283653Y291069D01*
X283595Y291167D01*
X283542Y291269D01*
X283523Y291290D01*
X283508Y291313D01*
X283425Y291392D01*
X283346Y291475D01*
X283322Y291489D01*
X283302Y291509D01*
X283200Y291561D01*
X283101Y291619D01*
X283074Y291626D01*
X283049Y291639D01*
X282936Y291661D01*
X282825Y291689D01*
X282797Y291688D01*
X282770Y291694D01*
X282656Y291684D01*
X282541Y291680D01*
X282514Y291672D01*
X282487Y291669D01*
X282380Y291628D01*
X282270Y291593D01*
X282250Y291578D01*
X282222Y291567D01*
X282009Y291406D01*
X281997Y291398D01*
X280592Y289993D01*
X278631Y289181D01*
X276509Y289181D01*
X274548Y289993D01*
X273048Y291493D01*
X272235Y293454D01*
X272235Y295577D01*
X273048Y297537D01*
X274548Y299038D01*
X276509Y299850D01*
X278631Y299850D01*
X280592Y299038D01*
X282093Y297537D01*
X282917Y295547D01*
X282975Y295448D01*
X283028Y295346D01*
X283048Y295326D01*
X283062Y295302D01*
X283145Y295223D01*
X283224Y295140D01*
X283248Y295126D01*
X283268Y295107D01*
X283371Y295054D01*
X283470Y294996D01*
X283496Y294989D01*
X283521Y294977D01*
X283634Y294954D01*
X283745Y294926D01*
X283773Y294927D01*
X283800Y294922D01*
X283914Y294932D01*
X284029Y294935D01*
X284056Y294944D01*
X284083Y294946D01*
X284190Y294987D01*
X284300Y295023D01*
X284320Y295037D01*
X284349Y295048D01*
X284561Y295209D01*
X284573Y295218D01*
X285978Y296623D01*
X287939Y297435D01*
X290061Y297435D01*
X292022Y296623D01*
X293523Y295122D01*
X294335Y293161D01*
X294335Y291039D01*
X293523Y289078D01*
X292022Y287577D01*
X290061Y286765D01*
X287939Y286765D01*
G37*
%LPD*%
%LPC*%
G36*
X883494Y292633D02*
X883494Y292633D01*
X881533Y293445D01*
X880032Y294945D01*
X879220Y296906D01*
X879220Y299029D01*
X880032Y300989D01*
X880382Y301339D01*
X880400Y301362D01*
X880422Y301381D01*
X880485Y301476D01*
X880553Y301566D01*
X880563Y301594D01*
X880580Y301618D01*
X880614Y301726D01*
X880654Y301832D01*
X880657Y301861D01*
X880665Y301889D01*
X880668Y302002D01*
X880678Y302115D01*
X880672Y302144D01*
X880673Y302173D01*
X880644Y302282D01*
X880622Y302394D01*
X880608Y302420D01*
X880601Y302448D01*
X880543Y302545D01*
X880491Y302646D01*
X880471Y302667D01*
X880456Y302693D01*
X880373Y302770D01*
X880295Y302852D01*
X880270Y302867D01*
X880248Y302887D01*
X880148Y302939D01*
X880050Y302996D01*
X880021Y303003D01*
X879995Y303017D01*
X879918Y303030D01*
X879774Y303066D01*
X879712Y303064D01*
X879664Y303072D01*
X878820Y303072D01*
X876859Y303884D01*
X875359Y305385D01*
X874547Y307346D01*
X874547Y309468D01*
X875359Y311429D01*
X876859Y312929D01*
X878820Y313742D01*
X880943Y313742D01*
X882903Y312929D01*
X884404Y311429D01*
X885216Y309468D01*
X885216Y307346D01*
X884404Y305385D01*
X884054Y305035D01*
X884037Y305012D01*
X884014Y304993D01*
X883952Y304899D01*
X883883Y304808D01*
X883873Y304781D01*
X883857Y304756D01*
X883823Y304648D01*
X883782Y304542D01*
X883780Y304513D01*
X883771Y304485D01*
X883768Y304372D01*
X883759Y304259D01*
X883764Y304230D01*
X883764Y304201D01*
X883792Y304092D01*
X883815Y303980D01*
X883828Y303954D01*
X883835Y303926D01*
X883893Y303829D01*
X883945Y303728D01*
X883966Y303707D01*
X883981Y303682D01*
X884063Y303604D01*
X884141Y303522D01*
X884167Y303507D01*
X884188Y303487D01*
X884289Y303435D01*
X884387Y303378D01*
X884415Y303371D01*
X884441Y303358D01*
X884518Y303345D01*
X884662Y303308D01*
X884725Y303310D01*
X884772Y303302D01*
X885616Y303302D01*
X887577Y302490D01*
X889078Y300989D01*
X889890Y299029D01*
X889890Y296906D01*
X889078Y294945D01*
X887577Y293445D01*
X885616Y292633D01*
X883494Y292633D01*
G37*
%LPD*%
%LPC*%
G36*
X498430Y292633D02*
X498430Y292633D01*
X496469Y293445D01*
X494968Y294945D01*
X494156Y296906D01*
X494156Y299029D01*
X494968Y300989D01*
X495318Y301339D01*
X495336Y301362D01*
X495358Y301381D01*
X495421Y301476D01*
X495489Y301566D01*
X495499Y301594D01*
X495516Y301618D01*
X495550Y301726D01*
X495590Y301832D01*
X495593Y301861D01*
X495601Y301889D01*
X495604Y302002D01*
X495614Y302115D01*
X495608Y302144D01*
X495609Y302173D01*
X495580Y302282D01*
X495558Y302394D01*
X495544Y302420D01*
X495537Y302448D01*
X495479Y302545D01*
X495427Y302646D01*
X495407Y302667D01*
X495392Y302693D01*
X495309Y302770D01*
X495231Y302852D01*
X495206Y302867D01*
X495184Y302887D01*
X495084Y302939D01*
X494986Y302996D01*
X494957Y303003D01*
X494931Y303017D01*
X494854Y303030D01*
X494710Y303066D01*
X494648Y303064D01*
X494600Y303072D01*
X493756Y303072D01*
X491795Y303884D01*
X490295Y305385D01*
X489483Y307346D01*
X489483Y309468D01*
X490295Y311429D01*
X491795Y312929D01*
X493756Y313742D01*
X495879Y313742D01*
X497839Y312929D01*
X499340Y311429D01*
X500152Y309468D01*
X500152Y307346D01*
X499340Y305385D01*
X498990Y305035D01*
X498973Y305012D01*
X498950Y304993D01*
X498888Y304899D01*
X498819Y304808D01*
X498809Y304781D01*
X498793Y304756D01*
X498759Y304648D01*
X498718Y304542D01*
X498716Y304513D01*
X498707Y304485D01*
X498704Y304372D01*
X498695Y304259D01*
X498700Y304230D01*
X498700Y304201D01*
X498728Y304092D01*
X498751Y303980D01*
X498764Y303954D01*
X498771Y303926D01*
X498829Y303829D01*
X498881Y303728D01*
X498902Y303707D01*
X498917Y303682D01*
X498999Y303604D01*
X499077Y303522D01*
X499103Y303507D01*
X499124Y303487D01*
X499225Y303435D01*
X499323Y303378D01*
X499351Y303371D01*
X499377Y303358D01*
X499454Y303345D01*
X499598Y303308D01*
X499661Y303310D01*
X499708Y303302D01*
X500552Y303302D01*
X502513Y302490D01*
X504014Y300989D01*
X504826Y299029D01*
X504826Y296906D01*
X504014Y294945D01*
X502513Y293445D01*
X500552Y292633D01*
X498430Y292633D01*
G37*
%LPD*%
%LPC*%
G36*
X113340Y292633D02*
X113340Y292633D01*
X111380Y293445D01*
X109879Y294945D01*
X109067Y296906D01*
X109067Y299029D01*
X109879Y300989D01*
X110229Y301339D01*
X110246Y301362D01*
X110269Y301381D01*
X110331Y301476D01*
X110400Y301566D01*
X110410Y301594D01*
X110426Y301618D01*
X110460Y301726D01*
X110501Y301832D01*
X110503Y301861D01*
X110512Y301889D01*
X110515Y302002D01*
X110524Y302115D01*
X110519Y302144D01*
X110519Y302173D01*
X110491Y302282D01*
X110468Y302394D01*
X110455Y302420D01*
X110448Y302448D01*
X110390Y302545D01*
X110338Y302646D01*
X110317Y302667D01*
X110302Y302693D01*
X110220Y302770D01*
X110142Y302852D01*
X110116Y302867D01*
X110095Y302887D01*
X109994Y302939D01*
X109896Y302996D01*
X109868Y303003D01*
X109842Y303017D01*
X109765Y303030D01*
X109621Y303066D01*
X109558Y303064D01*
X109511Y303072D01*
X108667Y303072D01*
X106706Y303884D01*
X105205Y305385D01*
X104393Y307346D01*
X104393Y309468D01*
X105205Y311429D01*
X106706Y312929D01*
X108667Y313742D01*
X110789Y313742D01*
X112750Y312929D01*
X114251Y311429D01*
X115063Y309468D01*
X115063Y307346D01*
X114251Y305385D01*
X113901Y305035D01*
X113883Y305012D01*
X113861Y304993D01*
X113798Y304899D01*
X113730Y304808D01*
X113720Y304781D01*
X113703Y304756D01*
X113669Y304648D01*
X113629Y304542D01*
X113626Y304513D01*
X113618Y304485D01*
X113615Y304372D01*
X113605Y304259D01*
X113611Y304230D01*
X113610Y304201D01*
X113639Y304092D01*
X113661Y303980D01*
X113675Y303954D01*
X113682Y303926D01*
X113740Y303829D01*
X113792Y303728D01*
X113812Y303707D01*
X113827Y303682D01*
X113910Y303604D01*
X113988Y303522D01*
X114013Y303507D01*
X114035Y303487D01*
X114135Y303435D01*
X114233Y303378D01*
X114262Y303371D01*
X114288Y303358D01*
X114365Y303345D01*
X114509Y303308D01*
X114571Y303310D01*
X114619Y303302D01*
X115463Y303302D01*
X117424Y302490D01*
X118924Y300989D01*
X119736Y299029D01*
X119736Y296906D01*
X118924Y294945D01*
X117424Y293445D01*
X115463Y292633D01*
X113340Y292633D01*
G37*
%LPD*%
%LPC*%
G36*
X719326Y277278D02*
X719326Y277278D01*
X717365Y278090D01*
X715946Y279509D01*
X715899Y279544D01*
X715859Y279587D01*
X715786Y279629D01*
X715719Y279680D01*
X715664Y279701D01*
X715614Y279730D01*
X715532Y279751D01*
X715453Y279781D01*
X715395Y279786D01*
X715338Y279800D01*
X715254Y279798D01*
X715170Y279805D01*
X715112Y279793D01*
X715054Y279791D01*
X714974Y279765D01*
X714891Y279749D01*
X714839Y279722D01*
X714783Y279704D01*
X714727Y279664D01*
X714639Y279618D01*
X714566Y279549D01*
X714510Y279509D01*
X713282Y278281D01*
X711321Y277469D01*
X709199Y277469D01*
X707238Y278281D01*
X705738Y279782D01*
X704925Y281742D01*
X704925Y283865D01*
X705738Y285826D01*
X707238Y287326D01*
X709199Y288138D01*
X711321Y288138D01*
X713282Y287326D01*
X714701Y285907D01*
X714748Y285872D01*
X714788Y285830D01*
X714861Y285787D01*
X714928Y285736D01*
X714983Y285716D01*
X715033Y285686D01*
X715115Y285665D01*
X715194Y285635D01*
X715252Y285630D01*
X715309Y285616D01*
X715393Y285619D01*
X715477Y285612D01*
X715534Y285623D01*
X715593Y285625D01*
X715673Y285651D01*
X715756Y285668D01*
X715808Y285694D01*
X715863Y285712D01*
X715919Y285752D01*
X716008Y285798D01*
X716081Y285867D01*
X716137Y285907D01*
X717365Y287135D01*
X719326Y287948D01*
X721448Y287948D01*
X723409Y287135D01*
X724909Y285635D01*
X725721Y283674D01*
X725721Y281552D01*
X724909Y279591D01*
X723409Y278090D01*
X721448Y277278D01*
X719326Y277278D01*
G37*
%LPD*%
%LPC*%
G36*
X1104390Y277278D02*
X1104390Y277278D01*
X1102429Y278090D01*
X1101010Y279509D01*
X1100963Y279544D01*
X1100923Y279587D01*
X1100850Y279629D01*
X1100783Y279680D01*
X1100728Y279701D01*
X1100678Y279730D01*
X1100596Y279751D01*
X1100517Y279781D01*
X1100459Y279786D01*
X1100402Y279800D01*
X1100318Y279798D01*
X1100234Y279805D01*
X1100177Y279793D01*
X1100118Y279791D01*
X1100038Y279765D01*
X1099955Y279749D01*
X1099903Y279722D01*
X1099848Y279704D01*
X1099791Y279664D01*
X1099703Y279618D01*
X1099630Y279549D01*
X1099574Y279509D01*
X1098346Y278281D01*
X1096385Y277469D01*
X1094263Y277469D01*
X1092302Y278281D01*
X1090802Y279782D01*
X1089989Y281742D01*
X1089989Y283865D01*
X1090802Y285826D01*
X1092302Y287326D01*
X1094263Y288138D01*
X1096385Y288138D01*
X1098346Y287326D01*
X1099765Y285907D01*
X1099812Y285872D01*
X1099852Y285830D01*
X1099925Y285787D01*
X1099992Y285736D01*
X1100047Y285716D01*
X1100097Y285686D01*
X1100179Y285665D01*
X1100258Y285635D01*
X1100316Y285630D01*
X1100373Y285616D01*
X1100457Y285619D01*
X1100541Y285612D01*
X1100598Y285623D01*
X1100657Y285625D01*
X1100737Y285651D01*
X1100820Y285668D01*
X1100872Y285694D01*
X1100927Y285712D01*
X1100984Y285753D01*
X1101072Y285799D01*
X1101144Y285867D01*
X1101201Y285907D01*
X1102429Y287135D01*
X1104390Y287948D01*
X1106512Y287948D01*
X1108473Y287135D01*
X1109973Y285635D01*
X1110785Y283674D01*
X1110785Y281552D01*
X1109973Y279591D01*
X1108473Y278090D01*
X1106512Y277278D01*
X1104390Y277278D01*
G37*
%LPD*%
%LPC*%
G36*
X334236Y277278D02*
X334236Y277278D01*
X332275Y278090D01*
X330857Y279509D01*
X330810Y279544D01*
X330770Y279587D01*
X330697Y279629D01*
X330629Y279680D01*
X330575Y279701D01*
X330524Y279730D01*
X330443Y279751D01*
X330364Y279781D01*
X330305Y279786D01*
X330249Y279800D01*
X330164Y279798D01*
X330080Y279805D01*
X330023Y279793D01*
X329965Y279791D01*
X329884Y279765D01*
X329802Y279749D01*
X329750Y279722D01*
X329694Y279704D01*
X329638Y279664D01*
X329549Y279618D01*
X329477Y279549D01*
X329421Y279509D01*
X328193Y278281D01*
X326232Y277469D01*
X324110Y277469D01*
X322149Y278281D01*
X320648Y279782D01*
X319836Y281742D01*
X319836Y283865D01*
X320648Y285826D01*
X322149Y287326D01*
X324110Y288138D01*
X326232Y288138D01*
X328193Y287326D01*
X329612Y285907D01*
X329658Y285872D01*
X329699Y285830D01*
X329771Y285787D01*
X329839Y285736D01*
X329893Y285716D01*
X329944Y285686D01*
X330025Y285665D01*
X330104Y285635D01*
X330163Y285630D01*
X330219Y285616D01*
X330304Y285619D01*
X330388Y285612D01*
X330445Y285623D01*
X330503Y285625D01*
X330584Y285651D01*
X330666Y285668D01*
X330718Y285694D01*
X330774Y285712D01*
X330830Y285753D01*
X330919Y285799D01*
X330991Y285867D01*
X331047Y285907D01*
X332275Y287135D01*
X334236Y287948D01*
X336358Y287948D01*
X338319Y287135D01*
X339820Y285635D01*
X340632Y283674D01*
X340632Y281552D01*
X339820Y279591D01*
X338319Y278090D01*
X336358Y277278D01*
X334236Y277278D01*
G37*
%LPD*%
%LPC*%
G36*
X656418Y307111D02*
X656418Y307111D01*
X654457Y307923D01*
X652956Y309423D01*
X652144Y311384D01*
X652144Y313614D01*
X652136Y313672D01*
X652138Y313730D01*
X652116Y313812D01*
X652104Y313895D01*
X652081Y313949D01*
X652066Y314005D01*
X652023Y314078D01*
X651988Y314155D01*
X651950Y314199D01*
X651921Y314250D01*
X651859Y314307D01*
X651805Y314372D01*
X651756Y314404D01*
X651713Y314444D01*
X651638Y314483D01*
X651568Y314529D01*
X651512Y314547D01*
X651460Y314574D01*
X651392Y314585D01*
X651297Y314615D01*
X651197Y314618D01*
X651129Y314629D01*
X650347Y314629D01*
X648386Y315441D01*
X646886Y316942D01*
X646074Y318903D01*
X646074Y321025D01*
X646886Y322986D01*
X648386Y324486D01*
X650347Y325299D01*
X652470Y325299D01*
X654430Y324486D01*
X655931Y322986D01*
X656743Y321025D01*
X656743Y318795D01*
X656751Y318737D01*
X656750Y318679D01*
X656771Y318597D01*
X656783Y318514D01*
X656807Y318460D01*
X656822Y318404D01*
X656865Y318332D01*
X656899Y318254D01*
X656937Y318210D01*
X656967Y318160D01*
X657028Y318102D01*
X657083Y318037D01*
X657131Y318005D01*
X657174Y317965D01*
X657249Y317927D01*
X657319Y317880D01*
X657375Y317862D01*
X657427Y317836D01*
X657495Y317824D01*
X657591Y317794D01*
X657690Y317792D01*
X657758Y317780D01*
X658540Y317780D01*
X660501Y316968D01*
X662002Y315467D01*
X662814Y313507D01*
X662814Y311384D01*
X662002Y309423D01*
X660501Y307923D01*
X658540Y307111D01*
X656418Y307111D01*
G37*
%LPD*%
%LPC*%
G36*
X1041482Y307111D02*
X1041482Y307111D01*
X1039521Y307923D01*
X1038020Y309423D01*
X1037208Y311384D01*
X1037208Y313614D01*
X1037200Y313672D01*
X1037202Y313730D01*
X1037180Y313812D01*
X1037168Y313895D01*
X1037145Y313949D01*
X1037130Y314005D01*
X1037087Y314078D01*
X1037052Y314155D01*
X1037014Y314199D01*
X1036985Y314250D01*
X1036923Y314307D01*
X1036869Y314372D01*
X1036820Y314404D01*
X1036777Y314444D01*
X1036702Y314483D01*
X1036632Y314529D01*
X1036576Y314547D01*
X1036524Y314574D01*
X1036456Y314585D01*
X1036361Y314615D01*
X1036261Y314618D01*
X1036193Y314629D01*
X1035411Y314629D01*
X1033450Y315441D01*
X1031950Y316942D01*
X1031138Y318903D01*
X1031138Y321025D01*
X1031950Y322986D01*
X1033450Y324486D01*
X1035411Y325299D01*
X1037534Y325299D01*
X1039494Y324486D01*
X1040995Y322986D01*
X1041807Y321025D01*
X1041807Y318795D01*
X1041815Y318737D01*
X1041814Y318679D01*
X1041835Y318597D01*
X1041847Y318514D01*
X1041871Y318460D01*
X1041886Y318404D01*
X1041929Y318332D01*
X1041963Y318254D01*
X1042001Y318210D01*
X1042031Y318160D01*
X1042092Y318102D01*
X1042147Y318037D01*
X1042195Y318005D01*
X1042238Y317965D01*
X1042313Y317927D01*
X1042383Y317880D01*
X1042439Y317862D01*
X1042491Y317836D01*
X1042559Y317824D01*
X1042655Y317794D01*
X1042754Y317792D01*
X1042822Y317780D01*
X1043604Y317780D01*
X1045565Y316968D01*
X1047066Y315467D01*
X1047878Y313507D01*
X1047878Y311384D01*
X1047066Y309423D01*
X1045565Y307923D01*
X1043604Y307111D01*
X1041482Y307111D01*
G37*
%LPD*%
%LPC*%
G36*
X271328Y307111D02*
X271328Y307111D01*
X269368Y307923D01*
X267867Y309423D01*
X267055Y311384D01*
X267055Y313614D01*
X267047Y313672D01*
X267048Y313730D01*
X267027Y313812D01*
X267015Y313895D01*
X266991Y313949D01*
X266976Y314005D01*
X266933Y314078D01*
X266899Y314155D01*
X266861Y314199D01*
X266831Y314250D01*
X266770Y314307D01*
X266715Y314372D01*
X266667Y314404D01*
X266624Y314444D01*
X266549Y314483D01*
X266479Y314529D01*
X266423Y314547D01*
X266371Y314574D01*
X266303Y314585D01*
X266207Y314615D01*
X266108Y314618D01*
X266040Y314629D01*
X265258Y314629D01*
X263297Y315441D01*
X261796Y316942D01*
X260984Y318903D01*
X260984Y321025D01*
X261796Y322986D01*
X263297Y324486D01*
X265258Y325299D01*
X267380Y325299D01*
X269341Y324486D01*
X270842Y322986D01*
X271654Y321025D01*
X271654Y318795D01*
X271662Y318737D01*
X271660Y318679D01*
X271682Y318597D01*
X271694Y318514D01*
X271717Y318460D01*
X271732Y318404D01*
X271775Y318332D01*
X271810Y318254D01*
X271848Y318210D01*
X271877Y318160D01*
X271939Y318102D01*
X271993Y318037D01*
X272042Y318005D01*
X272085Y317965D01*
X272160Y317927D01*
X272230Y317880D01*
X272286Y317862D01*
X272338Y317836D01*
X272406Y317824D01*
X272501Y317794D01*
X272601Y317792D01*
X272669Y317780D01*
X273451Y317780D01*
X275412Y316968D01*
X276912Y315467D01*
X277724Y313507D01*
X277724Y311384D01*
X276912Y309423D01*
X275412Y307923D01*
X273451Y307111D01*
X271328Y307111D01*
G37*
%LPD*%
%LPC*%
G36*
X926115Y30987D02*
X926115Y30987D01*
X924154Y31799D01*
X922654Y33300D01*
X921841Y35261D01*
X921841Y37383D01*
X922654Y39344D01*
X924154Y40845D01*
X925933Y41581D01*
X926009Y41626D01*
X926088Y41662D01*
X926130Y41698D01*
X926178Y41726D01*
X926238Y41789D01*
X926305Y41846D01*
X926330Y41887D01*
X926373Y41933D01*
X926441Y42064D01*
X926483Y42131D01*
X927327Y44170D01*
X928828Y45671D01*
X930789Y46483D01*
X932911Y46483D01*
X934872Y45671D01*
X936372Y44170D01*
X937185Y42209D01*
X937185Y40087D01*
X936372Y38126D01*
X934872Y36625D01*
X933093Y35889D01*
X933018Y35844D01*
X932938Y35808D01*
X932896Y35772D01*
X932848Y35744D01*
X932788Y35681D01*
X932721Y35624D01*
X932696Y35583D01*
X932653Y35537D01*
X932585Y35406D01*
X932543Y35339D01*
X931699Y33300D01*
X930198Y31799D01*
X928237Y30987D01*
X926115Y30987D01*
G37*
%LPD*%
%LPC*%
G36*
X155962Y30987D02*
X155962Y30987D01*
X154001Y31799D01*
X152500Y33300D01*
X151688Y35261D01*
X151688Y37383D01*
X152500Y39344D01*
X154001Y40845D01*
X155780Y41581D01*
X155855Y41626D01*
X155935Y41662D01*
X155977Y41698D01*
X156025Y41726D01*
X156085Y41789D01*
X156151Y41846D01*
X156177Y41887D01*
X156220Y41933D01*
X156288Y42064D01*
X156329Y42131D01*
X157174Y44170D01*
X158674Y45671D01*
X160635Y46483D01*
X162758Y46483D01*
X164718Y45671D01*
X166219Y44170D01*
X167031Y42209D01*
X167031Y40087D01*
X166219Y38126D01*
X164718Y36625D01*
X162939Y35889D01*
X162864Y35844D01*
X162784Y35808D01*
X162742Y35772D01*
X162695Y35744D01*
X162635Y35681D01*
X162568Y35624D01*
X162542Y35583D01*
X162499Y35537D01*
X162432Y35406D01*
X162390Y35339D01*
X161545Y33300D01*
X160045Y31799D01*
X158084Y30987D01*
X155962Y30987D01*
G37*
%LPD*%
%LPC*%
G36*
X541051Y30987D02*
X541051Y30987D01*
X539090Y31799D01*
X537590Y33300D01*
X536777Y35261D01*
X536777Y37383D01*
X537590Y39344D01*
X539090Y40845D01*
X540869Y41581D01*
X540945Y41626D01*
X541024Y41662D01*
X541066Y41698D01*
X541114Y41726D01*
X541174Y41789D01*
X541241Y41846D01*
X541266Y41887D01*
X541309Y41933D01*
X541377Y42064D01*
X541419Y42131D01*
X542263Y44170D01*
X543764Y45671D01*
X545725Y46483D01*
X547847Y46483D01*
X549808Y45671D01*
X551308Y44170D01*
X552121Y42209D01*
X552121Y40087D01*
X551308Y38126D01*
X549808Y36625D01*
X548029Y35889D01*
X547954Y35844D01*
X547874Y35808D01*
X547832Y35772D01*
X547784Y35744D01*
X547724Y35681D01*
X547657Y35624D01*
X547632Y35583D01*
X547589Y35537D01*
X547521Y35406D01*
X547479Y35339D01*
X546635Y33300D01*
X545134Y31799D01*
X543173Y30987D01*
X541051Y30987D01*
G37*
%LPD*%
%LPC*%
G36*
X13892Y66686D02*
X13892Y66686D01*
X13847Y66699D01*
X13805Y66720D01*
X13731Y66733D01*
X13689Y66745D01*
X12613Y67821D01*
X12576Y67849D01*
X12553Y67877D01*
X11394Y68862D01*
X11379Y68928D01*
X11356Y68969D01*
X11342Y69014D01*
X11298Y69075D01*
X11277Y69114D01*
X11277Y70635D01*
X11270Y70680D01*
X11274Y70717D01*
X11151Y72233D01*
X11187Y72291D01*
X11200Y72335D01*
X11221Y72377D01*
X11234Y72451D01*
X11246Y72494D01*
X11458Y72705D01*
X11483Y72739D01*
X11515Y72767D01*
X11568Y72852D01*
X11629Y72932D01*
X11644Y72972D01*
X11666Y73007D01*
X11694Y73104D01*
X11730Y73198D01*
X11733Y73240D01*
X11745Y73281D01*
X11745Y73381D01*
X11754Y73481D01*
X11745Y73523D01*
X11745Y73565D01*
X11722Y73638D01*
X11698Y73760D01*
X11662Y73830D01*
X11644Y73885D01*
X10956Y75232D01*
X11475Y76834D01*
X12078Y78697D01*
X15246Y81001D01*
X18888Y81001D01*
X19048Y80842D01*
X19214Y80716D01*
X19258Y80680D01*
X21295Y79504D01*
X22472Y77466D01*
X22600Y77302D01*
X22633Y77256D01*
X22793Y77096D01*
X22793Y73693D01*
X22788Y73685D01*
X22738Y73617D01*
X22717Y73563D01*
X22687Y73512D01*
X22666Y73430D01*
X22636Y73352D01*
X22632Y73293D01*
X22617Y73237D01*
X22620Y73152D01*
X22613Y73068D01*
X22624Y73011D01*
X22626Y72952D01*
X22652Y72872D01*
X22669Y72790D01*
X22696Y72738D01*
X22714Y72682D01*
X22754Y72626D01*
X22793Y72550D01*
X22793Y69157D01*
X20412Y66776D01*
X15547Y66776D01*
X15502Y66769D01*
X15465Y66773D01*
X13949Y66650D01*
X13892Y66686D01*
G37*
%LPD*%
%LPC*%
G36*
X784045Y66686D02*
X784045Y66686D01*
X784000Y66699D01*
X783959Y66720D01*
X783885Y66733D01*
X783842Y66745D01*
X782766Y67821D01*
X782730Y67849D01*
X782706Y67877D01*
X781547Y68862D01*
X781532Y68928D01*
X781510Y68969D01*
X781495Y69014D01*
X781452Y69075D01*
X781430Y69114D01*
X781430Y70635D01*
X781424Y70680D01*
X781427Y70717D01*
X781304Y72233D01*
X781341Y72291D01*
X781354Y72335D01*
X781375Y72377D01*
X781387Y72451D01*
X781400Y72494D01*
X781611Y72705D01*
X781637Y72739D01*
X781668Y72767D01*
X781722Y72852D01*
X781782Y72932D01*
X781797Y72972D01*
X781820Y73007D01*
X781848Y73104D01*
X781883Y73198D01*
X781887Y73240D01*
X781899Y73281D01*
X781899Y73381D01*
X781907Y73481D01*
X781899Y73523D01*
X781899Y73565D01*
X781876Y73638D01*
X781851Y73760D01*
X781815Y73829D01*
X781798Y73885D01*
X781109Y75232D01*
X781628Y76834D01*
X782231Y78697D01*
X785399Y81001D01*
X789041Y81001D01*
X789201Y80842D01*
X789368Y80716D01*
X789411Y80680D01*
X791449Y79504D01*
X792625Y77466D01*
X792754Y77302D01*
X792787Y77256D01*
X792946Y77096D01*
X792946Y73693D01*
X792942Y73685D01*
X792891Y73617D01*
X792870Y73563D01*
X792841Y73512D01*
X792820Y73430D01*
X792790Y73352D01*
X792785Y73293D01*
X792771Y73237D01*
X792773Y73152D01*
X792766Y73068D01*
X792778Y73011D01*
X792780Y72952D01*
X792806Y72872D01*
X792822Y72790D01*
X792849Y72738D01*
X792867Y72682D01*
X792907Y72626D01*
X792946Y72550D01*
X792946Y69157D01*
X790565Y66776D01*
X785701Y66776D01*
X785655Y66769D01*
X785619Y66773D01*
X784103Y66650D01*
X784045Y66686D01*
G37*
%LPD*%
%LPC*%
G36*
X398981Y66686D02*
X398981Y66686D01*
X398936Y66699D01*
X398895Y66720D01*
X398821Y66733D01*
X398778Y66745D01*
X397702Y67821D01*
X397666Y67849D01*
X397642Y67877D01*
X396483Y68862D01*
X396468Y68928D01*
X396446Y68969D01*
X396431Y69014D01*
X396388Y69075D01*
X396366Y69114D01*
X396366Y70635D01*
X396360Y70680D01*
X396363Y70717D01*
X396240Y72233D01*
X396277Y72291D01*
X396290Y72335D01*
X396311Y72377D01*
X396323Y72451D01*
X396336Y72494D01*
X396547Y72705D01*
X396573Y72739D01*
X396604Y72767D01*
X396658Y72852D01*
X396718Y72932D01*
X396733Y72972D01*
X396756Y73007D01*
X396784Y73104D01*
X396819Y73198D01*
X396823Y73240D01*
X396835Y73281D01*
X396835Y73381D01*
X396843Y73481D01*
X396835Y73523D01*
X396835Y73565D01*
X396811Y73638D01*
X396787Y73760D01*
X396751Y73829D01*
X396734Y73885D01*
X396045Y75232D01*
X396564Y76834D01*
X397167Y78697D01*
X400335Y81001D01*
X403977Y81001D01*
X404137Y80842D01*
X404304Y80716D01*
X404347Y80680D01*
X406385Y79504D01*
X407561Y77466D01*
X407690Y77302D01*
X407723Y77256D01*
X407882Y77096D01*
X407882Y73693D01*
X407878Y73685D01*
X407827Y73617D01*
X407806Y73563D01*
X407777Y73512D01*
X407756Y73431D01*
X407726Y73352D01*
X407721Y73293D01*
X407707Y73237D01*
X407709Y73153D01*
X407702Y73068D01*
X407714Y73011D01*
X407716Y72953D01*
X407742Y72872D01*
X407758Y72790D01*
X407785Y72738D01*
X407803Y72682D01*
X407843Y72626D01*
X407882Y72550D01*
X407882Y69157D01*
X405501Y66776D01*
X400637Y66776D01*
X400591Y66769D01*
X400555Y66773D01*
X399039Y66650D01*
X398981Y66686D01*
G37*
%LPD*%
%LPC*%
G36*
X316439Y502665D02*
X316439Y502665D01*
X314478Y503477D01*
X312977Y504978D01*
X312165Y506939D01*
X312165Y509061D01*
X312977Y511022D01*
X314478Y512523D01*
X316439Y513335D01*
X318561Y513335D01*
X320522Y512523D01*
X322023Y511022D01*
X322835Y509061D01*
X322835Y506939D01*
X322023Y504978D01*
X320522Y503477D01*
X318561Y502665D01*
X316439Y502665D01*
G37*
%LPD*%
%LPC*%
G36*
X341839Y502665D02*
X341839Y502665D01*
X339878Y503477D01*
X338377Y504978D01*
X337565Y506939D01*
X337565Y509061D01*
X338377Y511022D01*
X339878Y512523D01*
X341839Y513335D01*
X343961Y513335D01*
X345922Y512523D01*
X347423Y511022D01*
X348235Y509061D01*
X348235Y506939D01*
X347423Y504978D01*
X345922Y503477D01*
X343961Y502665D01*
X341839Y502665D01*
G37*
%LPD*%
%LPC*%
G36*
X1124692Y502665D02*
X1124692Y502665D01*
X1122731Y503477D01*
X1121231Y504978D01*
X1120419Y506939D01*
X1120419Y509061D01*
X1121231Y511022D01*
X1122731Y512523D01*
X1124692Y513335D01*
X1126815Y513335D01*
X1128775Y512523D01*
X1130276Y511022D01*
X1131088Y509061D01*
X1131088Y506939D01*
X1130276Y504978D01*
X1128775Y503477D01*
X1126815Y502665D01*
X1124692Y502665D01*
G37*
%LPD*%
%LPC*%
G36*
X1048492Y502665D02*
X1048492Y502665D01*
X1046531Y503477D01*
X1045031Y504978D01*
X1044219Y506939D01*
X1044219Y509061D01*
X1045031Y511022D01*
X1046531Y512523D01*
X1048492Y513335D01*
X1050615Y513335D01*
X1052575Y512523D01*
X1054076Y511022D01*
X1054888Y509061D01*
X1054888Y506939D01*
X1054076Y504978D01*
X1052575Y503477D01*
X1050615Y502665D01*
X1048492Y502665D01*
G37*
%LPD*%
%LPC*%
G36*
X1111992Y502665D02*
X1111992Y502665D01*
X1110031Y503477D01*
X1108531Y504978D01*
X1107719Y506939D01*
X1107719Y509061D01*
X1108531Y511022D01*
X1110031Y512523D01*
X1111992Y513335D01*
X1114115Y513335D01*
X1116075Y512523D01*
X1117576Y511022D01*
X1118388Y509061D01*
X1118388Y506939D01*
X1117576Y504978D01*
X1116075Y503477D01*
X1114115Y502665D01*
X1111992Y502665D01*
G37*
%LPD*%
%LPC*%
G36*
X726928Y502665D02*
X726928Y502665D01*
X724967Y503477D01*
X723467Y504978D01*
X722655Y506939D01*
X722655Y509061D01*
X723467Y511022D01*
X724967Y512523D01*
X726928Y513335D01*
X729051Y513335D01*
X731011Y512523D01*
X732512Y511022D01*
X733324Y509061D01*
X733324Y506939D01*
X732512Y504978D01*
X731011Y503477D01*
X729051Y502665D01*
X726928Y502665D01*
G37*
%LPD*%
%LPC*%
G36*
X739628Y502665D02*
X739628Y502665D01*
X737667Y503477D01*
X736167Y504978D01*
X735355Y506939D01*
X735355Y509061D01*
X736167Y511022D01*
X737667Y512523D01*
X739628Y513335D01*
X741751Y513335D01*
X743711Y512523D01*
X745212Y511022D01*
X746024Y509061D01*
X746024Y506939D01*
X745212Y504978D01*
X743711Y503477D01*
X741751Y502665D01*
X739628Y502665D01*
G37*
%LPD*%
%LPC*%
G36*
X354539Y502665D02*
X354539Y502665D01*
X352578Y503477D01*
X351077Y504978D01*
X350265Y506939D01*
X350265Y509061D01*
X351077Y511022D01*
X352578Y512523D01*
X354539Y513335D01*
X356661Y513335D01*
X358622Y512523D01*
X360123Y511022D01*
X360935Y509061D01*
X360935Y506939D01*
X360123Y504978D01*
X358622Y503477D01*
X356661Y502665D01*
X354539Y502665D01*
G37*
%LPD*%
%LPC*%
G36*
X1086592Y502665D02*
X1086592Y502665D01*
X1084631Y503477D01*
X1083131Y504978D01*
X1082319Y506939D01*
X1082319Y509061D01*
X1083131Y511022D01*
X1084631Y512523D01*
X1086592Y513335D01*
X1088715Y513335D01*
X1090675Y512523D01*
X1092176Y511022D01*
X1092988Y509061D01*
X1092988Y506939D01*
X1092176Y504978D01*
X1090675Y503477D01*
X1088715Y502665D01*
X1086592Y502665D01*
G37*
%LPD*%
%LPC*%
G36*
X701528Y502665D02*
X701528Y502665D01*
X699567Y503477D01*
X698067Y504978D01*
X697255Y506939D01*
X697255Y509061D01*
X698067Y511022D01*
X699567Y512523D01*
X701528Y513335D01*
X703651Y513335D01*
X705611Y512523D01*
X707112Y511022D01*
X707924Y509061D01*
X707924Y506939D01*
X707112Y504978D01*
X705611Y503477D01*
X703651Y502665D01*
X701528Y502665D01*
G37*
%LPD*%
%LPC*%
G36*
X663428Y502665D02*
X663428Y502665D01*
X661467Y503477D01*
X659967Y504978D01*
X659155Y506939D01*
X659155Y509061D01*
X659967Y511022D01*
X661467Y512523D01*
X663428Y513335D01*
X665551Y513335D01*
X667511Y512523D01*
X669012Y511022D01*
X669824Y509061D01*
X669824Y506939D01*
X669012Y504978D01*
X667511Y503477D01*
X665551Y502665D01*
X663428Y502665D01*
G37*
%LPD*%
%LPC*%
G36*
X278339Y502665D02*
X278339Y502665D01*
X276378Y503477D01*
X274877Y504978D01*
X274065Y506939D01*
X274065Y509061D01*
X274877Y511022D01*
X276378Y512523D01*
X278339Y513335D01*
X280461Y513335D01*
X282422Y512523D01*
X283923Y511022D01*
X284735Y509061D01*
X284735Y506939D01*
X283923Y504978D01*
X282422Y503477D01*
X280461Y502665D01*
X278339Y502665D01*
G37*
%LPD*%
%LPC*%
G36*
X303778Y489500D02*
X303778Y489500D01*
X301817Y490312D01*
X300317Y491813D01*
X299505Y493773D01*
X299505Y495896D01*
X300317Y497857D01*
X301817Y499357D01*
X303778Y500169D01*
X305901Y500169D01*
X307861Y499357D01*
X309362Y497857D01*
X310174Y495896D01*
X310174Y493773D01*
X309362Y491813D01*
X307861Y490312D01*
X305901Y489500D01*
X303778Y489500D01*
G37*
%LPD*%
%LPC*%
G36*
X328778Y489500D02*
X328778Y489500D01*
X326817Y490312D01*
X325317Y491813D01*
X324505Y493773D01*
X324505Y495896D01*
X325317Y497857D01*
X326817Y499357D01*
X328778Y500169D01*
X330901Y500169D01*
X332861Y499357D01*
X334362Y497857D01*
X335174Y495896D01*
X335174Y493773D01*
X334362Y491813D01*
X332861Y490312D01*
X330901Y489500D01*
X328778Y489500D01*
G37*
%LPD*%
%LPC*%
G36*
X1073932Y489500D02*
X1073932Y489500D01*
X1071971Y490312D01*
X1070470Y491813D01*
X1069658Y493773D01*
X1069658Y495896D01*
X1070470Y497857D01*
X1071971Y499357D01*
X1073932Y500169D01*
X1076054Y500169D01*
X1078015Y499357D01*
X1079515Y497857D01*
X1080328Y495896D01*
X1080328Y493773D01*
X1079515Y491813D01*
X1078015Y490312D01*
X1076054Y489500D01*
X1073932Y489500D01*
G37*
%LPD*%
%LPC*%
G36*
X1098932Y489500D02*
X1098932Y489500D01*
X1096971Y490312D01*
X1095470Y491813D01*
X1094658Y493773D01*
X1094658Y495896D01*
X1095470Y497857D01*
X1096971Y499357D01*
X1098932Y500169D01*
X1101054Y500169D01*
X1103015Y499357D01*
X1104515Y497857D01*
X1105328Y495896D01*
X1105328Y493773D01*
X1104515Y491813D01*
X1103015Y490312D01*
X1101054Y489500D01*
X1098932Y489500D01*
G37*
%LPD*%
%LPC*%
G36*
X688868Y489500D02*
X688868Y489500D01*
X686907Y490312D01*
X685406Y491813D01*
X684594Y493773D01*
X684594Y495896D01*
X685406Y497857D01*
X686907Y499357D01*
X688868Y500169D01*
X690990Y500169D01*
X692951Y499357D01*
X694451Y497857D01*
X695264Y495896D01*
X695264Y493773D01*
X694451Y491813D01*
X692951Y490312D01*
X690990Y489500D01*
X688868Y489500D01*
G37*
%LPD*%
%LPC*%
G36*
X713868Y489500D02*
X713868Y489500D01*
X711907Y490312D01*
X710406Y491813D01*
X709594Y493773D01*
X709594Y495896D01*
X710406Y497857D01*
X711907Y499357D01*
X713868Y500169D01*
X715990Y500169D01*
X717951Y499357D01*
X719451Y497857D01*
X720264Y495896D01*
X720264Y493773D01*
X719451Y491813D01*
X717951Y490312D01*
X715990Y489500D01*
X713868Y489500D01*
G37*
%LPD*%
%LPC*%
G36*
X276942Y470179D02*
X276942Y470179D01*
X274981Y470991D01*
X273480Y472491D01*
X272668Y474452D01*
X272668Y476575D01*
X273480Y478535D01*
X274981Y480036D01*
X276942Y480848D01*
X279064Y480848D01*
X281025Y480036D01*
X282526Y478535D01*
X283338Y476575D01*
X283338Y474452D01*
X282526Y472491D01*
X281025Y470991D01*
X279064Y470179D01*
X276942Y470179D01*
G37*
%LPD*%
%LPC*%
G36*
X1047095Y470179D02*
X1047095Y470179D01*
X1045134Y470991D01*
X1043634Y472491D01*
X1042822Y474452D01*
X1042822Y476575D01*
X1043634Y478535D01*
X1045134Y480036D01*
X1047095Y480848D01*
X1049218Y480848D01*
X1051178Y480036D01*
X1052679Y478535D01*
X1053491Y476575D01*
X1053491Y474452D01*
X1052679Y472491D01*
X1051178Y470991D01*
X1049218Y470179D01*
X1047095Y470179D01*
G37*
%LPD*%
%LPC*%
G36*
X662031Y470179D02*
X662031Y470179D01*
X660070Y470991D01*
X658570Y472491D01*
X657758Y474452D01*
X657758Y476575D01*
X658570Y478535D01*
X660070Y480036D01*
X662031Y480848D01*
X664154Y480848D01*
X666114Y480036D01*
X667615Y478535D01*
X668427Y476575D01*
X668427Y474452D01*
X667615Y472491D01*
X666114Y470991D01*
X664154Y470179D01*
X662031Y470179D01*
G37*
%LPD*%
%LPC*%
G36*
X950753Y391515D02*
X950753Y391515D01*
X948792Y392327D01*
X947292Y393828D01*
X946479Y395789D01*
X946479Y397911D01*
X947292Y399872D01*
X948792Y401372D01*
X950753Y402184D01*
X952875Y402184D01*
X954836Y401372D01*
X956337Y399872D01*
X957149Y397911D01*
X957149Y395789D01*
X956337Y393828D01*
X954836Y392327D01*
X952875Y391515D01*
X950753Y391515D01*
G37*
%LPD*%
%LPC*%
G36*
X569009Y32356D02*
X569009Y32356D01*
X567048Y33168D01*
X565547Y34668D01*
X564735Y36629D01*
X564735Y38752D01*
X565547Y40712D01*
X567048Y42213D01*
X569009Y43025D01*
X571131Y43025D01*
X573092Y42213D01*
X574592Y40712D01*
X575405Y38752D01*
X575405Y36629D01*
X574592Y34668D01*
X573092Y33168D01*
X571131Y32356D01*
X569009Y32356D01*
G37*
%LPD*%
%LPC*%
G36*
X954073Y32356D02*
X954073Y32356D01*
X952112Y33168D01*
X950611Y34668D01*
X949799Y36629D01*
X949799Y38752D01*
X950611Y40712D01*
X952112Y42213D01*
X954073Y43025D01*
X956195Y43025D01*
X958156Y42213D01*
X959656Y40712D01*
X960469Y38752D01*
X960469Y36629D01*
X959656Y34668D01*
X958156Y33168D01*
X956195Y32356D01*
X954073Y32356D01*
G37*
%LPD*%
%LPC*%
G36*
X183919Y32356D02*
X183919Y32356D01*
X181958Y33168D01*
X180458Y34668D01*
X179646Y36629D01*
X179646Y38752D01*
X180458Y40712D01*
X181958Y42213D01*
X183919Y43025D01*
X186042Y43025D01*
X188002Y42213D01*
X189503Y40712D01*
X190315Y38752D01*
X190315Y36629D01*
X189503Y34668D01*
X188002Y33168D01*
X186042Y32356D01*
X183919Y32356D01*
G37*
%LPD*%
%LPC*%
G36*
X911764Y30632D02*
X911764Y30632D01*
X909803Y31444D01*
X908303Y32944D01*
X907490Y34905D01*
X907490Y37028D01*
X908303Y38988D01*
X909803Y40489D01*
X911764Y41301D01*
X913886Y41301D01*
X915847Y40489D01*
X917348Y38988D01*
X918160Y37028D01*
X918160Y34905D01*
X917348Y32944D01*
X915847Y31444D01*
X913886Y30632D01*
X911764Y30632D01*
G37*
%LPD*%
%LPC*%
G36*
X526700Y30632D02*
X526700Y30632D01*
X524739Y31444D01*
X523239Y32944D01*
X522426Y34905D01*
X522426Y37028D01*
X523239Y38988D01*
X524739Y40489D01*
X526700Y41301D01*
X528822Y41301D01*
X530783Y40489D01*
X532284Y38988D01*
X533096Y37028D01*
X533096Y34905D01*
X532284Y32944D01*
X530783Y31444D01*
X528822Y30632D01*
X526700Y30632D01*
G37*
%LPD*%
%LPC*%
G36*
X141611Y30632D02*
X141611Y30632D01*
X139650Y31444D01*
X138149Y32944D01*
X137337Y34905D01*
X137337Y37028D01*
X138149Y38988D01*
X139650Y40489D01*
X141611Y41301D01*
X143733Y41301D01*
X145694Y40489D01*
X147194Y38988D01*
X148007Y37028D01*
X148007Y34905D01*
X147194Y32944D01*
X145694Y31444D01*
X143733Y30632D01*
X141611Y30632D01*
G37*
%LPD*%
%LPC*%
G36*
X180600Y391515D02*
X180600Y391515D01*
X178639Y392327D01*
X177138Y393828D01*
X176326Y395789D01*
X176326Y397911D01*
X177138Y399872D01*
X178639Y401372D01*
X180600Y402184D01*
X182722Y402184D01*
X184683Y401372D01*
X186183Y399872D01*
X186996Y397911D01*
X186996Y395789D01*
X186183Y393828D01*
X184683Y392327D01*
X182722Y391515D01*
X180600Y391515D01*
G37*
%LPD*%
%LPC*%
G36*
X565689Y391515D02*
X565689Y391515D01*
X563728Y392327D01*
X562228Y393828D01*
X561415Y395789D01*
X561415Y397911D01*
X562228Y399872D01*
X563728Y401372D01*
X565689Y402184D01*
X567811Y402184D01*
X569772Y401372D01*
X571273Y399872D01*
X572085Y397911D01*
X572085Y395789D01*
X571273Y393828D01*
X569772Y392327D01*
X567811Y391515D01*
X565689Y391515D01*
G37*
%LPD*%
%LPC*%
G36*
X127945Y352323D02*
X127945Y352323D01*
X125985Y353135D01*
X124484Y354635D01*
X123672Y356596D01*
X123672Y358719D01*
X124484Y360679D01*
X125985Y362180D01*
X127945Y362992D01*
X130068Y362992D01*
X132029Y362180D01*
X133529Y360679D01*
X134341Y358719D01*
X134341Y356596D01*
X133529Y354635D01*
X132029Y353135D01*
X130068Y352323D01*
X127945Y352323D01*
G37*
%LPD*%
%LPC*%
G36*
X898099Y352323D02*
X898099Y352323D01*
X896138Y353135D01*
X894637Y354635D01*
X893825Y356596D01*
X893825Y358719D01*
X894637Y360679D01*
X896138Y362180D01*
X898099Y362992D01*
X900221Y362992D01*
X902182Y362180D01*
X903683Y360679D01*
X904495Y358719D01*
X904495Y356596D01*
X903683Y354635D01*
X902182Y353135D01*
X900221Y352323D01*
X898099Y352323D01*
G37*
%LPD*%
%LPC*%
G36*
X513035Y352323D02*
X513035Y352323D01*
X511074Y353135D01*
X509573Y354635D01*
X508761Y356596D01*
X508761Y358719D01*
X509573Y360679D01*
X511074Y362180D01*
X513035Y362992D01*
X515157Y362992D01*
X517118Y362180D01*
X518619Y360679D01*
X519431Y358719D01*
X519431Y356596D01*
X518619Y354635D01*
X517118Y353135D01*
X515157Y352323D01*
X513035Y352323D01*
G37*
%LPD*%
%LPC*%
G36*
X719224Y347455D02*
X719224Y347455D01*
X717263Y348267D01*
X715763Y349768D01*
X714950Y351729D01*
X714950Y353851D01*
X715763Y355812D01*
X717263Y357312D01*
X719224Y358125D01*
X721346Y358125D01*
X723307Y357312D01*
X724808Y355812D01*
X725620Y353851D01*
X725620Y351729D01*
X724808Y349768D01*
X723307Y348267D01*
X721346Y347455D01*
X719224Y347455D01*
G37*
%LPD*%
%LPC*%
G36*
X1104288Y347455D02*
X1104288Y347455D01*
X1102327Y348267D01*
X1100827Y349768D01*
X1100014Y351729D01*
X1100014Y353851D01*
X1100827Y355812D01*
X1102327Y357312D01*
X1104288Y358125D01*
X1106410Y358125D01*
X1108371Y357312D01*
X1109872Y355812D01*
X1110684Y353851D01*
X1110684Y351729D01*
X1109872Y349768D01*
X1108371Y348267D01*
X1106410Y347455D01*
X1104288Y347455D01*
G37*
%LPD*%
%LPC*%
G36*
X334135Y347455D02*
X334135Y347455D01*
X332174Y348267D01*
X330673Y349768D01*
X329861Y351729D01*
X329861Y353851D01*
X330673Y355812D01*
X332174Y357312D01*
X334135Y358125D01*
X336257Y358125D01*
X338218Y357312D01*
X339718Y355812D01*
X340530Y353851D01*
X340530Y351729D01*
X339718Y349768D01*
X338218Y348267D01*
X336257Y347455D01*
X334135Y347455D01*
G37*
%LPD*%
%LPC*%
G36*
X49739Y337565D02*
X49739Y337565D01*
X47778Y338377D01*
X46277Y339878D01*
X45465Y341839D01*
X45465Y343961D01*
X46277Y345922D01*
X47778Y347423D01*
X49739Y348235D01*
X51861Y348235D01*
X53822Y347423D01*
X55323Y345922D01*
X56135Y343961D01*
X56135Y341839D01*
X55323Y339878D01*
X53822Y338377D01*
X51861Y337565D01*
X49739Y337565D01*
G37*
%LPD*%
%LPC*%
G36*
X434828Y337565D02*
X434828Y337565D01*
X432867Y338377D01*
X431367Y339878D01*
X430555Y341839D01*
X430555Y343961D01*
X431367Y345922D01*
X432867Y347423D01*
X434828Y348235D01*
X436951Y348235D01*
X438911Y347423D01*
X440412Y345922D01*
X441224Y343961D01*
X441224Y341839D01*
X440412Y339878D01*
X438911Y338377D01*
X436951Y337565D01*
X434828Y337565D01*
G37*
%LPD*%
%LPC*%
G36*
X819892Y337565D02*
X819892Y337565D01*
X817931Y338377D01*
X816431Y339878D01*
X815619Y341839D01*
X815619Y343961D01*
X816431Y345922D01*
X817931Y347423D01*
X819892Y348235D01*
X822015Y348235D01*
X823975Y347423D01*
X825476Y345922D01*
X826288Y343961D01*
X826288Y341839D01*
X825476Y339878D01*
X823975Y338377D01*
X822015Y337565D01*
X819892Y337565D01*
G37*
%LPD*%
%LPC*%
G36*
X287439Y337265D02*
X287439Y337265D01*
X285478Y338077D01*
X283977Y339578D01*
X283165Y341539D01*
X283165Y343661D01*
X283977Y345622D01*
X285478Y347123D01*
X287439Y347935D01*
X289561Y347935D01*
X291522Y347123D01*
X293023Y345622D01*
X293835Y343661D01*
X293835Y341539D01*
X293023Y339578D01*
X291522Y338077D01*
X289561Y337265D01*
X287439Y337265D01*
G37*
%LPD*%
%LPC*%
G36*
X672528Y337265D02*
X672528Y337265D01*
X670567Y338077D01*
X669067Y339578D01*
X668255Y341539D01*
X668255Y343661D01*
X669067Y345622D01*
X670567Y347123D01*
X672528Y347935D01*
X674651Y347935D01*
X676611Y347123D01*
X678112Y345622D01*
X678924Y343661D01*
X678924Y341539D01*
X678112Y339578D01*
X676611Y338077D01*
X674651Y337265D01*
X672528Y337265D01*
G37*
%LPD*%
%LPC*%
G36*
X1057592Y337265D02*
X1057592Y337265D01*
X1055631Y338077D01*
X1054131Y339578D01*
X1053319Y341539D01*
X1053319Y343661D01*
X1054131Y345622D01*
X1055631Y347123D01*
X1057592Y347935D01*
X1059715Y347935D01*
X1061675Y347123D01*
X1063176Y345622D01*
X1063988Y343661D01*
X1063988Y341539D01*
X1063176Y339578D01*
X1061675Y338077D01*
X1059715Y337265D01*
X1057592Y337265D01*
G37*
%LPD*%
%LPC*%
G36*
X491699Y330352D02*
X491699Y330352D01*
X489738Y331164D01*
X488237Y332664D01*
X487425Y334625D01*
X487425Y336748D01*
X488237Y338708D01*
X489738Y340209D01*
X491699Y341021D01*
X493821Y341021D01*
X495782Y340209D01*
X497283Y338708D01*
X498095Y336748D01*
X498095Y334625D01*
X497283Y332664D01*
X495782Y331164D01*
X493821Y330352D01*
X491699Y330352D01*
G37*
%LPD*%
%LPC*%
G36*
X876763Y330352D02*
X876763Y330352D01*
X874802Y331164D01*
X873301Y332664D01*
X872489Y334625D01*
X872489Y336748D01*
X873301Y338708D01*
X874802Y340209D01*
X876763Y341021D01*
X878885Y341021D01*
X880846Y340209D01*
X882347Y338708D01*
X883159Y336748D01*
X883159Y334625D01*
X882347Y332664D01*
X880846Y331164D01*
X878885Y330352D01*
X876763Y330352D01*
G37*
%LPD*%
%LPC*%
G36*
X106609Y330352D02*
X106609Y330352D01*
X104649Y331164D01*
X103148Y332664D01*
X102336Y334625D01*
X102336Y336748D01*
X103148Y338708D01*
X104649Y340209D01*
X106609Y341021D01*
X108732Y341021D01*
X110693Y340209D01*
X112193Y338708D01*
X113005Y336748D01*
X113005Y334625D01*
X112193Y332664D01*
X110693Y331164D01*
X108732Y330352D01*
X106609Y330352D01*
G37*
%LPD*%
%LPC*%
G36*
X1030482Y330205D02*
X1030482Y330205D01*
X1028522Y331017D01*
X1027021Y332518D01*
X1026209Y334479D01*
X1026209Y336601D01*
X1027021Y338562D01*
X1028522Y340062D01*
X1030482Y340874D01*
X1032605Y340874D01*
X1034566Y340062D01*
X1036066Y338562D01*
X1036878Y336601D01*
X1036878Y334479D01*
X1036066Y332518D01*
X1034566Y331017D01*
X1032605Y330205D01*
X1030482Y330205D01*
G37*
%LPD*%
%LPC*%
G36*
X260329Y330205D02*
X260329Y330205D01*
X258368Y331017D01*
X256868Y332518D01*
X256055Y334479D01*
X256055Y336601D01*
X256868Y338562D01*
X258368Y340062D01*
X260329Y340874D01*
X262451Y340874D01*
X264412Y340062D01*
X265913Y338562D01*
X266725Y336601D01*
X266725Y334479D01*
X265913Y332518D01*
X264412Y331017D01*
X262451Y330205D01*
X260329Y330205D01*
G37*
%LPD*%
%LPC*%
G36*
X645418Y330205D02*
X645418Y330205D01*
X643458Y331017D01*
X641957Y332518D01*
X641145Y334479D01*
X641145Y336601D01*
X641957Y338562D01*
X643458Y340062D01*
X645418Y340874D01*
X647541Y340874D01*
X649502Y340062D01*
X651002Y338562D01*
X651814Y336601D01*
X651814Y334479D01*
X651002Y332518D01*
X649502Y331017D01*
X647541Y330205D01*
X645418Y330205D01*
G37*
%LPD*%
%LPC*%
G36*
X1094111Y328574D02*
X1094111Y328574D01*
X1092150Y329386D01*
X1090649Y330886D01*
X1089837Y332847D01*
X1089837Y334970D01*
X1090649Y336930D01*
X1092150Y338431D01*
X1094111Y339243D01*
X1096233Y339243D01*
X1098194Y338431D01*
X1099694Y336930D01*
X1100507Y334970D01*
X1100507Y332847D01*
X1099694Y330886D01*
X1098194Y329386D01*
X1096233Y328574D01*
X1094111Y328574D01*
G37*
%LPD*%
%LPC*%
G36*
X709047Y328574D02*
X709047Y328574D01*
X707086Y329386D01*
X705585Y330886D01*
X704773Y332847D01*
X704773Y334970D01*
X705585Y336930D01*
X707086Y338431D01*
X709047Y339243D01*
X711169Y339243D01*
X713130Y338431D01*
X714630Y336930D01*
X715443Y334970D01*
X715443Y332847D01*
X714630Y330886D01*
X713130Y329386D01*
X711169Y328574D01*
X709047Y328574D01*
G37*
%LPD*%
%LPC*%
G36*
X323957Y328574D02*
X323957Y328574D01*
X321996Y329386D01*
X320496Y330886D01*
X319684Y332847D01*
X319684Y334970D01*
X320496Y336930D01*
X321996Y338431D01*
X323957Y339243D01*
X326080Y339243D01*
X328040Y338431D01*
X329541Y336930D01*
X330353Y334970D01*
X330353Y332847D01*
X329541Y330886D01*
X328040Y329386D01*
X326080Y328574D01*
X323957Y328574D01*
G37*
%LPD*%
%LPC*%
G36*
X873740Y317042D02*
X873740Y317042D01*
X871779Y317854D01*
X870279Y319355D01*
X869467Y321316D01*
X869467Y323438D01*
X870279Y325399D01*
X871779Y326899D01*
X873740Y327712D01*
X875863Y327712D01*
X877823Y326899D01*
X879324Y325399D01*
X880136Y323438D01*
X880136Y321316D01*
X879324Y319355D01*
X877823Y317854D01*
X875863Y317042D01*
X873740Y317042D01*
G37*
%LPD*%
%LPC*%
G36*
X488676Y317042D02*
X488676Y317042D01*
X486715Y317854D01*
X485215Y319355D01*
X484403Y321316D01*
X484403Y323438D01*
X485215Y325399D01*
X486715Y326899D01*
X488676Y327712D01*
X490799Y327712D01*
X492759Y326899D01*
X494260Y325399D01*
X495072Y323438D01*
X495072Y321316D01*
X494260Y319355D01*
X492759Y317854D01*
X490799Y317042D01*
X488676Y317042D01*
G37*
%LPD*%
%LPC*%
G36*
X103587Y317042D02*
X103587Y317042D01*
X101626Y317854D01*
X100125Y319355D01*
X99313Y321316D01*
X99313Y323438D01*
X100125Y325399D01*
X101626Y326899D01*
X103587Y327712D01*
X105709Y327712D01*
X107670Y326899D01*
X109171Y325399D01*
X109983Y323438D01*
X109983Y321316D01*
X109171Y319355D01*
X107670Y317854D01*
X105709Y317042D01*
X103587Y317042D01*
G37*
%LPD*%
%LPC*%
G36*
X1058092Y312265D02*
X1058092Y312265D01*
X1056131Y313077D01*
X1054631Y314578D01*
X1053819Y316539D01*
X1053819Y318661D01*
X1054631Y320622D01*
X1056131Y322123D01*
X1058092Y322935D01*
X1060215Y322935D01*
X1062175Y322123D01*
X1063676Y320622D01*
X1064488Y318661D01*
X1064488Y316539D01*
X1063676Y314578D01*
X1062175Y313077D01*
X1060215Y312265D01*
X1058092Y312265D01*
G37*
%LPD*%
%LPC*%
G36*
X673028Y312265D02*
X673028Y312265D01*
X671067Y313077D01*
X669567Y314578D01*
X668755Y316539D01*
X668755Y318661D01*
X669567Y320622D01*
X671067Y322123D01*
X673028Y322935D01*
X675151Y322935D01*
X677111Y322123D01*
X678612Y320622D01*
X679424Y318661D01*
X679424Y316539D01*
X678612Y314578D01*
X677111Y313077D01*
X675151Y312265D01*
X673028Y312265D01*
G37*
%LPD*%
%LPC*%
G36*
X287939Y312265D02*
X287939Y312265D01*
X285978Y313077D01*
X284477Y314578D01*
X283665Y316539D01*
X283665Y318661D01*
X284477Y320622D01*
X285978Y322123D01*
X287939Y322935D01*
X290061Y322935D01*
X292022Y322123D01*
X293523Y320622D01*
X294335Y318661D01*
X294335Y316539D01*
X293523Y314578D01*
X292022Y313077D01*
X290061Y312265D01*
X287939Y312265D01*
G37*
%LPD*%
%LPC*%
G36*
X521874Y303301D02*
X521874Y303301D01*
X519913Y304113D01*
X518413Y305613D01*
X517600Y307574D01*
X517600Y309697D01*
X518413Y311657D01*
X519913Y313158D01*
X521874Y313970D01*
X523996Y313970D01*
X525957Y313158D01*
X527458Y311657D01*
X528270Y309697D01*
X528270Y307574D01*
X527458Y305613D01*
X525957Y304113D01*
X523996Y303301D01*
X521874Y303301D01*
G37*
%LPD*%
%LPC*%
G36*
X906938Y303301D02*
X906938Y303301D01*
X904977Y304113D01*
X903477Y305613D01*
X902664Y307574D01*
X902664Y309697D01*
X903477Y311657D01*
X904977Y313158D01*
X906938Y313970D01*
X909060Y313970D01*
X911021Y313158D01*
X912522Y311657D01*
X913334Y309697D01*
X913334Y307574D01*
X912522Y305613D01*
X911021Y304113D01*
X909060Y303301D01*
X906938Y303301D01*
G37*
%LPD*%
%LPC*%
G36*
X136785Y303301D02*
X136785Y303301D01*
X134824Y304113D01*
X133323Y305613D01*
X132511Y307574D01*
X132511Y309697D01*
X133323Y311657D01*
X134824Y313158D01*
X136785Y313970D01*
X138907Y313970D01*
X140868Y313158D01*
X142368Y311657D01*
X143181Y309697D01*
X143181Y307574D01*
X142368Y305613D01*
X140868Y304113D01*
X138907Y303301D01*
X136785Y303301D01*
G37*
%LPD*%
%LPC*%
G36*
X709148Y302640D02*
X709148Y302640D01*
X707187Y303452D01*
X705687Y304953D01*
X704875Y306914D01*
X704875Y309036D01*
X705687Y310997D01*
X707187Y312498D01*
X709148Y313310D01*
X711271Y313310D01*
X713231Y312498D01*
X714732Y310997D01*
X715544Y309036D01*
X715544Y306914D01*
X714732Y304953D01*
X713231Y303452D01*
X711271Y302640D01*
X709148Y302640D01*
G37*
%LPD*%
%LPC*%
G36*
X1094212Y302640D02*
X1094212Y302640D01*
X1092251Y303452D01*
X1090751Y304953D01*
X1089939Y306914D01*
X1089939Y309036D01*
X1090751Y310997D01*
X1092251Y312498D01*
X1094212Y313310D01*
X1096335Y313310D01*
X1098295Y312498D01*
X1099796Y310997D01*
X1100608Y309036D01*
X1100608Y306914D01*
X1099796Y304953D01*
X1098295Y303452D01*
X1096335Y302640D01*
X1094212Y302640D01*
G37*
%LPD*%
%LPC*%
G36*
X324059Y302640D02*
X324059Y302640D01*
X322098Y303452D01*
X320597Y304953D01*
X319785Y306914D01*
X319785Y309036D01*
X320597Y310997D01*
X322098Y312498D01*
X324059Y313310D01*
X326181Y313310D01*
X328142Y312498D01*
X329643Y310997D01*
X330455Y309036D01*
X330455Y306914D01*
X329643Y304953D01*
X328142Y303452D01*
X326181Y302640D01*
X324059Y302640D01*
G37*
%LPD*%
%LPC*%
G36*
X966806Y290804D02*
X966806Y290804D01*
X964845Y291616D01*
X963344Y293117D01*
X962532Y295077D01*
X962532Y297200D01*
X963344Y299161D01*
X964845Y300661D01*
X966806Y301473D01*
X968928Y301473D01*
X970889Y300661D01*
X972390Y299161D01*
X973202Y297200D01*
X973202Y295077D01*
X972390Y293117D01*
X970889Y291616D01*
X968928Y290804D01*
X966806Y290804D01*
G37*
%LPD*%
%LPC*%
G36*
X581742Y290804D02*
X581742Y290804D01*
X579781Y291616D01*
X578280Y293117D01*
X577468Y295077D01*
X577468Y297200D01*
X578280Y299161D01*
X579781Y300661D01*
X581742Y301473D01*
X583864Y301473D01*
X585825Y300661D01*
X587326Y299161D01*
X588138Y297200D01*
X588138Y295077D01*
X587326Y293117D01*
X585825Y291616D01*
X583864Y290804D01*
X581742Y290804D01*
G37*
%LPD*%
%LPC*%
G36*
X196652Y290804D02*
X196652Y290804D01*
X194692Y291616D01*
X193191Y293117D01*
X192379Y295077D01*
X192379Y297200D01*
X193191Y299161D01*
X194692Y300661D01*
X196652Y301473D01*
X198775Y301473D01*
X200736Y300661D01*
X202236Y299161D01*
X203048Y297200D01*
X203048Y295077D01*
X202236Y293117D01*
X200736Y291616D01*
X198775Y290804D01*
X196652Y290804D01*
G37*
%LPD*%
%LPC*%
G36*
X96881Y285495D02*
X96881Y285495D01*
X94920Y286307D01*
X93420Y287808D01*
X92608Y289769D01*
X92608Y291891D01*
X93420Y293852D01*
X94920Y295353D01*
X96881Y296165D01*
X99004Y296165D01*
X100964Y295353D01*
X102465Y293852D01*
X103277Y291891D01*
X103277Y289769D01*
X102465Y287808D01*
X100964Y286307D01*
X99004Y285495D01*
X96881Y285495D01*
G37*
%LPD*%
%LPC*%
G36*
X867035Y285495D02*
X867035Y285495D01*
X865074Y286307D01*
X863573Y287808D01*
X862761Y289769D01*
X862761Y291891D01*
X863573Y293852D01*
X865074Y295353D01*
X867035Y296165D01*
X869157Y296165D01*
X871118Y295353D01*
X872618Y293852D01*
X873431Y291891D01*
X873431Y289769D01*
X872618Y287808D01*
X871118Y286307D01*
X869157Y285495D01*
X867035Y285495D01*
G37*
%LPD*%
%LPC*%
G36*
X481971Y285495D02*
X481971Y285495D01*
X480010Y286307D01*
X478509Y287808D01*
X477697Y289769D01*
X477697Y291891D01*
X478509Y293852D01*
X480010Y295353D01*
X481971Y296165D01*
X484093Y296165D01*
X486054Y295353D01*
X487554Y293852D01*
X488367Y291891D01*
X488367Y289769D01*
X487554Y287808D01*
X486054Y286307D01*
X484093Y285495D01*
X481971Y285495D01*
G37*
%LPD*%
%LPC*%
G36*
X32187Y283082D02*
X32187Y283082D01*
X30227Y283894D01*
X28726Y285395D01*
X27914Y287356D01*
X27914Y289478D01*
X28726Y291439D01*
X30227Y292940D01*
X32187Y293752D01*
X34310Y293752D01*
X36271Y292940D01*
X37771Y291439D01*
X38583Y289478D01*
X38583Y287356D01*
X37771Y285395D01*
X36271Y283894D01*
X34310Y283082D01*
X32187Y283082D01*
G37*
%LPD*%
%LPC*%
G36*
X802341Y283082D02*
X802341Y283082D01*
X800380Y283894D01*
X798879Y285395D01*
X798067Y287356D01*
X798067Y289478D01*
X798879Y291439D01*
X800380Y292940D01*
X802341Y293752D01*
X804463Y293752D01*
X806424Y292940D01*
X807925Y291439D01*
X808737Y289478D01*
X808737Y287356D01*
X807925Y285395D01*
X806424Y283894D01*
X804463Y283082D01*
X802341Y283082D01*
G37*
%LPD*%
%LPC*%
G36*
X417277Y283082D02*
X417277Y283082D01*
X415316Y283894D01*
X413815Y285395D01*
X413003Y287356D01*
X413003Y289478D01*
X413815Y291439D01*
X415316Y292940D01*
X417277Y293752D01*
X419399Y293752D01*
X421360Y292940D01*
X422861Y291439D01*
X423673Y289478D01*
X423673Y287356D01*
X422861Y285395D01*
X421360Y283894D01*
X419399Y283082D01*
X417277Y283082D01*
G37*
%LPD*%
%LPC*%
G36*
X830611Y274014D02*
X830611Y274014D01*
X828650Y274827D01*
X827150Y276327D01*
X826337Y278288D01*
X826337Y280410D01*
X827150Y282371D01*
X828650Y283872D01*
X830611Y284684D01*
X832733Y284684D01*
X834694Y283872D01*
X836195Y282371D01*
X837007Y280410D01*
X837007Y278288D01*
X836195Y276327D01*
X834694Y274827D01*
X832733Y274014D01*
X830611Y274014D01*
G37*
%LPD*%
%LPC*%
G36*
X60458Y274014D02*
X60458Y274014D01*
X58497Y274827D01*
X56996Y276327D01*
X56184Y278288D01*
X56184Y280410D01*
X56996Y282371D01*
X58497Y283872D01*
X60458Y284684D01*
X62580Y284684D01*
X64541Y283872D01*
X66041Y282371D01*
X66854Y280410D01*
X66854Y278288D01*
X66041Y276327D01*
X64541Y274827D01*
X62580Y274014D01*
X60458Y274014D01*
G37*
%LPD*%
%LPC*%
G36*
X445547Y274014D02*
X445547Y274014D01*
X443586Y274827D01*
X442086Y276327D01*
X441273Y278288D01*
X441273Y280410D01*
X442086Y282371D01*
X443586Y283872D01*
X445547Y284684D01*
X447669Y284684D01*
X449630Y283872D01*
X451131Y282371D01*
X451943Y280410D01*
X451943Y278288D01*
X451131Y276327D01*
X449630Y274827D01*
X447669Y274014D01*
X445547Y274014D01*
G37*
%LPD*%
%LPC*%
G36*
X572268Y271500D02*
X572268Y271500D01*
X570307Y272312D01*
X568806Y273813D01*
X567994Y275773D01*
X567994Y277896D01*
X568806Y279857D01*
X570307Y281357D01*
X572268Y282169D01*
X574390Y282169D01*
X576351Y281357D01*
X577851Y279857D01*
X578664Y277896D01*
X578664Y275773D01*
X577851Y273813D01*
X576351Y272312D01*
X574390Y271500D01*
X572268Y271500D01*
G37*
%LPD*%
%LPC*%
G36*
X187178Y271500D02*
X187178Y271500D01*
X185217Y272312D01*
X183717Y273813D01*
X182905Y275773D01*
X182905Y277896D01*
X183717Y279857D01*
X185217Y281357D01*
X187178Y282169D01*
X189301Y282169D01*
X191261Y281357D01*
X192762Y279857D01*
X193574Y277896D01*
X193574Y275773D01*
X192762Y273813D01*
X191261Y272312D01*
X189301Y271500D01*
X187178Y271500D01*
G37*
%LPD*%
%LPC*%
G36*
X957332Y271500D02*
X957332Y271500D01*
X955371Y272312D01*
X953870Y273813D01*
X953058Y275773D01*
X953058Y277896D01*
X953870Y279857D01*
X955371Y281357D01*
X957332Y282169D01*
X959454Y282169D01*
X961415Y281357D01*
X962915Y279857D01*
X963728Y277896D01*
X963728Y275773D01*
X962915Y273813D01*
X961415Y272312D01*
X959454Y271500D01*
X957332Y271500D01*
G37*
%LPD*%
%LPC*%
G36*
X1057832Y261100D02*
X1057832Y261100D01*
X1055871Y261912D01*
X1054370Y263413D01*
X1053558Y265373D01*
X1053558Y267496D01*
X1054370Y269457D01*
X1055871Y270957D01*
X1057832Y271769D01*
X1059954Y271769D01*
X1061915Y270957D01*
X1063415Y269457D01*
X1064228Y267496D01*
X1064228Y265373D01*
X1063415Y263413D01*
X1061915Y261912D01*
X1059954Y261100D01*
X1057832Y261100D01*
G37*
%LPD*%
%LPC*%
G36*
X672768Y261100D02*
X672768Y261100D01*
X670807Y261912D01*
X669306Y263413D01*
X668494Y265373D01*
X668494Y267496D01*
X669306Y269457D01*
X670807Y270957D01*
X672768Y271769D01*
X674890Y271769D01*
X676851Y270957D01*
X678351Y269457D01*
X679164Y267496D01*
X679164Y265373D01*
X678351Y263413D01*
X676851Y261912D01*
X674890Y261100D01*
X672768Y261100D01*
G37*
%LPD*%
%LPC*%
G36*
X287678Y261100D02*
X287678Y261100D01*
X285717Y261912D01*
X284217Y263413D01*
X283405Y265373D01*
X283405Y267496D01*
X284217Y269457D01*
X285717Y270957D01*
X287678Y271769D01*
X289801Y271769D01*
X291761Y270957D01*
X293262Y269457D01*
X294074Y267496D01*
X294074Y265373D01*
X293262Y263413D01*
X291761Y261912D01*
X289801Y261100D01*
X287678Y261100D01*
G37*
%LPD*%
%LPC*%
G36*
X97796Y259994D02*
X97796Y259994D01*
X95835Y260806D01*
X94334Y262306D01*
X93522Y264267D01*
X93522Y266390D01*
X94334Y268350D01*
X95835Y269851D01*
X97796Y270663D01*
X99918Y270663D01*
X101879Y269851D01*
X103379Y268350D01*
X104192Y266390D01*
X104192Y264267D01*
X103379Y262306D01*
X101879Y260806D01*
X99918Y259994D01*
X97796Y259994D01*
G37*
%LPD*%
%LPC*%
G36*
X482885Y259994D02*
X482885Y259994D01*
X480924Y260806D01*
X479424Y262306D01*
X478611Y264267D01*
X478611Y266390D01*
X479424Y268350D01*
X480924Y269851D01*
X482885Y270663D01*
X485007Y270663D01*
X486968Y269851D01*
X488469Y268350D01*
X489281Y266390D01*
X489281Y264267D01*
X488469Y262306D01*
X486968Y260806D01*
X485007Y259994D01*
X482885Y259994D01*
G37*
%LPD*%
%LPC*%
G36*
X867949Y259994D02*
X867949Y259994D01*
X865988Y260806D01*
X864488Y262306D01*
X863675Y264267D01*
X863675Y266390D01*
X864488Y268350D01*
X865988Y269851D01*
X867949Y270663D01*
X870071Y270663D01*
X872032Y269851D01*
X873533Y268350D01*
X874345Y266390D01*
X874345Y264267D01*
X873533Y262306D01*
X872032Y260806D01*
X870071Y259994D01*
X867949Y259994D01*
G37*
%LPD*%
%LPC*%
G36*
X709072Y252323D02*
X709072Y252323D01*
X707111Y253135D01*
X705611Y254636D01*
X704798Y256596D01*
X704798Y258719D01*
X705611Y260680D01*
X707111Y262180D01*
X709072Y262992D01*
X711194Y262992D01*
X713155Y262180D01*
X714656Y260680D01*
X715468Y258719D01*
X715468Y256596D01*
X714656Y254636D01*
X713155Y253135D01*
X711194Y252323D01*
X709072Y252323D01*
G37*
%LPD*%
%LPC*%
G36*
X727385Y252323D02*
X727385Y252323D01*
X725425Y253135D01*
X723924Y254636D01*
X723112Y256596D01*
X723112Y258719D01*
X723924Y260680D01*
X725425Y262180D01*
X727385Y262992D01*
X729508Y262992D01*
X731469Y262180D01*
X732969Y260680D01*
X733781Y258719D01*
X733781Y256596D01*
X732969Y254636D01*
X731469Y253135D01*
X729508Y252323D01*
X727385Y252323D01*
G37*
%LPD*%
%LPC*%
G36*
X1112449Y252323D02*
X1112449Y252323D01*
X1110489Y253135D01*
X1108988Y254636D01*
X1108176Y256596D01*
X1108176Y258719D01*
X1108988Y260680D01*
X1110489Y262180D01*
X1112449Y262992D01*
X1114572Y262992D01*
X1116533Y262180D01*
X1118033Y260680D01*
X1118845Y258719D01*
X1118845Y256596D01*
X1118033Y254636D01*
X1116533Y253135D01*
X1114572Y252323D01*
X1112449Y252323D01*
G37*
%LPD*%
%LPC*%
G36*
X1094136Y252323D02*
X1094136Y252323D01*
X1092175Y253135D01*
X1090675Y254636D01*
X1089862Y256596D01*
X1089862Y258719D01*
X1090675Y260680D01*
X1092175Y262180D01*
X1094136Y262992D01*
X1096258Y262992D01*
X1098219Y262180D01*
X1099720Y260680D01*
X1100532Y258719D01*
X1100532Y256596D01*
X1099720Y254636D01*
X1098219Y253135D01*
X1096258Y252323D01*
X1094136Y252323D01*
G37*
%LPD*%
%LPC*%
G36*
X342296Y252323D02*
X342296Y252323D01*
X340335Y253135D01*
X338835Y254636D01*
X338022Y256596D01*
X338022Y258719D01*
X338835Y260680D01*
X340335Y262180D01*
X342296Y262992D01*
X344418Y262992D01*
X346379Y262180D01*
X347880Y260680D01*
X348692Y258719D01*
X348692Y256596D01*
X347880Y254636D01*
X346379Y253135D01*
X344418Y252323D01*
X342296Y252323D01*
G37*
%LPD*%
%LPC*%
G36*
X323983Y252323D02*
X323983Y252323D01*
X322022Y253135D01*
X320521Y254636D01*
X319709Y256596D01*
X319709Y258719D01*
X320521Y260680D01*
X322022Y262180D01*
X323983Y262992D01*
X326105Y262992D01*
X328066Y262180D01*
X329566Y260680D01*
X330379Y258719D01*
X330379Y256596D01*
X329566Y254636D01*
X328066Y253135D01*
X326105Y252323D01*
X323983Y252323D01*
G37*
%LPD*%
%LPC*%
G36*
X445369Y248132D02*
X445369Y248132D01*
X443408Y248944D01*
X441908Y250445D01*
X441096Y252405D01*
X441096Y254528D01*
X441908Y256489D01*
X443408Y257989D01*
X445369Y258801D01*
X447492Y258801D01*
X449452Y257989D01*
X450953Y256489D01*
X451765Y254528D01*
X451765Y252405D01*
X450953Y250445D01*
X449452Y248944D01*
X447492Y248132D01*
X445369Y248132D01*
G37*
%LPD*%
%LPC*%
G36*
X830433Y248132D02*
X830433Y248132D01*
X828472Y248944D01*
X826972Y250445D01*
X826160Y252405D01*
X826160Y254528D01*
X826972Y256489D01*
X828472Y257989D01*
X830433Y258801D01*
X832556Y258801D01*
X834516Y257989D01*
X836017Y256489D01*
X836829Y254528D01*
X836829Y252405D01*
X836017Y250445D01*
X834516Y248944D01*
X832556Y248132D01*
X830433Y248132D01*
G37*
%LPD*%
%LPC*%
G36*
X60280Y248132D02*
X60280Y248132D01*
X58319Y248944D01*
X56818Y250445D01*
X56006Y252405D01*
X56006Y254528D01*
X56818Y256489D01*
X58319Y257989D01*
X60280Y258801D01*
X62402Y258801D01*
X64363Y257989D01*
X65864Y256489D01*
X66676Y254528D01*
X66676Y252405D01*
X65864Y250445D01*
X64363Y248944D01*
X62402Y248132D01*
X60280Y248132D01*
G37*
%LPD*%
%LPC*%
G36*
X478719Y233400D02*
X478719Y233400D01*
X476759Y234212D01*
X475258Y235713D01*
X474446Y237673D01*
X474446Y239796D01*
X475258Y241757D01*
X476759Y243257D01*
X478719Y244069D01*
X480842Y244069D01*
X482803Y243257D01*
X484303Y241757D01*
X485115Y239796D01*
X485115Y237673D01*
X484303Y235713D01*
X482803Y234212D01*
X480842Y233400D01*
X478719Y233400D01*
G37*
%LPD*%
%LPC*%
G36*
X651528Y233400D02*
X651528Y233400D01*
X649567Y234212D01*
X648067Y235713D01*
X647255Y237673D01*
X647255Y239796D01*
X648067Y241757D01*
X649567Y243257D01*
X651528Y244069D01*
X653651Y244069D01*
X655611Y243257D01*
X657112Y241757D01*
X657924Y239796D01*
X657924Y237673D01*
X657112Y235713D01*
X655611Y234212D01*
X653651Y233400D01*
X651528Y233400D01*
G37*
%LPD*%
%LPC*%
G36*
X863783Y233400D02*
X863783Y233400D01*
X861823Y234212D01*
X860322Y235713D01*
X859510Y237673D01*
X859510Y239796D01*
X860322Y241757D01*
X861823Y243257D01*
X863783Y244069D01*
X865906Y244069D01*
X867867Y243257D01*
X869367Y241757D01*
X870179Y239796D01*
X870179Y237673D01*
X869367Y235713D01*
X867867Y234212D01*
X865906Y233400D01*
X863783Y233400D01*
G37*
%LPD*%
%LPC*%
G36*
X1036592Y233400D02*
X1036592Y233400D01*
X1034631Y234212D01*
X1033131Y235713D01*
X1032319Y237673D01*
X1032319Y239796D01*
X1033131Y241757D01*
X1034631Y243257D01*
X1036592Y244069D01*
X1038715Y244069D01*
X1040675Y243257D01*
X1042176Y241757D01*
X1042988Y239796D01*
X1042988Y237673D01*
X1042176Y235713D01*
X1040675Y234212D01*
X1038715Y233400D01*
X1036592Y233400D01*
G37*
%LPD*%
%LPC*%
G36*
X93630Y233400D02*
X93630Y233400D01*
X91669Y234212D01*
X90169Y235713D01*
X89356Y237673D01*
X89356Y239796D01*
X90169Y241757D01*
X91669Y243257D01*
X93630Y244069D01*
X95752Y244069D01*
X97713Y243257D01*
X99214Y241757D01*
X100026Y239796D01*
X100026Y237673D01*
X99214Y235713D01*
X97713Y234212D01*
X95752Y233400D01*
X93630Y233400D01*
G37*
%LPD*%
%LPC*%
G36*
X266439Y233400D02*
X266439Y233400D01*
X264478Y234212D01*
X262977Y235713D01*
X262165Y237673D01*
X262165Y239796D01*
X262977Y241757D01*
X264478Y243257D01*
X266439Y244069D01*
X268561Y244069D01*
X270522Y243257D01*
X272023Y241757D01*
X272835Y239796D01*
X272835Y237673D01*
X272023Y235713D01*
X270522Y234212D01*
X268561Y233400D01*
X266439Y233400D01*
G37*
%LPD*%
%LPC*%
G36*
X445395Y223164D02*
X445395Y223164D01*
X443434Y223976D01*
X441933Y225476D01*
X441121Y227437D01*
X441121Y229560D01*
X441933Y231520D01*
X443434Y233021D01*
X445395Y233833D01*
X447517Y233833D01*
X449478Y233021D01*
X450978Y231520D01*
X451791Y229560D01*
X451791Y227437D01*
X450978Y225476D01*
X449478Y223976D01*
X447517Y223164D01*
X445395Y223164D01*
G37*
%LPD*%
%LPC*%
G36*
X60305Y223164D02*
X60305Y223164D01*
X58344Y223976D01*
X56844Y225476D01*
X56032Y227437D01*
X56032Y229560D01*
X56844Y231520D01*
X58344Y233021D01*
X60305Y233833D01*
X62428Y233833D01*
X64388Y233021D01*
X65889Y231520D01*
X66701Y229560D01*
X66701Y227437D01*
X65889Y225476D01*
X64388Y223976D01*
X62428Y223164D01*
X60305Y223164D01*
G37*
%LPD*%
%LPC*%
G36*
X830459Y223164D02*
X830459Y223164D01*
X828498Y223976D01*
X826997Y225476D01*
X826185Y227437D01*
X826185Y229560D01*
X826997Y231520D01*
X828498Y233021D01*
X830459Y233833D01*
X832581Y233833D01*
X834542Y233021D01*
X836042Y231520D01*
X836855Y229560D01*
X836855Y227437D01*
X836042Y225476D01*
X834542Y223976D01*
X832581Y223164D01*
X830459Y223164D01*
G37*
%LPD*%
%LPC*%
G36*
X445547Y198018D02*
X445547Y198018D01*
X443586Y198830D01*
X442086Y200330D01*
X441273Y202291D01*
X441273Y204414D01*
X442086Y206374D01*
X443586Y207875D01*
X445547Y208687D01*
X447669Y208687D01*
X449630Y207875D01*
X451131Y206374D01*
X451943Y204414D01*
X451943Y202291D01*
X451131Y200330D01*
X449630Y198830D01*
X447669Y198018D01*
X445547Y198018D01*
G37*
%LPD*%
%LPC*%
G36*
X830611Y198018D02*
X830611Y198018D01*
X828650Y198830D01*
X827150Y200330D01*
X826337Y202291D01*
X826337Y204414D01*
X827150Y206374D01*
X828650Y207875D01*
X830611Y208687D01*
X832733Y208687D01*
X834694Y207875D01*
X836195Y206374D01*
X837007Y204414D01*
X837007Y202291D01*
X836195Y200330D01*
X834694Y198830D01*
X832733Y198018D01*
X830611Y198018D01*
G37*
%LPD*%
%LPC*%
G36*
X60458Y198018D02*
X60458Y198018D01*
X58497Y198830D01*
X56996Y200330D01*
X56184Y202291D01*
X56184Y204414D01*
X56996Y206374D01*
X58497Y207875D01*
X60458Y208687D01*
X62580Y208687D01*
X64541Y207875D01*
X66041Y206374D01*
X66854Y204414D01*
X66854Y202291D01*
X66041Y200330D01*
X64541Y198830D01*
X62580Y198018D01*
X60458Y198018D01*
G37*
%LPD*%
%LPC*%
G36*
X260279Y192861D02*
X260279Y192861D01*
X258319Y193674D01*
X256818Y195174D01*
X256006Y197135D01*
X256006Y199257D01*
X256818Y201218D01*
X258319Y202719D01*
X260279Y203531D01*
X262402Y203531D01*
X264363Y202719D01*
X265863Y201218D01*
X266675Y199257D01*
X266675Y197135D01*
X265863Y195174D01*
X264363Y193674D01*
X262402Y192861D01*
X260279Y192861D01*
G37*
%LPD*%
%LPC*%
G36*
X1030433Y192861D02*
X1030433Y192861D01*
X1028472Y193674D01*
X1026971Y195174D01*
X1026159Y197135D01*
X1026159Y199257D01*
X1026971Y201218D01*
X1028472Y202719D01*
X1030433Y203531D01*
X1032555Y203531D01*
X1034516Y202719D01*
X1036017Y201218D01*
X1036829Y199257D01*
X1036829Y197135D01*
X1036017Y195174D01*
X1034516Y193674D01*
X1032555Y192861D01*
X1030433Y192861D01*
G37*
%LPD*%
%LPC*%
G36*
X645369Y192861D02*
X645369Y192861D01*
X643408Y193674D01*
X641907Y195174D01*
X641095Y197135D01*
X641095Y199257D01*
X641907Y201218D01*
X643408Y202719D01*
X645369Y203531D01*
X647491Y203531D01*
X649452Y202719D01*
X650953Y201218D01*
X651765Y199257D01*
X651765Y197135D01*
X650953Y195174D01*
X649452Y193674D01*
X647491Y192861D01*
X645369Y192861D01*
G37*
%LPD*%
%LPC*%
G36*
X534142Y188213D02*
X534142Y188213D01*
X532181Y189025D01*
X530681Y190526D01*
X529869Y192487D01*
X529869Y194609D01*
X530681Y196570D01*
X532181Y198071D01*
X534142Y198883D01*
X536265Y198883D01*
X538225Y198071D01*
X539726Y196570D01*
X540538Y194609D01*
X540538Y192487D01*
X539726Y190526D01*
X538225Y189025D01*
X536265Y188213D01*
X534142Y188213D01*
G37*
%LPD*%
%LPC*%
G36*
X919206Y188213D02*
X919206Y188213D01*
X917245Y189025D01*
X915745Y190526D01*
X914933Y192487D01*
X914933Y194609D01*
X915745Y196570D01*
X917245Y198071D01*
X919206Y198883D01*
X921329Y198883D01*
X923289Y198071D01*
X924790Y196570D01*
X925602Y194609D01*
X925602Y192487D01*
X924790Y190526D01*
X923289Y189025D01*
X921329Y188213D01*
X919206Y188213D01*
G37*
%LPD*%
%LPC*%
G36*
X149053Y188213D02*
X149053Y188213D01*
X147092Y189025D01*
X145591Y190526D01*
X144779Y192487D01*
X144779Y194609D01*
X145591Y196570D01*
X147092Y198071D01*
X149053Y198883D01*
X151175Y198883D01*
X153136Y198071D01*
X154637Y196570D01*
X155449Y194609D01*
X155449Y192487D01*
X154637Y190526D01*
X153136Y189025D01*
X151175Y188213D01*
X149053Y188213D01*
G37*
%LPD*%
%LPC*%
G36*
X445191Y172491D02*
X445191Y172491D01*
X443231Y173303D01*
X441730Y174803D01*
X440918Y176764D01*
X440918Y178887D01*
X441730Y180847D01*
X443231Y182348D01*
X445191Y183160D01*
X447314Y183160D01*
X449275Y182348D01*
X450775Y180847D01*
X451587Y178887D01*
X451587Y176764D01*
X450775Y174803D01*
X449275Y173303D01*
X447314Y172491D01*
X445191Y172491D01*
G37*
%LPD*%
%LPC*%
G36*
X830255Y172491D02*
X830255Y172491D01*
X828295Y173303D01*
X826794Y174803D01*
X825982Y176764D01*
X825982Y178887D01*
X826794Y180847D01*
X828295Y182348D01*
X830255Y183160D01*
X832378Y183160D01*
X834339Y182348D01*
X835839Y180847D01*
X836651Y178887D01*
X836651Y176764D01*
X835839Y174803D01*
X834339Y173303D01*
X832378Y172491D01*
X830255Y172491D01*
G37*
%LPD*%
%LPC*%
G36*
X60102Y172491D02*
X60102Y172491D01*
X58141Y173303D01*
X56641Y174803D01*
X55828Y176764D01*
X55828Y178887D01*
X56641Y180847D01*
X58141Y182348D01*
X60102Y183160D01*
X62224Y183160D01*
X64185Y182348D01*
X65686Y180847D01*
X66498Y178887D01*
X66498Y176764D01*
X65686Y174803D01*
X64185Y173303D01*
X62224Y172491D01*
X60102Y172491D01*
G37*
%LPD*%
%LPC*%
G36*
X959592Y172465D02*
X959592Y172465D01*
X957631Y173277D01*
X956131Y174778D01*
X955319Y176739D01*
X955319Y178861D01*
X956131Y180822D01*
X957631Y182323D01*
X959592Y183135D01*
X961715Y183135D01*
X963675Y182323D01*
X965176Y180822D01*
X965988Y178861D01*
X965988Y176739D01*
X965176Y174778D01*
X963675Y173277D01*
X961715Y172465D01*
X959592Y172465D01*
G37*
%LPD*%
%LPC*%
G36*
X472928Y172465D02*
X472928Y172465D01*
X470967Y173277D01*
X469467Y174778D01*
X468655Y176739D01*
X468655Y178861D01*
X469467Y180822D01*
X470967Y182323D01*
X472928Y183135D01*
X475051Y183135D01*
X477011Y182323D01*
X478512Y180822D01*
X479324Y178861D01*
X479324Y176739D01*
X478512Y174778D01*
X477011Y173277D01*
X475051Y172465D01*
X472928Y172465D01*
G37*
%LPD*%
%LPC*%
G36*
X574528Y172465D02*
X574528Y172465D01*
X572567Y173277D01*
X571067Y174778D01*
X570255Y176739D01*
X570255Y178861D01*
X571067Y180822D01*
X572567Y182323D01*
X574528Y183135D01*
X576651Y183135D01*
X578611Y182323D01*
X580112Y180822D01*
X580924Y178861D01*
X580924Y176739D01*
X580112Y174778D01*
X578611Y173277D01*
X576651Y172465D01*
X574528Y172465D01*
G37*
%LPD*%
%LPC*%
G36*
X189439Y172465D02*
X189439Y172465D01*
X187478Y173277D01*
X185977Y174778D01*
X185165Y176739D01*
X185165Y178861D01*
X185977Y180822D01*
X187478Y182323D01*
X189439Y183135D01*
X191561Y183135D01*
X193522Y182323D01*
X195023Y180822D01*
X195835Y178861D01*
X195835Y176739D01*
X195023Y174778D01*
X193522Y173277D01*
X191561Y172465D01*
X189439Y172465D01*
G37*
%LPD*%
%LPC*%
G36*
X857992Y172465D02*
X857992Y172465D01*
X856031Y173277D01*
X854531Y174778D01*
X853719Y176739D01*
X853719Y178861D01*
X854531Y180822D01*
X856031Y182323D01*
X857992Y183135D01*
X860115Y183135D01*
X862075Y182323D01*
X863576Y180822D01*
X864388Y178861D01*
X864388Y176739D01*
X863576Y174778D01*
X862075Y173277D01*
X860115Y172465D01*
X857992Y172465D01*
G37*
%LPD*%
%LPC*%
G36*
X87839Y172465D02*
X87839Y172465D01*
X85878Y173277D01*
X84377Y174778D01*
X83565Y176739D01*
X83565Y178861D01*
X84377Y180822D01*
X85878Y182323D01*
X87839Y183135D01*
X89961Y183135D01*
X91922Y182323D01*
X93423Y180822D01*
X94235Y178861D01*
X94235Y176739D01*
X93423Y174778D01*
X91922Y173277D01*
X89961Y172465D01*
X87839Y172465D01*
G37*
%LPD*%
%LPC*%
G36*
X1010672Y151917D02*
X1010672Y151917D01*
X1008711Y152729D01*
X1007210Y154229D01*
X1006398Y156190D01*
X1006398Y158313D01*
X1007210Y160273D01*
X1008711Y161774D01*
X1010672Y162586D01*
X1012794Y162586D01*
X1014755Y161774D01*
X1016255Y160273D01*
X1017068Y158313D01*
X1017068Y156190D01*
X1016255Y154229D01*
X1014755Y152729D01*
X1012794Y151917D01*
X1010672Y151917D01*
G37*
%LPD*%
%LPC*%
G36*
X625608Y151917D02*
X625608Y151917D01*
X623647Y152729D01*
X622146Y154229D01*
X621334Y156190D01*
X621334Y158313D01*
X622146Y160273D01*
X623647Y161774D01*
X625608Y162586D01*
X627730Y162586D01*
X629691Y161774D01*
X631191Y160273D01*
X632004Y158313D01*
X632004Y156190D01*
X631191Y154229D01*
X629691Y152729D01*
X627730Y151917D01*
X625608Y151917D01*
G37*
%LPD*%
%LPC*%
G36*
X240518Y151917D02*
X240518Y151917D01*
X238557Y152729D01*
X237057Y154229D01*
X236245Y156190D01*
X236245Y158313D01*
X237057Y160273D01*
X238557Y161774D01*
X240518Y162586D01*
X242641Y162586D01*
X244601Y161774D01*
X246102Y160273D01*
X246914Y158313D01*
X246914Y156190D01*
X246102Y154229D01*
X244601Y152729D01*
X242641Y151917D01*
X240518Y151917D01*
G37*
%LPD*%
%LPC*%
G36*
X906446Y148745D02*
X906446Y148745D01*
X904486Y149557D01*
X902985Y151058D01*
X902173Y153018D01*
X902173Y155141D01*
X902985Y157102D01*
X904486Y158602D01*
X906446Y159414D01*
X908569Y159414D01*
X910530Y158602D01*
X912030Y157102D01*
X912842Y155141D01*
X912842Y153018D01*
X912030Y151058D01*
X910530Y149557D01*
X908569Y148745D01*
X906446Y148745D01*
G37*
%LPD*%
%LPC*%
G36*
X521382Y148745D02*
X521382Y148745D01*
X519422Y149557D01*
X517921Y151058D01*
X517109Y153018D01*
X517109Y155141D01*
X517921Y157102D01*
X519422Y158602D01*
X521382Y159414D01*
X523505Y159414D01*
X525466Y158602D01*
X526966Y157102D01*
X527778Y155141D01*
X527778Y153018D01*
X526966Y151058D01*
X525466Y149557D01*
X523505Y148745D01*
X521382Y148745D01*
G37*
%LPD*%
%LPC*%
G36*
X136293Y148745D02*
X136293Y148745D01*
X134332Y149557D01*
X132832Y151058D01*
X132019Y153018D01*
X132019Y155141D01*
X132832Y157102D01*
X134332Y158602D01*
X136293Y159414D01*
X138415Y159414D01*
X140376Y158602D01*
X141877Y157102D01*
X142689Y155141D01*
X142689Y153018D01*
X141877Y151058D01*
X140376Y149557D01*
X138415Y148745D01*
X136293Y148745D01*
G37*
%LPD*%
%LPC*%
G36*
X1099092Y134665D02*
X1099092Y134665D01*
X1097131Y135477D01*
X1095631Y136978D01*
X1094819Y138939D01*
X1094819Y141061D01*
X1095631Y143022D01*
X1097131Y144523D01*
X1099092Y145335D01*
X1101215Y145335D01*
X1103175Y144523D01*
X1104676Y143022D01*
X1105488Y141061D01*
X1105488Y138939D01*
X1104676Y136978D01*
X1103175Y135477D01*
X1101215Y134665D01*
X1099092Y134665D01*
G37*
%LPD*%
%LPC*%
G36*
X714028Y134665D02*
X714028Y134665D01*
X712067Y135477D01*
X710567Y136978D01*
X709755Y138939D01*
X709755Y141061D01*
X710567Y143022D01*
X712067Y144523D01*
X714028Y145335D01*
X716151Y145335D01*
X718111Y144523D01*
X719612Y143022D01*
X720424Y141061D01*
X720424Y138939D01*
X719612Y136978D01*
X718111Y135477D01*
X716151Y134665D01*
X714028Y134665D01*
G37*
%LPD*%
%LPC*%
G36*
X328939Y134665D02*
X328939Y134665D01*
X326978Y135477D01*
X325477Y136978D01*
X324665Y138939D01*
X324665Y141061D01*
X325477Y143022D01*
X326978Y144523D01*
X328939Y145335D01*
X331061Y145335D01*
X333022Y144523D01*
X334523Y143022D01*
X335335Y141061D01*
X335335Y138939D01*
X334523Y136978D01*
X333022Y135477D01*
X331061Y134665D01*
X328939Y134665D01*
G37*
%LPD*%
%LPC*%
G36*
X973588Y128523D02*
X973588Y128523D01*
X971627Y129335D01*
X970126Y130836D01*
X969314Y132797D01*
X969314Y134919D01*
X970126Y136880D01*
X971627Y138381D01*
X973588Y139193D01*
X975710Y139193D01*
X977671Y138381D01*
X979171Y136880D01*
X979984Y134919D01*
X979984Y132797D01*
X979171Y130836D01*
X977671Y129335D01*
X975710Y128523D01*
X973588Y128523D01*
G37*
%LPD*%
%LPC*%
G36*
X588524Y128523D02*
X588524Y128523D01*
X586563Y129335D01*
X585062Y130836D01*
X584250Y132797D01*
X584250Y134919D01*
X585062Y136880D01*
X586563Y138381D01*
X588524Y139193D01*
X590646Y139193D01*
X592607Y138381D01*
X594107Y136880D01*
X594920Y134919D01*
X594920Y132797D01*
X594107Y130836D01*
X592607Y129335D01*
X590646Y128523D01*
X588524Y128523D01*
G37*
%LPD*%
%LPC*%
G36*
X203434Y128523D02*
X203434Y128523D01*
X201473Y129335D01*
X199973Y130836D01*
X199161Y132797D01*
X199161Y134919D01*
X199973Y136880D01*
X201473Y138381D01*
X203434Y139193D01*
X205557Y139193D01*
X207517Y138381D01*
X209018Y136880D01*
X209830Y134919D01*
X209830Y132797D01*
X209018Y130836D01*
X207517Y129335D01*
X205557Y128523D01*
X203434Y128523D01*
G37*
%LPD*%
%LPC*%
G36*
X557536Y96595D02*
X557536Y96595D01*
X555575Y97408D01*
X554074Y98908D01*
X553262Y100869D01*
X553262Y102991D01*
X554074Y104952D01*
X555575Y106453D01*
X557536Y107265D01*
X559658Y107265D01*
X561619Y106453D01*
X563119Y104952D01*
X563932Y102991D01*
X563932Y100869D01*
X563119Y98908D01*
X561619Y97408D01*
X559658Y96595D01*
X557536Y96595D01*
G37*
%LPD*%
%LPC*%
G36*
X942600Y96595D02*
X942600Y96595D01*
X940639Y97408D01*
X939138Y98908D01*
X938326Y100869D01*
X938326Y102991D01*
X939138Y104952D01*
X940639Y106453D01*
X942600Y107265D01*
X944722Y107265D01*
X946683Y106453D01*
X948183Y104952D01*
X948996Y102991D01*
X948996Y100869D01*
X948183Y98908D01*
X946683Y97408D01*
X944722Y96595D01*
X942600Y96595D01*
G37*
%LPD*%
%LPC*%
G36*
X172446Y96595D02*
X172446Y96595D01*
X170485Y97408D01*
X168985Y98908D01*
X168173Y100869D01*
X168173Y102991D01*
X168985Y104952D01*
X170485Y106453D01*
X172446Y107265D01*
X174569Y107265D01*
X176529Y106453D01*
X178030Y104952D01*
X178842Y102991D01*
X178842Y100869D01*
X178030Y98908D01*
X176529Y97408D01*
X174569Y96595D01*
X172446Y96595D01*
G37*
%LPD*%
%LPC*%
G36*
X583748Y83413D02*
X583748Y83413D01*
X581788Y84225D01*
X580287Y85726D01*
X579475Y87686D01*
X579475Y89809D01*
X580287Y91770D01*
X581788Y93270D01*
X583748Y94082D01*
X585871Y94082D01*
X587832Y93270D01*
X589332Y91770D01*
X590144Y89809D01*
X590144Y87686D01*
X589332Y85726D01*
X587832Y84225D01*
X585871Y83413D01*
X583748Y83413D01*
G37*
%LPD*%
%LPC*%
G36*
X968812Y83413D02*
X968812Y83413D01*
X966852Y84225D01*
X965351Y85726D01*
X964539Y87686D01*
X964539Y89809D01*
X965351Y91770D01*
X966852Y93270D01*
X968812Y94082D01*
X970935Y94082D01*
X972896Y93270D01*
X974396Y91770D01*
X975208Y89809D01*
X975208Y87686D01*
X974396Y85726D01*
X972896Y84225D01*
X970935Y83413D01*
X968812Y83413D01*
G37*
%LPD*%
%LPC*%
G36*
X198659Y83413D02*
X198659Y83413D01*
X196698Y84225D01*
X195198Y85726D01*
X194385Y87686D01*
X194385Y89809D01*
X195198Y91770D01*
X196698Y93270D01*
X198659Y94082D01*
X200781Y94082D01*
X202742Y93270D01*
X204243Y91770D01*
X205055Y89809D01*
X205055Y87686D01*
X204243Y85726D01*
X202742Y84225D01*
X200781Y83413D01*
X198659Y83413D01*
G37*
%LPD*%
%LPC*%
G36*
X206609Y70814D02*
X206609Y70814D01*
X204648Y71627D01*
X203148Y73127D01*
X202336Y75088D01*
X202336Y77210D01*
X203148Y79171D01*
X204648Y80672D01*
X206609Y81484D01*
X208732Y81484D01*
X210692Y80672D01*
X212193Y79171D01*
X213005Y77210D01*
X213005Y75088D01*
X212193Y73127D01*
X210692Y71627D01*
X208732Y70814D01*
X206609Y70814D01*
G37*
%LPD*%
%LPC*%
G36*
X976763Y70814D02*
X976763Y70814D01*
X974802Y71627D01*
X973301Y73127D01*
X972489Y75088D01*
X972489Y77210D01*
X973301Y79171D01*
X974802Y80672D01*
X976763Y81484D01*
X978885Y81484D01*
X980846Y80672D01*
X982346Y79171D01*
X983159Y77210D01*
X983159Y75088D01*
X982346Y73127D01*
X980846Y71627D01*
X978885Y70814D01*
X976763Y70814D01*
G37*
%LPD*%
%LPC*%
G36*
X591699Y70814D02*
X591699Y70814D01*
X589738Y71627D01*
X588237Y73127D01*
X587425Y75088D01*
X587425Y77210D01*
X588237Y79171D01*
X589738Y80672D01*
X591699Y81484D01*
X593821Y81484D01*
X595782Y80672D01*
X597282Y79171D01*
X598095Y77210D01*
X598095Y75088D01*
X597282Y73127D01*
X595782Y71627D01*
X593821Y70814D01*
X591699Y70814D01*
G37*
%LPD*%
%LPC*%
G36*
X446258Y51815D02*
X446258Y51815D01*
X444297Y52627D01*
X442797Y54128D01*
X441985Y56089D01*
X441985Y58211D01*
X442797Y60172D01*
X444297Y61673D01*
X446258Y62485D01*
X448381Y62485D01*
X450341Y61673D01*
X451842Y60172D01*
X452654Y58211D01*
X452654Y56089D01*
X451842Y54128D01*
X450341Y52627D01*
X448381Y51815D01*
X446258Y51815D01*
G37*
%LPD*%
%LPC*%
G36*
X831322Y51815D02*
X831322Y51815D01*
X829361Y52627D01*
X827861Y54128D01*
X827049Y56089D01*
X827049Y58211D01*
X827861Y60172D01*
X829361Y61673D01*
X831322Y62485D01*
X833445Y62485D01*
X835405Y61673D01*
X836906Y60172D01*
X837718Y58211D01*
X837718Y56089D01*
X836906Y54128D01*
X835405Y52627D01*
X833445Y51815D01*
X831322Y51815D01*
G37*
%LPD*%
%LPC*%
G36*
X61169Y51815D02*
X61169Y51815D01*
X59208Y52627D01*
X57707Y54128D01*
X56895Y56089D01*
X56895Y58211D01*
X57707Y60172D01*
X59208Y61673D01*
X61169Y62485D01*
X63291Y62485D01*
X65252Y61673D01*
X66753Y60172D01*
X67565Y58211D01*
X67565Y56089D01*
X66753Y54128D01*
X65252Y52627D01*
X63291Y51815D01*
X61169Y51815D01*
G37*
%LPD*%
%LPC*%
G36*
X781169Y462015D02*
X781169Y462015D01*
X781169Y465719D01*
X781561Y465641D01*
X782440Y465277D01*
X783230Y464749D01*
X783903Y464077D01*
X784431Y463286D01*
X784795Y462408D01*
X784873Y462015D01*
X781169Y462015D01*
G37*
%LPD*%
%LPC*%
G36*
X396105Y462015D02*
X396105Y462015D01*
X396105Y465719D01*
X396497Y465641D01*
X397376Y465277D01*
X398166Y464749D01*
X398839Y464077D01*
X399367Y463286D01*
X399731Y462408D01*
X399809Y462015D01*
X396105Y462015D01*
G37*
%LPD*%
%LPC*%
G36*
X24015Y441015D02*
X24015Y441015D01*
X24015Y444719D01*
X24408Y444641D01*
X25286Y444277D01*
X26077Y443749D01*
X26749Y443077D01*
X27277Y442286D01*
X27641Y441408D01*
X27719Y441015D01*
X24015Y441015D01*
G37*
%LPD*%
%LPC*%
G36*
X11015Y462015D02*
X11015Y462015D01*
X11015Y465719D01*
X11408Y465641D01*
X12286Y465277D01*
X13077Y464749D01*
X13749Y464077D01*
X14277Y463286D01*
X14641Y462408D01*
X14719Y462015D01*
X11015Y462015D01*
G37*
%LPD*%
%LPC*%
G36*
X794169Y441015D02*
X794169Y441015D01*
X794169Y444719D01*
X794561Y444641D01*
X795440Y444277D01*
X796230Y443749D01*
X796903Y443077D01*
X797431Y442286D01*
X797795Y441408D01*
X797873Y441015D01*
X794169Y441015D01*
G37*
%LPD*%
%LPC*%
G36*
X409105Y441015D02*
X409105Y441015D01*
X409105Y444719D01*
X409497Y444641D01*
X410376Y444277D01*
X411166Y443749D01*
X411839Y443077D01*
X412367Y442286D01*
X412731Y441408D01*
X412809Y441015D01*
X409105Y441015D01*
G37*
%LPD*%
%LPC*%
G36*
X1135434Y462015D02*
X1135434Y462015D01*
X1135512Y462408D01*
X1135876Y463286D01*
X1136404Y464077D01*
X1137076Y464749D01*
X1137867Y465277D01*
X1138745Y465641D01*
X1139138Y465719D01*
X1139138Y462015D01*
X1135434Y462015D01*
G37*
%LPD*%
%LPC*%
G36*
X365281Y462015D02*
X365281Y462015D01*
X365359Y462408D01*
X365723Y463286D01*
X366251Y464077D01*
X366923Y464749D01*
X367714Y465277D01*
X368592Y465641D01*
X368985Y465719D01*
X368985Y462015D01*
X365281Y462015D01*
G37*
%LPD*%
%LPC*%
G36*
X750370Y462015D02*
X750370Y462015D01*
X750448Y462408D01*
X750812Y463286D01*
X751340Y464077D01*
X752012Y464749D01*
X752803Y465277D01*
X753681Y465641D01*
X754074Y465719D01*
X754074Y462015D01*
X750370Y462015D01*
G37*
%LPD*%
%LPC*%
G36*
X409105Y438985D02*
X409105Y438985D01*
X412809Y438985D01*
X412731Y438592D01*
X412367Y437714D01*
X411839Y436923D01*
X411166Y436251D01*
X410376Y435723D01*
X409497Y435359D01*
X409105Y435281D01*
X409105Y438985D01*
G37*
%LPD*%
%LPC*%
G36*
X24015Y438985D02*
X24015Y438985D01*
X27719Y438985D01*
X27641Y438592D01*
X27277Y437714D01*
X26749Y436923D01*
X26077Y436251D01*
X25286Y435723D01*
X24408Y435359D01*
X24015Y435281D01*
X24015Y438985D01*
G37*
%LPD*%
%LPC*%
G36*
X781169Y417985D02*
X781169Y417985D01*
X784873Y417985D01*
X784795Y417592D01*
X784431Y416714D01*
X783903Y415923D01*
X783230Y415251D01*
X782440Y414723D01*
X781561Y414359D01*
X781169Y414281D01*
X781169Y417985D01*
G37*
%LPD*%
%LPC*%
G36*
X1122434Y441015D02*
X1122434Y441015D01*
X1122512Y441408D01*
X1122876Y442286D01*
X1123404Y443077D01*
X1124076Y443749D01*
X1124867Y444277D01*
X1125745Y444641D01*
X1126138Y444719D01*
X1126138Y441015D01*
X1122434Y441015D01*
G37*
%LPD*%
%LPC*%
G36*
X737370Y441015D02*
X737370Y441015D01*
X737448Y441408D01*
X737812Y442286D01*
X738340Y443077D01*
X739012Y443749D01*
X739803Y444277D01*
X740681Y444641D01*
X741074Y444719D01*
X741074Y441015D01*
X737370Y441015D01*
G37*
%LPD*%
%LPC*%
G36*
X352281Y441015D02*
X352281Y441015D01*
X352359Y441408D01*
X352723Y442286D01*
X353251Y443077D01*
X353923Y443749D01*
X354714Y444277D01*
X355592Y444641D01*
X355985Y444719D01*
X355985Y441015D01*
X352281Y441015D01*
G37*
%LPD*%
%LPC*%
G36*
X11015Y417985D02*
X11015Y417985D01*
X14719Y417985D01*
X14641Y417592D01*
X14277Y416714D01*
X13749Y415923D01*
X13077Y415251D01*
X12286Y414723D01*
X11408Y414359D01*
X11015Y414281D01*
X11015Y417985D01*
G37*
%LPD*%
%LPC*%
G36*
X794169Y438985D02*
X794169Y438985D01*
X797873Y438985D01*
X797795Y438592D01*
X797431Y437714D01*
X796903Y436923D01*
X796230Y436251D01*
X795440Y435723D01*
X794561Y435359D01*
X794169Y435281D01*
X794169Y438985D01*
G37*
%LPD*%
%LPC*%
G36*
X396105Y417985D02*
X396105Y417985D01*
X399809Y417985D01*
X399731Y417592D01*
X399367Y416714D01*
X398839Y415923D01*
X398166Y415251D01*
X397376Y414723D01*
X396497Y414359D01*
X396105Y414281D01*
X396105Y417985D01*
G37*
%LPD*%
%LPC*%
G36*
X740681Y435359D02*
X740681Y435359D01*
X739803Y435723D01*
X739012Y436251D01*
X738340Y436923D01*
X737812Y437714D01*
X737448Y438592D01*
X737370Y438985D01*
X741074Y438985D01*
X741074Y435281D01*
X740681Y435359D01*
G37*
%LPD*%
%LPC*%
G36*
X753681Y414359D02*
X753681Y414359D01*
X752803Y414723D01*
X752012Y415251D01*
X751340Y415923D01*
X750812Y416714D01*
X750448Y417592D01*
X750370Y417985D01*
X754074Y417985D01*
X754074Y414281D01*
X753681Y414359D01*
G37*
%LPD*%
%LPC*%
G36*
X355592Y435359D02*
X355592Y435359D01*
X354714Y435723D01*
X353923Y436251D01*
X353251Y436923D01*
X352723Y437714D01*
X352359Y438592D01*
X352281Y438985D01*
X355985Y438985D01*
X355985Y435281D01*
X355592Y435359D01*
G37*
%LPD*%
%LPC*%
G36*
X1125745Y435359D02*
X1125745Y435359D01*
X1124867Y435723D01*
X1124076Y436251D01*
X1123404Y436923D01*
X1122876Y437714D01*
X1122512Y438592D01*
X1122434Y438985D01*
X1126138Y438985D01*
X1126138Y435281D01*
X1125745Y435359D01*
G37*
%LPD*%
%LPC*%
G36*
X1138745Y414359D02*
X1138745Y414359D01*
X1137867Y414723D01*
X1137076Y415251D01*
X1136404Y415923D01*
X1135876Y416714D01*
X1135512Y417592D01*
X1135434Y417985D01*
X1139138Y417985D01*
X1139138Y414281D01*
X1138745Y414359D01*
G37*
%LPD*%
%LPC*%
G36*
X368592Y414359D02*
X368592Y414359D01*
X367714Y414723D01*
X366923Y415251D01*
X366251Y415923D01*
X365723Y416714D01*
X365359Y417592D01*
X365281Y417985D01*
X368985Y417985D01*
X368985Y414281D01*
X368592Y414359D01*
G37*
%LPD*%
D10*
X18728Y75413D02*
X18726Y75490D01*
X18720Y75567D01*
X18710Y75644D01*
X18697Y75720D01*
X18679Y75795D01*
X18658Y75869D01*
X18633Y75942D01*
X18604Y76014D01*
X18572Y76084D01*
X18537Y76153D01*
X18497Y76219D01*
X18455Y76284D01*
X18409Y76346D01*
X18360Y76406D01*
X18309Y76463D01*
X18254Y76518D01*
X18197Y76569D01*
X18137Y76618D01*
X18075Y76664D01*
X18010Y76706D01*
X17944Y76746D01*
X17875Y76781D01*
X17805Y76813D01*
X17733Y76842D01*
X17660Y76867D01*
X17586Y76888D01*
X17511Y76906D01*
X17435Y76919D01*
X17358Y76929D01*
X17281Y76935D01*
X17204Y76937D01*
X17119Y76935D01*
X17034Y76930D01*
X16950Y76920D01*
X16866Y76908D01*
X16783Y76891D01*
X16700Y76871D01*
X16619Y76847D01*
X16538Y76820D01*
X16459Y76790D01*
X16381Y76756D01*
X16305Y76718D01*
X16230Y76678D01*
X16158Y76634D01*
X16087Y76587D01*
X16018Y76537D01*
X15952Y76484D01*
X15888Y76429D01*
X15826Y76370D01*
X15767Y76309D01*
X15711Y76246D01*
X15657Y76180D01*
X15607Y76111D01*
X15559Y76041D01*
X15515Y75969D01*
X15473Y75895D01*
X15435Y75819D01*
X15401Y75741D01*
X15369Y75662D01*
X15341Y75582D01*
X18220Y74228D02*
X18275Y74283D01*
X18328Y74340D01*
X18377Y74400D01*
X18424Y74463D01*
X18468Y74527D01*
X18508Y74594D01*
X18546Y74662D01*
X18580Y74733D01*
X18611Y74804D01*
X18638Y74877D01*
X18662Y74951D01*
X18682Y75027D01*
X18698Y75103D01*
X18711Y75180D01*
X18721Y75257D01*
X18726Y75335D01*
X18728Y75413D01*
X18220Y74227D02*
X15342Y70841D01*
X18728Y70841D01*
X402294Y76937D02*
X402371Y76935D01*
X402448Y76929D01*
X402525Y76919D01*
X402601Y76906D01*
X402676Y76888D01*
X402750Y76867D01*
X402823Y76842D01*
X402895Y76813D01*
X402965Y76781D01*
X403034Y76746D01*
X403100Y76706D01*
X403165Y76664D01*
X403227Y76618D01*
X403287Y76569D01*
X403344Y76518D01*
X403399Y76463D01*
X403450Y76406D01*
X403499Y76346D01*
X403545Y76284D01*
X403587Y76219D01*
X403627Y76153D01*
X403662Y76084D01*
X403694Y76014D01*
X403723Y75942D01*
X403748Y75869D01*
X403769Y75795D01*
X403787Y75720D01*
X403800Y75644D01*
X403810Y75567D01*
X403816Y75490D01*
X403818Y75413D01*
X402294Y76937D02*
X402209Y76935D01*
X402124Y76930D01*
X402040Y76920D01*
X401956Y76908D01*
X401873Y76891D01*
X401790Y76871D01*
X401709Y76847D01*
X401628Y76820D01*
X401549Y76790D01*
X401471Y76756D01*
X401395Y76718D01*
X401320Y76678D01*
X401248Y76634D01*
X401177Y76587D01*
X401108Y76537D01*
X401042Y76484D01*
X400978Y76429D01*
X400916Y76370D01*
X400857Y76309D01*
X400801Y76246D01*
X400747Y76180D01*
X400697Y76111D01*
X400649Y76041D01*
X400605Y75969D01*
X400563Y75895D01*
X400525Y75819D01*
X400491Y75741D01*
X400459Y75662D01*
X400431Y75582D01*
X403310Y74228D02*
X403365Y74283D01*
X403418Y74340D01*
X403467Y74400D01*
X403514Y74463D01*
X403558Y74527D01*
X403598Y74594D01*
X403636Y74662D01*
X403670Y74733D01*
X403701Y74804D01*
X403728Y74877D01*
X403752Y74951D01*
X403772Y75027D01*
X403788Y75103D01*
X403801Y75180D01*
X403811Y75257D01*
X403816Y75335D01*
X403818Y75413D01*
X403310Y74227D02*
X400431Y70841D01*
X403818Y70841D01*
X787358Y76937D02*
X787435Y76935D01*
X787512Y76929D01*
X787589Y76919D01*
X787665Y76906D01*
X787740Y76888D01*
X787814Y76867D01*
X787887Y76842D01*
X787959Y76813D01*
X788029Y76781D01*
X788098Y76746D01*
X788164Y76706D01*
X788229Y76664D01*
X788291Y76618D01*
X788351Y76569D01*
X788408Y76518D01*
X788463Y76463D01*
X788514Y76406D01*
X788563Y76346D01*
X788609Y76284D01*
X788651Y76219D01*
X788691Y76153D01*
X788726Y76084D01*
X788758Y76014D01*
X788787Y75942D01*
X788812Y75869D01*
X788833Y75795D01*
X788851Y75720D01*
X788864Y75644D01*
X788874Y75567D01*
X788880Y75490D01*
X788882Y75413D01*
X787358Y76937D02*
X787273Y76935D01*
X787188Y76930D01*
X787104Y76920D01*
X787020Y76908D01*
X786937Y76891D01*
X786854Y76871D01*
X786773Y76847D01*
X786692Y76820D01*
X786613Y76790D01*
X786535Y76756D01*
X786459Y76718D01*
X786384Y76678D01*
X786312Y76634D01*
X786241Y76587D01*
X786172Y76537D01*
X786106Y76484D01*
X786042Y76429D01*
X785980Y76370D01*
X785921Y76309D01*
X785865Y76246D01*
X785811Y76180D01*
X785761Y76111D01*
X785713Y76041D01*
X785669Y75969D01*
X785627Y75895D01*
X785589Y75819D01*
X785555Y75741D01*
X785523Y75662D01*
X785495Y75582D01*
X788374Y74228D02*
X788429Y74283D01*
X788482Y74340D01*
X788531Y74400D01*
X788578Y74463D01*
X788622Y74527D01*
X788662Y74594D01*
X788700Y74662D01*
X788734Y74733D01*
X788765Y74804D01*
X788792Y74877D01*
X788816Y74951D01*
X788836Y75027D01*
X788852Y75103D01*
X788865Y75180D01*
X788875Y75257D01*
X788880Y75335D01*
X788882Y75413D01*
X788374Y74227D02*
X785495Y70841D01*
X788882Y70841D01*
D11*
X29700Y129500D03*
X29700Y154900D03*
D12*
X370000Y461000D03*
X370000Y419000D03*
X357000Y440000D03*
X10000Y419000D03*
X10000Y461000D03*
X23000Y440000D03*
D13*
X228000Y538800D03*
X152000Y538800D03*
X145500Y636300D03*
X234500Y636300D03*
D14*
X176000Y564800D03*
X204000Y564800D03*
D11*
X414789Y129500D03*
X414789Y154900D03*
D12*
X755089Y461000D03*
X755089Y419000D03*
X742089Y440000D03*
X395089Y419000D03*
X395089Y461000D03*
X408089Y440000D03*
D13*
X613089Y538800D03*
X537089Y538800D03*
X530589Y636300D03*
X619589Y636300D03*
D14*
X561089Y564800D03*
X589089Y564800D03*
D11*
X799853Y129500D03*
X799853Y154900D03*
D12*
X1140153Y461000D03*
X1140153Y419000D03*
X1127153Y440000D03*
X780153Y419000D03*
X780153Y461000D03*
X793153Y440000D03*
D13*
X998153Y538800D03*
X922153Y538800D03*
X915653Y636300D03*
X1004653Y636300D03*
D14*
X946153Y564800D03*
X974153Y564800D03*
D12*
X277570Y294515D03*
X277825Y38227D03*
X253797Y387325D03*
X176530Y351790D03*
X185420Y351790D03*
X195580Y351790D03*
X204470Y351790D03*
X176530Y342900D03*
X185420Y342900D03*
X195580Y342900D03*
X204470Y342900D03*
X176530Y332740D03*
X185420Y332740D03*
X195580Y332740D03*
X204470Y332740D03*
X176530Y323850D03*
X185420Y323850D03*
X195580Y323850D03*
X204470Y323850D03*
X127051Y335178D03*
X113132Y346634D03*
X136373Y377292D03*
X152857Y409956D03*
X167894Y389763D03*
X169901Y285445D03*
X175895Y121895D03*
X135534Y115214D03*
X173965Y62230D03*
X73279Y115392D03*
X53137Y115392D03*
X96571Y91846D03*
X103734Y134950D03*
X122707Y514807D03*
X361747Y518897D03*
X70500Y507500D03*
X224688Y452323D03*
X23000Y515000D03*
X291617Y494487D03*
X247167Y518617D03*
X174365Y30530D03*
X283165Y30230D03*
X96865Y34130D03*
X189965Y29730D03*
X283865Y190130D03*
X284165Y138330D03*
X284165Y86630D03*
X261565Y86130D03*
X261065Y139130D03*
X260765Y190230D03*
X291922Y250274D03*
X254135Y251238D03*
X169306Y86249D03*
X143144Y86427D03*
X171973Y161230D03*
X142255Y168672D03*
X152415Y217465D03*
X129631Y216805D03*
X150459Y262169D03*
X131866Y259960D03*
X279450Y304757D03*
X253695Y305062D03*
X370637Y621767D03*
X270307Y629387D03*
X368097Y568427D03*
X270307Y567157D03*
X323647Y567157D03*
X137354Y154080D03*
X129007Y357657D03*
X181661Y396850D03*
X33249Y288417D03*
X204495Y133858D03*
X188239Y276835D03*
X104648Y322377D03*
X288739Y266435D03*
X304839Y494835D03*
X335196Y352790D03*
X335297Y282613D03*
X329839Y494835D03*
X330000Y140000D03*
X50800Y342900D03*
X109728Y308407D03*
X272618Y42164D03*
X272390Y312445D03*
X266319Y319964D03*
X94691Y238735D03*
X267462Y38100D03*
X267500Y238735D03*
X62230Y57150D03*
X173507Y101930D03*
X207670Y76149D03*
X199720Y88748D03*
X325044Y257658D03*
X355600Y508000D03*
X343357Y257658D03*
X184980Y37690D03*
X241579Y157251D03*
X107671Y335686D03*
X161696Y41148D03*
X137846Y308635D03*
X157023Y36322D03*
X197714Y296139D03*
X190500Y177800D03*
X88900Y177800D03*
X261390Y335540D03*
X278003Y475513D03*
X142672Y35966D03*
X150114Y193548D03*
X261341Y198196D03*
X97942Y290830D03*
X98857Y265328D03*
X114402Y297967D03*
X61519Y203352D03*
X61341Y253467D03*
X61519Y279349D03*
X61366Y228498D03*
X61163Y177825D03*
X288500Y342600D03*
X289000Y292100D03*
X289000Y317600D03*
X70000Y550000D03*
X325120Y307975D03*
X279400Y508000D03*
X325018Y333908D03*
X317500Y508000D03*
X325171Y282804D03*
X342900Y508000D03*
X662660Y294515D03*
X662915Y38227D03*
X638886Y387325D03*
X561619Y351790D03*
X570509Y351790D03*
X580669Y351790D03*
X589559Y351790D03*
X561619Y342900D03*
X570509Y342900D03*
X580669Y342900D03*
X589559Y342900D03*
X561619Y332740D03*
X570509Y332740D03*
X580669Y332740D03*
X589559Y332740D03*
X561619Y323850D03*
X570509Y323850D03*
X580669Y323850D03*
X589559Y323850D03*
X512140Y335178D03*
X498221Y346634D03*
X521462Y377292D03*
X537947Y409956D03*
X552983Y389763D03*
X554990Y285445D03*
X560984Y121895D03*
X520624Y115214D03*
X559054Y62230D03*
X458368Y115392D03*
X438226Y115392D03*
X481660Y91846D03*
X488823Y134950D03*
X507797Y514807D03*
X746836Y518897D03*
X455589Y507500D03*
X609778Y452323D03*
X408089Y515000D03*
X676707Y494487D03*
X632257Y518617D03*
X559454Y30530D03*
X668254Y30230D03*
X481954Y34130D03*
X575054Y29730D03*
X668954Y190130D03*
X669254Y138330D03*
X669254Y86630D03*
X646654Y86130D03*
X646154Y139130D03*
X645854Y190230D03*
X677011Y250274D03*
X639225Y251238D03*
X554395Y86249D03*
X528233Y86427D03*
X557062Y161230D03*
X527344Y168672D03*
X537504Y217465D03*
X514720Y216805D03*
X535548Y262169D03*
X516956Y259960D03*
X664540Y304757D03*
X638784Y305062D03*
X755726Y621767D03*
X655396Y629387D03*
X753186Y568427D03*
X655396Y567157D03*
X708736Y567157D03*
X522444Y154080D03*
X514096Y357657D03*
X566750Y396850D03*
X418338Y288417D03*
X589585Y133858D03*
X573329Y276835D03*
X489737Y322377D03*
X673829Y266435D03*
X689929Y494835D03*
X720285Y352790D03*
X720387Y282613D03*
X714929Y494835D03*
X715089Y140000D03*
X435889Y342900D03*
X494817Y308407D03*
X657708Y42164D03*
X657479Y312445D03*
X651408Y319964D03*
X479781Y238735D03*
X652551Y38100D03*
X652589Y238735D03*
X447319Y57150D03*
X558597Y101930D03*
X592760Y76149D03*
X584810Y88748D03*
X710133Y257658D03*
X740689Y508000D03*
X728447Y257658D03*
X570070Y37690D03*
X626669Y157251D03*
X492760Y335686D03*
X546786Y41148D03*
X522935Y308635D03*
X542112Y36322D03*
X582803Y296139D03*
X575589Y177800D03*
X473989Y177800D03*
X646480Y335540D03*
X663092Y475513D03*
X527761Y35966D03*
X535203Y193548D03*
X646430Y198196D03*
X483032Y290830D03*
X483946Y265328D03*
X499491Y297967D03*
X446608Y203352D03*
X446430Y253467D03*
X446608Y279349D03*
X446456Y228498D03*
X446253Y177825D03*
X673589Y342600D03*
X674089Y292100D03*
X674089Y317600D03*
X455089Y550000D03*
X710209Y307975D03*
X664489Y508000D03*
X710108Y333908D03*
X702589Y508000D03*
X710260Y282804D03*
X727989Y508000D03*
X1047724Y294515D03*
X1047979Y38227D03*
X1023950Y387325D03*
X946683Y351790D03*
X955573Y351790D03*
X965733Y351790D03*
X974623Y351790D03*
X946683Y342900D03*
X955573Y342900D03*
X965733Y342900D03*
X974623Y342900D03*
X946683Y332740D03*
X955573Y332740D03*
X965733Y332740D03*
X974623Y332740D03*
X946683Y323850D03*
X955573Y323850D03*
X965733Y323850D03*
X974623Y323850D03*
X897204Y335178D03*
X883285Y346634D03*
X906526Y377292D03*
X923011Y409956D03*
X938047Y389763D03*
X940054Y285445D03*
X946048Y121895D03*
X905688Y115214D03*
X944118Y62230D03*
X843432Y115392D03*
X823290Y115392D03*
X866724Y91846D03*
X873887Y134950D03*
X892861Y514807D03*
X1131900Y518897D03*
X840653Y507500D03*
X994842Y452323D03*
X793153Y515000D03*
X1061771Y494487D03*
X1017321Y518617D03*
X944518Y30530D03*
X1053318Y30230D03*
X867018Y34130D03*
X960118Y29730D03*
X1054018Y190130D03*
X1054318Y138330D03*
X1054318Y86630D03*
X1031718Y86130D03*
X1031218Y139130D03*
X1030918Y190230D03*
X1062075Y250274D03*
X1024289Y251238D03*
X939459Y86249D03*
X913297Y86427D03*
X942126Y161230D03*
X912408Y168672D03*
X922568Y217465D03*
X899784Y216805D03*
X920612Y262169D03*
X902020Y259960D03*
X1049604Y304757D03*
X1023848Y305062D03*
X1140790Y621767D03*
X1040460Y629387D03*
X1138250Y568427D03*
X1040460Y567157D03*
X1093800Y567157D03*
X907508Y154080D03*
X899160Y357657D03*
X951814Y396850D03*
X803402Y288417D03*
X974649Y133858D03*
X958393Y276835D03*
X874801Y322377D03*
X1058893Y266435D03*
X1074993Y494835D03*
X1105349Y352790D03*
X1105451Y282613D03*
X1099993Y494835D03*
X1100153Y140000D03*
X820953Y342900D03*
X879881Y308407D03*
X1042772Y42164D03*
X1042543Y312445D03*
X1036472Y319964D03*
X864845Y238735D03*
X1037615Y38100D03*
X1037653Y238735D03*
X832383Y57150D03*
X943661Y101930D03*
X977824Y76149D03*
X969874Y88748D03*
X1095197Y257658D03*
X1125753Y508000D03*
X1113511Y257658D03*
X955134Y37690D03*
X1011733Y157251D03*
X877824Y335686D03*
X931850Y41148D03*
X907999Y308635D03*
X927176Y36322D03*
X967867Y296139D03*
X960653Y177800D03*
X859053Y177800D03*
X1031544Y335540D03*
X1048156Y475513D03*
X912825Y35966D03*
X920267Y193548D03*
X1031494Y198196D03*
X868096Y290830D03*
X869010Y265328D03*
X884555Y297967D03*
X831672Y203352D03*
X831494Y253467D03*
X831672Y279349D03*
X831520Y228498D03*
X831317Y177825D03*
X1058653Y342600D03*
X1059153Y292100D03*
X1059153Y317600D03*
X840153Y550000D03*
X1095273Y307975D03*
X1049553Y508000D03*
X1095172Y333908D03*
X1087653Y508000D03*
X1095324Y282804D03*
X1113053Y508000D03*
M02*
