G04 EAGLE Gerber RS-274X export*
G75*
%MOMM*%
%FSLAX34Y34*%
%LPD*%
%INSoldermask Top*%
%IPPOS*%
%AMOC8*
5,1,8,0,0,1.08239X$1,22.5*%
G01*
%ADD10C,0.225400*%
%ADD11C,0.762000*%
%ADD12C,2.006600*%
%ADD13C,0.228959*%
%ADD14C,0.736600*%
%ADD15C,0.231750*%
%ADD16C,0.225369*%
%ADD17C,0.231559*%
%ADD18C,0.223409*%
%ADD19C,0.428259*%
%ADD20C,0.230494*%
%ADD21C,0.223619*%
%ADD22C,0.222250*%
%ADD23C,1.552000*%
%ADD24C,1.402000*%
%ADD25C,0.230909*%
%ADD26C,0.226609*%
%ADD27C,0.228900*%
%ADD28C,0.224509*%
%ADD29C,1.127000*%
%ADD30C,1.270000*%
%ADD31C,1.627000*%

G36*
X774085Y412531D02*
X774085Y412531D01*
X774094Y412535D01*
X774120Y412536D01*
X777954Y413370D01*
X777963Y413375D01*
X777988Y413380D01*
X781664Y414752D01*
X781672Y414757D01*
X781697Y414766D01*
X785140Y416647D01*
X785147Y416654D01*
X785170Y416666D01*
X788311Y419017D01*
X788317Y419025D01*
X788338Y419041D01*
X791113Y421815D01*
X791117Y421824D01*
X791136Y421842D01*
X793487Y424983D01*
X793491Y424992D01*
X793507Y425013D01*
X795387Y428457D01*
X795389Y428466D01*
X795402Y428489D01*
X796773Y432165D01*
X796774Y432175D01*
X796783Y432199D01*
X797617Y436033D01*
X797616Y436043D01*
X797622Y436069D01*
X797902Y439982D01*
X797900Y439992D01*
X797902Y440018D01*
X797622Y443931D01*
X797621Y443936D01*
X797621Y443939D01*
X797618Y443945D01*
X797617Y443967D01*
X796783Y447801D01*
X796778Y447809D01*
X796773Y447835D01*
X795402Y451511D01*
X795396Y451519D01*
X795387Y451543D01*
X793507Y454987D01*
X793500Y454994D01*
X793487Y455017D01*
X791136Y458158D01*
X791128Y458164D01*
X791113Y458185D01*
X788338Y460959D01*
X788330Y460964D01*
X788311Y460983D01*
X785170Y463334D01*
X785161Y463337D01*
X785140Y463353D01*
X781697Y465234D01*
X781687Y465236D01*
X781664Y465248D01*
X777988Y466620D01*
X777979Y466620D01*
X777954Y466630D01*
X774120Y467464D01*
X774110Y467463D01*
X774085Y467469D01*
X770171Y467749D01*
X770146Y467743D01*
X770120Y467747D01*
X770079Y467729D01*
X770035Y467719D01*
X770016Y467701D01*
X769992Y467690D01*
X769967Y467652D01*
X769935Y467621D01*
X769930Y467595D01*
X769915Y467574D01*
X769904Y467500D01*
X769904Y457500D01*
X769906Y457493D01*
X769905Y457486D01*
X769926Y457427D01*
X769943Y457366D01*
X769949Y457361D01*
X769951Y457354D01*
X770001Y457316D01*
X770049Y457274D01*
X770056Y457273D01*
X770061Y457268D01*
X770134Y457252D01*
X772852Y457038D01*
X775484Y456406D01*
X777985Y455370D01*
X780293Y453956D01*
X782351Y452198D01*
X784109Y450139D01*
X785523Y447831D01*
X786559Y445331D01*
X787191Y442698D01*
X787403Y440000D01*
X787191Y437302D01*
X786559Y434669D01*
X785523Y432169D01*
X784109Y429861D01*
X782351Y427802D01*
X780293Y426044D01*
X777985Y424630D01*
X775484Y423594D01*
X772852Y422962D01*
X770134Y422748D01*
X770127Y422746D01*
X770120Y422747D01*
X770062Y422721D01*
X770003Y422699D01*
X769999Y422693D01*
X769992Y422690D01*
X769957Y422637D01*
X769920Y422587D01*
X769919Y422580D01*
X769915Y422574D01*
X769904Y422500D01*
X769904Y412500D01*
X769911Y412475D01*
X769909Y412449D01*
X769931Y412409D01*
X769943Y412366D01*
X769963Y412349D01*
X769975Y412326D01*
X770015Y412304D01*
X770049Y412274D01*
X770074Y412270D01*
X770097Y412257D01*
X770171Y412251D01*
X774085Y412531D01*
G37*
G36*
X389021Y412531D02*
X389021Y412531D01*
X389030Y412535D01*
X389056Y412536D01*
X392890Y413370D01*
X392899Y413375D01*
X392924Y413380D01*
X396600Y414752D01*
X396608Y414757D01*
X396633Y414766D01*
X400076Y416647D01*
X400083Y416654D01*
X400106Y416666D01*
X403247Y419017D01*
X403253Y419025D01*
X403274Y419041D01*
X406049Y421815D01*
X406053Y421824D01*
X406072Y421842D01*
X408423Y424983D01*
X408427Y424992D01*
X408443Y425013D01*
X410323Y428457D01*
X410325Y428466D01*
X410338Y428489D01*
X411709Y432165D01*
X411710Y432175D01*
X411719Y432199D01*
X412553Y436033D01*
X412552Y436043D01*
X412558Y436069D01*
X412838Y439982D01*
X412836Y439992D01*
X412838Y440018D01*
X412558Y443931D01*
X412557Y443936D01*
X412557Y443939D01*
X412554Y443945D01*
X412553Y443967D01*
X411719Y447801D01*
X411714Y447809D01*
X411709Y447835D01*
X410338Y451511D01*
X410332Y451519D01*
X410323Y451543D01*
X408443Y454987D01*
X408436Y454994D01*
X408423Y455017D01*
X406072Y458158D01*
X406064Y458164D01*
X406049Y458185D01*
X403274Y460959D01*
X403266Y460964D01*
X403247Y460983D01*
X400106Y463334D01*
X400097Y463337D01*
X400076Y463353D01*
X396633Y465234D01*
X396623Y465236D01*
X396600Y465248D01*
X392924Y466620D01*
X392915Y466620D01*
X392890Y466630D01*
X389056Y467464D01*
X389046Y467463D01*
X389021Y467469D01*
X385107Y467749D01*
X385082Y467743D01*
X385056Y467747D01*
X385015Y467729D01*
X384971Y467719D01*
X384952Y467701D01*
X384928Y467690D01*
X384903Y467652D01*
X384871Y467621D01*
X384866Y467595D01*
X384851Y467574D01*
X384840Y467500D01*
X384840Y457500D01*
X384842Y457493D01*
X384841Y457486D01*
X384862Y457427D01*
X384879Y457366D01*
X384885Y457361D01*
X384887Y457354D01*
X384937Y457316D01*
X384985Y457274D01*
X384992Y457273D01*
X384997Y457268D01*
X385070Y457252D01*
X387788Y457038D01*
X390420Y456406D01*
X392921Y455370D01*
X395229Y453956D01*
X397287Y452198D01*
X399045Y450139D01*
X400459Y447831D01*
X401495Y445331D01*
X402127Y442698D01*
X402339Y440000D01*
X402127Y437302D01*
X401495Y434669D01*
X400459Y432169D01*
X399045Y429861D01*
X397287Y427802D01*
X395229Y426044D01*
X392921Y424630D01*
X390420Y423594D01*
X387788Y422962D01*
X385070Y422748D01*
X385063Y422746D01*
X385056Y422747D01*
X384998Y422721D01*
X384939Y422699D01*
X384935Y422693D01*
X384928Y422690D01*
X384893Y422637D01*
X384856Y422587D01*
X384855Y422580D01*
X384851Y422574D01*
X384840Y422500D01*
X384840Y412500D01*
X384847Y412475D01*
X384845Y412449D01*
X384867Y412409D01*
X384879Y412366D01*
X384899Y412349D01*
X384911Y412326D01*
X384951Y412304D01*
X384985Y412274D01*
X385010Y412270D01*
X385033Y412257D01*
X385107Y412251D01*
X389021Y412531D01*
G37*
G36*
X3931Y412531D02*
X3931Y412531D01*
X3941Y412535D01*
X3967Y412536D01*
X7801Y413370D01*
X7809Y413375D01*
X7835Y413380D01*
X11511Y414752D01*
X11519Y414757D01*
X11543Y414766D01*
X14987Y416647D01*
X14994Y416654D01*
X15017Y416666D01*
X18158Y419017D01*
X18164Y419025D01*
X18185Y419041D01*
X20959Y421815D01*
X20964Y421824D01*
X20983Y421842D01*
X23334Y424983D01*
X23337Y424992D01*
X23353Y425013D01*
X25234Y428457D01*
X25236Y428466D01*
X25248Y428489D01*
X26620Y432165D01*
X26620Y432175D01*
X26630Y432199D01*
X27464Y436033D01*
X27463Y436043D01*
X27469Y436069D01*
X27749Y439982D01*
X27747Y439992D01*
X27749Y440018D01*
X27469Y443931D01*
X27467Y443936D01*
X27468Y443939D01*
X27465Y443945D01*
X27464Y443967D01*
X26630Y447801D01*
X26625Y447809D01*
X26620Y447835D01*
X25248Y451511D01*
X25243Y451519D01*
X25234Y451543D01*
X23353Y454987D01*
X23346Y454994D01*
X23334Y455017D01*
X20983Y458158D01*
X20975Y458164D01*
X20959Y458185D01*
X18185Y460959D01*
X18176Y460964D01*
X18158Y460983D01*
X15017Y463334D01*
X15008Y463337D01*
X14987Y463353D01*
X11543Y465234D01*
X11534Y465236D01*
X11511Y465248D01*
X7835Y466620D01*
X7825Y466620D01*
X7801Y466630D01*
X3967Y467464D01*
X3957Y467463D01*
X3931Y467469D01*
X18Y467749D01*
X-8Y467743D01*
X-33Y467747D01*
X-75Y467729D01*
X-119Y467719D01*
X-137Y467701D01*
X-161Y467690D01*
X-186Y467652D01*
X-218Y467621D01*
X-224Y467595D01*
X-238Y467574D01*
X-249Y467500D01*
X-249Y457500D01*
X-247Y457493D01*
X-249Y457486D01*
X-228Y457427D01*
X-210Y457366D01*
X-205Y457361D01*
X-202Y457354D01*
X-152Y457316D01*
X-105Y457274D01*
X-98Y457273D01*
X-92Y457268D01*
X-20Y457252D01*
X2698Y457038D01*
X5331Y456406D01*
X7831Y455370D01*
X10139Y453956D01*
X12198Y452198D01*
X13956Y450139D01*
X15370Y447831D01*
X16406Y445331D01*
X17038Y442698D01*
X17250Y440000D01*
X17038Y437302D01*
X16406Y434669D01*
X15370Y432169D01*
X13956Y429861D01*
X12198Y427802D01*
X10139Y426044D01*
X7831Y424630D01*
X5331Y423594D01*
X2698Y422962D01*
X-20Y422748D01*
X-26Y422746D01*
X-33Y422747D01*
X-91Y422721D01*
X-150Y422699D01*
X-155Y422693D01*
X-161Y422690D01*
X-196Y422637D01*
X-234Y422587D01*
X-234Y422580D01*
X-238Y422574D01*
X-249Y422500D01*
X-249Y412500D01*
X-242Y412475D01*
X-244Y412449D01*
X-223Y412409D01*
X-210Y412366D01*
X-190Y412349D01*
X-178Y412326D01*
X-139Y412304D01*
X-105Y412274D01*
X-79Y412270D01*
X-56Y412257D01*
X18Y412251D01*
X3931Y412531D01*
G37*
G36*
X1150161Y412257D02*
X1150161Y412257D01*
X1150187Y412253D01*
X1150228Y412271D01*
X1150272Y412281D01*
X1150291Y412299D01*
X1150315Y412310D01*
X1150339Y412348D01*
X1150372Y412379D01*
X1150377Y412405D01*
X1150392Y412427D01*
X1150403Y412500D01*
X1150403Y422500D01*
X1150401Y422507D01*
X1150402Y422514D01*
X1150381Y422573D01*
X1150363Y422634D01*
X1150358Y422639D01*
X1150356Y422646D01*
X1150306Y422685D01*
X1150258Y422726D01*
X1150251Y422727D01*
X1150245Y422732D01*
X1150173Y422748D01*
X1147455Y422962D01*
X1144823Y423594D01*
X1142322Y424630D01*
X1140014Y426044D01*
X1137956Y427802D01*
X1136198Y429861D01*
X1134784Y432169D01*
X1133748Y434669D01*
X1133116Y437302D01*
X1132903Y440000D01*
X1133116Y442698D01*
X1133748Y445331D01*
X1134784Y447831D01*
X1136198Y450139D01*
X1137956Y452198D01*
X1140014Y453956D01*
X1142322Y455370D01*
X1144823Y456406D01*
X1147455Y457038D01*
X1150173Y457252D01*
X1150180Y457254D01*
X1150187Y457253D01*
X1150245Y457279D01*
X1150304Y457301D01*
X1150308Y457307D01*
X1150315Y457310D01*
X1150349Y457363D01*
X1150387Y457413D01*
X1150388Y457421D01*
X1150392Y457427D01*
X1150403Y457500D01*
X1150403Y467500D01*
X1150395Y467525D01*
X1150397Y467551D01*
X1150376Y467591D01*
X1150363Y467634D01*
X1150344Y467651D01*
X1150332Y467674D01*
X1150292Y467696D01*
X1150258Y467726D01*
X1150232Y467730D01*
X1150210Y467743D01*
X1150136Y467749D01*
X1146222Y467469D01*
X1146213Y467465D01*
X1146187Y467464D01*
X1142353Y466630D01*
X1142344Y466625D01*
X1142319Y466620D01*
X1138642Y465248D01*
X1138635Y465243D01*
X1138610Y465234D01*
X1135166Y463353D01*
X1135160Y463346D01*
X1135136Y463334D01*
X1131995Y460983D01*
X1131990Y460975D01*
X1131969Y460959D01*
X1129194Y458185D01*
X1129189Y458176D01*
X1129171Y458158D01*
X1126819Y455017D01*
X1126816Y455008D01*
X1126800Y454987D01*
X1124920Y451543D01*
X1124918Y451534D01*
X1124905Y451511D01*
X1123534Y447835D01*
X1123533Y447825D01*
X1123524Y447801D01*
X1122690Y443967D01*
X1122690Y443957D01*
X1122685Y443931D01*
X1122405Y440018D01*
X1122407Y440008D01*
X1122405Y439982D01*
X1122685Y436069D01*
X1122688Y436059D01*
X1122690Y436033D01*
X1123524Y432199D01*
X1123528Y432191D01*
X1123534Y432165D01*
X1124905Y428489D01*
X1124911Y428481D01*
X1124920Y428457D01*
X1126800Y425013D01*
X1126807Y425006D01*
X1126819Y424983D01*
X1129171Y421842D01*
X1129179Y421836D01*
X1129194Y421815D01*
X1131969Y419041D01*
X1131977Y419036D01*
X1131995Y419017D01*
X1135136Y416666D01*
X1135146Y416663D01*
X1135166Y416647D01*
X1138610Y414766D01*
X1138619Y414764D01*
X1138642Y414752D01*
X1142319Y413380D01*
X1142328Y413380D01*
X1142353Y413370D01*
X1146187Y412536D01*
X1146196Y412537D01*
X1146222Y412531D01*
X1150136Y412251D01*
X1150161Y412257D01*
G37*
G36*
X765097Y412257D02*
X765097Y412257D01*
X765123Y412253D01*
X765164Y412271D01*
X765208Y412281D01*
X765227Y412299D01*
X765251Y412310D01*
X765275Y412348D01*
X765308Y412379D01*
X765313Y412405D01*
X765328Y412427D01*
X765339Y412500D01*
X765339Y422500D01*
X765337Y422507D01*
X765338Y422514D01*
X765317Y422573D01*
X765299Y422634D01*
X765294Y422639D01*
X765292Y422646D01*
X765242Y422685D01*
X765194Y422726D01*
X765187Y422727D01*
X765181Y422732D01*
X765109Y422748D01*
X762391Y422962D01*
X759759Y423594D01*
X757258Y424630D01*
X754950Y426044D01*
X752892Y427802D01*
X751134Y429861D01*
X749720Y432169D01*
X748684Y434669D01*
X748052Y437302D01*
X747839Y440000D01*
X748052Y442698D01*
X748684Y445331D01*
X749720Y447831D01*
X751134Y450139D01*
X752892Y452198D01*
X754950Y453956D01*
X757258Y455370D01*
X759759Y456406D01*
X762391Y457038D01*
X765109Y457252D01*
X765116Y457254D01*
X765123Y457253D01*
X765181Y457279D01*
X765240Y457301D01*
X765244Y457307D01*
X765251Y457310D01*
X765285Y457363D01*
X765323Y457413D01*
X765324Y457421D01*
X765328Y457427D01*
X765339Y457500D01*
X765339Y467500D01*
X765331Y467525D01*
X765333Y467551D01*
X765312Y467591D01*
X765299Y467634D01*
X765280Y467651D01*
X765268Y467674D01*
X765228Y467696D01*
X765194Y467726D01*
X765168Y467730D01*
X765146Y467743D01*
X765072Y467749D01*
X761158Y467469D01*
X761149Y467465D01*
X761123Y467464D01*
X757289Y466630D01*
X757280Y466625D01*
X757255Y466620D01*
X753578Y465248D01*
X753571Y465243D01*
X753546Y465234D01*
X750102Y463353D01*
X750096Y463346D01*
X750072Y463334D01*
X746931Y460983D01*
X746926Y460975D01*
X746905Y460959D01*
X744130Y458185D01*
X744125Y458176D01*
X744107Y458158D01*
X741755Y455017D01*
X741752Y455008D01*
X741736Y454987D01*
X739856Y451543D01*
X739854Y451534D01*
X739841Y451511D01*
X738470Y447835D01*
X738469Y447825D01*
X738460Y447801D01*
X737626Y443967D01*
X737626Y443957D01*
X737621Y443931D01*
X737341Y440018D01*
X737343Y440008D01*
X737341Y439982D01*
X737621Y436069D01*
X737624Y436059D01*
X737626Y436033D01*
X738460Y432199D01*
X738464Y432191D01*
X738470Y432165D01*
X739841Y428489D01*
X739847Y428481D01*
X739856Y428457D01*
X741736Y425013D01*
X741743Y425006D01*
X741755Y424983D01*
X744107Y421842D01*
X744115Y421836D01*
X744130Y421815D01*
X746905Y419041D01*
X746913Y419036D01*
X746931Y419017D01*
X750072Y416666D01*
X750082Y416663D01*
X750102Y416647D01*
X753546Y414766D01*
X753555Y414764D01*
X753578Y414752D01*
X757255Y413380D01*
X757264Y413380D01*
X757289Y413370D01*
X761123Y412536D01*
X761132Y412537D01*
X761158Y412531D01*
X765072Y412251D01*
X765097Y412257D01*
G37*
G36*
X380008Y412257D02*
X380008Y412257D01*
X380033Y412253D01*
X380075Y412271D01*
X380119Y412281D01*
X380137Y412299D01*
X380161Y412310D01*
X380186Y412348D01*
X380218Y412379D01*
X380224Y412405D01*
X380238Y412427D01*
X380249Y412500D01*
X380249Y422500D01*
X380247Y422507D01*
X380249Y422514D01*
X380228Y422573D01*
X380210Y422634D01*
X380205Y422639D01*
X380202Y422646D01*
X380152Y422685D01*
X380105Y422726D01*
X380098Y422727D01*
X380092Y422732D01*
X380020Y422748D01*
X377302Y422962D01*
X374669Y423594D01*
X372169Y424630D01*
X369861Y426044D01*
X367802Y427802D01*
X366044Y429861D01*
X364630Y432169D01*
X363594Y434669D01*
X362962Y437302D01*
X362750Y440000D01*
X362962Y442698D01*
X363594Y445331D01*
X364630Y447831D01*
X366044Y450139D01*
X367802Y452198D01*
X369861Y453956D01*
X372169Y455370D01*
X374669Y456406D01*
X377302Y457038D01*
X380020Y457252D01*
X380026Y457254D01*
X380033Y457253D01*
X380091Y457279D01*
X380150Y457301D01*
X380155Y457307D01*
X380161Y457310D01*
X380196Y457363D01*
X380234Y457413D01*
X380234Y457421D01*
X380238Y457427D01*
X380249Y457500D01*
X380249Y467500D01*
X380242Y467525D01*
X380244Y467551D01*
X380223Y467591D01*
X380210Y467634D01*
X380190Y467651D01*
X380178Y467674D01*
X380139Y467696D01*
X380105Y467726D01*
X380079Y467730D01*
X380056Y467743D01*
X379982Y467749D01*
X376069Y467469D01*
X376059Y467465D01*
X376033Y467464D01*
X372199Y466630D01*
X372191Y466625D01*
X372165Y466620D01*
X368489Y465248D01*
X368481Y465243D01*
X368457Y465234D01*
X365013Y463353D01*
X365006Y463346D01*
X364983Y463334D01*
X361842Y460983D01*
X361836Y460975D01*
X361815Y460959D01*
X359041Y458185D01*
X359036Y458176D01*
X359017Y458158D01*
X356666Y455017D01*
X356663Y455008D01*
X356647Y454987D01*
X354766Y451543D01*
X354764Y451534D01*
X354752Y451511D01*
X353380Y447835D01*
X353380Y447825D01*
X353370Y447801D01*
X352536Y443967D01*
X352537Y443957D01*
X352531Y443931D01*
X352251Y440018D01*
X352253Y440008D01*
X352251Y439982D01*
X352531Y436069D01*
X352535Y436059D01*
X352536Y436033D01*
X353370Y432199D01*
X353375Y432191D01*
X353380Y432165D01*
X354752Y428489D01*
X354757Y428481D01*
X354766Y428457D01*
X356647Y425013D01*
X356654Y425006D01*
X356666Y424983D01*
X359017Y421842D01*
X359025Y421836D01*
X359041Y421815D01*
X361815Y419041D01*
X361824Y419036D01*
X361842Y419017D01*
X364983Y416666D01*
X364992Y416663D01*
X365013Y416647D01*
X368457Y414766D01*
X368466Y414764D01*
X368489Y414752D01*
X372165Y413380D01*
X372175Y413380D01*
X372199Y413370D01*
X376033Y412536D01*
X376043Y412537D01*
X376069Y412531D01*
X379982Y412251D01*
X380008Y412257D01*
G37*
D10*
X48502Y138792D02*
X48502Y148808D01*
X57518Y148808D01*
X57518Y138792D01*
X48502Y138792D01*
X48502Y140933D02*
X57518Y140933D01*
X57518Y143074D02*
X48502Y143074D01*
X48502Y145215D02*
X57518Y145215D01*
X57518Y147356D02*
X48502Y147356D01*
X48502Y131808D02*
X48502Y121792D01*
X48502Y131808D02*
X57518Y131808D01*
X57518Y121792D01*
X48502Y121792D01*
X48502Y123933D02*
X57518Y123933D01*
X57518Y126074D02*
X48502Y126074D01*
X48502Y128215D02*
X57518Y128215D01*
X57518Y130356D02*
X48502Y130356D01*
D11*
X10500Y50000D03*
X370500Y640000D03*
D12*
X29700Y129500D03*
X29700Y154900D03*
D13*
X281260Y19490D02*
X283740Y19490D01*
X283740Y6010D01*
X281260Y6010D01*
X281260Y19490D01*
X281260Y8185D02*
X283740Y8185D01*
X283740Y10360D02*
X281260Y10360D01*
X281260Y12535D02*
X283740Y12535D01*
X283740Y14710D02*
X281260Y14710D01*
X281260Y16885D02*
X283740Y16885D01*
X283740Y19060D02*
X281260Y19060D01*
X278740Y19490D02*
X276260Y19490D01*
X278740Y19490D02*
X278740Y6010D01*
X276260Y6010D01*
X276260Y19490D01*
X276260Y8185D02*
X278740Y8185D01*
X278740Y10360D02*
X276260Y10360D01*
X276260Y12535D02*
X278740Y12535D01*
X278740Y14710D02*
X276260Y14710D01*
X276260Y16885D02*
X278740Y16885D01*
X278740Y19060D02*
X276260Y19060D01*
X273740Y19490D02*
X271260Y19490D01*
X273740Y19490D02*
X273740Y6010D01*
X271260Y6010D01*
X271260Y19490D01*
X271260Y8185D02*
X273740Y8185D01*
X273740Y10360D02*
X271260Y10360D01*
X271260Y12535D02*
X273740Y12535D01*
X273740Y14710D02*
X271260Y14710D01*
X271260Y16885D02*
X273740Y16885D01*
X273740Y19060D02*
X271260Y19060D01*
X268740Y19490D02*
X266260Y19490D01*
X268740Y19490D02*
X268740Y6010D01*
X266260Y6010D01*
X266260Y19490D01*
X266260Y8185D02*
X268740Y8185D01*
X268740Y10360D02*
X266260Y10360D01*
X266260Y12535D02*
X268740Y12535D01*
X268740Y14710D02*
X266260Y14710D01*
X266260Y16885D02*
X268740Y16885D01*
X268740Y19060D02*
X266260Y19060D01*
X263740Y19490D02*
X261260Y19490D01*
X263740Y19490D02*
X263740Y6010D01*
X261260Y6010D01*
X261260Y19490D01*
X261260Y8185D02*
X263740Y8185D01*
X263740Y10360D02*
X261260Y10360D01*
X261260Y12535D02*
X263740Y12535D01*
X263740Y14710D02*
X261260Y14710D01*
X261260Y16885D02*
X263740Y16885D01*
X263740Y19060D02*
X261260Y19060D01*
X258740Y19490D02*
X256260Y19490D01*
X258740Y19490D02*
X258740Y6010D01*
X256260Y6010D01*
X256260Y19490D01*
X256260Y8185D02*
X258740Y8185D01*
X258740Y10360D02*
X256260Y10360D01*
X256260Y12535D02*
X258740Y12535D01*
X258740Y14710D02*
X256260Y14710D01*
X256260Y16885D02*
X258740Y16885D01*
X258740Y19060D02*
X256260Y19060D01*
X253740Y19490D02*
X251260Y19490D01*
X253740Y19490D02*
X253740Y6010D01*
X251260Y6010D01*
X251260Y19490D01*
X251260Y8185D02*
X253740Y8185D01*
X253740Y10360D02*
X251260Y10360D01*
X251260Y12535D02*
X253740Y12535D01*
X253740Y14710D02*
X251260Y14710D01*
X251260Y16885D02*
X253740Y16885D01*
X253740Y19060D02*
X251260Y19060D01*
X248740Y19490D02*
X246260Y19490D01*
X248740Y19490D02*
X248740Y6010D01*
X246260Y6010D01*
X246260Y19490D01*
X246260Y8185D02*
X248740Y8185D01*
X248740Y10360D02*
X246260Y10360D01*
X246260Y12535D02*
X248740Y12535D01*
X248740Y14710D02*
X246260Y14710D01*
X246260Y16885D02*
X248740Y16885D01*
X248740Y19060D02*
X246260Y19060D01*
X243740Y19490D02*
X241260Y19490D01*
X243740Y19490D02*
X243740Y6010D01*
X241260Y6010D01*
X241260Y19490D01*
X241260Y8185D02*
X243740Y8185D01*
X243740Y10360D02*
X241260Y10360D01*
X241260Y12535D02*
X243740Y12535D01*
X243740Y14710D02*
X241260Y14710D01*
X241260Y16885D02*
X243740Y16885D01*
X243740Y19060D02*
X241260Y19060D01*
X238740Y19490D02*
X236260Y19490D01*
X238740Y19490D02*
X238740Y6010D01*
X236260Y6010D01*
X236260Y19490D01*
X236260Y8185D02*
X238740Y8185D01*
X238740Y10360D02*
X236260Y10360D01*
X236260Y12535D02*
X238740Y12535D01*
X238740Y14710D02*
X236260Y14710D01*
X236260Y16885D02*
X238740Y16885D01*
X238740Y19060D02*
X236260Y19060D01*
X233740Y19490D02*
X231260Y19490D01*
X233740Y19490D02*
X233740Y6010D01*
X231260Y6010D01*
X231260Y19490D01*
X231260Y8185D02*
X233740Y8185D01*
X233740Y10360D02*
X231260Y10360D01*
X231260Y12535D02*
X233740Y12535D01*
X233740Y14710D02*
X231260Y14710D01*
X231260Y16885D02*
X233740Y16885D01*
X233740Y19060D02*
X231260Y19060D01*
X228740Y19490D02*
X226260Y19490D01*
X228740Y19490D02*
X228740Y6010D01*
X226260Y6010D01*
X226260Y19490D01*
X226260Y8185D02*
X228740Y8185D01*
X228740Y10360D02*
X226260Y10360D01*
X226260Y12535D02*
X228740Y12535D01*
X228740Y14710D02*
X226260Y14710D01*
X226260Y16885D02*
X228740Y16885D01*
X228740Y19060D02*
X226260Y19060D01*
X203740Y19490D02*
X201260Y19490D01*
X203740Y19490D02*
X203740Y6010D01*
X201260Y6010D01*
X201260Y19490D01*
X201260Y8185D02*
X203740Y8185D01*
X203740Y10360D02*
X201260Y10360D01*
X201260Y12535D02*
X203740Y12535D01*
X203740Y14710D02*
X201260Y14710D01*
X201260Y16885D02*
X203740Y16885D01*
X203740Y19060D02*
X201260Y19060D01*
X198740Y19490D02*
X196260Y19490D01*
X198740Y19490D02*
X198740Y6010D01*
X196260Y6010D01*
X196260Y19490D01*
X196260Y8185D02*
X198740Y8185D01*
X198740Y10360D02*
X196260Y10360D01*
X196260Y12535D02*
X198740Y12535D01*
X198740Y14710D02*
X196260Y14710D01*
X196260Y16885D02*
X198740Y16885D01*
X198740Y19060D02*
X196260Y19060D01*
X193740Y19490D02*
X191260Y19490D01*
X193740Y19490D02*
X193740Y6010D01*
X191260Y6010D01*
X191260Y19490D01*
X191260Y8185D02*
X193740Y8185D01*
X193740Y10360D02*
X191260Y10360D01*
X191260Y12535D02*
X193740Y12535D01*
X193740Y14710D02*
X191260Y14710D01*
X191260Y16885D02*
X193740Y16885D01*
X193740Y19060D02*
X191260Y19060D01*
X188740Y19490D02*
X186260Y19490D01*
X188740Y19490D02*
X188740Y6010D01*
X186260Y6010D01*
X186260Y19490D01*
X186260Y8185D02*
X188740Y8185D01*
X188740Y10360D02*
X186260Y10360D01*
X186260Y12535D02*
X188740Y12535D01*
X188740Y14710D02*
X186260Y14710D01*
X186260Y16885D02*
X188740Y16885D01*
X188740Y19060D02*
X186260Y19060D01*
X183740Y19490D02*
X181260Y19490D01*
X183740Y19490D02*
X183740Y6010D01*
X181260Y6010D01*
X181260Y19490D01*
X181260Y8185D02*
X183740Y8185D01*
X183740Y10360D02*
X181260Y10360D01*
X181260Y12535D02*
X183740Y12535D01*
X183740Y14710D02*
X181260Y14710D01*
X181260Y16885D02*
X183740Y16885D01*
X183740Y19060D02*
X181260Y19060D01*
X178740Y19490D02*
X176260Y19490D01*
X178740Y19490D02*
X178740Y6010D01*
X176260Y6010D01*
X176260Y19490D01*
X176260Y8185D02*
X178740Y8185D01*
X178740Y10360D02*
X176260Y10360D01*
X176260Y12535D02*
X178740Y12535D01*
X178740Y14710D02*
X176260Y14710D01*
X176260Y16885D02*
X178740Y16885D01*
X178740Y19060D02*
X176260Y19060D01*
X173740Y19490D02*
X171260Y19490D01*
X173740Y19490D02*
X173740Y6010D01*
X171260Y6010D01*
X171260Y19490D01*
X171260Y8185D02*
X173740Y8185D01*
X173740Y10360D02*
X171260Y10360D01*
X171260Y12535D02*
X173740Y12535D01*
X173740Y14710D02*
X171260Y14710D01*
X171260Y16885D02*
X173740Y16885D01*
X173740Y19060D02*
X171260Y19060D01*
X168740Y19490D02*
X166260Y19490D01*
X168740Y19490D02*
X168740Y6010D01*
X166260Y6010D01*
X166260Y19490D01*
X166260Y8185D02*
X168740Y8185D01*
X168740Y10360D02*
X166260Y10360D01*
X166260Y12535D02*
X168740Y12535D01*
X168740Y14710D02*
X166260Y14710D01*
X166260Y16885D02*
X168740Y16885D01*
X168740Y19060D02*
X166260Y19060D01*
X163740Y19490D02*
X161260Y19490D01*
X163740Y19490D02*
X163740Y6010D01*
X161260Y6010D01*
X161260Y19490D01*
X161260Y8185D02*
X163740Y8185D01*
X163740Y10360D02*
X161260Y10360D01*
X161260Y12535D02*
X163740Y12535D01*
X163740Y14710D02*
X161260Y14710D01*
X161260Y16885D02*
X163740Y16885D01*
X163740Y19060D02*
X161260Y19060D01*
X158740Y19490D02*
X156260Y19490D01*
X158740Y19490D02*
X158740Y6010D01*
X156260Y6010D01*
X156260Y19490D01*
X156260Y8185D02*
X158740Y8185D01*
X158740Y10360D02*
X156260Y10360D01*
X156260Y12535D02*
X158740Y12535D01*
X158740Y14710D02*
X156260Y14710D01*
X156260Y16885D02*
X158740Y16885D01*
X158740Y19060D02*
X156260Y19060D01*
X153740Y19490D02*
X151260Y19490D01*
X153740Y19490D02*
X153740Y6010D01*
X151260Y6010D01*
X151260Y19490D01*
X151260Y8185D02*
X153740Y8185D01*
X153740Y10360D02*
X151260Y10360D01*
X151260Y12535D02*
X153740Y12535D01*
X153740Y14710D02*
X151260Y14710D01*
X151260Y16885D02*
X153740Y16885D01*
X153740Y19060D02*
X151260Y19060D01*
X148740Y19490D02*
X146260Y19490D01*
X148740Y19490D02*
X148740Y6010D01*
X146260Y6010D01*
X146260Y19490D01*
X146260Y8185D02*
X148740Y8185D01*
X148740Y10360D02*
X146260Y10360D01*
X146260Y12535D02*
X148740Y12535D01*
X148740Y14710D02*
X146260Y14710D01*
X146260Y16885D02*
X148740Y16885D01*
X148740Y19060D02*
X146260Y19060D01*
X143740Y19490D02*
X141260Y19490D01*
X143740Y19490D02*
X143740Y6010D01*
X141260Y6010D01*
X141260Y19490D01*
X141260Y8185D02*
X143740Y8185D01*
X143740Y10360D02*
X141260Y10360D01*
X141260Y12535D02*
X143740Y12535D01*
X143740Y14710D02*
X141260Y14710D01*
X141260Y16885D02*
X143740Y16885D01*
X143740Y19060D02*
X141260Y19060D01*
X138740Y19490D02*
X136260Y19490D01*
X138740Y19490D02*
X138740Y6010D01*
X136260Y6010D01*
X136260Y19490D01*
X136260Y8185D02*
X138740Y8185D01*
X138740Y10360D02*
X136260Y10360D01*
X136260Y12535D02*
X138740Y12535D01*
X138740Y14710D02*
X136260Y14710D01*
X136260Y16885D02*
X138740Y16885D01*
X138740Y19060D02*
X136260Y19060D01*
X133740Y19490D02*
X131260Y19490D01*
X133740Y19490D02*
X133740Y6010D01*
X131260Y6010D01*
X131260Y19490D01*
X131260Y8185D02*
X133740Y8185D01*
X133740Y10360D02*
X131260Y10360D01*
X131260Y12535D02*
X133740Y12535D01*
X133740Y14710D02*
X131260Y14710D01*
X131260Y16885D02*
X133740Y16885D01*
X133740Y19060D02*
X131260Y19060D01*
X128740Y19490D02*
X126260Y19490D01*
X128740Y19490D02*
X128740Y6010D01*
X126260Y6010D01*
X126260Y19490D01*
X126260Y8185D02*
X128740Y8185D01*
X128740Y10360D02*
X126260Y10360D01*
X126260Y12535D02*
X128740Y12535D01*
X128740Y14710D02*
X126260Y14710D01*
X126260Y16885D02*
X128740Y16885D01*
X128740Y19060D02*
X126260Y19060D01*
X123740Y19490D02*
X121260Y19490D01*
X123740Y19490D02*
X123740Y6010D01*
X121260Y6010D01*
X121260Y19490D01*
X121260Y8185D02*
X123740Y8185D01*
X123740Y10360D02*
X121260Y10360D01*
X121260Y12535D02*
X123740Y12535D01*
X123740Y14710D02*
X121260Y14710D01*
X121260Y16885D02*
X123740Y16885D01*
X123740Y19060D02*
X121260Y19060D01*
X118740Y19490D02*
X116260Y19490D01*
X118740Y19490D02*
X118740Y6010D01*
X116260Y6010D01*
X116260Y19490D01*
X116260Y8185D02*
X118740Y8185D01*
X118740Y10360D02*
X116260Y10360D01*
X116260Y12535D02*
X118740Y12535D01*
X118740Y14710D02*
X116260Y14710D01*
X116260Y16885D02*
X118740Y16885D01*
X118740Y19060D02*
X116260Y19060D01*
X113740Y19490D02*
X111260Y19490D01*
X113740Y19490D02*
X113740Y6010D01*
X111260Y6010D01*
X111260Y19490D01*
X111260Y8185D02*
X113740Y8185D01*
X113740Y10360D02*
X111260Y10360D01*
X111260Y12535D02*
X113740Y12535D01*
X113740Y14710D02*
X111260Y14710D01*
X111260Y16885D02*
X113740Y16885D01*
X113740Y19060D02*
X111260Y19060D01*
X108740Y19490D02*
X106260Y19490D01*
X108740Y19490D02*
X108740Y6010D01*
X106260Y6010D01*
X106260Y19490D01*
X106260Y8185D02*
X108740Y8185D01*
X108740Y10360D02*
X106260Y10360D01*
X106260Y12535D02*
X108740Y12535D01*
X108740Y14710D02*
X106260Y14710D01*
X106260Y16885D02*
X108740Y16885D01*
X108740Y19060D02*
X106260Y19060D01*
X103740Y19490D02*
X101260Y19490D01*
X103740Y19490D02*
X103740Y6010D01*
X101260Y6010D01*
X101260Y19490D01*
X101260Y8185D02*
X103740Y8185D01*
X103740Y10360D02*
X101260Y10360D01*
X101260Y12535D02*
X103740Y12535D01*
X103740Y14710D02*
X101260Y14710D01*
X101260Y16885D02*
X103740Y16885D01*
X103740Y19060D02*
X101260Y19060D01*
X98740Y19490D02*
X96260Y19490D01*
X98740Y19490D02*
X98740Y6010D01*
X96260Y6010D01*
X96260Y19490D01*
X96260Y8185D02*
X98740Y8185D01*
X98740Y10360D02*
X96260Y10360D01*
X96260Y12535D02*
X98740Y12535D01*
X98740Y14710D02*
X96260Y14710D01*
X96260Y16885D02*
X98740Y16885D01*
X98740Y19060D02*
X96260Y19060D01*
D14*
X370000Y461000D03*
X370000Y419000D03*
X357000Y440000D03*
X10000Y419000D03*
X10000Y461000D03*
X23000Y440000D03*
D10*
X111094Y49449D02*
X121110Y49449D01*
X111094Y49449D02*
X111094Y58465D01*
X121110Y58465D01*
X121110Y49449D01*
X121110Y51590D02*
X111094Y51590D01*
X111094Y53731D02*
X121110Y53731D01*
X121110Y55872D02*
X111094Y55872D01*
X111094Y58013D02*
X121110Y58013D01*
X128094Y49449D02*
X138110Y49449D01*
X128094Y49449D02*
X128094Y58465D01*
X138110Y58465D01*
X138110Y49449D01*
X138110Y51590D02*
X128094Y51590D01*
X128094Y53731D02*
X138110Y53731D01*
X138110Y55872D02*
X128094Y55872D01*
X128094Y58013D02*
X138110Y58013D01*
D15*
X58140Y87248D02*
X58140Y94200D01*
X66092Y94200D01*
X66092Y87248D01*
X58140Y87248D01*
X58140Y89450D02*
X66092Y89450D01*
X66092Y91652D02*
X58140Y91652D01*
X58140Y93854D02*
X66092Y93854D01*
X58140Y75200D02*
X58140Y68248D01*
X58140Y75200D02*
X66092Y75200D01*
X66092Y68248D01*
X58140Y68248D01*
X58140Y70450D02*
X66092Y70450D01*
X66092Y72652D02*
X58140Y72652D01*
X58140Y74854D02*
X66092Y74854D01*
X79140Y77748D02*
X79140Y84700D01*
X87092Y84700D01*
X87092Y77748D01*
X79140Y77748D01*
X79140Y79950D02*
X87092Y79950D01*
X87092Y82152D02*
X79140Y82152D01*
X79140Y84354D02*
X87092Y84354D01*
D10*
X36318Y84142D02*
X36318Y94158D01*
X45334Y94158D01*
X45334Y84142D01*
X36318Y84142D01*
X36318Y86283D02*
X45334Y86283D01*
X45334Y88424D02*
X36318Y88424D01*
X36318Y90565D02*
X45334Y90565D01*
X45334Y92706D02*
X36318Y92706D01*
X36318Y77158D02*
X36318Y67142D01*
X36318Y77158D02*
X45334Y77158D01*
X45334Y67142D01*
X36318Y67142D01*
X36318Y69283D02*
X45334Y69283D01*
X45334Y71424D02*
X36318Y71424D01*
X36318Y73565D02*
X45334Y73565D01*
X45334Y75706D02*
X36318Y75706D01*
X68502Y138792D02*
X68502Y148808D01*
X77518Y148808D01*
X77518Y138792D01*
X68502Y138792D01*
X68502Y140933D02*
X77518Y140933D01*
X77518Y143074D02*
X68502Y143074D01*
X68502Y145215D02*
X77518Y145215D01*
X77518Y147356D02*
X68502Y147356D01*
X68502Y131808D02*
X68502Y121792D01*
X68502Y131808D02*
X77518Y131808D01*
X77518Y121792D01*
X68502Y121792D01*
X68502Y123933D02*
X77518Y123933D01*
X77518Y126074D02*
X68502Y126074D01*
X68502Y128215D02*
X77518Y128215D01*
X77518Y130356D02*
X68502Y130356D01*
D16*
X181892Y104258D02*
X181892Y99242D01*
X181892Y104258D02*
X192908Y104258D01*
X192908Y99242D01*
X181892Y99242D01*
X181892Y101383D02*
X192908Y101383D01*
X192908Y103524D02*
X181892Y103524D01*
X181892Y91558D02*
X181892Y86542D01*
X181892Y91558D02*
X192908Y91558D01*
X192908Y86542D01*
X181892Y86542D01*
X181892Y88683D02*
X192908Y88683D01*
X192908Y90824D02*
X181892Y90824D01*
X181892Y78858D02*
X181892Y73842D01*
X181892Y78858D02*
X192908Y78858D01*
X192908Y73842D01*
X181892Y73842D01*
X181892Y75983D02*
X192908Y75983D01*
X192908Y78124D02*
X181892Y78124D01*
X181892Y66158D02*
X181892Y61142D01*
X181892Y66158D02*
X192908Y66158D01*
X192908Y61142D01*
X181892Y61142D01*
X181892Y63283D02*
X192908Y63283D01*
X192908Y65424D02*
X181892Y65424D01*
X237892Y66158D02*
X237892Y61142D01*
X237892Y66158D02*
X248908Y66158D01*
X248908Y61142D01*
X237892Y61142D01*
X237892Y63283D02*
X248908Y63283D01*
X248908Y65424D02*
X237892Y65424D01*
X237892Y73842D02*
X237892Y78858D01*
X248908Y78858D01*
X248908Y73842D01*
X237892Y73842D01*
X237892Y75983D02*
X248908Y75983D01*
X248908Y78124D02*
X237892Y78124D01*
X237892Y86542D02*
X237892Y91558D01*
X248908Y91558D01*
X248908Y86542D01*
X237892Y86542D01*
X237892Y88683D02*
X248908Y88683D01*
X248908Y90824D02*
X237892Y90824D01*
X237892Y99242D02*
X237892Y104258D01*
X248908Y104258D01*
X248908Y99242D01*
X237892Y99242D01*
X237892Y101383D02*
X248908Y101383D01*
X248908Y103524D02*
X237892Y103524D01*
D10*
X208908Y127208D02*
X198892Y127208D01*
X208908Y127208D02*
X208908Y118192D01*
X198892Y118192D01*
X198892Y127208D01*
X198892Y120333D02*
X208908Y120333D01*
X208908Y122474D02*
X198892Y122474D01*
X198892Y124615D02*
X208908Y124615D01*
X208908Y126756D02*
X198892Y126756D01*
X191908Y127208D02*
X181892Y127208D01*
X191908Y127208D02*
X191908Y118192D01*
X181892Y118192D01*
X181892Y127208D01*
X181892Y120333D02*
X191908Y120333D01*
X191908Y122474D02*
X181892Y122474D01*
X181892Y124615D02*
X191908Y124615D01*
X191908Y126756D02*
X181892Y126756D01*
D17*
X263377Y346343D02*
X263377Y352797D01*
X263377Y346343D02*
X257423Y346343D01*
X257423Y352797D01*
X263377Y352797D01*
X263377Y348543D02*
X257423Y348543D01*
X257423Y350743D02*
X263377Y350743D01*
X257423Y359843D02*
X257423Y366297D01*
X263377Y366297D01*
X263377Y359843D01*
X257423Y359843D01*
X257423Y362043D02*
X263377Y362043D01*
X263377Y364243D02*
X257423Y364243D01*
X267423Y366297D02*
X267423Y359843D01*
X267423Y366297D02*
X273377Y366297D01*
X273377Y359843D01*
X267423Y359843D01*
X267423Y362043D02*
X273377Y362043D01*
X273377Y364243D02*
X267423Y364243D01*
X273377Y352797D02*
X273377Y346343D01*
X267423Y346343D01*
X267423Y352797D01*
X273377Y352797D01*
X273377Y348543D02*
X267423Y348543D01*
X267423Y350743D02*
X273377Y350743D01*
D10*
X253262Y346778D02*
X253262Y356794D01*
X253262Y346778D02*
X244246Y346778D01*
X244246Y356794D01*
X253262Y356794D01*
X253262Y348919D02*
X244246Y348919D01*
X244246Y351060D02*
X253262Y351060D01*
X253262Y353201D02*
X244246Y353201D01*
X244246Y355342D02*
X253262Y355342D01*
X253262Y363778D02*
X253262Y373794D01*
X253262Y363778D02*
X244246Y363778D01*
X244246Y373794D01*
X253262Y373794D01*
X253262Y365919D02*
X244246Y365919D01*
X244246Y368060D02*
X253262Y368060D01*
X253262Y370201D02*
X244246Y370201D01*
X244246Y372342D02*
X253262Y372342D01*
X238575Y363677D02*
X238575Y353661D01*
X229559Y353661D01*
X229559Y363677D01*
X238575Y363677D01*
X238575Y355802D02*
X229559Y355802D01*
X229559Y357943D02*
X238575Y357943D01*
X238575Y360084D02*
X229559Y360084D01*
X229559Y362225D02*
X238575Y362225D01*
X238575Y370661D02*
X238575Y380677D01*
X238575Y370661D02*
X229559Y370661D01*
X229559Y380677D01*
X238575Y380677D01*
X238575Y372802D02*
X229559Y372802D01*
X229559Y374943D02*
X238575Y374943D01*
X238575Y377084D02*
X229559Y377084D01*
X229559Y379225D02*
X238575Y379225D01*
D18*
X87031Y147068D02*
X87031Y142532D01*
X87031Y147068D02*
X98067Y147068D01*
X98067Y142532D01*
X87031Y142532D01*
X87031Y144654D02*
X98067Y144654D01*
X98067Y146776D02*
X87031Y146776D01*
X87031Y137568D02*
X87031Y133032D01*
X87031Y137568D02*
X98067Y137568D01*
X98067Y133032D01*
X87031Y133032D01*
X87031Y135154D02*
X98067Y135154D01*
X98067Y137276D02*
X87031Y137276D01*
X87031Y128068D02*
X87031Y123532D01*
X87031Y128068D02*
X98067Y128068D01*
X98067Y123532D01*
X87031Y123532D01*
X87031Y125654D02*
X98067Y125654D01*
X98067Y127776D02*
X87031Y127776D01*
X113033Y128068D02*
X113033Y123532D01*
X113033Y128068D02*
X124069Y128068D01*
X124069Y123532D01*
X113033Y123532D01*
X113033Y125654D02*
X124069Y125654D01*
X124069Y127776D02*
X113033Y127776D01*
X113033Y142532D02*
X113033Y147068D01*
X124069Y147068D01*
X124069Y142532D01*
X113033Y142532D01*
X113033Y144654D02*
X124069Y144654D01*
X124069Y146776D02*
X113033Y146776D01*
D10*
X132172Y148908D02*
X132172Y138892D01*
X132172Y148908D02*
X141188Y148908D01*
X141188Y138892D01*
X132172Y138892D01*
X132172Y141033D02*
X141188Y141033D01*
X141188Y143174D02*
X132172Y143174D01*
X132172Y145315D02*
X141188Y145315D01*
X141188Y147456D02*
X132172Y147456D01*
X132172Y131908D02*
X132172Y121892D01*
X132172Y131908D02*
X141188Y131908D01*
X141188Y121892D01*
X132172Y121892D01*
X132172Y124033D02*
X141188Y124033D01*
X141188Y126174D02*
X132172Y126174D01*
X132172Y128315D02*
X141188Y128315D01*
X141188Y130456D02*
X132172Y130456D01*
X221892Y118192D02*
X231908Y118192D01*
X221892Y118192D02*
X221892Y127208D01*
X231908Y127208D01*
X231908Y118192D01*
X231908Y120333D02*
X221892Y120333D01*
X221892Y122474D02*
X231908Y122474D01*
X231908Y124615D02*
X221892Y124615D01*
X221892Y126756D02*
X231908Y126756D01*
X238892Y118192D02*
X248908Y118192D01*
X238892Y118192D02*
X238892Y127208D01*
X248908Y127208D01*
X248908Y118192D01*
X248908Y120333D02*
X238892Y120333D01*
X238892Y122474D02*
X248908Y122474D01*
X248908Y124615D02*
X238892Y124615D01*
X238892Y126756D02*
X248908Y126756D01*
D15*
X129125Y95449D02*
X122173Y95449D01*
X129125Y95449D02*
X129125Y87497D01*
X122173Y87497D01*
X122173Y95449D01*
X122173Y89699D02*
X129125Y89699D01*
X129125Y91901D02*
X122173Y91901D01*
X122173Y94103D02*
X129125Y94103D01*
X110125Y95449D02*
X103173Y95449D01*
X110125Y95449D02*
X110125Y87497D01*
X103173Y87497D01*
X103173Y95449D01*
X103173Y89699D02*
X110125Y89699D01*
X110125Y91901D02*
X103173Y91901D01*
X103173Y94103D02*
X110125Y94103D01*
X112673Y74449D02*
X119625Y74449D01*
X119625Y66497D01*
X112673Y66497D01*
X112673Y74449D01*
X112673Y68699D02*
X119625Y68699D01*
X119625Y70901D02*
X112673Y70901D01*
X112673Y73103D02*
X119625Y73103D01*
D16*
X332692Y269208D02*
X337708Y269208D01*
X337708Y264192D01*
X332692Y264192D01*
X332692Y269208D01*
X332692Y266333D02*
X337708Y266333D01*
X337708Y268474D02*
X332692Y268474D01*
X327708Y269208D02*
X322692Y269208D01*
X327708Y269208D02*
X327708Y264192D01*
X322692Y264192D01*
X322692Y269208D01*
X322692Y266333D02*
X327708Y266333D01*
X327708Y268474D02*
X322692Y268474D01*
D19*
X352106Y636040D02*
X359094Y636040D01*
X352106Y636040D02*
X352106Y643028D01*
X359094Y643028D01*
X359094Y636040D01*
X359094Y640109D02*
X352106Y640109D01*
X352106Y618500D02*
X359094Y618500D01*
X352106Y618500D02*
X352106Y625488D01*
X359094Y625488D01*
X359094Y618500D01*
X359094Y622569D02*
X352106Y622569D01*
D20*
X223983Y316226D02*
X217017Y316226D01*
X223983Y316226D02*
X223983Y314414D01*
X217017Y314414D01*
X217017Y316226D01*
X217017Y321226D02*
X223983Y321226D01*
X223983Y319414D01*
X217017Y319414D01*
X217017Y321226D01*
X217017Y326226D02*
X223983Y326226D01*
X223983Y324414D01*
X217017Y324414D01*
X217017Y326226D01*
X217017Y331226D02*
X223983Y331226D01*
X223983Y329414D01*
X217017Y329414D01*
X217017Y331226D01*
X217017Y336226D02*
X223983Y336226D01*
X223983Y334414D01*
X217017Y334414D01*
X217017Y336226D01*
X217017Y341226D02*
X223983Y341226D01*
X223983Y339414D01*
X217017Y339414D01*
X217017Y341226D01*
X217017Y346226D02*
X223983Y346226D01*
X223983Y344414D01*
X217017Y344414D01*
X217017Y346226D01*
X217017Y351226D02*
X223983Y351226D01*
X223983Y349414D01*
X217017Y349414D01*
X217017Y351226D01*
X217017Y356226D02*
X223983Y356226D01*
X223983Y354414D01*
X217017Y354414D01*
X217017Y356226D01*
X217017Y361226D02*
X223983Y361226D01*
X223983Y359414D01*
X217017Y359414D01*
X217017Y361226D01*
X212094Y364337D02*
X212094Y371303D01*
X213906Y371303D01*
X213906Y364337D01*
X212094Y364337D01*
X212094Y366527D02*
X213906Y366527D01*
X213906Y368717D02*
X212094Y368717D01*
X212094Y370907D02*
X213906Y370907D01*
X207094Y371303D02*
X207094Y364337D01*
X207094Y371303D02*
X208906Y371303D01*
X208906Y364337D01*
X207094Y364337D01*
X207094Y366527D02*
X208906Y366527D01*
X208906Y368717D02*
X207094Y368717D01*
X207094Y370907D02*
X208906Y370907D01*
X202094Y371303D02*
X202094Y364337D01*
X202094Y371303D02*
X203906Y371303D01*
X203906Y364337D01*
X202094Y364337D01*
X202094Y366527D02*
X203906Y366527D01*
X203906Y368717D02*
X202094Y368717D01*
X202094Y370907D02*
X203906Y370907D01*
X197094Y371303D02*
X197094Y364337D01*
X197094Y371303D02*
X198906Y371303D01*
X198906Y364337D01*
X197094Y364337D01*
X197094Y366527D02*
X198906Y366527D01*
X198906Y368717D02*
X197094Y368717D01*
X197094Y370907D02*
X198906Y370907D01*
X192094Y371303D02*
X192094Y364337D01*
X192094Y371303D02*
X193906Y371303D01*
X193906Y364337D01*
X192094Y364337D01*
X192094Y366527D02*
X193906Y366527D01*
X193906Y368717D02*
X192094Y368717D01*
X192094Y370907D02*
X193906Y370907D01*
X187094Y371303D02*
X187094Y364337D01*
X187094Y371303D02*
X188906Y371303D01*
X188906Y364337D01*
X187094Y364337D01*
X187094Y366527D02*
X188906Y366527D01*
X188906Y368717D02*
X187094Y368717D01*
X187094Y370907D02*
X188906Y370907D01*
X182094Y371303D02*
X182094Y364337D01*
X182094Y371303D02*
X183906Y371303D01*
X183906Y364337D01*
X182094Y364337D01*
X182094Y366527D02*
X183906Y366527D01*
X183906Y368717D02*
X182094Y368717D01*
X182094Y370907D02*
X183906Y370907D01*
X177094Y371303D02*
X177094Y364337D01*
X177094Y371303D02*
X178906Y371303D01*
X178906Y364337D01*
X177094Y364337D01*
X177094Y366527D02*
X178906Y366527D01*
X178906Y368717D02*
X177094Y368717D01*
X177094Y370907D02*
X178906Y370907D01*
X172094Y371303D02*
X172094Y364337D01*
X172094Y371303D02*
X173906Y371303D01*
X173906Y364337D01*
X172094Y364337D01*
X172094Y366527D02*
X173906Y366527D01*
X173906Y368717D02*
X172094Y368717D01*
X172094Y370907D02*
X173906Y370907D01*
X167094Y371303D02*
X167094Y364337D01*
X167094Y371303D02*
X168906Y371303D01*
X168906Y364337D01*
X167094Y364337D01*
X167094Y366527D02*
X168906Y366527D01*
X168906Y368717D02*
X167094Y368717D01*
X167094Y370907D02*
X168906Y370907D01*
X163983Y359414D02*
X157017Y359414D01*
X157017Y361226D01*
X163983Y361226D01*
X163983Y359414D01*
X163983Y354414D02*
X157017Y354414D01*
X157017Y356226D01*
X163983Y356226D01*
X163983Y354414D01*
X163983Y349414D02*
X157017Y349414D01*
X157017Y351226D01*
X163983Y351226D01*
X163983Y349414D01*
X163983Y344414D02*
X157017Y344414D01*
X157017Y346226D01*
X163983Y346226D01*
X163983Y344414D01*
X163983Y339414D02*
X157017Y339414D01*
X157017Y341226D01*
X163983Y341226D01*
X163983Y339414D01*
X163983Y334414D02*
X157017Y334414D01*
X157017Y336226D01*
X163983Y336226D01*
X163983Y334414D01*
X163983Y329414D02*
X157017Y329414D01*
X157017Y331226D01*
X163983Y331226D01*
X163983Y329414D01*
X163983Y324414D02*
X157017Y324414D01*
X157017Y326226D01*
X163983Y326226D01*
X163983Y324414D01*
X163983Y319414D02*
X157017Y319414D01*
X157017Y321226D01*
X163983Y321226D01*
X163983Y319414D01*
X163983Y314414D02*
X157017Y314414D01*
X157017Y316226D01*
X163983Y316226D01*
X163983Y314414D01*
X168906Y311303D02*
X168906Y304337D01*
X167094Y304337D01*
X167094Y311303D01*
X168906Y311303D01*
X168906Y306527D02*
X167094Y306527D01*
X167094Y308717D02*
X168906Y308717D01*
X168906Y310907D02*
X167094Y310907D01*
X173906Y311303D02*
X173906Y304337D01*
X172094Y304337D01*
X172094Y311303D01*
X173906Y311303D01*
X173906Y306527D02*
X172094Y306527D01*
X172094Y308717D02*
X173906Y308717D01*
X173906Y310907D02*
X172094Y310907D01*
X178906Y311303D02*
X178906Y304337D01*
X177094Y304337D01*
X177094Y311303D01*
X178906Y311303D01*
X178906Y306527D02*
X177094Y306527D01*
X177094Y308717D02*
X178906Y308717D01*
X178906Y310907D02*
X177094Y310907D01*
X183906Y311303D02*
X183906Y304337D01*
X182094Y304337D01*
X182094Y311303D01*
X183906Y311303D01*
X183906Y306527D02*
X182094Y306527D01*
X182094Y308717D02*
X183906Y308717D01*
X183906Y310907D02*
X182094Y310907D01*
X188906Y311303D02*
X188906Y304337D01*
X187094Y304337D01*
X187094Y311303D01*
X188906Y311303D01*
X188906Y306527D02*
X187094Y306527D01*
X187094Y308717D02*
X188906Y308717D01*
X188906Y310907D02*
X187094Y310907D01*
X193906Y311303D02*
X193906Y304337D01*
X192094Y304337D01*
X192094Y311303D01*
X193906Y311303D01*
X193906Y306527D02*
X192094Y306527D01*
X192094Y308717D02*
X193906Y308717D01*
X193906Y310907D02*
X192094Y310907D01*
X198906Y311303D02*
X198906Y304337D01*
X197094Y304337D01*
X197094Y311303D01*
X198906Y311303D01*
X198906Y306527D02*
X197094Y306527D01*
X197094Y308717D02*
X198906Y308717D01*
X198906Y310907D02*
X197094Y310907D01*
X203906Y311303D02*
X203906Y304337D01*
X202094Y304337D01*
X202094Y311303D01*
X203906Y311303D01*
X203906Y306527D02*
X202094Y306527D01*
X202094Y308717D02*
X203906Y308717D01*
X203906Y310907D02*
X202094Y310907D01*
X208906Y311303D02*
X208906Y304337D01*
X207094Y304337D01*
X207094Y311303D01*
X208906Y311303D01*
X208906Y306527D02*
X207094Y306527D01*
X207094Y308717D02*
X208906Y308717D01*
X208906Y310907D02*
X207094Y310907D01*
X213906Y311303D02*
X213906Y304337D01*
X212094Y304337D01*
X212094Y311303D01*
X213906Y311303D01*
X213906Y306527D02*
X212094Y306527D01*
X212094Y308717D02*
X213906Y308717D01*
X213906Y310907D02*
X212094Y310907D01*
D21*
X208017Y355337D02*
X172983Y355337D01*
X208017Y355337D02*
X208017Y320303D01*
X172983Y320303D01*
X172983Y355337D01*
X172983Y322427D02*
X208017Y322427D01*
X208017Y324551D02*
X172983Y324551D01*
X172983Y326675D02*
X208017Y326675D01*
X208017Y328799D02*
X172983Y328799D01*
X172983Y330923D02*
X208017Y330923D01*
X208017Y333047D02*
X172983Y333047D01*
X172983Y335171D02*
X208017Y335171D01*
X208017Y337295D02*
X172983Y337295D01*
X172983Y339419D02*
X208017Y339419D01*
X208017Y341543D02*
X172983Y341543D01*
X172983Y343667D02*
X208017Y343667D01*
X208017Y345791D02*
X172983Y345791D01*
X172983Y347915D02*
X208017Y347915D01*
X208017Y350039D02*
X172983Y350039D01*
X172983Y352163D02*
X208017Y352163D01*
X208017Y354287D02*
X172983Y354287D01*
D10*
X228561Y417055D02*
X238577Y417055D01*
X238577Y408039D01*
X228561Y408039D01*
X228561Y417055D01*
X228561Y410180D02*
X238577Y410180D01*
X238577Y412321D02*
X228561Y412321D01*
X228561Y414462D02*
X238577Y414462D01*
X238577Y416603D02*
X228561Y416603D01*
X221577Y417055D02*
X211561Y417055D01*
X221577Y417055D02*
X221577Y408039D01*
X211561Y408039D01*
X211561Y417055D01*
X211561Y410180D02*
X221577Y410180D01*
X221577Y412321D02*
X211561Y412321D01*
X211561Y414462D02*
X221577Y414462D01*
X221577Y416603D02*
X211561Y416603D01*
X181852Y407759D02*
X171836Y407759D01*
X171836Y416775D01*
X181852Y416775D01*
X181852Y407759D01*
X181852Y409900D02*
X171836Y409900D01*
X171836Y412041D02*
X181852Y412041D01*
X181852Y414182D02*
X171836Y414182D01*
X171836Y416323D02*
X181852Y416323D01*
X188836Y407759D02*
X198852Y407759D01*
X188836Y407759D02*
X188836Y416775D01*
X198852Y416775D01*
X198852Y407759D01*
X198852Y409900D02*
X188836Y409900D01*
X188836Y412041D02*
X198852Y412041D01*
X198852Y414182D02*
X188836Y414182D01*
X188836Y416323D02*
X198852Y416323D01*
D22*
X334486Y460216D02*
X341154Y460216D01*
X334486Y460216D02*
X334486Y474504D01*
X341154Y474504D01*
X341154Y460216D01*
X341154Y462328D02*
X334486Y462328D01*
X334486Y464440D02*
X341154Y464440D01*
X341154Y466552D02*
X334486Y466552D01*
X334486Y468664D02*
X341154Y468664D01*
X341154Y470776D02*
X334486Y470776D01*
X334486Y472888D02*
X341154Y472888D01*
X341154Y404336D02*
X334486Y404336D01*
X334486Y418624D01*
X341154Y418624D01*
X341154Y404336D01*
X341154Y406448D02*
X334486Y406448D01*
X334486Y408560D02*
X341154Y408560D01*
X341154Y410672D02*
X334486Y410672D01*
X334486Y412784D02*
X341154Y412784D01*
X341154Y414896D02*
X334486Y414896D01*
X334486Y417008D02*
X341154Y417008D01*
X303054Y460216D02*
X296386Y460216D01*
X296386Y474504D01*
X303054Y474504D01*
X303054Y460216D01*
X303054Y462328D02*
X296386Y462328D01*
X296386Y464440D02*
X303054Y464440D01*
X303054Y466552D02*
X296386Y466552D01*
X296386Y468664D02*
X303054Y468664D01*
X303054Y470776D02*
X296386Y470776D01*
X296386Y472888D02*
X303054Y472888D01*
X303054Y404336D02*
X296386Y404336D01*
X296386Y418624D01*
X303054Y418624D01*
X303054Y404336D01*
X303054Y406448D02*
X296386Y406448D01*
X296386Y408560D02*
X303054Y408560D01*
X303054Y410672D02*
X296386Y410672D01*
X296386Y412784D02*
X303054Y412784D01*
X303054Y414896D02*
X296386Y414896D01*
X296386Y417008D02*
X303054Y417008D01*
D16*
X140836Y360986D02*
X140836Y355970D01*
X135820Y355970D01*
X135820Y360986D01*
X140836Y360986D01*
X140836Y358111D02*
X135820Y358111D01*
X135820Y360252D02*
X140836Y360252D01*
X140836Y365970D02*
X140836Y370986D01*
X140836Y365970D02*
X135820Y365970D01*
X135820Y370986D01*
X140836Y370986D01*
X140836Y368111D02*
X135820Y368111D01*
X135820Y370252D02*
X140836Y370252D01*
D10*
X136842Y350989D02*
X146858Y350989D01*
X146858Y341973D01*
X136842Y341973D01*
X136842Y350989D01*
X136842Y344114D02*
X146858Y344114D01*
X146858Y346255D02*
X136842Y346255D01*
X136842Y348396D02*
X146858Y348396D01*
X146858Y350537D02*
X136842Y350537D01*
X129858Y350989D02*
X119842Y350989D01*
X129858Y350989D02*
X129858Y341973D01*
X119842Y341973D01*
X119842Y350989D01*
X119842Y344114D02*
X129858Y344114D01*
X129858Y346255D02*
X119842Y346255D01*
X119842Y348396D02*
X129858Y348396D01*
X129858Y350537D02*
X119842Y350537D01*
D16*
X150996Y355890D02*
X150996Y360906D01*
X150996Y355890D02*
X145980Y355890D01*
X145980Y360906D01*
X150996Y360906D01*
X150996Y358031D02*
X145980Y358031D01*
X145980Y360172D02*
X150996Y360172D01*
X150996Y365890D02*
X150996Y370906D01*
X150996Y365890D02*
X145980Y365890D01*
X145980Y370906D01*
X150996Y370906D01*
X150996Y368031D02*
X145980Y368031D01*
X145980Y370172D02*
X150996Y370172D01*
X184102Y382238D02*
X189118Y382238D01*
X189118Y377222D01*
X184102Y377222D01*
X184102Y382238D01*
X184102Y379363D02*
X189118Y379363D01*
X189118Y381504D02*
X184102Y381504D01*
X179118Y382238D02*
X174102Y382238D01*
X179118Y382238D02*
X179118Y377222D01*
X174102Y377222D01*
X174102Y382238D01*
X174102Y379363D02*
X179118Y379363D01*
X179118Y381504D02*
X174102Y381504D01*
X184102Y391458D02*
X189118Y391458D01*
X189118Y386442D01*
X184102Y386442D01*
X184102Y391458D01*
X184102Y388583D02*
X189118Y388583D01*
X189118Y390724D02*
X184102Y390724D01*
X179118Y391458D02*
X174102Y391458D01*
X179118Y391458D02*
X179118Y386442D01*
X174102Y386442D01*
X174102Y391458D01*
X174102Y388583D02*
X179118Y388583D01*
X179118Y390724D02*
X174102Y390724D01*
X146929Y337153D02*
X141913Y337153D01*
X146929Y337153D02*
X146929Y332137D01*
X141913Y332137D01*
X141913Y337153D01*
X141913Y334278D02*
X146929Y334278D01*
X146929Y336419D02*
X141913Y336419D01*
X136929Y337153D02*
X131913Y337153D01*
X136929Y337153D02*
X136929Y332137D01*
X131913Y332137D01*
X131913Y337153D01*
X131913Y334278D02*
X136929Y334278D01*
X136929Y336419D02*
X131913Y336419D01*
X185423Y297707D02*
X190439Y297707D01*
X190439Y292691D01*
X185423Y292691D01*
X185423Y297707D01*
X185423Y294832D02*
X190439Y294832D01*
X190439Y296973D02*
X185423Y296973D01*
X180439Y297707D02*
X175423Y297707D01*
X180439Y297707D02*
X180439Y292691D01*
X175423Y292691D01*
X175423Y297707D01*
X175423Y294832D02*
X180439Y294832D01*
X180439Y296973D02*
X175423Y296973D01*
X185296Y288385D02*
X190312Y288385D01*
X190312Y283369D01*
X185296Y283369D01*
X185296Y288385D01*
X185296Y285510D02*
X190312Y285510D01*
X190312Y287651D02*
X185296Y287651D01*
X180312Y288385D02*
X175296Y288385D01*
X180312Y288385D02*
X180312Y283369D01*
X175296Y283369D01*
X175296Y288385D01*
X175296Y285510D02*
X180312Y285510D01*
X180312Y287651D02*
X175296Y287651D01*
D10*
X141270Y326555D02*
X131254Y326555D01*
X141270Y326555D02*
X141270Y317539D01*
X131254Y317539D01*
X131254Y326555D01*
X131254Y319680D02*
X141270Y319680D01*
X141270Y321821D02*
X131254Y321821D01*
X131254Y323962D02*
X141270Y323962D01*
X141270Y326103D02*
X131254Y326103D01*
X124270Y326555D02*
X114254Y326555D01*
X124270Y326555D02*
X124270Y317539D01*
X114254Y317539D01*
X114254Y326555D01*
X114254Y319680D02*
X124270Y319680D01*
X124270Y321821D02*
X114254Y321821D01*
X114254Y323962D02*
X124270Y323962D01*
X124270Y326103D02*
X114254Y326103D01*
D16*
X160725Y385963D02*
X160725Y390979D01*
X160725Y385963D02*
X155709Y385963D01*
X155709Y390979D01*
X160725Y390979D01*
X160725Y388104D02*
X155709Y388104D01*
X155709Y390245D02*
X160725Y390245D01*
X160725Y395963D02*
X160725Y400979D01*
X160725Y395963D02*
X155709Y395963D01*
X155709Y400979D01*
X160725Y400979D01*
X160725Y398104D02*
X155709Y398104D01*
X155709Y400245D02*
X160725Y400245D01*
X149295Y391208D02*
X149295Y386192D01*
X144279Y386192D01*
X144279Y391208D01*
X149295Y391208D01*
X149295Y388333D02*
X144279Y388333D01*
X144279Y390474D02*
X149295Y390474D01*
X149295Y396192D02*
X149295Y401208D01*
X149295Y396192D02*
X144279Y396192D01*
X144279Y401208D01*
X149295Y401208D01*
X149295Y398333D02*
X144279Y398333D01*
X144279Y400474D02*
X149295Y400474D01*
D19*
X326706Y636040D02*
X333694Y636040D01*
X326706Y636040D02*
X326706Y643028D01*
X333694Y643028D01*
X333694Y636040D01*
X333694Y640109D02*
X326706Y640109D01*
X326706Y618500D02*
X333694Y618500D01*
X326706Y618500D02*
X326706Y625488D01*
X333694Y625488D01*
X333694Y618500D01*
X333694Y622569D02*
X326706Y622569D01*
D16*
X332708Y505508D02*
X332708Y500492D01*
X327692Y500492D01*
X327692Y505508D01*
X332708Y505508D01*
X332708Y502633D02*
X327692Y502633D01*
X327692Y504774D02*
X332708Y504774D01*
X332708Y510492D02*
X332708Y515508D01*
X332708Y510492D02*
X327692Y510492D01*
X327692Y515508D01*
X332708Y515508D01*
X332708Y512633D02*
X327692Y512633D01*
X327692Y514774D02*
X332708Y514774D01*
X45608Y281908D02*
X40592Y281908D01*
X45608Y281908D02*
X45608Y276892D01*
X40592Y276892D01*
X40592Y281908D01*
X40592Y279033D02*
X45608Y279033D01*
X45608Y281174D02*
X40592Y281174D01*
X35608Y281908D02*
X30592Y281908D01*
X35608Y281908D02*
X35608Y276892D01*
X30592Y276892D01*
X30592Y281908D01*
X30592Y279033D02*
X35608Y279033D01*
X35608Y281174D02*
X30592Y281174D01*
X40592Y269208D02*
X45608Y269208D01*
X45608Y264192D01*
X40592Y264192D01*
X40592Y269208D01*
X40592Y266333D02*
X45608Y266333D01*
X45608Y268474D02*
X40592Y268474D01*
X35608Y269208D02*
X30592Y269208D01*
X35608Y269208D02*
X35608Y264192D01*
X30592Y264192D01*
X30592Y269208D01*
X30592Y266333D02*
X35608Y266333D01*
X35608Y268474D02*
X30592Y268474D01*
X40592Y243808D02*
X45608Y243808D01*
X45608Y238792D01*
X40592Y238792D01*
X40592Y243808D01*
X40592Y240933D02*
X45608Y240933D01*
X45608Y243074D02*
X40592Y243074D01*
X35608Y243808D02*
X30592Y243808D01*
X35608Y243808D02*
X35608Y238792D01*
X30592Y238792D01*
X30592Y243808D01*
X30592Y240933D02*
X35608Y240933D01*
X35608Y243074D02*
X30592Y243074D01*
X40592Y231108D02*
X45608Y231108D01*
X45608Y226092D01*
X40592Y226092D01*
X40592Y231108D01*
X40592Y228233D02*
X45608Y228233D01*
X45608Y230374D02*
X40592Y230374D01*
X35608Y231108D02*
X30592Y231108D01*
X35608Y231108D02*
X35608Y226092D01*
X30592Y226092D01*
X30592Y231108D01*
X30592Y228233D02*
X35608Y228233D01*
X35608Y230374D02*
X30592Y230374D01*
X40592Y256508D02*
X45608Y256508D01*
X45608Y251492D01*
X40592Y251492D01*
X40592Y256508D01*
X40592Y253633D02*
X45608Y253633D01*
X45608Y255774D02*
X40592Y255774D01*
X35608Y256508D02*
X30592Y256508D01*
X35608Y256508D02*
X35608Y251492D01*
X30592Y251492D01*
X30592Y256508D01*
X30592Y253633D02*
X35608Y253633D01*
X35608Y255774D02*
X30592Y255774D01*
X322692Y289592D02*
X327708Y289592D01*
X322692Y289592D02*
X322692Y294608D01*
X327708Y294608D01*
X327708Y289592D01*
X327708Y291733D02*
X322692Y291733D01*
X322692Y293874D02*
X327708Y293874D01*
X332692Y289592D02*
X337708Y289592D01*
X332692Y289592D02*
X332692Y294608D01*
X337708Y294608D01*
X337708Y289592D01*
X337708Y291733D02*
X332692Y291733D01*
X332692Y293874D02*
X337708Y293874D01*
X307308Y500492D02*
X307308Y505508D01*
X307308Y500492D02*
X302292Y500492D01*
X302292Y505508D01*
X307308Y505508D01*
X307308Y502633D02*
X302292Y502633D01*
X302292Y504774D02*
X307308Y504774D01*
X307308Y510492D02*
X307308Y515508D01*
X307308Y510492D02*
X302292Y510492D01*
X302292Y515508D01*
X307308Y515508D01*
X307308Y512633D02*
X302292Y512633D01*
X302292Y514774D02*
X307308Y514774D01*
X322692Y340392D02*
X327708Y340392D01*
X322692Y340392D02*
X322692Y345408D01*
X327708Y345408D01*
X327708Y340392D01*
X327708Y342533D02*
X322692Y342533D01*
X322692Y344674D02*
X327708Y344674D01*
X332692Y340392D02*
X337708Y340392D01*
X332692Y340392D02*
X332692Y345408D01*
X337708Y345408D01*
X337708Y340392D01*
X337708Y342533D02*
X332692Y342533D01*
X332692Y344674D02*
X337708Y344674D01*
D19*
X308294Y636040D02*
X301306Y636040D01*
X301306Y643028D01*
X308294Y643028D01*
X308294Y636040D01*
X308294Y640109D02*
X301306Y640109D01*
X301306Y618500D02*
X308294Y618500D01*
X301306Y618500D02*
X301306Y625488D01*
X308294Y625488D01*
X308294Y618500D01*
X308294Y622569D02*
X301306Y622569D01*
D16*
X294608Y505508D02*
X294608Y500492D01*
X289592Y500492D01*
X289592Y505508D01*
X294608Y505508D01*
X294608Y502633D02*
X289592Y502633D01*
X289592Y504774D02*
X294608Y504774D01*
X294608Y510492D02*
X294608Y515508D01*
X294608Y510492D02*
X289592Y510492D01*
X289592Y515508D01*
X294608Y515508D01*
X294608Y512633D02*
X289592Y512633D01*
X289592Y514774D02*
X294608Y514774D01*
X322692Y314992D02*
X327708Y314992D01*
X322692Y314992D02*
X322692Y320008D01*
X327708Y320008D01*
X327708Y314992D01*
X327708Y317133D02*
X322692Y317133D01*
X322692Y319274D02*
X327708Y319274D01*
X332692Y314992D02*
X337708Y314992D01*
X332692Y314992D02*
X332692Y320008D01*
X337708Y320008D01*
X337708Y314992D01*
X337708Y317133D02*
X332692Y317133D01*
X332692Y319274D02*
X337708Y319274D01*
D19*
X282894Y636040D02*
X275906Y636040D01*
X275906Y643028D01*
X282894Y643028D01*
X282894Y636040D01*
X282894Y640109D02*
X275906Y640109D01*
X275906Y618500D02*
X282894Y618500D01*
X275906Y618500D02*
X275906Y625488D01*
X282894Y625488D01*
X282894Y618500D01*
X282894Y622569D02*
X275906Y622569D01*
D16*
X205636Y395637D02*
X200620Y395637D01*
X200620Y400653D01*
X205636Y400653D01*
X205636Y395637D01*
X205636Y397778D02*
X200620Y397778D01*
X200620Y399919D02*
X205636Y399919D01*
X210620Y395637D02*
X215636Y395637D01*
X210620Y395637D02*
X210620Y400653D01*
X215636Y400653D01*
X215636Y395637D01*
X215636Y397778D02*
X210620Y397778D01*
X210620Y399919D02*
X215636Y399919D01*
X200403Y386442D02*
X195387Y386442D01*
X195387Y391458D01*
X200403Y391458D01*
X200403Y386442D01*
X200403Y388583D02*
X195387Y388583D01*
X195387Y390724D02*
X200403Y390724D01*
X205387Y386442D02*
X210403Y386442D01*
X205387Y386442D02*
X205387Y391458D01*
X210403Y391458D01*
X210403Y386442D01*
X210403Y388583D02*
X205387Y388583D01*
X205387Y390724D02*
X210403Y390724D01*
X227511Y426967D02*
X232527Y426967D01*
X232527Y421951D01*
X227511Y421951D01*
X227511Y426967D01*
X227511Y424092D02*
X232527Y424092D01*
X232527Y426233D02*
X227511Y426233D01*
X222527Y426967D02*
X217511Y426967D01*
X222527Y426967D02*
X222527Y421951D01*
X217511Y421951D01*
X217511Y426967D01*
X217511Y424092D02*
X222527Y424092D01*
X222527Y426233D02*
X217511Y426233D01*
X193004Y426713D02*
X187988Y426713D01*
X193004Y426713D02*
X193004Y421697D01*
X187988Y421697D01*
X187988Y426713D01*
X187988Y423838D02*
X193004Y423838D01*
X193004Y425979D02*
X187988Y425979D01*
X183004Y426713D02*
X177988Y426713D01*
X183004Y426713D02*
X183004Y421697D01*
X177988Y421697D01*
X177988Y426713D01*
X177988Y423838D02*
X183004Y423838D01*
X183004Y425979D02*
X177988Y425979D01*
D10*
X174427Y432474D02*
X184443Y432474D01*
X174427Y432474D02*
X174427Y441490D01*
X184443Y441490D01*
X184443Y432474D01*
X184443Y434615D02*
X174427Y434615D01*
X174427Y436756D02*
X184443Y436756D01*
X184443Y438897D02*
X174427Y438897D01*
X174427Y441038D02*
X184443Y441038D01*
X191427Y432474D02*
X201443Y432474D01*
X191427Y432474D02*
X191427Y441490D01*
X201443Y441490D01*
X201443Y432474D01*
X201443Y434615D02*
X191427Y434615D01*
X191427Y436756D02*
X201443Y436756D01*
X201443Y438897D02*
X191427Y438897D01*
X191427Y441038D02*
X201443Y441038D01*
X228561Y441058D02*
X238577Y441058D01*
X238577Y432042D01*
X228561Y432042D01*
X228561Y441058D01*
X228561Y434183D02*
X238577Y434183D01*
X238577Y436324D02*
X228561Y436324D01*
X228561Y438465D02*
X238577Y438465D01*
X238577Y440606D02*
X228561Y440606D01*
X221577Y441058D02*
X211561Y441058D01*
X221577Y441058D02*
X221577Y432042D01*
X211561Y432042D01*
X211561Y441058D01*
X211561Y434183D02*
X221577Y434183D01*
X221577Y436324D02*
X211561Y436324D01*
X211561Y438465D02*
X221577Y438465D01*
X221577Y440606D02*
X211561Y440606D01*
D23*
X228000Y538800D03*
X152000Y538800D03*
X145500Y636300D03*
X234500Y636300D03*
D24*
X176000Y564800D03*
X204000Y564800D03*
D10*
X65492Y543508D02*
X65492Y533492D01*
X65492Y543508D02*
X74508Y543508D01*
X74508Y533492D01*
X65492Y533492D01*
X65492Y535633D02*
X74508Y535633D01*
X74508Y537774D02*
X65492Y537774D01*
X65492Y539915D02*
X74508Y539915D01*
X74508Y542056D02*
X65492Y542056D01*
X65492Y526508D02*
X65492Y516492D01*
X65492Y526508D02*
X74508Y526508D01*
X74508Y516492D01*
X65492Y516492D01*
X65492Y518633D02*
X74508Y518633D01*
X74508Y520774D02*
X65492Y520774D01*
X65492Y522915D02*
X74508Y522915D01*
X74508Y525056D02*
X65492Y525056D01*
D25*
X209521Y483954D02*
X209521Y472992D01*
X206459Y472992D01*
X206459Y483954D01*
X209521Y483954D01*
X209521Y475186D02*
X206459Y475186D01*
X206459Y477380D02*
X209521Y477380D01*
X209521Y479574D02*
X206459Y479574D01*
X206459Y481768D02*
X209521Y481768D01*
X216021Y483954D02*
X216021Y472992D01*
X212959Y472992D01*
X212959Y483954D01*
X216021Y483954D01*
X216021Y475186D02*
X212959Y475186D01*
X212959Y477380D02*
X216021Y477380D01*
X216021Y479574D02*
X212959Y479574D01*
X212959Y481768D02*
X216021Y481768D01*
X189021Y512792D02*
X189021Y523754D01*
X189021Y512792D02*
X185959Y512792D01*
X185959Y523754D01*
X189021Y523754D01*
X189021Y514986D02*
X185959Y514986D01*
X185959Y517180D02*
X189021Y517180D01*
X189021Y519374D02*
X185959Y519374D01*
X185959Y521568D02*
X189021Y521568D01*
X195521Y523754D02*
X195521Y512792D01*
X192459Y512792D01*
X192459Y523754D01*
X195521Y523754D01*
X195521Y514986D02*
X192459Y514986D01*
X192459Y517180D02*
X195521Y517180D01*
X195521Y519374D02*
X192459Y519374D01*
X192459Y521568D02*
X195521Y521568D01*
X216021Y523754D02*
X216021Y512792D01*
X212959Y512792D01*
X212959Y523754D01*
X216021Y523754D01*
X216021Y514986D02*
X212959Y514986D01*
X212959Y517180D02*
X216021Y517180D01*
X216021Y519374D02*
X212959Y519374D01*
X212959Y521568D02*
X216021Y521568D01*
D26*
X189042Y475975D02*
X189042Y472971D01*
X185938Y472971D01*
X185938Y475975D01*
X189042Y475975D01*
X189042Y475124D02*
X185938Y475124D01*
X189042Y480971D02*
X189042Y483975D01*
X189042Y480971D02*
X185938Y480971D01*
X185938Y483975D01*
X189042Y483975D01*
X189042Y483124D02*
X185938Y483124D01*
D27*
X210939Y459307D02*
X211921Y459307D01*
X210939Y459307D02*
X210939Y464289D01*
X211921Y464289D01*
X211921Y459307D01*
X211921Y461482D02*
X210939Y461482D01*
X210939Y463657D02*
X211921Y463657D01*
X214939Y459307D02*
X215921Y459307D01*
X214939Y459307D02*
X214939Y464289D01*
X215921Y464289D01*
X215921Y459307D01*
X215921Y461482D02*
X214939Y461482D01*
X214939Y463657D02*
X215921Y463657D01*
X207921Y459307D02*
X206939Y459307D01*
X206939Y464289D01*
X207921Y464289D01*
X207921Y459307D01*
X207921Y461482D02*
X206939Y461482D01*
X206939Y463657D02*
X207921Y463657D01*
X210939Y449807D02*
X211921Y449807D01*
X210939Y449807D02*
X210939Y454789D01*
X211921Y454789D01*
X211921Y449807D01*
X211921Y451982D02*
X210939Y451982D01*
X210939Y454157D02*
X211921Y454157D01*
X214939Y449807D02*
X215921Y449807D01*
X214939Y449807D02*
X214939Y454789D01*
X215921Y454789D01*
X215921Y449807D01*
X215921Y451982D02*
X214939Y451982D01*
X214939Y454157D02*
X215921Y454157D01*
X207921Y449807D02*
X206939Y449807D01*
X206939Y454789D01*
X207921Y454789D01*
X207921Y449807D01*
X207921Y451982D02*
X206939Y451982D01*
X206939Y454157D02*
X207921Y454157D01*
D28*
X172821Y522126D02*
X157795Y522126D01*
X172821Y522126D02*
X172821Y505100D01*
X157795Y505100D01*
X157795Y522126D01*
X157795Y507233D02*
X172821Y507233D01*
X172821Y509366D02*
X157795Y509366D01*
X157795Y511499D02*
X172821Y511499D01*
X172821Y513632D02*
X157795Y513632D01*
X157795Y515765D02*
X172821Y515765D01*
X172821Y517898D02*
X157795Y517898D01*
X157795Y520031D02*
X172821Y520031D01*
X144821Y522126D02*
X129795Y522126D01*
X144821Y522126D02*
X144821Y505100D01*
X129795Y505100D01*
X129795Y522126D01*
X129795Y507233D02*
X144821Y507233D01*
X144821Y509366D02*
X129795Y509366D01*
X129795Y511499D02*
X144821Y511499D01*
X144821Y513632D02*
X129795Y513632D01*
X129795Y515765D02*
X144821Y515765D01*
X144821Y517898D02*
X129795Y517898D01*
X129795Y520031D02*
X144821Y520031D01*
D10*
X169735Y482461D02*
X169735Y472445D01*
X160719Y472445D01*
X160719Y482461D01*
X169735Y482461D01*
X169735Y474586D02*
X160719Y474586D01*
X160719Y476727D02*
X169735Y476727D01*
X169735Y478868D02*
X160719Y478868D01*
X160719Y481009D02*
X169735Y481009D01*
X169735Y489445D02*
X169735Y499461D01*
X169735Y489445D02*
X160719Y489445D01*
X160719Y499461D01*
X169735Y499461D01*
X169735Y491586D02*
X160719Y491586D01*
X160719Y493727D02*
X169735Y493727D01*
X169735Y495868D02*
X160719Y495868D01*
X160719Y498009D02*
X169735Y498009D01*
D16*
X225308Y515703D02*
X230324Y515703D01*
X225308Y515703D02*
X225308Y520719D01*
X230324Y520719D01*
X230324Y515703D01*
X230324Y517844D02*
X225308Y517844D01*
X225308Y519985D02*
X230324Y519985D01*
X235308Y515703D02*
X240324Y515703D01*
X235308Y515703D02*
X235308Y520719D01*
X240324Y520719D01*
X240324Y515703D01*
X240324Y517844D02*
X235308Y517844D01*
X235308Y519985D02*
X240324Y519985D01*
D10*
X187727Y466813D02*
X177711Y466813D01*
X187727Y466813D02*
X187727Y457797D01*
X177711Y457797D01*
X177711Y466813D01*
X177711Y459938D02*
X187727Y459938D01*
X187727Y462079D02*
X177711Y462079D01*
X177711Y464220D02*
X187727Y464220D01*
X187727Y466361D02*
X177711Y466361D01*
X170727Y466813D02*
X160711Y466813D01*
X170727Y466813D02*
X170727Y457797D01*
X160711Y457797D01*
X160711Y466813D01*
X160711Y459938D02*
X170727Y459938D01*
X170727Y462079D02*
X160711Y462079D01*
X160711Y464220D02*
X170727Y464220D01*
X170727Y466361D02*
X160711Y466361D01*
X89708Y347408D02*
X79692Y347408D01*
X89708Y347408D02*
X89708Y338392D01*
X79692Y338392D01*
X79692Y347408D01*
X79692Y340533D02*
X89708Y340533D01*
X89708Y342674D02*
X79692Y342674D01*
X79692Y344815D02*
X89708Y344815D01*
X89708Y346956D02*
X79692Y346956D01*
X72708Y347408D02*
X62692Y347408D01*
X72708Y347408D02*
X72708Y338392D01*
X62692Y338392D01*
X62692Y347408D01*
X62692Y340533D02*
X72708Y340533D01*
X72708Y342674D02*
X62692Y342674D01*
X62692Y344815D02*
X72708Y344815D01*
X72708Y346956D02*
X62692Y346956D01*
D16*
X124412Y311118D02*
X129428Y311118D01*
X129428Y306102D01*
X124412Y306102D01*
X124412Y311118D01*
X124412Y308243D02*
X129428Y308243D01*
X129428Y310384D02*
X124412Y310384D01*
X119428Y311118D02*
X114412Y311118D01*
X119428Y311118D02*
X119428Y306102D01*
X114412Y306102D01*
X114412Y311118D01*
X114412Y308243D02*
X119428Y308243D01*
X119428Y310384D02*
X114412Y310384D01*
D10*
X433591Y148808D02*
X433591Y138792D01*
X433591Y148808D02*
X442607Y148808D01*
X442607Y138792D01*
X433591Y138792D01*
X433591Y140933D02*
X442607Y140933D01*
X442607Y143074D02*
X433591Y143074D01*
X433591Y145215D02*
X442607Y145215D01*
X442607Y147356D02*
X433591Y147356D01*
X433591Y131808D02*
X433591Y121792D01*
X433591Y131808D02*
X442607Y131808D01*
X442607Y121792D01*
X433591Y121792D01*
X433591Y123933D02*
X442607Y123933D01*
X442607Y126074D02*
X433591Y126074D01*
X433591Y128215D02*
X442607Y128215D01*
X442607Y130356D02*
X433591Y130356D01*
D11*
X395589Y50000D03*
X755589Y640000D03*
D12*
X414789Y129500D03*
X414789Y154900D03*
D13*
X666349Y19490D02*
X668829Y19490D01*
X668829Y6010D01*
X666349Y6010D01*
X666349Y19490D01*
X666349Y8185D02*
X668829Y8185D01*
X668829Y10360D02*
X666349Y10360D01*
X666349Y12535D02*
X668829Y12535D01*
X668829Y14710D02*
X666349Y14710D01*
X666349Y16885D02*
X668829Y16885D01*
X668829Y19060D02*
X666349Y19060D01*
X663829Y19490D02*
X661349Y19490D01*
X663829Y19490D02*
X663829Y6010D01*
X661349Y6010D01*
X661349Y19490D01*
X661349Y8185D02*
X663829Y8185D01*
X663829Y10360D02*
X661349Y10360D01*
X661349Y12535D02*
X663829Y12535D01*
X663829Y14710D02*
X661349Y14710D01*
X661349Y16885D02*
X663829Y16885D01*
X663829Y19060D02*
X661349Y19060D01*
X658829Y19490D02*
X656349Y19490D01*
X658829Y19490D02*
X658829Y6010D01*
X656349Y6010D01*
X656349Y19490D01*
X656349Y8185D02*
X658829Y8185D01*
X658829Y10360D02*
X656349Y10360D01*
X656349Y12535D02*
X658829Y12535D01*
X658829Y14710D02*
X656349Y14710D01*
X656349Y16885D02*
X658829Y16885D01*
X658829Y19060D02*
X656349Y19060D01*
X653829Y19490D02*
X651349Y19490D01*
X653829Y19490D02*
X653829Y6010D01*
X651349Y6010D01*
X651349Y19490D01*
X651349Y8185D02*
X653829Y8185D01*
X653829Y10360D02*
X651349Y10360D01*
X651349Y12535D02*
X653829Y12535D01*
X653829Y14710D02*
X651349Y14710D01*
X651349Y16885D02*
X653829Y16885D01*
X653829Y19060D02*
X651349Y19060D01*
X648829Y19490D02*
X646349Y19490D01*
X648829Y19490D02*
X648829Y6010D01*
X646349Y6010D01*
X646349Y19490D01*
X646349Y8185D02*
X648829Y8185D01*
X648829Y10360D02*
X646349Y10360D01*
X646349Y12535D02*
X648829Y12535D01*
X648829Y14710D02*
X646349Y14710D01*
X646349Y16885D02*
X648829Y16885D01*
X648829Y19060D02*
X646349Y19060D01*
X643829Y19490D02*
X641349Y19490D01*
X643829Y19490D02*
X643829Y6010D01*
X641349Y6010D01*
X641349Y19490D01*
X641349Y8185D02*
X643829Y8185D01*
X643829Y10360D02*
X641349Y10360D01*
X641349Y12535D02*
X643829Y12535D01*
X643829Y14710D02*
X641349Y14710D01*
X641349Y16885D02*
X643829Y16885D01*
X643829Y19060D02*
X641349Y19060D01*
X638829Y19490D02*
X636349Y19490D01*
X638829Y19490D02*
X638829Y6010D01*
X636349Y6010D01*
X636349Y19490D01*
X636349Y8185D02*
X638829Y8185D01*
X638829Y10360D02*
X636349Y10360D01*
X636349Y12535D02*
X638829Y12535D01*
X638829Y14710D02*
X636349Y14710D01*
X636349Y16885D02*
X638829Y16885D01*
X638829Y19060D02*
X636349Y19060D01*
X633829Y19490D02*
X631349Y19490D01*
X633829Y19490D02*
X633829Y6010D01*
X631349Y6010D01*
X631349Y19490D01*
X631349Y8185D02*
X633829Y8185D01*
X633829Y10360D02*
X631349Y10360D01*
X631349Y12535D02*
X633829Y12535D01*
X633829Y14710D02*
X631349Y14710D01*
X631349Y16885D02*
X633829Y16885D01*
X633829Y19060D02*
X631349Y19060D01*
X628829Y19490D02*
X626349Y19490D01*
X628829Y19490D02*
X628829Y6010D01*
X626349Y6010D01*
X626349Y19490D01*
X626349Y8185D02*
X628829Y8185D01*
X628829Y10360D02*
X626349Y10360D01*
X626349Y12535D02*
X628829Y12535D01*
X628829Y14710D02*
X626349Y14710D01*
X626349Y16885D02*
X628829Y16885D01*
X628829Y19060D02*
X626349Y19060D01*
X623829Y19490D02*
X621349Y19490D01*
X623829Y19490D02*
X623829Y6010D01*
X621349Y6010D01*
X621349Y19490D01*
X621349Y8185D02*
X623829Y8185D01*
X623829Y10360D02*
X621349Y10360D01*
X621349Y12535D02*
X623829Y12535D01*
X623829Y14710D02*
X621349Y14710D01*
X621349Y16885D02*
X623829Y16885D01*
X623829Y19060D02*
X621349Y19060D01*
X618829Y19490D02*
X616349Y19490D01*
X618829Y19490D02*
X618829Y6010D01*
X616349Y6010D01*
X616349Y19490D01*
X616349Y8185D02*
X618829Y8185D01*
X618829Y10360D02*
X616349Y10360D01*
X616349Y12535D02*
X618829Y12535D01*
X618829Y14710D02*
X616349Y14710D01*
X616349Y16885D02*
X618829Y16885D01*
X618829Y19060D02*
X616349Y19060D01*
X613829Y19490D02*
X611349Y19490D01*
X613829Y19490D02*
X613829Y6010D01*
X611349Y6010D01*
X611349Y19490D01*
X611349Y8185D02*
X613829Y8185D01*
X613829Y10360D02*
X611349Y10360D01*
X611349Y12535D02*
X613829Y12535D01*
X613829Y14710D02*
X611349Y14710D01*
X611349Y16885D02*
X613829Y16885D01*
X613829Y19060D02*
X611349Y19060D01*
X588829Y19490D02*
X586349Y19490D01*
X588829Y19490D02*
X588829Y6010D01*
X586349Y6010D01*
X586349Y19490D01*
X586349Y8185D02*
X588829Y8185D01*
X588829Y10360D02*
X586349Y10360D01*
X586349Y12535D02*
X588829Y12535D01*
X588829Y14710D02*
X586349Y14710D01*
X586349Y16885D02*
X588829Y16885D01*
X588829Y19060D02*
X586349Y19060D01*
X583829Y19490D02*
X581349Y19490D01*
X583829Y19490D02*
X583829Y6010D01*
X581349Y6010D01*
X581349Y19490D01*
X581349Y8185D02*
X583829Y8185D01*
X583829Y10360D02*
X581349Y10360D01*
X581349Y12535D02*
X583829Y12535D01*
X583829Y14710D02*
X581349Y14710D01*
X581349Y16885D02*
X583829Y16885D01*
X583829Y19060D02*
X581349Y19060D01*
X578829Y19490D02*
X576349Y19490D01*
X578829Y19490D02*
X578829Y6010D01*
X576349Y6010D01*
X576349Y19490D01*
X576349Y8185D02*
X578829Y8185D01*
X578829Y10360D02*
X576349Y10360D01*
X576349Y12535D02*
X578829Y12535D01*
X578829Y14710D02*
X576349Y14710D01*
X576349Y16885D02*
X578829Y16885D01*
X578829Y19060D02*
X576349Y19060D01*
X573829Y19490D02*
X571349Y19490D01*
X573829Y19490D02*
X573829Y6010D01*
X571349Y6010D01*
X571349Y19490D01*
X571349Y8185D02*
X573829Y8185D01*
X573829Y10360D02*
X571349Y10360D01*
X571349Y12535D02*
X573829Y12535D01*
X573829Y14710D02*
X571349Y14710D01*
X571349Y16885D02*
X573829Y16885D01*
X573829Y19060D02*
X571349Y19060D01*
X568829Y19490D02*
X566349Y19490D01*
X568829Y19490D02*
X568829Y6010D01*
X566349Y6010D01*
X566349Y19490D01*
X566349Y8185D02*
X568829Y8185D01*
X568829Y10360D02*
X566349Y10360D01*
X566349Y12535D02*
X568829Y12535D01*
X568829Y14710D02*
X566349Y14710D01*
X566349Y16885D02*
X568829Y16885D01*
X568829Y19060D02*
X566349Y19060D01*
X563829Y19490D02*
X561349Y19490D01*
X563829Y19490D02*
X563829Y6010D01*
X561349Y6010D01*
X561349Y19490D01*
X561349Y8185D02*
X563829Y8185D01*
X563829Y10360D02*
X561349Y10360D01*
X561349Y12535D02*
X563829Y12535D01*
X563829Y14710D02*
X561349Y14710D01*
X561349Y16885D02*
X563829Y16885D01*
X563829Y19060D02*
X561349Y19060D01*
X558829Y19490D02*
X556349Y19490D01*
X558829Y19490D02*
X558829Y6010D01*
X556349Y6010D01*
X556349Y19490D01*
X556349Y8185D02*
X558829Y8185D01*
X558829Y10360D02*
X556349Y10360D01*
X556349Y12535D02*
X558829Y12535D01*
X558829Y14710D02*
X556349Y14710D01*
X556349Y16885D02*
X558829Y16885D01*
X558829Y19060D02*
X556349Y19060D01*
X553829Y19490D02*
X551349Y19490D01*
X553829Y19490D02*
X553829Y6010D01*
X551349Y6010D01*
X551349Y19490D01*
X551349Y8185D02*
X553829Y8185D01*
X553829Y10360D02*
X551349Y10360D01*
X551349Y12535D02*
X553829Y12535D01*
X553829Y14710D02*
X551349Y14710D01*
X551349Y16885D02*
X553829Y16885D01*
X553829Y19060D02*
X551349Y19060D01*
X548829Y19490D02*
X546349Y19490D01*
X548829Y19490D02*
X548829Y6010D01*
X546349Y6010D01*
X546349Y19490D01*
X546349Y8185D02*
X548829Y8185D01*
X548829Y10360D02*
X546349Y10360D01*
X546349Y12535D02*
X548829Y12535D01*
X548829Y14710D02*
X546349Y14710D01*
X546349Y16885D02*
X548829Y16885D01*
X548829Y19060D02*
X546349Y19060D01*
X543829Y19490D02*
X541349Y19490D01*
X543829Y19490D02*
X543829Y6010D01*
X541349Y6010D01*
X541349Y19490D01*
X541349Y8185D02*
X543829Y8185D01*
X543829Y10360D02*
X541349Y10360D01*
X541349Y12535D02*
X543829Y12535D01*
X543829Y14710D02*
X541349Y14710D01*
X541349Y16885D02*
X543829Y16885D01*
X543829Y19060D02*
X541349Y19060D01*
X538829Y19490D02*
X536349Y19490D01*
X538829Y19490D02*
X538829Y6010D01*
X536349Y6010D01*
X536349Y19490D01*
X536349Y8185D02*
X538829Y8185D01*
X538829Y10360D02*
X536349Y10360D01*
X536349Y12535D02*
X538829Y12535D01*
X538829Y14710D02*
X536349Y14710D01*
X536349Y16885D02*
X538829Y16885D01*
X538829Y19060D02*
X536349Y19060D01*
X533829Y19490D02*
X531349Y19490D01*
X533829Y19490D02*
X533829Y6010D01*
X531349Y6010D01*
X531349Y19490D01*
X531349Y8185D02*
X533829Y8185D01*
X533829Y10360D02*
X531349Y10360D01*
X531349Y12535D02*
X533829Y12535D01*
X533829Y14710D02*
X531349Y14710D01*
X531349Y16885D02*
X533829Y16885D01*
X533829Y19060D02*
X531349Y19060D01*
X528829Y19490D02*
X526349Y19490D01*
X528829Y19490D02*
X528829Y6010D01*
X526349Y6010D01*
X526349Y19490D01*
X526349Y8185D02*
X528829Y8185D01*
X528829Y10360D02*
X526349Y10360D01*
X526349Y12535D02*
X528829Y12535D01*
X528829Y14710D02*
X526349Y14710D01*
X526349Y16885D02*
X528829Y16885D01*
X528829Y19060D02*
X526349Y19060D01*
X523829Y19490D02*
X521349Y19490D01*
X523829Y19490D02*
X523829Y6010D01*
X521349Y6010D01*
X521349Y19490D01*
X521349Y8185D02*
X523829Y8185D01*
X523829Y10360D02*
X521349Y10360D01*
X521349Y12535D02*
X523829Y12535D01*
X523829Y14710D02*
X521349Y14710D01*
X521349Y16885D02*
X523829Y16885D01*
X523829Y19060D02*
X521349Y19060D01*
X518829Y19490D02*
X516349Y19490D01*
X518829Y19490D02*
X518829Y6010D01*
X516349Y6010D01*
X516349Y19490D01*
X516349Y8185D02*
X518829Y8185D01*
X518829Y10360D02*
X516349Y10360D01*
X516349Y12535D02*
X518829Y12535D01*
X518829Y14710D02*
X516349Y14710D01*
X516349Y16885D02*
X518829Y16885D01*
X518829Y19060D02*
X516349Y19060D01*
X513829Y19490D02*
X511349Y19490D01*
X513829Y19490D02*
X513829Y6010D01*
X511349Y6010D01*
X511349Y19490D01*
X511349Y8185D02*
X513829Y8185D01*
X513829Y10360D02*
X511349Y10360D01*
X511349Y12535D02*
X513829Y12535D01*
X513829Y14710D02*
X511349Y14710D01*
X511349Y16885D02*
X513829Y16885D01*
X513829Y19060D02*
X511349Y19060D01*
X508829Y19490D02*
X506349Y19490D01*
X508829Y19490D02*
X508829Y6010D01*
X506349Y6010D01*
X506349Y19490D01*
X506349Y8185D02*
X508829Y8185D01*
X508829Y10360D02*
X506349Y10360D01*
X506349Y12535D02*
X508829Y12535D01*
X508829Y14710D02*
X506349Y14710D01*
X506349Y16885D02*
X508829Y16885D01*
X508829Y19060D02*
X506349Y19060D01*
X503829Y19490D02*
X501349Y19490D01*
X503829Y19490D02*
X503829Y6010D01*
X501349Y6010D01*
X501349Y19490D01*
X501349Y8185D02*
X503829Y8185D01*
X503829Y10360D02*
X501349Y10360D01*
X501349Y12535D02*
X503829Y12535D01*
X503829Y14710D02*
X501349Y14710D01*
X501349Y16885D02*
X503829Y16885D01*
X503829Y19060D02*
X501349Y19060D01*
X498829Y19490D02*
X496349Y19490D01*
X498829Y19490D02*
X498829Y6010D01*
X496349Y6010D01*
X496349Y19490D01*
X496349Y8185D02*
X498829Y8185D01*
X498829Y10360D02*
X496349Y10360D01*
X496349Y12535D02*
X498829Y12535D01*
X498829Y14710D02*
X496349Y14710D01*
X496349Y16885D02*
X498829Y16885D01*
X498829Y19060D02*
X496349Y19060D01*
X493829Y19490D02*
X491349Y19490D01*
X493829Y19490D02*
X493829Y6010D01*
X491349Y6010D01*
X491349Y19490D01*
X491349Y8185D02*
X493829Y8185D01*
X493829Y10360D02*
X491349Y10360D01*
X491349Y12535D02*
X493829Y12535D01*
X493829Y14710D02*
X491349Y14710D01*
X491349Y16885D02*
X493829Y16885D01*
X493829Y19060D02*
X491349Y19060D01*
X488829Y19490D02*
X486349Y19490D01*
X488829Y19490D02*
X488829Y6010D01*
X486349Y6010D01*
X486349Y19490D01*
X486349Y8185D02*
X488829Y8185D01*
X488829Y10360D02*
X486349Y10360D01*
X486349Y12535D02*
X488829Y12535D01*
X488829Y14710D02*
X486349Y14710D01*
X486349Y16885D02*
X488829Y16885D01*
X488829Y19060D02*
X486349Y19060D01*
X483829Y19490D02*
X481349Y19490D01*
X483829Y19490D02*
X483829Y6010D01*
X481349Y6010D01*
X481349Y19490D01*
X481349Y8185D02*
X483829Y8185D01*
X483829Y10360D02*
X481349Y10360D01*
X481349Y12535D02*
X483829Y12535D01*
X483829Y14710D02*
X481349Y14710D01*
X481349Y16885D02*
X483829Y16885D01*
X483829Y19060D02*
X481349Y19060D01*
D14*
X755089Y461000D03*
X755089Y419000D03*
X742089Y440000D03*
X395089Y419000D03*
X395089Y461000D03*
X408089Y440000D03*
D10*
X496184Y49449D02*
X506200Y49449D01*
X496184Y49449D02*
X496184Y58465D01*
X506200Y58465D01*
X506200Y49449D01*
X506200Y51590D02*
X496184Y51590D01*
X496184Y53731D02*
X506200Y53731D01*
X506200Y55872D02*
X496184Y55872D01*
X496184Y58013D02*
X506200Y58013D01*
X513184Y49449D02*
X523200Y49449D01*
X513184Y49449D02*
X513184Y58465D01*
X523200Y58465D01*
X523200Y49449D01*
X523200Y51590D02*
X513184Y51590D01*
X513184Y53731D02*
X523200Y53731D01*
X523200Y55872D02*
X513184Y55872D01*
X513184Y58013D02*
X523200Y58013D01*
D15*
X443229Y87248D02*
X443229Y94200D01*
X451181Y94200D01*
X451181Y87248D01*
X443229Y87248D01*
X443229Y89450D02*
X451181Y89450D01*
X451181Y91652D02*
X443229Y91652D01*
X443229Y93854D02*
X451181Y93854D01*
X443229Y75200D02*
X443229Y68248D01*
X443229Y75200D02*
X451181Y75200D01*
X451181Y68248D01*
X443229Y68248D01*
X443229Y70450D02*
X451181Y70450D01*
X451181Y72652D02*
X443229Y72652D01*
X443229Y74854D02*
X451181Y74854D01*
X464229Y77748D02*
X464229Y84700D01*
X472181Y84700D01*
X472181Y77748D01*
X464229Y77748D01*
X464229Y79950D02*
X472181Y79950D01*
X472181Y82152D02*
X464229Y82152D01*
X464229Y84354D02*
X472181Y84354D01*
D10*
X421407Y84142D02*
X421407Y94158D01*
X430423Y94158D01*
X430423Y84142D01*
X421407Y84142D01*
X421407Y86283D02*
X430423Y86283D01*
X430423Y88424D02*
X421407Y88424D01*
X421407Y90565D02*
X430423Y90565D01*
X430423Y92706D02*
X421407Y92706D01*
X421407Y77158D02*
X421407Y67142D01*
X421407Y77158D02*
X430423Y77158D01*
X430423Y67142D01*
X421407Y67142D01*
X421407Y69283D02*
X430423Y69283D01*
X430423Y71424D02*
X421407Y71424D01*
X421407Y73565D02*
X430423Y73565D01*
X430423Y75706D02*
X421407Y75706D01*
X453591Y138792D02*
X453591Y148808D01*
X462607Y148808D01*
X462607Y138792D01*
X453591Y138792D01*
X453591Y140933D02*
X462607Y140933D01*
X462607Y143074D02*
X453591Y143074D01*
X453591Y145215D02*
X462607Y145215D01*
X462607Y147356D02*
X453591Y147356D01*
X453591Y131808D02*
X453591Y121792D01*
X453591Y131808D02*
X462607Y131808D01*
X462607Y121792D01*
X453591Y121792D01*
X453591Y123933D02*
X462607Y123933D01*
X462607Y126074D02*
X453591Y126074D01*
X453591Y128215D02*
X462607Y128215D01*
X462607Y130356D02*
X453591Y130356D01*
D16*
X566981Y104258D02*
X566981Y99242D01*
X566981Y104258D02*
X577997Y104258D01*
X577997Y99242D01*
X566981Y99242D01*
X566981Y101383D02*
X577997Y101383D01*
X577997Y103524D02*
X566981Y103524D01*
X566981Y91558D02*
X566981Y86542D01*
X566981Y91558D02*
X577997Y91558D01*
X577997Y86542D01*
X566981Y86542D01*
X566981Y88683D02*
X577997Y88683D01*
X577997Y90824D02*
X566981Y90824D01*
X566981Y78858D02*
X566981Y73842D01*
X566981Y78858D02*
X577997Y78858D01*
X577997Y73842D01*
X566981Y73842D01*
X566981Y75983D02*
X577997Y75983D01*
X577997Y78124D02*
X566981Y78124D01*
X566981Y66158D02*
X566981Y61142D01*
X566981Y66158D02*
X577997Y66158D01*
X577997Y61142D01*
X566981Y61142D01*
X566981Y63283D02*
X577997Y63283D01*
X577997Y65424D02*
X566981Y65424D01*
X622981Y66158D02*
X622981Y61142D01*
X622981Y66158D02*
X633997Y66158D01*
X633997Y61142D01*
X622981Y61142D01*
X622981Y63283D02*
X633997Y63283D01*
X633997Y65424D02*
X622981Y65424D01*
X622981Y73842D02*
X622981Y78858D01*
X633997Y78858D01*
X633997Y73842D01*
X622981Y73842D01*
X622981Y75983D02*
X633997Y75983D01*
X633997Y78124D02*
X622981Y78124D01*
X622981Y86542D02*
X622981Y91558D01*
X633997Y91558D01*
X633997Y86542D01*
X622981Y86542D01*
X622981Y88683D02*
X633997Y88683D01*
X633997Y90824D02*
X622981Y90824D01*
X622981Y99242D02*
X622981Y104258D01*
X633997Y104258D01*
X633997Y99242D01*
X622981Y99242D01*
X622981Y101383D02*
X633997Y101383D01*
X633997Y103524D02*
X622981Y103524D01*
D10*
X593997Y127208D02*
X583981Y127208D01*
X593997Y127208D02*
X593997Y118192D01*
X583981Y118192D01*
X583981Y127208D01*
X583981Y120333D02*
X593997Y120333D01*
X593997Y122474D02*
X583981Y122474D01*
X583981Y124615D02*
X593997Y124615D01*
X593997Y126756D02*
X583981Y126756D01*
X576997Y127208D02*
X566981Y127208D01*
X576997Y127208D02*
X576997Y118192D01*
X566981Y118192D01*
X566981Y127208D01*
X566981Y120333D02*
X576997Y120333D01*
X576997Y122474D02*
X566981Y122474D01*
X566981Y124615D02*
X576997Y124615D01*
X576997Y126756D02*
X566981Y126756D01*
D17*
X648466Y346343D02*
X648466Y352797D01*
X648466Y346343D02*
X642512Y346343D01*
X642512Y352797D01*
X648466Y352797D01*
X648466Y348543D02*
X642512Y348543D01*
X642512Y350743D02*
X648466Y350743D01*
X642512Y359843D02*
X642512Y366297D01*
X648466Y366297D01*
X648466Y359843D01*
X642512Y359843D01*
X642512Y362043D02*
X648466Y362043D01*
X648466Y364243D02*
X642512Y364243D01*
X652512Y366297D02*
X652512Y359843D01*
X652512Y366297D02*
X658466Y366297D01*
X658466Y359843D01*
X652512Y359843D01*
X652512Y362043D02*
X658466Y362043D01*
X658466Y364243D02*
X652512Y364243D01*
X658466Y352797D02*
X658466Y346343D01*
X652512Y346343D01*
X652512Y352797D01*
X658466Y352797D01*
X658466Y348543D02*
X652512Y348543D01*
X652512Y350743D02*
X658466Y350743D01*
D10*
X638351Y346778D02*
X638351Y356794D01*
X638351Y346778D02*
X629335Y346778D01*
X629335Y356794D01*
X638351Y356794D01*
X638351Y348919D02*
X629335Y348919D01*
X629335Y351060D02*
X638351Y351060D01*
X638351Y353201D02*
X629335Y353201D01*
X629335Y355342D02*
X638351Y355342D01*
X638351Y363778D02*
X638351Y373794D01*
X638351Y363778D02*
X629335Y363778D01*
X629335Y373794D01*
X638351Y373794D01*
X638351Y365919D02*
X629335Y365919D01*
X629335Y368060D02*
X638351Y368060D01*
X638351Y370201D02*
X629335Y370201D01*
X629335Y372342D02*
X638351Y372342D01*
X623664Y363677D02*
X623664Y353661D01*
X614648Y353661D01*
X614648Y363677D01*
X623664Y363677D01*
X623664Y355802D02*
X614648Y355802D01*
X614648Y357943D02*
X623664Y357943D01*
X623664Y360084D02*
X614648Y360084D01*
X614648Y362225D02*
X623664Y362225D01*
X623664Y370661D02*
X623664Y380677D01*
X623664Y370661D02*
X614648Y370661D01*
X614648Y380677D01*
X623664Y380677D01*
X623664Y372802D02*
X614648Y372802D01*
X614648Y374943D02*
X623664Y374943D01*
X623664Y377084D02*
X614648Y377084D01*
X614648Y379225D02*
X623664Y379225D01*
D18*
X472120Y147068D02*
X472120Y142532D01*
X472120Y147068D02*
X483156Y147068D01*
X483156Y142532D01*
X472120Y142532D01*
X472120Y144654D02*
X483156Y144654D01*
X483156Y146776D02*
X472120Y146776D01*
X472120Y137568D02*
X472120Y133032D01*
X472120Y137568D02*
X483156Y137568D01*
X483156Y133032D01*
X472120Y133032D01*
X472120Y135154D02*
X483156Y135154D01*
X483156Y137276D02*
X472120Y137276D01*
X472120Y128068D02*
X472120Y123532D01*
X472120Y128068D02*
X483156Y128068D01*
X483156Y123532D01*
X472120Y123532D01*
X472120Y125654D02*
X483156Y125654D01*
X483156Y127776D02*
X472120Y127776D01*
X498122Y128068D02*
X498122Y123532D01*
X498122Y128068D02*
X509158Y128068D01*
X509158Y123532D01*
X498122Y123532D01*
X498122Y125654D02*
X509158Y125654D01*
X509158Y127776D02*
X498122Y127776D01*
X498122Y142532D02*
X498122Y147068D01*
X509158Y147068D01*
X509158Y142532D01*
X498122Y142532D01*
X498122Y144654D02*
X509158Y144654D01*
X509158Y146776D02*
X498122Y146776D01*
D10*
X517261Y148908D02*
X517261Y138892D01*
X517261Y148908D02*
X526277Y148908D01*
X526277Y138892D01*
X517261Y138892D01*
X517261Y141033D02*
X526277Y141033D01*
X526277Y143174D02*
X517261Y143174D01*
X517261Y145315D02*
X526277Y145315D01*
X526277Y147456D02*
X517261Y147456D01*
X517261Y131908D02*
X517261Y121892D01*
X517261Y131908D02*
X526277Y131908D01*
X526277Y121892D01*
X517261Y121892D01*
X517261Y124033D02*
X526277Y124033D01*
X526277Y126174D02*
X517261Y126174D01*
X517261Y128315D02*
X526277Y128315D01*
X526277Y130456D02*
X517261Y130456D01*
X606981Y118192D02*
X616997Y118192D01*
X606981Y118192D02*
X606981Y127208D01*
X616997Y127208D01*
X616997Y118192D01*
X616997Y120333D02*
X606981Y120333D01*
X606981Y122474D02*
X616997Y122474D01*
X616997Y124615D02*
X606981Y124615D01*
X606981Y126756D02*
X616997Y126756D01*
X623981Y118192D02*
X633997Y118192D01*
X623981Y118192D02*
X623981Y127208D01*
X633997Y127208D01*
X633997Y118192D01*
X633997Y120333D02*
X623981Y120333D01*
X623981Y122474D02*
X633997Y122474D01*
X633997Y124615D02*
X623981Y124615D01*
X623981Y126756D02*
X633997Y126756D01*
D15*
X514214Y95449D02*
X507262Y95449D01*
X514214Y95449D02*
X514214Y87497D01*
X507262Y87497D01*
X507262Y95449D01*
X507262Y89699D02*
X514214Y89699D01*
X514214Y91901D02*
X507262Y91901D01*
X507262Y94103D02*
X514214Y94103D01*
X495214Y95449D02*
X488262Y95449D01*
X495214Y95449D02*
X495214Y87497D01*
X488262Y87497D01*
X488262Y95449D01*
X488262Y89699D02*
X495214Y89699D01*
X495214Y91901D02*
X488262Y91901D01*
X488262Y94103D02*
X495214Y94103D01*
X497762Y74449D02*
X504714Y74449D01*
X504714Y66497D01*
X497762Y66497D01*
X497762Y74449D01*
X497762Y68699D02*
X504714Y68699D01*
X504714Y70901D02*
X497762Y70901D01*
X497762Y73103D02*
X504714Y73103D01*
D16*
X717781Y269208D02*
X722797Y269208D01*
X722797Y264192D01*
X717781Y264192D01*
X717781Y269208D01*
X717781Y266333D02*
X722797Y266333D01*
X722797Y268474D02*
X717781Y268474D01*
X712797Y269208D02*
X707781Y269208D01*
X712797Y269208D02*
X712797Y264192D01*
X707781Y264192D01*
X707781Y269208D01*
X707781Y266333D02*
X712797Y266333D01*
X712797Y268474D02*
X707781Y268474D01*
D19*
X737196Y636040D02*
X744184Y636040D01*
X737196Y636040D02*
X737196Y643028D01*
X744184Y643028D01*
X744184Y636040D01*
X744184Y640109D02*
X737196Y640109D01*
X737196Y618500D02*
X744184Y618500D01*
X737196Y618500D02*
X737196Y625488D01*
X744184Y625488D01*
X744184Y618500D01*
X744184Y622569D02*
X737196Y622569D01*
D20*
X609072Y316226D02*
X602106Y316226D01*
X609072Y316226D02*
X609072Y314414D01*
X602106Y314414D01*
X602106Y316226D01*
X602106Y321226D02*
X609072Y321226D01*
X609072Y319414D01*
X602106Y319414D01*
X602106Y321226D01*
X602106Y326226D02*
X609072Y326226D01*
X609072Y324414D01*
X602106Y324414D01*
X602106Y326226D01*
X602106Y331226D02*
X609072Y331226D01*
X609072Y329414D01*
X602106Y329414D01*
X602106Y331226D01*
X602106Y336226D02*
X609072Y336226D01*
X609072Y334414D01*
X602106Y334414D01*
X602106Y336226D01*
X602106Y341226D02*
X609072Y341226D01*
X609072Y339414D01*
X602106Y339414D01*
X602106Y341226D01*
X602106Y346226D02*
X609072Y346226D01*
X609072Y344414D01*
X602106Y344414D01*
X602106Y346226D01*
X602106Y351226D02*
X609072Y351226D01*
X609072Y349414D01*
X602106Y349414D01*
X602106Y351226D01*
X602106Y356226D02*
X609072Y356226D01*
X609072Y354414D01*
X602106Y354414D01*
X602106Y356226D01*
X602106Y361226D02*
X609072Y361226D01*
X609072Y359414D01*
X602106Y359414D01*
X602106Y361226D01*
X597183Y364337D02*
X597183Y371303D01*
X598995Y371303D01*
X598995Y364337D01*
X597183Y364337D01*
X597183Y366527D02*
X598995Y366527D01*
X598995Y368717D02*
X597183Y368717D01*
X597183Y370907D02*
X598995Y370907D01*
X592183Y371303D02*
X592183Y364337D01*
X592183Y371303D02*
X593995Y371303D01*
X593995Y364337D01*
X592183Y364337D01*
X592183Y366527D02*
X593995Y366527D01*
X593995Y368717D02*
X592183Y368717D01*
X592183Y370907D02*
X593995Y370907D01*
X587183Y371303D02*
X587183Y364337D01*
X587183Y371303D02*
X588995Y371303D01*
X588995Y364337D01*
X587183Y364337D01*
X587183Y366527D02*
X588995Y366527D01*
X588995Y368717D02*
X587183Y368717D01*
X587183Y370907D02*
X588995Y370907D01*
X582183Y371303D02*
X582183Y364337D01*
X582183Y371303D02*
X583995Y371303D01*
X583995Y364337D01*
X582183Y364337D01*
X582183Y366527D02*
X583995Y366527D01*
X583995Y368717D02*
X582183Y368717D01*
X582183Y370907D02*
X583995Y370907D01*
X577183Y371303D02*
X577183Y364337D01*
X577183Y371303D02*
X578995Y371303D01*
X578995Y364337D01*
X577183Y364337D01*
X577183Y366527D02*
X578995Y366527D01*
X578995Y368717D02*
X577183Y368717D01*
X577183Y370907D02*
X578995Y370907D01*
X572183Y371303D02*
X572183Y364337D01*
X572183Y371303D02*
X573995Y371303D01*
X573995Y364337D01*
X572183Y364337D01*
X572183Y366527D02*
X573995Y366527D01*
X573995Y368717D02*
X572183Y368717D01*
X572183Y370907D02*
X573995Y370907D01*
X567183Y371303D02*
X567183Y364337D01*
X567183Y371303D02*
X568995Y371303D01*
X568995Y364337D01*
X567183Y364337D01*
X567183Y366527D02*
X568995Y366527D01*
X568995Y368717D02*
X567183Y368717D01*
X567183Y370907D02*
X568995Y370907D01*
X562183Y371303D02*
X562183Y364337D01*
X562183Y371303D02*
X563995Y371303D01*
X563995Y364337D01*
X562183Y364337D01*
X562183Y366527D02*
X563995Y366527D01*
X563995Y368717D02*
X562183Y368717D01*
X562183Y370907D02*
X563995Y370907D01*
X557183Y371303D02*
X557183Y364337D01*
X557183Y371303D02*
X558995Y371303D01*
X558995Y364337D01*
X557183Y364337D01*
X557183Y366527D02*
X558995Y366527D01*
X558995Y368717D02*
X557183Y368717D01*
X557183Y370907D02*
X558995Y370907D01*
X552183Y371303D02*
X552183Y364337D01*
X552183Y371303D02*
X553995Y371303D01*
X553995Y364337D01*
X552183Y364337D01*
X552183Y366527D02*
X553995Y366527D01*
X553995Y368717D02*
X552183Y368717D01*
X552183Y370907D02*
X553995Y370907D01*
X549072Y359414D02*
X542106Y359414D01*
X542106Y361226D01*
X549072Y361226D01*
X549072Y359414D01*
X549072Y354414D02*
X542106Y354414D01*
X542106Y356226D01*
X549072Y356226D01*
X549072Y354414D01*
X549072Y349414D02*
X542106Y349414D01*
X542106Y351226D01*
X549072Y351226D01*
X549072Y349414D01*
X549072Y344414D02*
X542106Y344414D01*
X542106Y346226D01*
X549072Y346226D01*
X549072Y344414D01*
X549072Y339414D02*
X542106Y339414D01*
X542106Y341226D01*
X549072Y341226D01*
X549072Y339414D01*
X549072Y334414D02*
X542106Y334414D01*
X542106Y336226D01*
X549072Y336226D01*
X549072Y334414D01*
X549072Y329414D02*
X542106Y329414D01*
X542106Y331226D01*
X549072Y331226D01*
X549072Y329414D01*
X549072Y324414D02*
X542106Y324414D01*
X542106Y326226D01*
X549072Y326226D01*
X549072Y324414D01*
X549072Y319414D02*
X542106Y319414D01*
X542106Y321226D01*
X549072Y321226D01*
X549072Y319414D01*
X549072Y314414D02*
X542106Y314414D01*
X542106Y316226D01*
X549072Y316226D01*
X549072Y314414D01*
X553995Y311303D02*
X553995Y304337D01*
X552183Y304337D01*
X552183Y311303D01*
X553995Y311303D01*
X553995Y306527D02*
X552183Y306527D01*
X552183Y308717D02*
X553995Y308717D01*
X553995Y310907D02*
X552183Y310907D01*
X558995Y311303D02*
X558995Y304337D01*
X557183Y304337D01*
X557183Y311303D01*
X558995Y311303D01*
X558995Y306527D02*
X557183Y306527D01*
X557183Y308717D02*
X558995Y308717D01*
X558995Y310907D02*
X557183Y310907D01*
X563995Y311303D02*
X563995Y304337D01*
X562183Y304337D01*
X562183Y311303D01*
X563995Y311303D01*
X563995Y306527D02*
X562183Y306527D01*
X562183Y308717D02*
X563995Y308717D01*
X563995Y310907D02*
X562183Y310907D01*
X568995Y311303D02*
X568995Y304337D01*
X567183Y304337D01*
X567183Y311303D01*
X568995Y311303D01*
X568995Y306527D02*
X567183Y306527D01*
X567183Y308717D02*
X568995Y308717D01*
X568995Y310907D02*
X567183Y310907D01*
X573995Y311303D02*
X573995Y304337D01*
X572183Y304337D01*
X572183Y311303D01*
X573995Y311303D01*
X573995Y306527D02*
X572183Y306527D01*
X572183Y308717D02*
X573995Y308717D01*
X573995Y310907D02*
X572183Y310907D01*
X578995Y311303D02*
X578995Y304337D01*
X577183Y304337D01*
X577183Y311303D01*
X578995Y311303D01*
X578995Y306527D02*
X577183Y306527D01*
X577183Y308717D02*
X578995Y308717D01*
X578995Y310907D02*
X577183Y310907D01*
X583995Y311303D02*
X583995Y304337D01*
X582183Y304337D01*
X582183Y311303D01*
X583995Y311303D01*
X583995Y306527D02*
X582183Y306527D01*
X582183Y308717D02*
X583995Y308717D01*
X583995Y310907D02*
X582183Y310907D01*
X588995Y311303D02*
X588995Y304337D01*
X587183Y304337D01*
X587183Y311303D01*
X588995Y311303D01*
X588995Y306527D02*
X587183Y306527D01*
X587183Y308717D02*
X588995Y308717D01*
X588995Y310907D02*
X587183Y310907D01*
X593995Y311303D02*
X593995Y304337D01*
X592183Y304337D01*
X592183Y311303D01*
X593995Y311303D01*
X593995Y306527D02*
X592183Y306527D01*
X592183Y308717D02*
X593995Y308717D01*
X593995Y310907D02*
X592183Y310907D01*
X598995Y311303D02*
X598995Y304337D01*
X597183Y304337D01*
X597183Y311303D01*
X598995Y311303D01*
X598995Y306527D02*
X597183Y306527D01*
X597183Y308717D02*
X598995Y308717D01*
X598995Y310907D02*
X597183Y310907D01*
D21*
X593106Y355337D02*
X558072Y355337D01*
X593106Y355337D02*
X593106Y320303D01*
X558072Y320303D01*
X558072Y355337D01*
X558072Y322427D02*
X593106Y322427D01*
X593106Y324551D02*
X558072Y324551D01*
X558072Y326675D02*
X593106Y326675D01*
X593106Y328799D02*
X558072Y328799D01*
X558072Y330923D02*
X593106Y330923D01*
X593106Y333047D02*
X558072Y333047D01*
X558072Y335171D02*
X593106Y335171D01*
X593106Y337295D02*
X558072Y337295D01*
X558072Y339419D02*
X593106Y339419D01*
X593106Y341543D02*
X558072Y341543D01*
X558072Y343667D02*
X593106Y343667D01*
X593106Y345791D02*
X558072Y345791D01*
X558072Y347915D02*
X593106Y347915D01*
X593106Y350039D02*
X558072Y350039D01*
X558072Y352163D02*
X593106Y352163D01*
X593106Y354287D02*
X558072Y354287D01*
D10*
X613651Y417055D02*
X623667Y417055D01*
X623667Y408039D01*
X613651Y408039D01*
X613651Y417055D01*
X613651Y410180D02*
X623667Y410180D01*
X623667Y412321D02*
X613651Y412321D01*
X613651Y414462D02*
X623667Y414462D01*
X623667Y416603D02*
X613651Y416603D01*
X606667Y417055D02*
X596651Y417055D01*
X606667Y417055D02*
X606667Y408039D01*
X596651Y408039D01*
X596651Y417055D01*
X596651Y410180D02*
X606667Y410180D01*
X606667Y412321D02*
X596651Y412321D01*
X596651Y414462D02*
X606667Y414462D01*
X606667Y416603D02*
X596651Y416603D01*
X566941Y407759D02*
X556925Y407759D01*
X556925Y416775D01*
X566941Y416775D01*
X566941Y407759D01*
X566941Y409900D02*
X556925Y409900D01*
X556925Y412041D02*
X566941Y412041D01*
X566941Y414182D02*
X556925Y414182D01*
X556925Y416323D02*
X566941Y416323D01*
X573925Y407759D02*
X583941Y407759D01*
X573925Y407759D02*
X573925Y416775D01*
X583941Y416775D01*
X583941Y407759D01*
X583941Y409900D02*
X573925Y409900D01*
X573925Y412041D02*
X583941Y412041D01*
X583941Y414182D02*
X573925Y414182D01*
X573925Y416323D02*
X583941Y416323D01*
D22*
X719575Y460216D02*
X726243Y460216D01*
X719575Y460216D02*
X719575Y474504D01*
X726243Y474504D01*
X726243Y460216D01*
X726243Y462328D02*
X719575Y462328D01*
X719575Y464440D02*
X726243Y464440D01*
X726243Y466552D02*
X719575Y466552D01*
X719575Y468664D02*
X726243Y468664D01*
X726243Y470776D02*
X719575Y470776D01*
X719575Y472888D02*
X726243Y472888D01*
X726243Y404336D02*
X719575Y404336D01*
X719575Y418624D01*
X726243Y418624D01*
X726243Y404336D01*
X726243Y406448D02*
X719575Y406448D01*
X719575Y408560D02*
X726243Y408560D01*
X726243Y410672D02*
X719575Y410672D01*
X719575Y412784D02*
X726243Y412784D01*
X726243Y414896D02*
X719575Y414896D01*
X719575Y417008D02*
X726243Y417008D01*
X688143Y460216D02*
X681475Y460216D01*
X681475Y474504D01*
X688143Y474504D01*
X688143Y460216D01*
X688143Y462328D02*
X681475Y462328D01*
X681475Y464440D02*
X688143Y464440D01*
X688143Y466552D02*
X681475Y466552D01*
X681475Y468664D02*
X688143Y468664D01*
X688143Y470776D02*
X681475Y470776D01*
X681475Y472888D02*
X688143Y472888D01*
X688143Y404336D02*
X681475Y404336D01*
X681475Y418624D01*
X688143Y418624D01*
X688143Y404336D01*
X688143Y406448D02*
X681475Y406448D01*
X681475Y408560D02*
X688143Y408560D01*
X688143Y410672D02*
X681475Y410672D01*
X681475Y412784D02*
X688143Y412784D01*
X688143Y414896D02*
X681475Y414896D01*
X681475Y417008D02*
X688143Y417008D01*
D16*
X525926Y360986D02*
X525926Y355970D01*
X520910Y355970D01*
X520910Y360986D01*
X525926Y360986D01*
X525926Y358111D02*
X520910Y358111D01*
X520910Y360252D02*
X525926Y360252D01*
X525926Y365970D02*
X525926Y370986D01*
X525926Y365970D02*
X520910Y365970D01*
X520910Y370986D01*
X525926Y370986D01*
X525926Y368111D02*
X520910Y368111D01*
X520910Y370252D02*
X525926Y370252D01*
D10*
X521931Y350989D02*
X531947Y350989D01*
X531947Y341973D01*
X521931Y341973D01*
X521931Y350989D01*
X521931Y344114D02*
X531947Y344114D01*
X531947Y346255D02*
X521931Y346255D01*
X521931Y348396D02*
X531947Y348396D01*
X531947Y350537D02*
X521931Y350537D01*
X514947Y350989D02*
X504931Y350989D01*
X514947Y350989D02*
X514947Y341973D01*
X504931Y341973D01*
X504931Y350989D01*
X504931Y344114D02*
X514947Y344114D01*
X514947Y346255D02*
X504931Y346255D01*
X504931Y348396D02*
X514947Y348396D01*
X514947Y350537D02*
X504931Y350537D01*
D16*
X536086Y355890D02*
X536086Y360906D01*
X536086Y355890D02*
X531070Y355890D01*
X531070Y360906D01*
X536086Y360906D01*
X536086Y358031D02*
X531070Y358031D01*
X531070Y360172D02*
X536086Y360172D01*
X536086Y365890D02*
X536086Y370906D01*
X536086Y365890D02*
X531070Y365890D01*
X531070Y370906D01*
X536086Y370906D01*
X536086Y368031D02*
X531070Y368031D01*
X531070Y370172D02*
X536086Y370172D01*
X569191Y382238D02*
X574207Y382238D01*
X574207Y377222D01*
X569191Y377222D01*
X569191Y382238D01*
X569191Y379363D02*
X574207Y379363D01*
X574207Y381504D02*
X569191Y381504D01*
X564207Y382238D02*
X559191Y382238D01*
X564207Y382238D02*
X564207Y377222D01*
X559191Y377222D01*
X559191Y382238D01*
X559191Y379363D02*
X564207Y379363D01*
X564207Y381504D02*
X559191Y381504D01*
X569191Y391458D02*
X574207Y391458D01*
X574207Y386442D01*
X569191Y386442D01*
X569191Y391458D01*
X569191Y388583D02*
X574207Y388583D01*
X574207Y390724D02*
X569191Y390724D01*
X564207Y391458D02*
X559191Y391458D01*
X564207Y391458D02*
X564207Y386442D01*
X559191Y386442D01*
X559191Y391458D01*
X559191Y388583D02*
X564207Y388583D01*
X564207Y390724D02*
X559191Y390724D01*
X532018Y337153D02*
X527002Y337153D01*
X532018Y337153D02*
X532018Y332137D01*
X527002Y332137D01*
X527002Y337153D01*
X527002Y334278D02*
X532018Y334278D01*
X532018Y336419D02*
X527002Y336419D01*
X522018Y337153D02*
X517002Y337153D01*
X522018Y337153D02*
X522018Y332137D01*
X517002Y332137D01*
X517002Y337153D01*
X517002Y334278D02*
X522018Y334278D01*
X522018Y336419D02*
X517002Y336419D01*
X570512Y297707D02*
X575528Y297707D01*
X575528Y292691D01*
X570512Y292691D01*
X570512Y297707D01*
X570512Y294832D02*
X575528Y294832D01*
X575528Y296973D02*
X570512Y296973D01*
X565528Y297707D02*
X560512Y297707D01*
X565528Y297707D02*
X565528Y292691D01*
X560512Y292691D01*
X560512Y297707D01*
X560512Y294832D02*
X565528Y294832D01*
X565528Y296973D02*
X560512Y296973D01*
X570385Y288385D02*
X575401Y288385D01*
X575401Y283369D01*
X570385Y283369D01*
X570385Y288385D01*
X570385Y285510D02*
X575401Y285510D01*
X575401Y287651D02*
X570385Y287651D01*
X565401Y288385D02*
X560385Y288385D01*
X565401Y288385D02*
X565401Y283369D01*
X560385Y283369D01*
X560385Y288385D01*
X560385Y285510D02*
X565401Y285510D01*
X565401Y287651D02*
X560385Y287651D01*
D10*
X526359Y326555D02*
X516343Y326555D01*
X526359Y326555D02*
X526359Y317539D01*
X516343Y317539D01*
X516343Y326555D01*
X516343Y319680D02*
X526359Y319680D01*
X526359Y321821D02*
X516343Y321821D01*
X516343Y323962D02*
X526359Y323962D01*
X526359Y326103D02*
X516343Y326103D01*
X509359Y326555D02*
X499343Y326555D01*
X509359Y326555D02*
X509359Y317539D01*
X499343Y317539D01*
X499343Y326555D01*
X499343Y319680D02*
X509359Y319680D01*
X509359Y321821D02*
X499343Y321821D01*
X499343Y323962D02*
X509359Y323962D01*
X509359Y326103D02*
X499343Y326103D01*
D16*
X545814Y385963D02*
X545814Y390979D01*
X545814Y385963D02*
X540798Y385963D01*
X540798Y390979D01*
X545814Y390979D01*
X545814Y388104D02*
X540798Y388104D01*
X540798Y390245D02*
X545814Y390245D01*
X545814Y395963D02*
X545814Y400979D01*
X545814Y395963D02*
X540798Y395963D01*
X540798Y400979D01*
X545814Y400979D01*
X545814Y398104D02*
X540798Y398104D01*
X540798Y400245D02*
X545814Y400245D01*
X534384Y391208D02*
X534384Y386192D01*
X529368Y386192D01*
X529368Y391208D01*
X534384Y391208D01*
X534384Y388333D02*
X529368Y388333D01*
X529368Y390474D02*
X534384Y390474D01*
X534384Y396192D02*
X534384Y401208D01*
X534384Y396192D02*
X529368Y396192D01*
X529368Y401208D01*
X534384Y401208D01*
X534384Y398333D02*
X529368Y398333D01*
X529368Y400474D02*
X534384Y400474D01*
D19*
X711796Y636040D02*
X718784Y636040D01*
X711796Y636040D02*
X711796Y643028D01*
X718784Y643028D01*
X718784Y636040D01*
X718784Y640109D02*
X711796Y640109D01*
X711796Y618500D02*
X718784Y618500D01*
X711796Y618500D02*
X711796Y625488D01*
X718784Y625488D01*
X718784Y618500D01*
X718784Y622569D02*
X711796Y622569D01*
D16*
X717797Y505508D02*
X717797Y500492D01*
X712781Y500492D01*
X712781Y505508D01*
X717797Y505508D01*
X717797Y502633D02*
X712781Y502633D01*
X712781Y504774D02*
X717797Y504774D01*
X717797Y510492D02*
X717797Y515508D01*
X717797Y510492D02*
X712781Y510492D01*
X712781Y515508D01*
X717797Y515508D01*
X717797Y512633D02*
X712781Y512633D01*
X712781Y514774D02*
X717797Y514774D01*
X430697Y281908D02*
X425681Y281908D01*
X430697Y281908D02*
X430697Y276892D01*
X425681Y276892D01*
X425681Y281908D01*
X425681Y279033D02*
X430697Y279033D01*
X430697Y281174D02*
X425681Y281174D01*
X420697Y281908D02*
X415681Y281908D01*
X420697Y281908D02*
X420697Y276892D01*
X415681Y276892D01*
X415681Y281908D01*
X415681Y279033D02*
X420697Y279033D01*
X420697Y281174D02*
X415681Y281174D01*
X425681Y269208D02*
X430697Y269208D01*
X430697Y264192D01*
X425681Y264192D01*
X425681Y269208D01*
X425681Y266333D02*
X430697Y266333D01*
X430697Y268474D02*
X425681Y268474D01*
X420697Y269208D02*
X415681Y269208D01*
X420697Y269208D02*
X420697Y264192D01*
X415681Y264192D01*
X415681Y269208D01*
X415681Y266333D02*
X420697Y266333D01*
X420697Y268474D02*
X415681Y268474D01*
X425681Y243808D02*
X430697Y243808D01*
X430697Y238792D01*
X425681Y238792D01*
X425681Y243808D01*
X425681Y240933D02*
X430697Y240933D01*
X430697Y243074D02*
X425681Y243074D01*
X420697Y243808D02*
X415681Y243808D01*
X420697Y243808D02*
X420697Y238792D01*
X415681Y238792D01*
X415681Y243808D01*
X415681Y240933D02*
X420697Y240933D01*
X420697Y243074D02*
X415681Y243074D01*
X425681Y231108D02*
X430697Y231108D01*
X430697Y226092D01*
X425681Y226092D01*
X425681Y231108D01*
X425681Y228233D02*
X430697Y228233D01*
X430697Y230374D02*
X425681Y230374D01*
X420697Y231108D02*
X415681Y231108D01*
X420697Y231108D02*
X420697Y226092D01*
X415681Y226092D01*
X415681Y231108D01*
X415681Y228233D02*
X420697Y228233D01*
X420697Y230374D02*
X415681Y230374D01*
X425681Y256508D02*
X430697Y256508D01*
X430697Y251492D01*
X425681Y251492D01*
X425681Y256508D01*
X425681Y253633D02*
X430697Y253633D01*
X430697Y255774D02*
X425681Y255774D01*
X420697Y256508D02*
X415681Y256508D01*
X420697Y256508D02*
X420697Y251492D01*
X415681Y251492D01*
X415681Y256508D01*
X415681Y253633D02*
X420697Y253633D01*
X420697Y255774D02*
X415681Y255774D01*
X707781Y289592D02*
X712797Y289592D01*
X707781Y289592D02*
X707781Y294608D01*
X712797Y294608D01*
X712797Y289592D01*
X712797Y291733D02*
X707781Y291733D01*
X707781Y293874D02*
X712797Y293874D01*
X717781Y289592D02*
X722797Y289592D01*
X717781Y289592D02*
X717781Y294608D01*
X722797Y294608D01*
X722797Y289592D01*
X722797Y291733D02*
X717781Y291733D01*
X717781Y293874D02*
X722797Y293874D01*
X692397Y500492D02*
X692397Y505508D01*
X692397Y500492D02*
X687381Y500492D01*
X687381Y505508D01*
X692397Y505508D01*
X692397Y502633D02*
X687381Y502633D01*
X687381Y504774D02*
X692397Y504774D01*
X692397Y510492D02*
X692397Y515508D01*
X692397Y510492D02*
X687381Y510492D01*
X687381Y515508D01*
X692397Y515508D01*
X692397Y512633D02*
X687381Y512633D01*
X687381Y514774D02*
X692397Y514774D01*
X707781Y340392D02*
X712797Y340392D01*
X707781Y340392D02*
X707781Y345408D01*
X712797Y345408D01*
X712797Y340392D01*
X712797Y342533D02*
X707781Y342533D01*
X707781Y344674D02*
X712797Y344674D01*
X717781Y340392D02*
X722797Y340392D01*
X717781Y340392D02*
X717781Y345408D01*
X722797Y345408D01*
X722797Y340392D01*
X722797Y342533D02*
X717781Y342533D01*
X717781Y344674D02*
X722797Y344674D01*
D19*
X693384Y636040D02*
X686396Y636040D01*
X686396Y643028D01*
X693384Y643028D01*
X693384Y636040D01*
X693384Y640109D02*
X686396Y640109D01*
X686396Y618500D02*
X693384Y618500D01*
X686396Y618500D02*
X686396Y625488D01*
X693384Y625488D01*
X693384Y618500D01*
X693384Y622569D02*
X686396Y622569D01*
D16*
X679697Y505508D02*
X679697Y500492D01*
X674681Y500492D01*
X674681Y505508D01*
X679697Y505508D01*
X679697Y502633D02*
X674681Y502633D01*
X674681Y504774D02*
X679697Y504774D01*
X679697Y510492D02*
X679697Y515508D01*
X679697Y510492D02*
X674681Y510492D01*
X674681Y515508D01*
X679697Y515508D01*
X679697Y512633D02*
X674681Y512633D01*
X674681Y514774D02*
X679697Y514774D01*
X707781Y314992D02*
X712797Y314992D01*
X707781Y314992D02*
X707781Y320008D01*
X712797Y320008D01*
X712797Y314992D01*
X712797Y317133D02*
X707781Y317133D01*
X707781Y319274D02*
X712797Y319274D01*
X717781Y314992D02*
X722797Y314992D01*
X717781Y314992D02*
X717781Y320008D01*
X722797Y320008D01*
X722797Y314992D01*
X722797Y317133D02*
X717781Y317133D01*
X717781Y319274D02*
X722797Y319274D01*
D19*
X667984Y636040D02*
X660996Y636040D01*
X660996Y643028D01*
X667984Y643028D01*
X667984Y636040D01*
X667984Y640109D02*
X660996Y640109D01*
X660996Y618500D02*
X667984Y618500D01*
X660996Y618500D02*
X660996Y625488D01*
X667984Y625488D01*
X667984Y618500D01*
X667984Y622569D02*
X660996Y622569D01*
D16*
X590725Y395637D02*
X585709Y395637D01*
X585709Y400653D01*
X590725Y400653D01*
X590725Y395637D01*
X590725Y397778D02*
X585709Y397778D01*
X585709Y399919D02*
X590725Y399919D01*
X595709Y395637D02*
X600725Y395637D01*
X595709Y395637D02*
X595709Y400653D01*
X600725Y400653D01*
X600725Y395637D01*
X600725Y397778D02*
X595709Y397778D01*
X595709Y399919D02*
X600725Y399919D01*
X585493Y386442D02*
X580477Y386442D01*
X580477Y391458D01*
X585493Y391458D01*
X585493Y386442D01*
X585493Y388583D02*
X580477Y388583D01*
X580477Y390724D02*
X585493Y390724D01*
X590477Y386442D02*
X595493Y386442D01*
X590477Y386442D02*
X590477Y391458D01*
X595493Y391458D01*
X595493Y386442D01*
X595493Y388583D02*
X590477Y388583D01*
X590477Y390724D02*
X595493Y390724D01*
X612600Y426967D02*
X617616Y426967D01*
X617616Y421951D01*
X612600Y421951D01*
X612600Y426967D01*
X612600Y424092D02*
X617616Y424092D01*
X617616Y426233D02*
X612600Y426233D01*
X607616Y426967D02*
X602600Y426967D01*
X607616Y426967D02*
X607616Y421951D01*
X602600Y421951D01*
X602600Y426967D01*
X602600Y424092D02*
X607616Y424092D01*
X607616Y426233D02*
X602600Y426233D01*
X578094Y426713D02*
X573078Y426713D01*
X578094Y426713D02*
X578094Y421697D01*
X573078Y421697D01*
X573078Y426713D01*
X573078Y423838D02*
X578094Y423838D01*
X578094Y425979D02*
X573078Y425979D01*
X568094Y426713D02*
X563078Y426713D01*
X568094Y426713D02*
X568094Y421697D01*
X563078Y421697D01*
X563078Y426713D01*
X563078Y423838D02*
X568094Y423838D01*
X568094Y425979D02*
X563078Y425979D01*
D10*
X559516Y432474D02*
X569532Y432474D01*
X559516Y432474D02*
X559516Y441490D01*
X569532Y441490D01*
X569532Y432474D01*
X569532Y434615D02*
X559516Y434615D01*
X559516Y436756D02*
X569532Y436756D01*
X569532Y438897D02*
X559516Y438897D01*
X559516Y441038D02*
X569532Y441038D01*
X576516Y432474D02*
X586532Y432474D01*
X576516Y432474D02*
X576516Y441490D01*
X586532Y441490D01*
X586532Y432474D01*
X586532Y434615D02*
X576516Y434615D01*
X576516Y436756D02*
X586532Y436756D01*
X586532Y438897D02*
X576516Y438897D01*
X576516Y441038D02*
X586532Y441038D01*
X613651Y441058D02*
X623667Y441058D01*
X623667Y432042D01*
X613651Y432042D01*
X613651Y441058D01*
X613651Y434183D02*
X623667Y434183D01*
X623667Y436324D02*
X613651Y436324D01*
X613651Y438465D02*
X623667Y438465D01*
X623667Y440606D02*
X613651Y440606D01*
X606667Y441058D02*
X596651Y441058D01*
X606667Y441058D02*
X606667Y432042D01*
X596651Y432042D01*
X596651Y441058D01*
X596651Y434183D02*
X606667Y434183D01*
X606667Y436324D02*
X596651Y436324D01*
X596651Y438465D02*
X606667Y438465D01*
X606667Y440606D02*
X596651Y440606D01*
D23*
X613089Y538800D03*
X537089Y538800D03*
X530589Y636300D03*
X619589Y636300D03*
D24*
X561089Y564800D03*
X589089Y564800D03*
D10*
X450581Y543508D02*
X450581Y533492D01*
X450581Y543508D02*
X459597Y543508D01*
X459597Y533492D01*
X450581Y533492D01*
X450581Y535633D02*
X459597Y535633D01*
X459597Y537774D02*
X450581Y537774D01*
X450581Y539915D02*
X459597Y539915D01*
X459597Y542056D02*
X450581Y542056D01*
X450581Y526508D02*
X450581Y516492D01*
X450581Y526508D02*
X459597Y526508D01*
X459597Y516492D01*
X450581Y516492D01*
X450581Y518633D02*
X459597Y518633D01*
X459597Y520774D02*
X450581Y520774D01*
X450581Y522915D02*
X459597Y522915D01*
X459597Y525056D02*
X450581Y525056D01*
D25*
X594611Y483954D02*
X594611Y472992D01*
X591549Y472992D01*
X591549Y483954D01*
X594611Y483954D01*
X594611Y475186D02*
X591549Y475186D01*
X591549Y477380D02*
X594611Y477380D01*
X594611Y479574D02*
X591549Y479574D01*
X591549Y481768D02*
X594611Y481768D01*
X601111Y483954D02*
X601111Y472992D01*
X598049Y472992D01*
X598049Y483954D01*
X601111Y483954D01*
X601111Y475186D02*
X598049Y475186D01*
X598049Y477380D02*
X601111Y477380D01*
X601111Y479574D02*
X598049Y479574D01*
X598049Y481768D02*
X601111Y481768D01*
X574111Y512792D02*
X574111Y523754D01*
X574111Y512792D02*
X571049Y512792D01*
X571049Y523754D01*
X574111Y523754D01*
X574111Y514986D02*
X571049Y514986D01*
X571049Y517180D02*
X574111Y517180D01*
X574111Y519374D02*
X571049Y519374D01*
X571049Y521568D02*
X574111Y521568D01*
X580611Y523754D02*
X580611Y512792D01*
X577549Y512792D01*
X577549Y523754D01*
X580611Y523754D01*
X580611Y514986D02*
X577549Y514986D01*
X577549Y517180D02*
X580611Y517180D01*
X580611Y519374D02*
X577549Y519374D01*
X577549Y521568D02*
X580611Y521568D01*
X601111Y523754D02*
X601111Y512792D01*
X598049Y512792D01*
X598049Y523754D01*
X601111Y523754D01*
X601111Y514986D02*
X598049Y514986D01*
X598049Y517180D02*
X601111Y517180D01*
X601111Y519374D02*
X598049Y519374D01*
X598049Y521568D02*
X601111Y521568D01*
D26*
X574132Y475975D02*
X574132Y472971D01*
X571028Y472971D01*
X571028Y475975D01*
X574132Y475975D01*
X574132Y475124D02*
X571028Y475124D01*
X574132Y480971D02*
X574132Y483975D01*
X574132Y480971D02*
X571028Y480971D01*
X571028Y483975D01*
X574132Y483975D01*
X574132Y483124D02*
X571028Y483124D01*
D27*
X596028Y459307D02*
X597010Y459307D01*
X596028Y459307D02*
X596028Y464289D01*
X597010Y464289D01*
X597010Y459307D01*
X597010Y461482D02*
X596028Y461482D01*
X596028Y463657D02*
X597010Y463657D01*
X600028Y459307D02*
X601010Y459307D01*
X600028Y459307D02*
X600028Y464289D01*
X601010Y464289D01*
X601010Y459307D01*
X601010Y461482D02*
X600028Y461482D01*
X600028Y463657D02*
X601010Y463657D01*
X593010Y459307D02*
X592028Y459307D01*
X592028Y464289D01*
X593010Y464289D01*
X593010Y459307D01*
X593010Y461482D02*
X592028Y461482D01*
X592028Y463657D02*
X593010Y463657D01*
X596028Y449807D02*
X597010Y449807D01*
X596028Y449807D02*
X596028Y454789D01*
X597010Y454789D01*
X597010Y449807D01*
X597010Y451982D02*
X596028Y451982D01*
X596028Y454157D02*
X597010Y454157D01*
X600028Y449807D02*
X601010Y449807D01*
X600028Y449807D02*
X600028Y454789D01*
X601010Y454789D01*
X601010Y449807D01*
X601010Y451982D02*
X600028Y451982D01*
X600028Y454157D02*
X601010Y454157D01*
X593010Y449807D02*
X592028Y449807D01*
X592028Y454789D01*
X593010Y454789D01*
X593010Y449807D01*
X593010Y451982D02*
X592028Y451982D01*
X592028Y454157D02*
X593010Y454157D01*
D28*
X557910Y522126D02*
X542884Y522126D01*
X557910Y522126D02*
X557910Y505100D01*
X542884Y505100D01*
X542884Y522126D01*
X542884Y507233D02*
X557910Y507233D01*
X557910Y509366D02*
X542884Y509366D01*
X542884Y511499D02*
X557910Y511499D01*
X557910Y513632D02*
X542884Y513632D01*
X542884Y515765D02*
X557910Y515765D01*
X557910Y517898D02*
X542884Y517898D01*
X542884Y520031D02*
X557910Y520031D01*
X529910Y522126D02*
X514884Y522126D01*
X529910Y522126D02*
X529910Y505100D01*
X514884Y505100D01*
X514884Y522126D01*
X514884Y507233D02*
X529910Y507233D01*
X529910Y509366D02*
X514884Y509366D01*
X514884Y511499D02*
X529910Y511499D01*
X529910Y513632D02*
X514884Y513632D01*
X514884Y515765D02*
X529910Y515765D01*
X529910Y517898D02*
X514884Y517898D01*
X514884Y520031D02*
X529910Y520031D01*
D10*
X554824Y482461D02*
X554824Y472445D01*
X545808Y472445D01*
X545808Y482461D01*
X554824Y482461D01*
X554824Y474586D02*
X545808Y474586D01*
X545808Y476727D02*
X554824Y476727D01*
X554824Y478868D02*
X545808Y478868D01*
X545808Y481009D02*
X554824Y481009D01*
X554824Y489445D02*
X554824Y499461D01*
X554824Y489445D02*
X545808Y489445D01*
X545808Y499461D01*
X554824Y499461D01*
X554824Y491586D02*
X545808Y491586D01*
X545808Y493727D02*
X554824Y493727D01*
X554824Y495868D02*
X545808Y495868D01*
X545808Y498009D02*
X554824Y498009D01*
D16*
X610398Y515703D02*
X615414Y515703D01*
X610398Y515703D02*
X610398Y520719D01*
X615414Y520719D01*
X615414Y515703D01*
X615414Y517844D02*
X610398Y517844D01*
X610398Y519985D02*
X615414Y519985D01*
X620398Y515703D02*
X625414Y515703D01*
X620398Y515703D02*
X620398Y520719D01*
X625414Y520719D01*
X625414Y515703D01*
X625414Y517844D02*
X620398Y517844D01*
X620398Y519985D02*
X625414Y519985D01*
D10*
X572816Y466813D02*
X562800Y466813D01*
X572816Y466813D02*
X572816Y457797D01*
X562800Y457797D01*
X562800Y466813D01*
X562800Y459938D02*
X572816Y459938D01*
X572816Y462079D02*
X562800Y462079D01*
X562800Y464220D02*
X572816Y464220D01*
X572816Y466361D02*
X562800Y466361D01*
X555816Y466813D02*
X545800Y466813D01*
X555816Y466813D02*
X555816Y457797D01*
X545800Y457797D01*
X545800Y466813D01*
X545800Y459938D02*
X555816Y459938D01*
X555816Y462079D02*
X545800Y462079D01*
X545800Y464220D02*
X555816Y464220D01*
X555816Y466361D02*
X545800Y466361D01*
X474797Y347408D02*
X464781Y347408D01*
X474797Y347408D02*
X474797Y338392D01*
X464781Y338392D01*
X464781Y347408D01*
X464781Y340533D02*
X474797Y340533D01*
X474797Y342674D02*
X464781Y342674D01*
X464781Y344815D02*
X474797Y344815D01*
X474797Y346956D02*
X464781Y346956D01*
X457797Y347408D02*
X447781Y347408D01*
X457797Y347408D02*
X457797Y338392D01*
X447781Y338392D01*
X447781Y347408D01*
X447781Y340533D02*
X457797Y340533D01*
X457797Y342674D02*
X447781Y342674D01*
X447781Y344815D02*
X457797Y344815D01*
X457797Y346956D02*
X447781Y346956D01*
D16*
X509501Y311118D02*
X514517Y311118D01*
X514517Y306102D01*
X509501Y306102D01*
X509501Y311118D01*
X509501Y308243D02*
X514517Y308243D01*
X514517Y310384D02*
X509501Y310384D01*
X504517Y311118D02*
X499501Y311118D01*
X504517Y311118D02*
X504517Y306102D01*
X499501Y306102D01*
X499501Y311118D01*
X499501Y308243D02*
X504517Y308243D01*
X504517Y310384D02*
X499501Y310384D01*
D10*
X818655Y148808D02*
X818655Y138792D01*
X818655Y148808D02*
X827671Y148808D01*
X827671Y138792D01*
X818655Y138792D01*
X818655Y140933D02*
X827671Y140933D01*
X827671Y143074D02*
X818655Y143074D01*
X818655Y145215D02*
X827671Y145215D01*
X827671Y147356D02*
X818655Y147356D01*
X818655Y131808D02*
X818655Y121792D01*
X818655Y131808D02*
X827671Y131808D01*
X827671Y121792D01*
X818655Y121792D01*
X818655Y123933D02*
X827671Y123933D01*
X827671Y126074D02*
X818655Y126074D01*
X818655Y128215D02*
X827671Y128215D01*
X827671Y130356D02*
X818655Y130356D01*
D11*
X780653Y50000D03*
X1140653Y640000D03*
D12*
X799853Y129500D03*
X799853Y154900D03*
D13*
X1051413Y19490D02*
X1053893Y19490D01*
X1053893Y6010D01*
X1051413Y6010D01*
X1051413Y19490D01*
X1051413Y8185D02*
X1053893Y8185D01*
X1053893Y10360D02*
X1051413Y10360D01*
X1051413Y12535D02*
X1053893Y12535D01*
X1053893Y14710D02*
X1051413Y14710D01*
X1051413Y16885D02*
X1053893Y16885D01*
X1053893Y19060D02*
X1051413Y19060D01*
X1048893Y19490D02*
X1046413Y19490D01*
X1048893Y19490D02*
X1048893Y6010D01*
X1046413Y6010D01*
X1046413Y19490D01*
X1046413Y8185D02*
X1048893Y8185D01*
X1048893Y10360D02*
X1046413Y10360D01*
X1046413Y12535D02*
X1048893Y12535D01*
X1048893Y14710D02*
X1046413Y14710D01*
X1046413Y16885D02*
X1048893Y16885D01*
X1048893Y19060D02*
X1046413Y19060D01*
X1043893Y19490D02*
X1041413Y19490D01*
X1043893Y19490D02*
X1043893Y6010D01*
X1041413Y6010D01*
X1041413Y19490D01*
X1041413Y8185D02*
X1043893Y8185D01*
X1043893Y10360D02*
X1041413Y10360D01*
X1041413Y12535D02*
X1043893Y12535D01*
X1043893Y14710D02*
X1041413Y14710D01*
X1041413Y16885D02*
X1043893Y16885D01*
X1043893Y19060D02*
X1041413Y19060D01*
X1038893Y19490D02*
X1036413Y19490D01*
X1038893Y19490D02*
X1038893Y6010D01*
X1036413Y6010D01*
X1036413Y19490D01*
X1036413Y8185D02*
X1038893Y8185D01*
X1038893Y10360D02*
X1036413Y10360D01*
X1036413Y12535D02*
X1038893Y12535D01*
X1038893Y14710D02*
X1036413Y14710D01*
X1036413Y16885D02*
X1038893Y16885D01*
X1038893Y19060D02*
X1036413Y19060D01*
X1033893Y19490D02*
X1031413Y19490D01*
X1033893Y19490D02*
X1033893Y6010D01*
X1031413Y6010D01*
X1031413Y19490D01*
X1031413Y8185D02*
X1033893Y8185D01*
X1033893Y10360D02*
X1031413Y10360D01*
X1031413Y12535D02*
X1033893Y12535D01*
X1033893Y14710D02*
X1031413Y14710D01*
X1031413Y16885D02*
X1033893Y16885D01*
X1033893Y19060D02*
X1031413Y19060D01*
X1028893Y19490D02*
X1026413Y19490D01*
X1028893Y19490D02*
X1028893Y6010D01*
X1026413Y6010D01*
X1026413Y19490D01*
X1026413Y8185D02*
X1028893Y8185D01*
X1028893Y10360D02*
X1026413Y10360D01*
X1026413Y12535D02*
X1028893Y12535D01*
X1028893Y14710D02*
X1026413Y14710D01*
X1026413Y16885D02*
X1028893Y16885D01*
X1028893Y19060D02*
X1026413Y19060D01*
X1023893Y19490D02*
X1021413Y19490D01*
X1023893Y19490D02*
X1023893Y6010D01*
X1021413Y6010D01*
X1021413Y19490D01*
X1021413Y8185D02*
X1023893Y8185D01*
X1023893Y10360D02*
X1021413Y10360D01*
X1021413Y12535D02*
X1023893Y12535D01*
X1023893Y14710D02*
X1021413Y14710D01*
X1021413Y16885D02*
X1023893Y16885D01*
X1023893Y19060D02*
X1021413Y19060D01*
X1018893Y19490D02*
X1016413Y19490D01*
X1018893Y19490D02*
X1018893Y6010D01*
X1016413Y6010D01*
X1016413Y19490D01*
X1016413Y8185D02*
X1018893Y8185D01*
X1018893Y10360D02*
X1016413Y10360D01*
X1016413Y12535D02*
X1018893Y12535D01*
X1018893Y14710D02*
X1016413Y14710D01*
X1016413Y16885D02*
X1018893Y16885D01*
X1018893Y19060D02*
X1016413Y19060D01*
X1013893Y19490D02*
X1011413Y19490D01*
X1013893Y19490D02*
X1013893Y6010D01*
X1011413Y6010D01*
X1011413Y19490D01*
X1011413Y8185D02*
X1013893Y8185D01*
X1013893Y10360D02*
X1011413Y10360D01*
X1011413Y12535D02*
X1013893Y12535D01*
X1013893Y14710D02*
X1011413Y14710D01*
X1011413Y16885D02*
X1013893Y16885D01*
X1013893Y19060D02*
X1011413Y19060D01*
X1008893Y19490D02*
X1006413Y19490D01*
X1008893Y19490D02*
X1008893Y6010D01*
X1006413Y6010D01*
X1006413Y19490D01*
X1006413Y8185D02*
X1008893Y8185D01*
X1008893Y10360D02*
X1006413Y10360D01*
X1006413Y12535D02*
X1008893Y12535D01*
X1008893Y14710D02*
X1006413Y14710D01*
X1006413Y16885D02*
X1008893Y16885D01*
X1008893Y19060D02*
X1006413Y19060D01*
X1003893Y19490D02*
X1001413Y19490D01*
X1003893Y19490D02*
X1003893Y6010D01*
X1001413Y6010D01*
X1001413Y19490D01*
X1001413Y8185D02*
X1003893Y8185D01*
X1003893Y10360D02*
X1001413Y10360D01*
X1001413Y12535D02*
X1003893Y12535D01*
X1003893Y14710D02*
X1001413Y14710D01*
X1001413Y16885D02*
X1003893Y16885D01*
X1003893Y19060D02*
X1001413Y19060D01*
X998893Y19490D02*
X996413Y19490D01*
X998893Y19490D02*
X998893Y6010D01*
X996413Y6010D01*
X996413Y19490D01*
X996413Y8185D02*
X998893Y8185D01*
X998893Y10360D02*
X996413Y10360D01*
X996413Y12535D02*
X998893Y12535D01*
X998893Y14710D02*
X996413Y14710D01*
X996413Y16885D02*
X998893Y16885D01*
X998893Y19060D02*
X996413Y19060D01*
X973893Y19490D02*
X971413Y19490D01*
X973893Y19490D02*
X973893Y6010D01*
X971413Y6010D01*
X971413Y19490D01*
X971413Y8185D02*
X973893Y8185D01*
X973893Y10360D02*
X971413Y10360D01*
X971413Y12535D02*
X973893Y12535D01*
X973893Y14710D02*
X971413Y14710D01*
X971413Y16885D02*
X973893Y16885D01*
X973893Y19060D02*
X971413Y19060D01*
X968893Y19490D02*
X966413Y19490D01*
X968893Y19490D02*
X968893Y6010D01*
X966413Y6010D01*
X966413Y19490D01*
X966413Y8185D02*
X968893Y8185D01*
X968893Y10360D02*
X966413Y10360D01*
X966413Y12535D02*
X968893Y12535D01*
X968893Y14710D02*
X966413Y14710D01*
X966413Y16885D02*
X968893Y16885D01*
X968893Y19060D02*
X966413Y19060D01*
X963893Y19490D02*
X961413Y19490D01*
X963893Y19490D02*
X963893Y6010D01*
X961413Y6010D01*
X961413Y19490D01*
X961413Y8185D02*
X963893Y8185D01*
X963893Y10360D02*
X961413Y10360D01*
X961413Y12535D02*
X963893Y12535D01*
X963893Y14710D02*
X961413Y14710D01*
X961413Y16885D02*
X963893Y16885D01*
X963893Y19060D02*
X961413Y19060D01*
X958893Y19490D02*
X956413Y19490D01*
X958893Y19490D02*
X958893Y6010D01*
X956413Y6010D01*
X956413Y19490D01*
X956413Y8185D02*
X958893Y8185D01*
X958893Y10360D02*
X956413Y10360D01*
X956413Y12535D02*
X958893Y12535D01*
X958893Y14710D02*
X956413Y14710D01*
X956413Y16885D02*
X958893Y16885D01*
X958893Y19060D02*
X956413Y19060D01*
X953893Y19490D02*
X951413Y19490D01*
X953893Y19490D02*
X953893Y6010D01*
X951413Y6010D01*
X951413Y19490D01*
X951413Y8185D02*
X953893Y8185D01*
X953893Y10360D02*
X951413Y10360D01*
X951413Y12535D02*
X953893Y12535D01*
X953893Y14710D02*
X951413Y14710D01*
X951413Y16885D02*
X953893Y16885D01*
X953893Y19060D02*
X951413Y19060D01*
X948893Y19490D02*
X946413Y19490D01*
X948893Y19490D02*
X948893Y6010D01*
X946413Y6010D01*
X946413Y19490D01*
X946413Y8185D02*
X948893Y8185D01*
X948893Y10360D02*
X946413Y10360D01*
X946413Y12535D02*
X948893Y12535D01*
X948893Y14710D02*
X946413Y14710D01*
X946413Y16885D02*
X948893Y16885D01*
X948893Y19060D02*
X946413Y19060D01*
X943893Y19490D02*
X941413Y19490D01*
X943893Y19490D02*
X943893Y6010D01*
X941413Y6010D01*
X941413Y19490D01*
X941413Y8185D02*
X943893Y8185D01*
X943893Y10360D02*
X941413Y10360D01*
X941413Y12535D02*
X943893Y12535D01*
X943893Y14710D02*
X941413Y14710D01*
X941413Y16885D02*
X943893Y16885D01*
X943893Y19060D02*
X941413Y19060D01*
X938893Y19490D02*
X936413Y19490D01*
X938893Y19490D02*
X938893Y6010D01*
X936413Y6010D01*
X936413Y19490D01*
X936413Y8185D02*
X938893Y8185D01*
X938893Y10360D02*
X936413Y10360D01*
X936413Y12535D02*
X938893Y12535D01*
X938893Y14710D02*
X936413Y14710D01*
X936413Y16885D02*
X938893Y16885D01*
X938893Y19060D02*
X936413Y19060D01*
X933893Y19490D02*
X931413Y19490D01*
X933893Y19490D02*
X933893Y6010D01*
X931413Y6010D01*
X931413Y19490D01*
X931413Y8185D02*
X933893Y8185D01*
X933893Y10360D02*
X931413Y10360D01*
X931413Y12535D02*
X933893Y12535D01*
X933893Y14710D02*
X931413Y14710D01*
X931413Y16885D02*
X933893Y16885D01*
X933893Y19060D02*
X931413Y19060D01*
X928893Y19490D02*
X926413Y19490D01*
X928893Y19490D02*
X928893Y6010D01*
X926413Y6010D01*
X926413Y19490D01*
X926413Y8185D02*
X928893Y8185D01*
X928893Y10360D02*
X926413Y10360D01*
X926413Y12535D02*
X928893Y12535D01*
X928893Y14710D02*
X926413Y14710D01*
X926413Y16885D02*
X928893Y16885D01*
X928893Y19060D02*
X926413Y19060D01*
X923893Y19490D02*
X921413Y19490D01*
X923893Y19490D02*
X923893Y6010D01*
X921413Y6010D01*
X921413Y19490D01*
X921413Y8185D02*
X923893Y8185D01*
X923893Y10360D02*
X921413Y10360D01*
X921413Y12535D02*
X923893Y12535D01*
X923893Y14710D02*
X921413Y14710D01*
X921413Y16885D02*
X923893Y16885D01*
X923893Y19060D02*
X921413Y19060D01*
X918893Y19490D02*
X916413Y19490D01*
X918893Y19490D02*
X918893Y6010D01*
X916413Y6010D01*
X916413Y19490D01*
X916413Y8185D02*
X918893Y8185D01*
X918893Y10360D02*
X916413Y10360D01*
X916413Y12535D02*
X918893Y12535D01*
X918893Y14710D02*
X916413Y14710D01*
X916413Y16885D02*
X918893Y16885D01*
X918893Y19060D02*
X916413Y19060D01*
X913893Y19490D02*
X911413Y19490D01*
X913893Y19490D02*
X913893Y6010D01*
X911413Y6010D01*
X911413Y19490D01*
X911413Y8185D02*
X913893Y8185D01*
X913893Y10360D02*
X911413Y10360D01*
X911413Y12535D02*
X913893Y12535D01*
X913893Y14710D02*
X911413Y14710D01*
X911413Y16885D02*
X913893Y16885D01*
X913893Y19060D02*
X911413Y19060D01*
X908893Y19490D02*
X906413Y19490D01*
X908893Y19490D02*
X908893Y6010D01*
X906413Y6010D01*
X906413Y19490D01*
X906413Y8185D02*
X908893Y8185D01*
X908893Y10360D02*
X906413Y10360D01*
X906413Y12535D02*
X908893Y12535D01*
X908893Y14710D02*
X906413Y14710D01*
X906413Y16885D02*
X908893Y16885D01*
X908893Y19060D02*
X906413Y19060D01*
X903893Y19490D02*
X901413Y19490D01*
X903893Y19490D02*
X903893Y6010D01*
X901413Y6010D01*
X901413Y19490D01*
X901413Y8185D02*
X903893Y8185D01*
X903893Y10360D02*
X901413Y10360D01*
X901413Y12535D02*
X903893Y12535D01*
X903893Y14710D02*
X901413Y14710D01*
X901413Y16885D02*
X903893Y16885D01*
X903893Y19060D02*
X901413Y19060D01*
X898893Y19490D02*
X896413Y19490D01*
X898893Y19490D02*
X898893Y6010D01*
X896413Y6010D01*
X896413Y19490D01*
X896413Y8185D02*
X898893Y8185D01*
X898893Y10360D02*
X896413Y10360D01*
X896413Y12535D02*
X898893Y12535D01*
X898893Y14710D02*
X896413Y14710D01*
X896413Y16885D02*
X898893Y16885D01*
X898893Y19060D02*
X896413Y19060D01*
X893893Y19490D02*
X891413Y19490D01*
X893893Y19490D02*
X893893Y6010D01*
X891413Y6010D01*
X891413Y19490D01*
X891413Y8185D02*
X893893Y8185D01*
X893893Y10360D02*
X891413Y10360D01*
X891413Y12535D02*
X893893Y12535D01*
X893893Y14710D02*
X891413Y14710D01*
X891413Y16885D02*
X893893Y16885D01*
X893893Y19060D02*
X891413Y19060D01*
X888893Y19490D02*
X886413Y19490D01*
X888893Y19490D02*
X888893Y6010D01*
X886413Y6010D01*
X886413Y19490D01*
X886413Y8185D02*
X888893Y8185D01*
X888893Y10360D02*
X886413Y10360D01*
X886413Y12535D02*
X888893Y12535D01*
X888893Y14710D02*
X886413Y14710D01*
X886413Y16885D02*
X888893Y16885D01*
X888893Y19060D02*
X886413Y19060D01*
X883893Y19490D02*
X881413Y19490D01*
X883893Y19490D02*
X883893Y6010D01*
X881413Y6010D01*
X881413Y19490D01*
X881413Y8185D02*
X883893Y8185D01*
X883893Y10360D02*
X881413Y10360D01*
X881413Y12535D02*
X883893Y12535D01*
X883893Y14710D02*
X881413Y14710D01*
X881413Y16885D02*
X883893Y16885D01*
X883893Y19060D02*
X881413Y19060D01*
X878893Y19490D02*
X876413Y19490D01*
X878893Y19490D02*
X878893Y6010D01*
X876413Y6010D01*
X876413Y19490D01*
X876413Y8185D02*
X878893Y8185D01*
X878893Y10360D02*
X876413Y10360D01*
X876413Y12535D02*
X878893Y12535D01*
X878893Y14710D02*
X876413Y14710D01*
X876413Y16885D02*
X878893Y16885D01*
X878893Y19060D02*
X876413Y19060D01*
X873893Y19490D02*
X871413Y19490D01*
X873893Y19490D02*
X873893Y6010D01*
X871413Y6010D01*
X871413Y19490D01*
X871413Y8185D02*
X873893Y8185D01*
X873893Y10360D02*
X871413Y10360D01*
X871413Y12535D02*
X873893Y12535D01*
X873893Y14710D02*
X871413Y14710D01*
X871413Y16885D02*
X873893Y16885D01*
X873893Y19060D02*
X871413Y19060D01*
X868893Y19490D02*
X866413Y19490D01*
X868893Y19490D02*
X868893Y6010D01*
X866413Y6010D01*
X866413Y19490D01*
X866413Y8185D02*
X868893Y8185D01*
X868893Y10360D02*
X866413Y10360D01*
X866413Y12535D02*
X868893Y12535D01*
X868893Y14710D02*
X866413Y14710D01*
X866413Y16885D02*
X868893Y16885D01*
X868893Y19060D02*
X866413Y19060D01*
D14*
X1140153Y461000D03*
X1140153Y419000D03*
X1127153Y440000D03*
X780153Y419000D03*
X780153Y461000D03*
X793153Y440000D03*
D10*
X881248Y49449D02*
X891264Y49449D01*
X881248Y49449D02*
X881248Y58465D01*
X891264Y58465D01*
X891264Y49449D01*
X891264Y51590D02*
X881248Y51590D01*
X881248Y53731D02*
X891264Y53731D01*
X891264Y55872D02*
X881248Y55872D01*
X881248Y58013D02*
X891264Y58013D01*
X898248Y49449D02*
X908264Y49449D01*
X898248Y49449D02*
X898248Y58465D01*
X908264Y58465D01*
X908264Y49449D01*
X908264Y51590D02*
X898248Y51590D01*
X898248Y53731D02*
X908264Y53731D01*
X908264Y55872D02*
X898248Y55872D01*
X898248Y58013D02*
X908264Y58013D01*
D15*
X828293Y87248D02*
X828293Y94200D01*
X836245Y94200D01*
X836245Y87248D01*
X828293Y87248D01*
X828293Y89450D02*
X836245Y89450D01*
X836245Y91652D02*
X828293Y91652D01*
X828293Y93854D02*
X836245Y93854D01*
X828293Y75200D02*
X828293Y68248D01*
X828293Y75200D02*
X836245Y75200D01*
X836245Y68248D01*
X828293Y68248D01*
X828293Y70450D02*
X836245Y70450D01*
X836245Y72652D02*
X828293Y72652D01*
X828293Y74854D02*
X836245Y74854D01*
X849293Y77748D02*
X849293Y84700D01*
X857245Y84700D01*
X857245Y77748D01*
X849293Y77748D01*
X849293Y79950D02*
X857245Y79950D01*
X857245Y82152D02*
X849293Y82152D01*
X849293Y84354D02*
X857245Y84354D01*
D10*
X806471Y84142D02*
X806471Y94158D01*
X815487Y94158D01*
X815487Y84142D01*
X806471Y84142D01*
X806471Y86283D02*
X815487Y86283D01*
X815487Y88424D02*
X806471Y88424D01*
X806471Y90565D02*
X815487Y90565D01*
X815487Y92706D02*
X806471Y92706D01*
X806471Y77158D02*
X806471Y67142D01*
X806471Y77158D02*
X815487Y77158D01*
X815487Y67142D01*
X806471Y67142D01*
X806471Y69283D02*
X815487Y69283D01*
X815487Y71424D02*
X806471Y71424D01*
X806471Y73565D02*
X815487Y73565D01*
X815487Y75706D02*
X806471Y75706D01*
X838655Y138792D02*
X838655Y148808D01*
X847671Y148808D01*
X847671Y138792D01*
X838655Y138792D01*
X838655Y140933D02*
X847671Y140933D01*
X847671Y143074D02*
X838655Y143074D01*
X838655Y145215D02*
X847671Y145215D01*
X847671Y147356D02*
X838655Y147356D01*
X838655Y131808D02*
X838655Y121792D01*
X838655Y131808D02*
X847671Y131808D01*
X847671Y121792D01*
X838655Y121792D01*
X838655Y123933D02*
X847671Y123933D01*
X847671Y126074D02*
X838655Y126074D01*
X838655Y128215D02*
X847671Y128215D01*
X847671Y130356D02*
X838655Y130356D01*
D16*
X952045Y104258D02*
X952045Y99242D01*
X952045Y104258D02*
X963061Y104258D01*
X963061Y99242D01*
X952045Y99242D01*
X952045Y101383D02*
X963061Y101383D01*
X963061Y103524D02*
X952045Y103524D01*
X952045Y91558D02*
X952045Y86542D01*
X952045Y91558D02*
X963061Y91558D01*
X963061Y86542D01*
X952045Y86542D01*
X952045Y88683D02*
X963061Y88683D01*
X963061Y90824D02*
X952045Y90824D01*
X952045Y78858D02*
X952045Y73842D01*
X952045Y78858D02*
X963061Y78858D01*
X963061Y73842D01*
X952045Y73842D01*
X952045Y75983D02*
X963061Y75983D01*
X963061Y78124D02*
X952045Y78124D01*
X952045Y66158D02*
X952045Y61142D01*
X952045Y66158D02*
X963061Y66158D01*
X963061Y61142D01*
X952045Y61142D01*
X952045Y63283D02*
X963061Y63283D01*
X963061Y65424D02*
X952045Y65424D01*
X1008045Y66158D02*
X1008045Y61142D01*
X1008045Y66158D02*
X1019061Y66158D01*
X1019061Y61142D01*
X1008045Y61142D01*
X1008045Y63283D02*
X1019061Y63283D01*
X1019061Y65424D02*
X1008045Y65424D01*
X1008045Y73842D02*
X1008045Y78858D01*
X1019061Y78858D01*
X1019061Y73842D01*
X1008045Y73842D01*
X1008045Y75983D02*
X1019061Y75983D01*
X1019061Y78124D02*
X1008045Y78124D01*
X1008045Y86542D02*
X1008045Y91558D01*
X1019061Y91558D01*
X1019061Y86542D01*
X1008045Y86542D01*
X1008045Y88683D02*
X1019061Y88683D01*
X1019061Y90824D02*
X1008045Y90824D01*
X1008045Y99242D02*
X1008045Y104258D01*
X1019061Y104258D01*
X1019061Y99242D01*
X1008045Y99242D01*
X1008045Y101383D02*
X1019061Y101383D01*
X1019061Y103524D02*
X1008045Y103524D01*
D10*
X979061Y127208D02*
X969045Y127208D01*
X979061Y127208D02*
X979061Y118192D01*
X969045Y118192D01*
X969045Y127208D01*
X969045Y120333D02*
X979061Y120333D01*
X979061Y122474D02*
X969045Y122474D01*
X969045Y124615D02*
X979061Y124615D01*
X979061Y126756D02*
X969045Y126756D01*
X962061Y127208D02*
X952045Y127208D01*
X962061Y127208D02*
X962061Y118192D01*
X952045Y118192D01*
X952045Y127208D01*
X952045Y120333D02*
X962061Y120333D01*
X962061Y122474D02*
X952045Y122474D01*
X952045Y124615D02*
X962061Y124615D01*
X962061Y126756D02*
X952045Y126756D01*
D17*
X1033530Y346343D02*
X1033530Y352797D01*
X1033530Y346343D02*
X1027576Y346343D01*
X1027576Y352797D01*
X1033530Y352797D01*
X1033530Y348543D02*
X1027576Y348543D01*
X1027576Y350743D02*
X1033530Y350743D01*
X1027576Y359843D02*
X1027576Y366297D01*
X1033530Y366297D01*
X1033530Y359843D01*
X1027576Y359843D01*
X1027576Y362043D02*
X1033530Y362043D01*
X1033530Y364243D02*
X1027576Y364243D01*
X1037576Y366297D02*
X1037576Y359843D01*
X1037576Y366297D02*
X1043530Y366297D01*
X1043530Y359843D01*
X1037576Y359843D01*
X1037576Y362043D02*
X1043530Y362043D01*
X1043530Y364243D02*
X1037576Y364243D01*
X1043530Y352797D02*
X1043530Y346343D01*
X1037576Y346343D01*
X1037576Y352797D01*
X1043530Y352797D01*
X1043530Y348543D02*
X1037576Y348543D01*
X1037576Y350743D02*
X1043530Y350743D01*
D10*
X1023415Y346778D02*
X1023415Y356794D01*
X1023415Y346778D02*
X1014399Y346778D01*
X1014399Y356794D01*
X1023415Y356794D01*
X1023415Y348919D02*
X1014399Y348919D01*
X1014399Y351060D02*
X1023415Y351060D01*
X1023415Y353201D02*
X1014399Y353201D01*
X1014399Y355342D02*
X1023415Y355342D01*
X1023415Y363778D02*
X1023415Y373794D01*
X1023415Y363778D02*
X1014399Y363778D01*
X1014399Y373794D01*
X1023415Y373794D01*
X1023415Y365919D02*
X1014399Y365919D01*
X1014399Y368060D02*
X1023415Y368060D01*
X1023415Y370201D02*
X1014399Y370201D01*
X1014399Y372342D02*
X1023415Y372342D01*
X1008728Y363677D02*
X1008728Y353661D01*
X999712Y353661D01*
X999712Y363677D01*
X1008728Y363677D01*
X1008728Y355802D02*
X999712Y355802D01*
X999712Y357943D02*
X1008728Y357943D01*
X1008728Y360084D02*
X999712Y360084D01*
X999712Y362225D02*
X1008728Y362225D01*
X1008728Y370661D02*
X1008728Y380677D01*
X1008728Y370661D02*
X999712Y370661D01*
X999712Y380677D01*
X1008728Y380677D01*
X1008728Y372802D02*
X999712Y372802D01*
X999712Y374943D02*
X1008728Y374943D01*
X1008728Y377084D02*
X999712Y377084D01*
X999712Y379225D02*
X1008728Y379225D01*
D18*
X857184Y147068D02*
X857184Y142532D01*
X857184Y147068D02*
X868220Y147068D01*
X868220Y142532D01*
X857184Y142532D01*
X857184Y144654D02*
X868220Y144654D01*
X868220Y146776D02*
X857184Y146776D01*
X857184Y137568D02*
X857184Y133032D01*
X857184Y137568D02*
X868220Y137568D01*
X868220Y133032D01*
X857184Y133032D01*
X857184Y135154D02*
X868220Y135154D01*
X868220Y137276D02*
X857184Y137276D01*
X857184Y128068D02*
X857184Y123532D01*
X857184Y128068D02*
X868220Y128068D01*
X868220Y123532D01*
X857184Y123532D01*
X857184Y125654D02*
X868220Y125654D01*
X868220Y127776D02*
X857184Y127776D01*
X883186Y128068D02*
X883186Y123532D01*
X883186Y128068D02*
X894222Y128068D01*
X894222Y123532D01*
X883186Y123532D01*
X883186Y125654D02*
X894222Y125654D01*
X894222Y127776D02*
X883186Y127776D01*
X883186Y142532D02*
X883186Y147068D01*
X894222Y147068D01*
X894222Y142532D01*
X883186Y142532D01*
X883186Y144654D02*
X894222Y144654D01*
X894222Y146776D02*
X883186Y146776D01*
D10*
X902325Y148908D02*
X902325Y138892D01*
X902325Y148908D02*
X911341Y148908D01*
X911341Y138892D01*
X902325Y138892D01*
X902325Y141033D02*
X911341Y141033D01*
X911341Y143174D02*
X902325Y143174D01*
X902325Y145315D02*
X911341Y145315D01*
X911341Y147456D02*
X902325Y147456D01*
X902325Y131908D02*
X902325Y121892D01*
X902325Y131908D02*
X911341Y131908D01*
X911341Y121892D01*
X902325Y121892D01*
X902325Y124033D02*
X911341Y124033D01*
X911341Y126174D02*
X902325Y126174D01*
X902325Y128315D02*
X911341Y128315D01*
X911341Y130456D02*
X902325Y130456D01*
X992045Y118192D02*
X1002061Y118192D01*
X992045Y118192D02*
X992045Y127208D01*
X1002061Y127208D01*
X1002061Y118192D01*
X1002061Y120333D02*
X992045Y120333D01*
X992045Y122474D02*
X1002061Y122474D01*
X1002061Y124615D02*
X992045Y124615D01*
X992045Y126756D02*
X1002061Y126756D01*
X1009045Y118192D02*
X1019061Y118192D01*
X1009045Y118192D02*
X1009045Y127208D01*
X1019061Y127208D01*
X1019061Y118192D01*
X1019061Y120333D02*
X1009045Y120333D01*
X1009045Y122474D02*
X1019061Y122474D01*
X1019061Y124615D02*
X1009045Y124615D01*
X1009045Y126756D02*
X1019061Y126756D01*
D15*
X899278Y95449D02*
X892326Y95449D01*
X899278Y95449D02*
X899278Y87497D01*
X892326Y87497D01*
X892326Y95449D01*
X892326Y89699D02*
X899278Y89699D01*
X899278Y91901D02*
X892326Y91901D01*
X892326Y94103D02*
X899278Y94103D01*
X880278Y95449D02*
X873326Y95449D01*
X880278Y95449D02*
X880278Y87497D01*
X873326Y87497D01*
X873326Y95449D01*
X873326Y89699D02*
X880278Y89699D01*
X880278Y91901D02*
X873326Y91901D01*
X873326Y94103D02*
X880278Y94103D01*
X882826Y74449D02*
X889778Y74449D01*
X889778Y66497D01*
X882826Y66497D01*
X882826Y74449D01*
X882826Y68699D02*
X889778Y68699D01*
X889778Y70901D02*
X882826Y70901D01*
X882826Y73103D02*
X889778Y73103D01*
D16*
X1102845Y269208D02*
X1107861Y269208D01*
X1107861Y264192D01*
X1102845Y264192D01*
X1102845Y269208D01*
X1102845Y266333D02*
X1107861Y266333D01*
X1107861Y268474D02*
X1102845Y268474D01*
X1097861Y269208D02*
X1092845Y269208D01*
X1097861Y269208D02*
X1097861Y264192D01*
X1092845Y264192D01*
X1092845Y269208D01*
X1092845Y266333D02*
X1097861Y266333D01*
X1097861Y268474D02*
X1092845Y268474D01*
D19*
X1122260Y636040D02*
X1129248Y636040D01*
X1122260Y636040D02*
X1122260Y643028D01*
X1129248Y643028D01*
X1129248Y636040D01*
X1129248Y640109D02*
X1122260Y640109D01*
X1122260Y618500D02*
X1129248Y618500D01*
X1122260Y618500D02*
X1122260Y625488D01*
X1129248Y625488D01*
X1129248Y618500D01*
X1129248Y622569D02*
X1122260Y622569D01*
D20*
X994136Y316226D02*
X987170Y316226D01*
X994136Y316226D02*
X994136Y314414D01*
X987170Y314414D01*
X987170Y316226D01*
X987170Y321226D02*
X994136Y321226D01*
X994136Y319414D01*
X987170Y319414D01*
X987170Y321226D01*
X987170Y326226D02*
X994136Y326226D01*
X994136Y324414D01*
X987170Y324414D01*
X987170Y326226D01*
X987170Y331226D02*
X994136Y331226D01*
X994136Y329414D01*
X987170Y329414D01*
X987170Y331226D01*
X987170Y336226D02*
X994136Y336226D01*
X994136Y334414D01*
X987170Y334414D01*
X987170Y336226D01*
X987170Y341226D02*
X994136Y341226D01*
X994136Y339414D01*
X987170Y339414D01*
X987170Y341226D01*
X987170Y346226D02*
X994136Y346226D01*
X994136Y344414D01*
X987170Y344414D01*
X987170Y346226D01*
X987170Y351226D02*
X994136Y351226D01*
X994136Y349414D01*
X987170Y349414D01*
X987170Y351226D01*
X987170Y356226D02*
X994136Y356226D01*
X994136Y354414D01*
X987170Y354414D01*
X987170Y356226D01*
X987170Y361226D02*
X994136Y361226D01*
X994136Y359414D01*
X987170Y359414D01*
X987170Y361226D01*
X982247Y364337D02*
X982247Y371303D01*
X984059Y371303D01*
X984059Y364337D01*
X982247Y364337D01*
X982247Y366527D02*
X984059Y366527D01*
X984059Y368717D02*
X982247Y368717D01*
X982247Y370907D02*
X984059Y370907D01*
X977247Y371303D02*
X977247Y364337D01*
X977247Y371303D02*
X979059Y371303D01*
X979059Y364337D01*
X977247Y364337D01*
X977247Y366527D02*
X979059Y366527D01*
X979059Y368717D02*
X977247Y368717D01*
X977247Y370907D02*
X979059Y370907D01*
X972247Y371303D02*
X972247Y364337D01*
X972247Y371303D02*
X974059Y371303D01*
X974059Y364337D01*
X972247Y364337D01*
X972247Y366527D02*
X974059Y366527D01*
X974059Y368717D02*
X972247Y368717D01*
X972247Y370907D02*
X974059Y370907D01*
X967247Y371303D02*
X967247Y364337D01*
X967247Y371303D02*
X969059Y371303D01*
X969059Y364337D01*
X967247Y364337D01*
X967247Y366527D02*
X969059Y366527D01*
X969059Y368717D02*
X967247Y368717D01*
X967247Y370907D02*
X969059Y370907D01*
X962247Y371303D02*
X962247Y364337D01*
X962247Y371303D02*
X964059Y371303D01*
X964059Y364337D01*
X962247Y364337D01*
X962247Y366527D02*
X964059Y366527D01*
X964059Y368717D02*
X962247Y368717D01*
X962247Y370907D02*
X964059Y370907D01*
X957247Y371303D02*
X957247Y364337D01*
X957247Y371303D02*
X959059Y371303D01*
X959059Y364337D01*
X957247Y364337D01*
X957247Y366527D02*
X959059Y366527D01*
X959059Y368717D02*
X957247Y368717D01*
X957247Y370907D02*
X959059Y370907D01*
X952247Y371303D02*
X952247Y364337D01*
X952247Y371303D02*
X954059Y371303D01*
X954059Y364337D01*
X952247Y364337D01*
X952247Y366527D02*
X954059Y366527D01*
X954059Y368717D02*
X952247Y368717D01*
X952247Y370907D02*
X954059Y370907D01*
X947247Y371303D02*
X947247Y364337D01*
X947247Y371303D02*
X949059Y371303D01*
X949059Y364337D01*
X947247Y364337D01*
X947247Y366527D02*
X949059Y366527D01*
X949059Y368717D02*
X947247Y368717D01*
X947247Y370907D02*
X949059Y370907D01*
X942247Y371303D02*
X942247Y364337D01*
X942247Y371303D02*
X944059Y371303D01*
X944059Y364337D01*
X942247Y364337D01*
X942247Y366527D02*
X944059Y366527D01*
X944059Y368717D02*
X942247Y368717D01*
X942247Y370907D02*
X944059Y370907D01*
X937247Y371303D02*
X937247Y364337D01*
X937247Y371303D02*
X939059Y371303D01*
X939059Y364337D01*
X937247Y364337D01*
X937247Y366527D02*
X939059Y366527D01*
X939059Y368717D02*
X937247Y368717D01*
X937247Y370907D02*
X939059Y370907D01*
X934136Y359414D02*
X927170Y359414D01*
X927170Y361226D01*
X934136Y361226D01*
X934136Y359414D01*
X934136Y354414D02*
X927170Y354414D01*
X927170Y356226D01*
X934136Y356226D01*
X934136Y354414D01*
X934136Y349414D02*
X927170Y349414D01*
X927170Y351226D01*
X934136Y351226D01*
X934136Y349414D01*
X934136Y344414D02*
X927170Y344414D01*
X927170Y346226D01*
X934136Y346226D01*
X934136Y344414D01*
X934136Y339414D02*
X927170Y339414D01*
X927170Y341226D01*
X934136Y341226D01*
X934136Y339414D01*
X934136Y334414D02*
X927170Y334414D01*
X927170Y336226D01*
X934136Y336226D01*
X934136Y334414D01*
X934136Y329414D02*
X927170Y329414D01*
X927170Y331226D01*
X934136Y331226D01*
X934136Y329414D01*
X934136Y324414D02*
X927170Y324414D01*
X927170Y326226D01*
X934136Y326226D01*
X934136Y324414D01*
X934136Y319414D02*
X927170Y319414D01*
X927170Y321226D01*
X934136Y321226D01*
X934136Y319414D01*
X934136Y314414D02*
X927170Y314414D01*
X927170Y316226D01*
X934136Y316226D01*
X934136Y314414D01*
X939059Y311303D02*
X939059Y304337D01*
X937247Y304337D01*
X937247Y311303D01*
X939059Y311303D01*
X939059Y306527D02*
X937247Y306527D01*
X937247Y308717D02*
X939059Y308717D01*
X939059Y310907D02*
X937247Y310907D01*
X944059Y311303D02*
X944059Y304337D01*
X942247Y304337D01*
X942247Y311303D01*
X944059Y311303D01*
X944059Y306527D02*
X942247Y306527D01*
X942247Y308717D02*
X944059Y308717D01*
X944059Y310907D02*
X942247Y310907D01*
X949059Y311303D02*
X949059Y304337D01*
X947247Y304337D01*
X947247Y311303D01*
X949059Y311303D01*
X949059Y306527D02*
X947247Y306527D01*
X947247Y308717D02*
X949059Y308717D01*
X949059Y310907D02*
X947247Y310907D01*
X954059Y311303D02*
X954059Y304337D01*
X952247Y304337D01*
X952247Y311303D01*
X954059Y311303D01*
X954059Y306527D02*
X952247Y306527D01*
X952247Y308717D02*
X954059Y308717D01*
X954059Y310907D02*
X952247Y310907D01*
X959059Y311303D02*
X959059Y304337D01*
X957247Y304337D01*
X957247Y311303D01*
X959059Y311303D01*
X959059Y306527D02*
X957247Y306527D01*
X957247Y308717D02*
X959059Y308717D01*
X959059Y310907D02*
X957247Y310907D01*
X964059Y311303D02*
X964059Y304337D01*
X962247Y304337D01*
X962247Y311303D01*
X964059Y311303D01*
X964059Y306527D02*
X962247Y306527D01*
X962247Y308717D02*
X964059Y308717D01*
X964059Y310907D02*
X962247Y310907D01*
X969059Y311303D02*
X969059Y304337D01*
X967247Y304337D01*
X967247Y311303D01*
X969059Y311303D01*
X969059Y306527D02*
X967247Y306527D01*
X967247Y308717D02*
X969059Y308717D01*
X969059Y310907D02*
X967247Y310907D01*
X974059Y311303D02*
X974059Y304337D01*
X972247Y304337D01*
X972247Y311303D01*
X974059Y311303D01*
X974059Y306527D02*
X972247Y306527D01*
X972247Y308717D02*
X974059Y308717D01*
X974059Y310907D02*
X972247Y310907D01*
X979059Y311303D02*
X979059Y304337D01*
X977247Y304337D01*
X977247Y311303D01*
X979059Y311303D01*
X979059Y306527D02*
X977247Y306527D01*
X977247Y308717D02*
X979059Y308717D01*
X979059Y310907D02*
X977247Y310907D01*
X984059Y311303D02*
X984059Y304337D01*
X982247Y304337D01*
X982247Y311303D01*
X984059Y311303D01*
X984059Y306527D02*
X982247Y306527D01*
X982247Y308717D02*
X984059Y308717D01*
X984059Y310907D02*
X982247Y310907D01*
D21*
X978170Y355337D02*
X943136Y355337D01*
X978170Y355337D02*
X978170Y320303D01*
X943136Y320303D01*
X943136Y355337D01*
X943136Y322427D02*
X978170Y322427D01*
X978170Y324551D02*
X943136Y324551D01*
X943136Y326675D02*
X978170Y326675D01*
X978170Y328799D02*
X943136Y328799D01*
X943136Y330923D02*
X978170Y330923D01*
X978170Y333047D02*
X943136Y333047D01*
X943136Y335171D02*
X978170Y335171D01*
X978170Y337295D02*
X943136Y337295D01*
X943136Y339419D02*
X978170Y339419D01*
X978170Y341543D02*
X943136Y341543D01*
X943136Y343667D02*
X978170Y343667D01*
X978170Y345791D02*
X943136Y345791D01*
X943136Y347915D02*
X978170Y347915D01*
X978170Y350039D02*
X943136Y350039D01*
X943136Y352163D02*
X978170Y352163D01*
X978170Y354287D02*
X943136Y354287D01*
D10*
X998715Y417055D02*
X1008731Y417055D01*
X1008731Y408039D01*
X998715Y408039D01*
X998715Y417055D01*
X998715Y410180D02*
X1008731Y410180D01*
X1008731Y412321D02*
X998715Y412321D01*
X998715Y414462D02*
X1008731Y414462D01*
X1008731Y416603D02*
X998715Y416603D01*
X991731Y417055D02*
X981715Y417055D01*
X991731Y417055D02*
X991731Y408039D01*
X981715Y408039D01*
X981715Y417055D01*
X981715Y410180D02*
X991731Y410180D01*
X991731Y412321D02*
X981715Y412321D01*
X981715Y414462D02*
X991731Y414462D01*
X991731Y416603D02*
X981715Y416603D01*
X952005Y407759D02*
X941989Y407759D01*
X941989Y416775D01*
X952005Y416775D01*
X952005Y407759D01*
X952005Y409900D02*
X941989Y409900D01*
X941989Y412041D02*
X952005Y412041D01*
X952005Y414182D02*
X941989Y414182D01*
X941989Y416323D02*
X952005Y416323D01*
X958989Y407759D02*
X969005Y407759D01*
X958989Y407759D02*
X958989Y416775D01*
X969005Y416775D01*
X969005Y407759D01*
X969005Y409900D02*
X958989Y409900D01*
X958989Y412041D02*
X969005Y412041D01*
X969005Y414182D02*
X958989Y414182D01*
X958989Y416323D02*
X969005Y416323D01*
D22*
X1104639Y460216D02*
X1111307Y460216D01*
X1104639Y460216D02*
X1104639Y474504D01*
X1111307Y474504D01*
X1111307Y460216D01*
X1111307Y462328D02*
X1104639Y462328D01*
X1104639Y464440D02*
X1111307Y464440D01*
X1111307Y466552D02*
X1104639Y466552D01*
X1104639Y468664D02*
X1111307Y468664D01*
X1111307Y470776D02*
X1104639Y470776D01*
X1104639Y472888D02*
X1111307Y472888D01*
X1111307Y404336D02*
X1104639Y404336D01*
X1104639Y418624D01*
X1111307Y418624D01*
X1111307Y404336D01*
X1111307Y406448D02*
X1104639Y406448D01*
X1104639Y408560D02*
X1111307Y408560D01*
X1111307Y410672D02*
X1104639Y410672D01*
X1104639Y412784D02*
X1111307Y412784D01*
X1111307Y414896D02*
X1104639Y414896D01*
X1104639Y417008D02*
X1111307Y417008D01*
X1073207Y460216D02*
X1066539Y460216D01*
X1066539Y474504D01*
X1073207Y474504D01*
X1073207Y460216D01*
X1073207Y462328D02*
X1066539Y462328D01*
X1066539Y464440D02*
X1073207Y464440D01*
X1073207Y466552D02*
X1066539Y466552D01*
X1066539Y468664D02*
X1073207Y468664D01*
X1073207Y470776D02*
X1066539Y470776D01*
X1066539Y472888D02*
X1073207Y472888D01*
X1073207Y404336D02*
X1066539Y404336D01*
X1066539Y418624D01*
X1073207Y418624D01*
X1073207Y404336D01*
X1073207Y406448D02*
X1066539Y406448D01*
X1066539Y408560D02*
X1073207Y408560D01*
X1073207Y410672D02*
X1066539Y410672D01*
X1066539Y412784D02*
X1073207Y412784D01*
X1073207Y414896D02*
X1066539Y414896D01*
X1066539Y417008D02*
X1073207Y417008D01*
D16*
X910990Y360986D02*
X910990Y355970D01*
X905974Y355970D01*
X905974Y360986D01*
X910990Y360986D01*
X910990Y358111D02*
X905974Y358111D01*
X905974Y360252D02*
X910990Y360252D01*
X910990Y365970D02*
X910990Y370986D01*
X910990Y365970D02*
X905974Y365970D01*
X905974Y370986D01*
X910990Y370986D01*
X910990Y368111D02*
X905974Y368111D01*
X905974Y370252D02*
X910990Y370252D01*
D10*
X906995Y350989D02*
X917011Y350989D01*
X917011Y341973D01*
X906995Y341973D01*
X906995Y350989D01*
X906995Y344114D02*
X917011Y344114D01*
X917011Y346255D02*
X906995Y346255D01*
X906995Y348396D02*
X917011Y348396D01*
X917011Y350537D02*
X906995Y350537D01*
X900011Y350989D02*
X889995Y350989D01*
X900011Y350989D02*
X900011Y341973D01*
X889995Y341973D01*
X889995Y350989D01*
X889995Y344114D02*
X900011Y344114D01*
X900011Y346255D02*
X889995Y346255D01*
X889995Y348396D02*
X900011Y348396D01*
X900011Y350537D02*
X889995Y350537D01*
D16*
X921150Y355890D02*
X921150Y360906D01*
X921150Y355890D02*
X916134Y355890D01*
X916134Y360906D01*
X921150Y360906D01*
X921150Y358031D02*
X916134Y358031D01*
X916134Y360172D02*
X921150Y360172D01*
X921150Y365890D02*
X921150Y370906D01*
X921150Y365890D02*
X916134Y365890D01*
X916134Y370906D01*
X921150Y370906D01*
X921150Y368031D02*
X916134Y368031D01*
X916134Y370172D02*
X921150Y370172D01*
X954255Y382238D02*
X959271Y382238D01*
X959271Y377222D01*
X954255Y377222D01*
X954255Y382238D01*
X954255Y379363D02*
X959271Y379363D01*
X959271Y381504D02*
X954255Y381504D01*
X949271Y382238D02*
X944255Y382238D01*
X949271Y382238D02*
X949271Y377222D01*
X944255Y377222D01*
X944255Y382238D01*
X944255Y379363D02*
X949271Y379363D01*
X949271Y381504D02*
X944255Y381504D01*
X954255Y391458D02*
X959271Y391458D01*
X959271Y386442D01*
X954255Y386442D01*
X954255Y391458D01*
X954255Y388583D02*
X959271Y388583D01*
X959271Y390724D02*
X954255Y390724D01*
X949271Y391458D02*
X944255Y391458D01*
X949271Y391458D02*
X949271Y386442D01*
X944255Y386442D01*
X944255Y391458D01*
X944255Y388583D02*
X949271Y388583D01*
X949271Y390724D02*
X944255Y390724D01*
X917082Y337153D02*
X912066Y337153D01*
X917082Y337153D02*
X917082Y332137D01*
X912066Y332137D01*
X912066Y337153D01*
X912066Y334278D02*
X917082Y334278D01*
X917082Y336419D02*
X912066Y336419D01*
X907082Y337153D02*
X902066Y337153D01*
X907082Y337153D02*
X907082Y332137D01*
X902066Y332137D01*
X902066Y337153D01*
X902066Y334278D02*
X907082Y334278D01*
X907082Y336419D02*
X902066Y336419D01*
X955576Y297707D02*
X960592Y297707D01*
X960592Y292691D01*
X955576Y292691D01*
X955576Y297707D01*
X955576Y294832D02*
X960592Y294832D01*
X960592Y296973D02*
X955576Y296973D01*
X950592Y297707D02*
X945576Y297707D01*
X950592Y297707D02*
X950592Y292691D01*
X945576Y292691D01*
X945576Y297707D01*
X945576Y294832D02*
X950592Y294832D01*
X950592Y296973D02*
X945576Y296973D01*
X955449Y288385D02*
X960465Y288385D01*
X960465Y283369D01*
X955449Y283369D01*
X955449Y288385D01*
X955449Y285510D02*
X960465Y285510D01*
X960465Y287651D02*
X955449Y287651D01*
X950465Y288385D02*
X945449Y288385D01*
X950465Y288385D02*
X950465Y283369D01*
X945449Y283369D01*
X945449Y288385D01*
X945449Y285510D02*
X950465Y285510D01*
X950465Y287651D02*
X945449Y287651D01*
D10*
X911423Y326555D02*
X901407Y326555D01*
X911423Y326555D02*
X911423Y317539D01*
X901407Y317539D01*
X901407Y326555D01*
X901407Y319680D02*
X911423Y319680D01*
X911423Y321821D02*
X901407Y321821D01*
X901407Y323962D02*
X911423Y323962D01*
X911423Y326103D02*
X901407Y326103D01*
X894423Y326555D02*
X884407Y326555D01*
X894423Y326555D02*
X894423Y317539D01*
X884407Y317539D01*
X884407Y326555D01*
X884407Y319680D02*
X894423Y319680D01*
X894423Y321821D02*
X884407Y321821D01*
X884407Y323962D02*
X894423Y323962D01*
X894423Y326103D02*
X884407Y326103D01*
D16*
X930878Y385963D02*
X930878Y390979D01*
X930878Y385963D02*
X925862Y385963D01*
X925862Y390979D01*
X930878Y390979D01*
X930878Y388104D02*
X925862Y388104D01*
X925862Y390245D02*
X930878Y390245D01*
X930878Y395963D02*
X930878Y400979D01*
X930878Y395963D02*
X925862Y395963D01*
X925862Y400979D01*
X930878Y400979D01*
X930878Y398104D02*
X925862Y398104D01*
X925862Y400245D02*
X930878Y400245D01*
X919448Y391208D02*
X919448Y386192D01*
X914432Y386192D01*
X914432Y391208D01*
X919448Y391208D01*
X919448Y388333D02*
X914432Y388333D01*
X914432Y390474D02*
X919448Y390474D01*
X919448Y396192D02*
X919448Y401208D01*
X919448Y396192D02*
X914432Y396192D01*
X914432Y401208D01*
X919448Y401208D01*
X919448Y398333D02*
X914432Y398333D01*
X914432Y400474D02*
X919448Y400474D01*
D19*
X1096860Y636040D02*
X1103848Y636040D01*
X1096860Y636040D02*
X1096860Y643028D01*
X1103848Y643028D01*
X1103848Y636040D01*
X1103848Y640109D02*
X1096860Y640109D01*
X1096860Y618500D02*
X1103848Y618500D01*
X1096860Y618500D02*
X1096860Y625488D01*
X1103848Y625488D01*
X1103848Y618500D01*
X1103848Y622569D02*
X1096860Y622569D01*
D16*
X1102861Y505508D02*
X1102861Y500492D01*
X1097845Y500492D01*
X1097845Y505508D01*
X1102861Y505508D01*
X1102861Y502633D02*
X1097845Y502633D01*
X1097845Y504774D02*
X1102861Y504774D01*
X1102861Y510492D02*
X1102861Y515508D01*
X1102861Y510492D02*
X1097845Y510492D01*
X1097845Y515508D01*
X1102861Y515508D01*
X1102861Y512633D02*
X1097845Y512633D01*
X1097845Y514774D02*
X1102861Y514774D01*
X815761Y281908D02*
X810745Y281908D01*
X815761Y281908D02*
X815761Y276892D01*
X810745Y276892D01*
X810745Y281908D01*
X810745Y279033D02*
X815761Y279033D01*
X815761Y281174D02*
X810745Y281174D01*
X805761Y281908D02*
X800745Y281908D01*
X805761Y281908D02*
X805761Y276892D01*
X800745Y276892D01*
X800745Y281908D01*
X800745Y279033D02*
X805761Y279033D01*
X805761Y281174D02*
X800745Y281174D01*
X810745Y269208D02*
X815761Y269208D01*
X815761Y264192D01*
X810745Y264192D01*
X810745Y269208D01*
X810745Y266333D02*
X815761Y266333D01*
X815761Y268474D02*
X810745Y268474D01*
X805761Y269208D02*
X800745Y269208D01*
X805761Y269208D02*
X805761Y264192D01*
X800745Y264192D01*
X800745Y269208D01*
X800745Y266333D02*
X805761Y266333D01*
X805761Y268474D02*
X800745Y268474D01*
X810745Y243808D02*
X815761Y243808D01*
X815761Y238792D01*
X810745Y238792D01*
X810745Y243808D01*
X810745Y240933D02*
X815761Y240933D01*
X815761Y243074D02*
X810745Y243074D01*
X805761Y243808D02*
X800745Y243808D01*
X805761Y243808D02*
X805761Y238792D01*
X800745Y238792D01*
X800745Y243808D01*
X800745Y240933D02*
X805761Y240933D01*
X805761Y243074D02*
X800745Y243074D01*
X810745Y231108D02*
X815761Y231108D01*
X815761Y226092D01*
X810745Y226092D01*
X810745Y231108D01*
X810745Y228233D02*
X815761Y228233D01*
X815761Y230374D02*
X810745Y230374D01*
X805761Y231108D02*
X800745Y231108D01*
X805761Y231108D02*
X805761Y226092D01*
X800745Y226092D01*
X800745Y231108D01*
X800745Y228233D02*
X805761Y228233D01*
X805761Y230374D02*
X800745Y230374D01*
X810745Y256508D02*
X815761Y256508D01*
X815761Y251492D01*
X810745Y251492D01*
X810745Y256508D01*
X810745Y253633D02*
X815761Y253633D01*
X815761Y255774D02*
X810745Y255774D01*
X805761Y256508D02*
X800745Y256508D01*
X805761Y256508D02*
X805761Y251492D01*
X800745Y251492D01*
X800745Y256508D01*
X800745Y253633D02*
X805761Y253633D01*
X805761Y255774D02*
X800745Y255774D01*
X1092845Y289592D02*
X1097861Y289592D01*
X1092845Y289592D02*
X1092845Y294608D01*
X1097861Y294608D01*
X1097861Y289592D01*
X1097861Y291733D02*
X1092845Y291733D01*
X1092845Y293874D02*
X1097861Y293874D01*
X1102845Y289592D02*
X1107861Y289592D01*
X1102845Y289592D02*
X1102845Y294608D01*
X1107861Y294608D01*
X1107861Y289592D01*
X1107861Y291733D02*
X1102845Y291733D01*
X1102845Y293874D02*
X1107861Y293874D01*
X1077461Y500492D02*
X1077461Y505508D01*
X1077461Y500492D02*
X1072445Y500492D01*
X1072445Y505508D01*
X1077461Y505508D01*
X1077461Y502633D02*
X1072445Y502633D01*
X1072445Y504774D02*
X1077461Y504774D01*
X1077461Y510492D02*
X1077461Y515508D01*
X1077461Y510492D02*
X1072445Y510492D01*
X1072445Y515508D01*
X1077461Y515508D01*
X1077461Y512633D02*
X1072445Y512633D01*
X1072445Y514774D02*
X1077461Y514774D01*
X1092845Y340392D02*
X1097861Y340392D01*
X1092845Y340392D02*
X1092845Y345408D01*
X1097861Y345408D01*
X1097861Y340392D01*
X1097861Y342533D02*
X1092845Y342533D01*
X1092845Y344674D02*
X1097861Y344674D01*
X1102845Y340392D02*
X1107861Y340392D01*
X1102845Y340392D02*
X1102845Y345408D01*
X1107861Y345408D01*
X1107861Y340392D01*
X1107861Y342533D02*
X1102845Y342533D01*
X1102845Y344674D02*
X1107861Y344674D01*
D19*
X1078448Y636040D02*
X1071460Y636040D01*
X1071460Y643028D01*
X1078448Y643028D01*
X1078448Y636040D01*
X1078448Y640109D02*
X1071460Y640109D01*
X1071460Y618500D02*
X1078448Y618500D01*
X1071460Y618500D02*
X1071460Y625488D01*
X1078448Y625488D01*
X1078448Y618500D01*
X1078448Y622569D02*
X1071460Y622569D01*
D16*
X1064761Y505508D02*
X1064761Y500492D01*
X1059745Y500492D01*
X1059745Y505508D01*
X1064761Y505508D01*
X1064761Y502633D02*
X1059745Y502633D01*
X1059745Y504774D02*
X1064761Y504774D01*
X1064761Y510492D02*
X1064761Y515508D01*
X1064761Y510492D02*
X1059745Y510492D01*
X1059745Y515508D01*
X1064761Y515508D01*
X1064761Y512633D02*
X1059745Y512633D01*
X1059745Y514774D02*
X1064761Y514774D01*
X1092845Y314992D02*
X1097861Y314992D01*
X1092845Y314992D02*
X1092845Y320008D01*
X1097861Y320008D01*
X1097861Y314992D01*
X1097861Y317133D02*
X1092845Y317133D01*
X1092845Y319274D02*
X1097861Y319274D01*
X1102845Y314992D02*
X1107861Y314992D01*
X1102845Y314992D02*
X1102845Y320008D01*
X1107861Y320008D01*
X1107861Y314992D01*
X1107861Y317133D02*
X1102845Y317133D01*
X1102845Y319274D02*
X1107861Y319274D01*
D19*
X1053048Y636040D02*
X1046060Y636040D01*
X1046060Y643028D01*
X1053048Y643028D01*
X1053048Y636040D01*
X1053048Y640109D02*
X1046060Y640109D01*
X1046060Y618500D02*
X1053048Y618500D01*
X1046060Y618500D02*
X1046060Y625488D01*
X1053048Y625488D01*
X1053048Y618500D01*
X1053048Y622569D02*
X1046060Y622569D01*
D16*
X975789Y395637D02*
X970773Y395637D01*
X970773Y400653D01*
X975789Y400653D01*
X975789Y395637D01*
X975789Y397778D02*
X970773Y397778D01*
X970773Y399919D02*
X975789Y399919D01*
X980773Y395637D02*
X985789Y395637D01*
X980773Y395637D02*
X980773Y400653D01*
X985789Y400653D01*
X985789Y395637D01*
X985789Y397778D02*
X980773Y397778D01*
X980773Y399919D02*
X985789Y399919D01*
X970557Y386442D02*
X965541Y386442D01*
X965541Y391458D01*
X970557Y391458D01*
X970557Y386442D01*
X970557Y388583D02*
X965541Y388583D01*
X965541Y390724D02*
X970557Y390724D01*
X975541Y386442D02*
X980557Y386442D01*
X975541Y386442D02*
X975541Y391458D01*
X980557Y391458D01*
X980557Y386442D01*
X980557Y388583D02*
X975541Y388583D01*
X975541Y390724D02*
X980557Y390724D01*
X997664Y426967D02*
X1002680Y426967D01*
X1002680Y421951D01*
X997664Y421951D01*
X997664Y426967D01*
X997664Y424092D02*
X1002680Y424092D01*
X1002680Y426233D02*
X997664Y426233D01*
X992680Y426967D02*
X987664Y426967D01*
X992680Y426967D02*
X992680Y421951D01*
X987664Y421951D01*
X987664Y426967D01*
X987664Y424092D02*
X992680Y424092D01*
X992680Y426233D02*
X987664Y426233D01*
X963158Y426713D02*
X958142Y426713D01*
X963158Y426713D02*
X963158Y421697D01*
X958142Y421697D01*
X958142Y426713D01*
X958142Y423838D02*
X963158Y423838D01*
X963158Y425979D02*
X958142Y425979D01*
X953158Y426713D02*
X948142Y426713D01*
X953158Y426713D02*
X953158Y421697D01*
X948142Y421697D01*
X948142Y426713D01*
X948142Y423838D02*
X953158Y423838D01*
X953158Y425979D02*
X948142Y425979D01*
D10*
X944580Y432474D02*
X954596Y432474D01*
X944580Y432474D02*
X944580Y441490D01*
X954596Y441490D01*
X954596Y432474D01*
X954596Y434615D02*
X944580Y434615D01*
X944580Y436756D02*
X954596Y436756D01*
X954596Y438897D02*
X944580Y438897D01*
X944580Y441038D02*
X954596Y441038D01*
X961580Y432474D02*
X971596Y432474D01*
X961580Y432474D02*
X961580Y441490D01*
X971596Y441490D01*
X971596Y432474D01*
X971596Y434615D02*
X961580Y434615D01*
X961580Y436756D02*
X971596Y436756D01*
X971596Y438897D02*
X961580Y438897D01*
X961580Y441038D02*
X971596Y441038D01*
X998715Y441058D02*
X1008731Y441058D01*
X1008731Y432042D01*
X998715Y432042D01*
X998715Y441058D01*
X998715Y434183D02*
X1008731Y434183D01*
X1008731Y436324D02*
X998715Y436324D01*
X998715Y438465D02*
X1008731Y438465D01*
X1008731Y440606D02*
X998715Y440606D01*
X991731Y441058D02*
X981715Y441058D01*
X991731Y441058D02*
X991731Y432042D01*
X981715Y432042D01*
X981715Y441058D01*
X981715Y434183D02*
X991731Y434183D01*
X991731Y436324D02*
X981715Y436324D01*
X981715Y438465D02*
X991731Y438465D01*
X991731Y440606D02*
X981715Y440606D01*
D23*
X998153Y538800D03*
X922153Y538800D03*
X915653Y636300D03*
X1004653Y636300D03*
D24*
X946153Y564800D03*
X974153Y564800D03*
D10*
X835645Y543508D02*
X835645Y533492D01*
X835645Y543508D02*
X844661Y543508D01*
X844661Y533492D01*
X835645Y533492D01*
X835645Y535633D02*
X844661Y535633D01*
X844661Y537774D02*
X835645Y537774D01*
X835645Y539915D02*
X844661Y539915D01*
X844661Y542056D02*
X835645Y542056D01*
X835645Y526508D02*
X835645Y516492D01*
X835645Y526508D02*
X844661Y526508D01*
X844661Y516492D01*
X835645Y516492D01*
X835645Y518633D02*
X844661Y518633D01*
X844661Y520774D02*
X835645Y520774D01*
X835645Y522915D02*
X844661Y522915D01*
X844661Y525056D02*
X835645Y525056D01*
D25*
X979675Y483954D02*
X979675Y472992D01*
X976613Y472992D01*
X976613Y483954D01*
X979675Y483954D01*
X979675Y475186D02*
X976613Y475186D01*
X976613Y477380D02*
X979675Y477380D01*
X979675Y479574D02*
X976613Y479574D01*
X976613Y481768D02*
X979675Y481768D01*
X986175Y483954D02*
X986175Y472992D01*
X983113Y472992D01*
X983113Y483954D01*
X986175Y483954D01*
X986175Y475186D02*
X983113Y475186D01*
X983113Y477380D02*
X986175Y477380D01*
X986175Y479574D02*
X983113Y479574D01*
X983113Y481768D02*
X986175Y481768D01*
X959175Y512792D02*
X959175Y523754D01*
X959175Y512792D02*
X956113Y512792D01*
X956113Y523754D01*
X959175Y523754D01*
X959175Y514986D02*
X956113Y514986D01*
X956113Y517180D02*
X959175Y517180D01*
X959175Y519374D02*
X956113Y519374D01*
X956113Y521568D02*
X959175Y521568D01*
X965675Y523754D02*
X965675Y512792D01*
X962613Y512792D01*
X962613Y523754D01*
X965675Y523754D01*
X965675Y514986D02*
X962613Y514986D01*
X962613Y517180D02*
X965675Y517180D01*
X965675Y519374D02*
X962613Y519374D01*
X962613Y521568D02*
X965675Y521568D01*
X986175Y523754D02*
X986175Y512792D01*
X983113Y512792D01*
X983113Y523754D01*
X986175Y523754D01*
X986175Y514986D02*
X983113Y514986D01*
X983113Y517180D02*
X986175Y517180D01*
X986175Y519374D02*
X983113Y519374D01*
X983113Y521568D02*
X986175Y521568D01*
D26*
X959196Y475975D02*
X959196Y472971D01*
X956092Y472971D01*
X956092Y475975D01*
X959196Y475975D01*
X959196Y475124D02*
X956092Y475124D01*
X959196Y480971D02*
X959196Y483975D01*
X959196Y480971D02*
X956092Y480971D01*
X956092Y483975D01*
X959196Y483975D01*
X959196Y483124D02*
X956092Y483124D01*
D27*
X981092Y459307D02*
X982074Y459307D01*
X981092Y459307D02*
X981092Y464289D01*
X982074Y464289D01*
X982074Y459307D01*
X982074Y461482D02*
X981092Y461482D01*
X981092Y463657D02*
X982074Y463657D01*
X985092Y459307D02*
X986074Y459307D01*
X985092Y459307D02*
X985092Y464289D01*
X986074Y464289D01*
X986074Y459307D01*
X986074Y461482D02*
X985092Y461482D01*
X985092Y463657D02*
X986074Y463657D01*
X978074Y459307D02*
X977092Y459307D01*
X977092Y464289D01*
X978074Y464289D01*
X978074Y459307D01*
X978074Y461482D02*
X977092Y461482D01*
X977092Y463657D02*
X978074Y463657D01*
X981092Y449807D02*
X982074Y449807D01*
X981092Y449807D02*
X981092Y454789D01*
X982074Y454789D01*
X982074Y449807D01*
X982074Y451982D02*
X981092Y451982D01*
X981092Y454157D02*
X982074Y454157D01*
X985092Y449807D02*
X986074Y449807D01*
X985092Y449807D02*
X985092Y454789D01*
X986074Y454789D01*
X986074Y449807D01*
X986074Y451982D02*
X985092Y451982D01*
X985092Y454157D02*
X986074Y454157D01*
X978074Y449807D02*
X977092Y449807D01*
X977092Y454789D01*
X978074Y454789D01*
X978074Y449807D01*
X978074Y451982D02*
X977092Y451982D01*
X977092Y454157D02*
X978074Y454157D01*
D28*
X942974Y522126D02*
X927948Y522126D01*
X942974Y522126D02*
X942974Y505100D01*
X927948Y505100D01*
X927948Y522126D01*
X927948Y507233D02*
X942974Y507233D01*
X942974Y509366D02*
X927948Y509366D01*
X927948Y511499D02*
X942974Y511499D01*
X942974Y513632D02*
X927948Y513632D01*
X927948Y515765D02*
X942974Y515765D01*
X942974Y517898D02*
X927948Y517898D01*
X927948Y520031D02*
X942974Y520031D01*
X914974Y522126D02*
X899948Y522126D01*
X914974Y522126D02*
X914974Y505100D01*
X899948Y505100D01*
X899948Y522126D01*
X899948Y507233D02*
X914974Y507233D01*
X914974Y509366D02*
X899948Y509366D01*
X899948Y511499D02*
X914974Y511499D01*
X914974Y513632D02*
X899948Y513632D01*
X899948Y515765D02*
X914974Y515765D01*
X914974Y517898D02*
X899948Y517898D01*
X899948Y520031D02*
X914974Y520031D01*
D10*
X939888Y482461D02*
X939888Y472445D01*
X930872Y472445D01*
X930872Y482461D01*
X939888Y482461D01*
X939888Y474586D02*
X930872Y474586D01*
X930872Y476727D02*
X939888Y476727D01*
X939888Y478868D02*
X930872Y478868D01*
X930872Y481009D02*
X939888Y481009D01*
X939888Y489445D02*
X939888Y499461D01*
X939888Y489445D02*
X930872Y489445D01*
X930872Y499461D01*
X939888Y499461D01*
X939888Y491586D02*
X930872Y491586D01*
X930872Y493727D02*
X939888Y493727D01*
X939888Y495868D02*
X930872Y495868D01*
X930872Y498009D02*
X939888Y498009D01*
D16*
X995462Y515703D02*
X1000478Y515703D01*
X995462Y515703D02*
X995462Y520719D01*
X1000478Y520719D01*
X1000478Y515703D01*
X1000478Y517844D02*
X995462Y517844D01*
X995462Y519985D02*
X1000478Y519985D01*
X1005462Y515703D02*
X1010478Y515703D01*
X1005462Y515703D02*
X1005462Y520719D01*
X1010478Y520719D01*
X1010478Y515703D01*
X1010478Y517844D02*
X1005462Y517844D01*
X1005462Y519985D02*
X1010478Y519985D01*
D10*
X957880Y466813D02*
X947864Y466813D01*
X957880Y466813D02*
X957880Y457797D01*
X947864Y457797D01*
X947864Y466813D01*
X947864Y459938D02*
X957880Y459938D01*
X957880Y462079D02*
X947864Y462079D01*
X947864Y464220D02*
X957880Y464220D01*
X957880Y466361D02*
X947864Y466361D01*
X940880Y466813D02*
X930864Y466813D01*
X940880Y466813D02*
X940880Y457797D01*
X930864Y457797D01*
X930864Y466813D01*
X930864Y459938D02*
X940880Y459938D01*
X940880Y462079D02*
X930864Y462079D01*
X930864Y464220D02*
X940880Y464220D01*
X940880Y466361D02*
X930864Y466361D01*
X859861Y347408D02*
X849845Y347408D01*
X859861Y347408D02*
X859861Y338392D01*
X849845Y338392D01*
X849845Y347408D01*
X849845Y340533D02*
X859861Y340533D01*
X859861Y342674D02*
X849845Y342674D01*
X849845Y344815D02*
X859861Y344815D01*
X859861Y346956D02*
X849845Y346956D01*
X842861Y347408D02*
X832845Y347408D01*
X842861Y347408D02*
X842861Y338392D01*
X832845Y338392D01*
X832845Y347408D01*
X832845Y340533D02*
X842861Y340533D01*
X842861Y342674D02*
X832845Y342674D01*
X832845Y344815D02*
X842861Y344815D01*
X842861Y346956D02*
X832845Y346956D01*
D16*
X894565Y311118D02*
X899581Y311118D01*
X899581Y306102D01*
X894565Y306102D01*
X894565Y311118D01*
X894565Y308243D02*
X899581Y308243D01*
X899581Y310384D02*
X894565Y310384D01*
X889581Y311118D02*
X884565Y311118D01*
X889581Y311118D02*
X889581Y306102D01*
X884565Y306102D01*
X884565Y311118D01*
X884565Y308243D02*
X889581Y308243D01*
X889581Y310384D02*
X884565Y310384D01*
D29*
X-26238Y663981D03*
X1176401Y663981D03*
D30*
X-35293Y63500D02*
X-35290Y63722D01*
X-35282Y63944D01*
X-35268Y64166D01*
X-35249Y64388D01*
X-35225Y64608D01*
X-35195Y64829D01*
X-35160Y65048D01*
X-35119Y65267D01*
X-35073Y65484D01*
X-35022Y65700D01*
X-34965Y65915D01*
X-34903Y66129D01*
X-34836Y66340D01*
X-34764Y66551D01*
X-34686Y66759D01*
X-34604Y66965D01*
X-34516Y67169D01*
X-34424Y67372D01*
X-34326Y67571D01*
X-34224Y67768D01*
X-34117Y67963D01*
X-34005Y68155D01*
X-33888Y68344D01*
X-33767Y68531D01*
X-33641Y68714D01*
X-33511Y68894D01*
X-33376Y69071D01*
X-33238Y69244D01*
X-33095Y69414D01*
X-32947Y69581D01*
X-32796Y69744D01*
X-32641Y69903D01*
X-32482Y70058D01*
X-32319Y70209D01*
X-32152Y70357D01*
X-31982Y70500D01*
X-31809Y70638D01*
X-31632Y70773D01*
X-31452Y70903D01*
X-31269Y71029D01*
X-31082Y71150D01*
X-30893Y71267D01*
X-30701Y71379D01*
X-30506Y71486D01*
X-30309Y71588D01*
X-30110Y71686D01*
X-29907Y71778D01*
X-29703Y71866D01*
X-29497Y71948D01*
X-29289Y72026D01*
X-29078Y72098D01*
X-28867Y72165D01*
X-28653Y72227D01*
X-28438Y72284D01*
X-28222Y72335D01*
X-28005Y72381D01*
X-27786Y72422D01*
X-27567Y72457D01*
X-27346Y72487D01*
X-27126Y72511D01*
X-26904Y72530D01*
X-26682Y72544D01*
X-26460Y72552D01*
X-26238Y72555D01*
X-26016Y72552D01*
X-25794Y72544D01*
X-25572Y72530D01*
X-25350Y72511D01*
X-25130Y72487D01*
X-24909Y72457D01*
X-24690Y72422D01*
X-24471Y72381D01*
X-24254Y72335D01*
X-24038Y72284D01*
X-23823Y72227D01*
X-23609Y72165D01*
X-23398Y72098D01*
X-23187Y72026D01*
X-22979Y71948D01*
X-22773Y71866D01*
X-22569Y71778D01*
X-22366Y71686D01*
X-22167Y71588D01*
X-21970Y71486D01*
X-21775Y71379D01*
X-21583Y71267D01*
X-21394Y71150D01*
X-21207Y71029D01*
X-21024Y70903D01*
X-20844Y70773D01*
X-20667Y70638D01*
X-20494Y70500D01*
X-20324Y70357D01*
X-20157Y70209D01*
X-19994Y70058D01*
X-19835Y69903D01*
X-19680Y69744D01*
X-19529Y69581D01*
X-19381Y69414D01*
X-19238Y69244D01*
X-19100Y69071D01*
X-18965Y68894D01*
X-18835Y68714D01*
X-18709Y68531D01*
X-18588Y68344D01*
X-18471Y68155D01*
X-18359Y67963D01*
X-18252Y67768D01*
X-18150Y67571D01*
X-18052Y67372D01*
X-17960Y67169D01*
X-17872Y66965D01*
X-17790Y66759D01*
X-17712Y66551D01*
X-17640Y66340D01*
X-17573Y66129D01*
X-17511Y65915D01*
X-17454Y65700D01*
X-17403Y65484D01*
X-17357Y65267D01*
X-17316Y65048D01*
X-17281Y64829D01*
X-17251Y64608D01*
X-17227Y64388D01*
X-17208Y64166D01*
X-17194Y63944D01*
X-17186Y63722D01*
X-17183Y63500D01*
X-17186Y63278D01*
X-17194Y63056D01*
X-17208Y62834D01*
X-17227Y62612D01*
X-17251Y62392D01*
X-17281Y62171D01*
X-17316Y61952D01*
X-17357Y61733D01*
X-17403Y61516D01*
X-17454Y61300D01*
X-17511Y61085D01*
X-17573Y60871D01*
X-17640Y60660D01*
X-17712Y60449D01*
X-17790Y60241D01*
X-17872Y60035D01*
X-17960Y59831D01*
X-18052Y59628D01*
X-18150Y59429D01*
X-18252Y59232D01*
X-18359Y59037D01*
X-18471Y58845D01*
X-18588Y58656D01*
X-18709Y58469D01*
X-18835Y58286D01*
X-18965Y58106D01*
X-19100Y57929D01*
X-19238Y57756D01*
X-19381Y57586D01*
X-19529Y57419D01*
X-19680Y57256D01*
X-19835Y57097D01*
X-19994Y56942D01*
X-20157Y56791D01*
X-20324Y56643D01*
X-20494Y56500D01*
X-20667Y56362D01*
X-20844Y56227D01*
X-21024Y56097D01*
X-21207Y55971D01*
X-21394Y55850D01*
X-21583Y55733D01*
X-21775Y55621D01*
X-21970Y55514D01*
X-22167Y55412D01*
X-22366Y55314D01*
X-22569Y55222D01*
X-22773Y55134D01*
X-22979Y55052D01*
X-23187Y54974D01*
X-23398Y54902D01*
X-23609Y54835D01*
X-23823Y54773D01*
X-24038Y54716D01*
X-24254Y54665D01*
X-24471Y54619D01*
X-24690Y54578D01*
X-24909Y54543D01*
X-25130Y54513D01*
X-25350Y54489D01*
X-25572Y54470D01*
X-25794Y54456D01*
X-26016Y54448D01*
X-26238Y54445D01*
X-26460Y54448D01*
X-26682Y54456D01*
X-26904Y54470D01*
X-27126Y54489D01*
X-27346Y54513D01*
X-27567Y54543D01*
X-27786Y54578D01*
X-28005Y54619D01*
X-28222Y54665D01*
X-28438Y54716D01*
X-28653Y54773D01*
X-28867Y54835D01*
X-29078Y54902D01*
X-29289Y54974D01*
X-29497Y55052D01*
X-29703Y55134D01*
X-29907Y55222D01*
X-30110Y55314D01*
X-30309Y55412D01*
X-30506Y55514D01*
X-30701Y55621D01*
X-30893Y55733D01*
X-31082Y55850D01*
X-31269Y55971D01*
X-31452Y56097D01*
X-31632Y56227D01*
X-31809Y56362D01*
X-31982Y56500D01*
X-32152Y56643D01*
X-32319Y56791D01*
X-32482Y56942D01*
X-32641Y57097D01*
X-32796Y57256D01*
X-32947Y57419D01*
X-33095Y57586D01*
X-33238Y57756D01*
X-33376Y57929D01*
X-33511Y58106D01*
X-33641Y58286D01*
X-33767Y58469D01*
X-33888Y58656D01*
X-34005Y58845D01*
X-34117Y59037D01*
X-34224Y59232D01*
X-34326Y59429D01*
X-34424Y59628D01*
X-34516Y59831D01*
X-34604Y60035D01*
X-34686Y60241D01*
X-34764Y60449D01*
X-34836Y60660D01*
X-34903Y60871D01*
X-34965Y61085D01*
X-35022Y61300D01*
X-35073Y61516D01*
X-35119Y61733D01*
X-35160Y61952D01*
X-35195Y62171D01*
X-35225Y62392D01*
X-35249Y62612D01*
X-35268Y62834D01*
X-35282Y63056D01*
X-35290Y63278D01*
X-35293Y63500D01*
D31*
X-26238Y63500D03*
M02*
